<svg width="100" height="100" viewBox="0 0 100 100" fill="none" xmlns="http://www.w3.org/2000/svg">
<path d="M2.5 5C2.5 3.61929 3.61929 2.5 5 2.5H95C96.3807 2.5 97.5 3.61929 97.5 5V69.7591C97.5 70.674 97.0003 71.5158 96.1971 71.9538L51.1971 96.4993C50.4509 96.9063 49.5491 96.9063 48.8029 96.4993L3.80287 71.9538C2.99972 71.5158 2.5 70.674 2.5 69.7591V5Z" fill="white" stroke="#00749A" stroke-width="5" stroke-linejoin="round"/>
<path d="M32.2258 67.135H33.3038L34.0878 70.88L35.0328 67.135H36.0338L36.9788 70.873L37.7768 67.135H38.6028L37.5598 72H36.2648L35.4038 68.57L34.5288 72H33.2758L32.2258 67.135ZM40.6404 72.07C40.379 72.07 40.134 72.0303 39.9054 71.951C39.6767 71.867 39.4784 71.748 39.3104 71.594C39.1424 71.4353 39.0094 71.2417 38.9114 71.013C38.8134 70.7843 38.7644 70.5207 38.7644 70.222C38.7644 69.9233 38.8134 69.6597 38.9114 69.431C39.0094 69.2023 39.1424 69.011 39.3104 68.857C39.4784 68.6983 39.6767 68.5793 39.9054 68.5C40.134 68.4207 40.379 68.381 40.6404 68.381C40.9017 68.381 41.1467 68.4207 41.3754 68.5C41.6087 68.5793 41.8094 68.6983 41.9774 68.857C42.15 69.011 42.2854 69.2023 42.3834 69.431C42.4814 69.6597 42.5304 69.9233 42.5304 70.222C42.5304 70.5207 42.4814 70.7843 42.3834 71.013C42.2854 71.2417 42.15 71.4353 41.9774 71.594C41.8094 71.748 41.611 71.867 41.3824 71.951C41.1537 72.0303 40.9064 72.07 40.6404 72.07ZM40.6404 71.405C40.883 71.405 41.0837 71.3163 41.2424 71.139C41.4057 70.957 41.4874 70.6513 41.4874 70.222C41.4874 69.7973 41.4057 69.4963 41.2424 69.319C41.0837 69.137 40.883 69.046 40.6404 69.046C40.519 69.046 40.407 69.067 40.3044 69.109C40.2064 69.151 40.12 69.2187 40.0454 69.312C39.9707 69.4053 39.9124 69.5267 39.8704 69.676C39.8284 69.8253 39.8074 70.0073 39.8074 70.222C39.8074 70.4367 39.8284 70.6187 39.8704 70.768C39.9124 70.9173 39.9707 71.041 40.0454 71.139C40.12 71.2323 40.2064 71.3 40.3044 71.342C40.407 71.384 40.519 71.405 40.6404 71.405ZM45.4375 69.375C45.3348 69.361 45.2252 69.3587 45.1085 69.368C44.9965 69.3773 44.8845 69.4007 44.7725 69.438C44.6652 69.4707 44.5648 69.5173 44.4715 69.578C44.3782 69.6387 44.3012 69.7133 44.2405 69.802V72H43.2185V68.451H44.1355L44.2125 69.179H44.2335C44.3642 68.927 44.5298 68.7357 44.7305 68.605C44.9358 68.4743 45.1715 68.3997 45.4375 68.381V69.375ZM47.7633 71.405C47.9966 71.405 48.1926 71.3093 48.3513 71.118C48.5146 70.922 48.5963 70.6233 48.5963 70.222C48.5963 69.8253 48.5169 69.5313 48.3583 69.34C48.1996 69.144 48.0013 69.046 47.7633 69.046C47.5206 69.046 47.3223 69.144 47.1683 69.34C47.0143 69.5313 46.9373 69.8253 46.9373 70.222C46.9373 70.6187 47.0143 70.915 47.1683 71.111C47.3223 71.307 47.5206 71.405 47.7633 71.405ZM48.6383 71.363C48.5309 71.573 48.3816 71.7433 48.1903 71.874C47.9989 72.0047 47.7563 72.07 47.4623 72.07C47.2523 72.07 47.0516 72.0327 46.8603 71.958C46.6689 71.8833 46.5009 71.769 46.3563 71.615C46.2163 71.461 46.1043 71.2697 46.0203 71.041C45.9363 70.8077 45.8943 70.5347 45.8943 70.222C45.8943 69.9093 45.9363 69.6387 46.0203 69.41C46.1043 69.1767 46.2163 68.9853 46.3563 68.836C46.5009 68.682 46.6689 68.5677 46.8603 68.493C47.0516 68.4183 47.2546 68.381 47.4693 68.381C47.7213 68.381 47.9406 68.4323 48.1273 68.535C48.3139 68.633 48.4679 68.773 48.5893 68.955V66.925H49.6113V72H48.7153L48.6383 71.363ZM52.3264 71.405C52.5644 71.405 52.7581 71.3117 52.9074 71.125C53.0614 70.9337 53.1384 70.6327 53.1384 70.222C53.1384 69.8207 53.0614 69.5243 52.9074 69.333C52.7534 69.1417 52.5598 69.046 52.3264 69.046C52.0884 69.046 51.8878 69.1417 51.7244 69.333C51.5658 69.5197 51.4864 69.816 51.4864 70.222C51.4864 70.4273 51.5074 70.6047 51.5494 70.754C51.5914 70.9033 51.6498 71.027 51.7244 71.125C51.8038 71.2183 51.8924 71.2883 51.9904 71.335C52.0931 71.3817 52.2051 71.405 52.3264 71.405ZM52.6204 72.07C52.3591 72.07 52.1351 72.0163 51.9484 71.909C51.7664 71.797 51.6148 71.6453 51.4934 71.454V73.267H50.4714V68.451H51.3884L51.4654 69.039C51.5821 68.8337 51.7361 68.6727 51.9274 68.556C52.1234 68.4393 52.3591 68.381 52.6344 68.381C52.8398 68.381 53.0358 68.4183 53.2224 68.493C53.4091 68.5677 53.5724 68.682 53.7124 68.836C53.8571 68.9853 53.9714 69.1767 54.0554 69.41C54.1394 69.6387 54.1814 69.9093 54.1814 70.222C54.1814 70.5347 54.1394 70.8077 54.0554 71.041C53.9714 71.2697 53.8571 71.461 53.7124 71.615C53.5678 71.769 53.4021 71.8833 53.2154 71.958C53.0288 72.0327 52.8304 72.07 52.6204 72.07ZM57.0859 69.375C56.9833 69.361 56.8736 69.3587 56.7569 69.368C56.6449 69.3773 56.5329 69.4007 56.4209 69.438C56.3136 69.4707 56.2133 69.5173 56.1199 69.578C56.0266 69.6387 55.9496 69.7133 55.8889 69.802V72H54.8669V68.451H55.7839L55.8609 69.179H55.8819C56.0126 68.927 56.1783 68.7357 56.3789 68.605C56.5843 68.4743 56.8199 68.3997 57.0859 68.381V69.375ZM59.2515 68.983C59.0602 68.983 58.9015 69.0577 58.7755 69.207C58.6542 69.3517 58.5748 69.5663 58.5375 69.851H59.8535C59.8628 69.5523 59.8115 69.333 59.6995 69.193C59.5922 69.053 59.4428 68.983 59.2515 68.983ZM60.7425 71.713C60.6352 71.7923 60.4718 71.8717 60.2525 71.951C60.0332 72.0303 59.7648 72.07 59.4475 72.07C59.1255 72.07 58.8432 72.028 58.6005 71.944C58.3578 71.8553 58.1548 71.7317 57.9915 71.573C57.8328 71.4097 57.7115 71.2137 57.6275 70.985C57.5482 70.7563 57.5085 70.502 57.5085 70.222C57.5085 69.9373 57.5505 69.683 57.6345 69.459C57.7185 69.2303 57.8375 69.0367 57.9915 68.878C58.1455 68.7193 58.3275 68.598 58.5375 68.514C58.7522 68.4253 58.9902 68.381 59.2515 68.381C59.5128 68.381 59.7485 68.423 59.9585 68.507C60.1685 68.591 60.3412 68.717 60.4765 68.885C60.6165 69.053 60.7122 69.263 60.7635 69.515C60.8195 69.767 60.8195 70.0587 60.7635 70.39H58.5235C58.5562 70.726 58.6588 70.9757 58.8315 71.139C59.0088 71.2977 59.2515 71.377 59.5595 71.377C59.7555 71.377 59.9352 71.349 60.0985 71.293C60.2665 71.237 60.4158 71.1693 60.5465 71.09L60.7425 71.713ZM62.695 72.07C62.359 72.07 62.079 72.0373 61.855 71.972C61.631 71.902 61.456 71.818 61.33 71.72L61.491 71.055C61.6123 71.153 61.7756 71.237 61.981 71.307C62.1863 71.377 62.422 71.412 62.688 71.412C63.1313 71.412 63.353 71.2767 63.353 71.006C63.353 70.9173 63.3296 70.8497 63.283 70.803C63.241 70.7517 63.1803 70.712 63.101 70.684C63.0263 70.6513 62.9376 70.628 62.835 70.614C62.737 70.6 62.632 70.5837 62.52 70.565C62.38 70.5417 62.2423 70.5113 62.107 70.474C61.9716 70.432 61.8503 70.3737 61.743 70.299C61.6356 70.2243 61.547 70.1263 61.477 70.005C61.4116 69.879 61.379 69.718 61.379 69.522C61.379 69.144 61.5073 68.8593 61.764 68.668C62.0253 68.4767 62.4056 68.381 62.905 68.381C63.2036 68.381 63.4463 68.4113 63.633 68.472C63.8243 68.528 63.9643 68.5817 64.053 68.633L63.864 69.277C63.7846 69.221 63.661 69.165 63.493 69.109C63.325 69.0483 63.136 69.018 62.926 69.018C62.73 69.018 62.569 69.046 62.443 69.102C62.317 69.158 62.254 69.2537 62.254 69.389C62.254 69.4683 62.2726 69.5313 62.31 69.578C62.352 69.62 62.4056 69.655 62.471 69.683C62.541 69.7063 62.618 69.725 62.702 69.739C62.7906 69.7483 62.884 69.76 62.982 69.774C63.1266 69.7973 63.276 69.8277 63.43 69.865C63.584 69.9023 63.724 69.9607 63.85 70.04C63.9806 70.1193 64.0856 70.2267 64.165 70.362C64.249 70.4973 64.291 70.6747 64.291 70.894C64.291 71.1227 64.2466 71.3117 64.158 71.461C64.0693 71.6103 63.9503 71.7317 63.801 71.825C63.6563 71.9137 63.486 71.9767 63.29 72.014C63.0986 72.0513 62.9003 72.07 62.695 72.07ZM66.0719 72.07C65.7359 72.07 65.4559 72.0373 65.2319 71.972C65.0079 71.902 64.8329 71.818 64.7069 71.72L64.8679 71.055C64.9893 71.153 65.1526 71.237 65.3579 71.307C65.5633 71.377 65.7989 71.412 66.0649 71.412C66.5083 71.412 66.7299 71.2767 66.7299 71.006C66.7299 70.9173 66.7066 70.8497 66.6599 70.803C66.6179 70.7517 66.5573 70.712 66.4779 70.684C66.4033 70.6513 66.3146 70.628 66.2119 70.614C66.1139 70.6 66.0089 70.5837 65.8969 70.565C65.7569 70.5417 65.6193 70.5113 65.4839 70.474C65.3486 70.432 65.2273 70.3737 65.1199 70.299C65.0126 70.2243 64.9239 70.1263 64.8539 70.005C64.7886 69.879 64.7559 69.718 64.7559 69.522C64.7559 69.144 64.8843 68.8593 65.1409 68.668C65.4023 68.4767 65.7826 68.381 66.2819 68.381C66.5806 68.381 66.8233 68.4113 67.0099 68.472C67.2013 68.528 67.3413 68.5817 67.4299 68.633L67.2409 69.277C67.1616 69.221 67.0379 69.165 66.8699 69.109C66.7019 69.0483 66.5129 69.018 66.3029 69.018C66.1069 69.018 65.9459 69.046 65.8199 69.102C65.6939 69.158 65.6309 69.2537 65.6309 69.389C65.6309 69.4683 65.6496 69.5313 65.6869 69.578C65.7289 69.62 65.7826 69.655 65.8479 69.683C65.9179 69.7063 65.9949 69.725 66.0789 69.739C66.1676 69.7483 66.2609 69.76 66.3589 69.774C66.5036 69.7973 66.6529 69.8277 66.8069 69.865C66.9609 69.9023 67.1009 69.9607 67.2269 70.04C67.3576 70.1193 67.4626 70.2267 67.5419 70.362C67.6259 70.4973 67.6679 70.6747 67.6679 70.894C67.6679 71.1227 67.6236 71.3117 67.5349 71.461C67.4463 71.6103 67.3273 71.7317 67.1779 71.825C67.0333 71.9137 66.8629 71.9767 66.6669 72.014C66.4756 72.0513 66.2773 72.07 66.0719 72.07Z" fill="black"/>
<g clip-path="url(#clip0)">
<path d="M32.8442 39.9993C32.8442 46.7908 36.7909 52.6594 42.5139 55.4409L34.3297 33.0167C33.3486 35.2137 32.8424 37.5931 32.8442 39.9993ZM61.584 39.1335C61.584 37.013 60.8223 35.5446 60.1691 34.4016C59.2994 32.9883 58.4845 31.7915 58.4845 30.3782C58.4845 28.801 59.6803 27.3329 61.3653 27.3329C61.4413 27.3329 61.5135 27.3424 61.5879 27.3466C58.5351 24.5501 54.4683 22.8426 50.0015 22.8426C44.0075 22.8426 38.7341 25.918 35.6662 30.576C36.0688 30.5881 36.4485 30.5963 36.7704 30.5963C38.565 30.5963 41.3429 30.3785 41.3429 30.3785C42.2678 30.324 42.3768 31.6824 41.4532 31.7918C41.4532 31.7918 40.5235 31.9012 39.4892 31.9554L45.7372 50.5396L49.4922 39.2787L46.8188 31.955C45.8949 31.9009 45.0196 31.7915 45.0196 31.7915C44.095 31.7373 44.2034 30.3237 45.128 30.3782C45.128 30.3782 47.9614 30.596 49.6473 30.596C51.4416 30.596 54.2198 30.3782 54.2198 30.3782C55.1454 30.3237 55.2541 31.6821 54.3298 31.7915C54.3298 31.7915 53.3984 31.9009 52.3661 31.955L58.5664 50.3986L60.2775 44.6798C61.0195 42.3067 61.584 40.6022 61.584 39.1335Z" fill="#00749A"/>
<path d="M50.3013 41.5002L45.1536 56.4584C46.7274 56.9222 48.3596 57.1577 50.0003 57.1577C51.9983 57.1577 53.9144 56.812 55.6979 56.1852C55.6501 56.1103 55.6092 56.0312 55.5758 55.9488L50.3013 41.5002ZM65.0552 31.7679C65.129 32.3144 65.1708 32.9014 65.1708 33.5321C65.1708 35.2732 64.8456 37.2304 63.8662 39.6776L58.6254 54.83C63.7261 51.8555 67.157 46.3294 67.157 39.9995C67.1616 37.1223 66.4386 34.2907 65.0552 31.7679Z" fill="#00749A"/>
<path d="M50.0007 20C38.9728 20 30.0005 28.9717 30.0005 39.9995C30.0005 51.0286 38.9725 60.0003 50.0007 60.0003C61.0281 60.0003 70.0018 51.0289 70.0018 39.9995C70.0015 28.9717 61.0281 20 50.0007 20ZM50.0007 59.0832C39.4785 59.0832 30.9175 50.5222 30.9175 39.9995C30.9175 29.4777 39.4782 20.9173 50.0007 20.9173C60.5224 20.9173 69.0828 29.4777 69.0828 39.9995C69.0828 50.5222 60.5221 59.0832 50.0007 59.0832Z" fill="#00749A"/>
</g>
<defs>
<clipPath id="clip0">
<rect x="30" y="20" width="40" height="40" fill="white"/>
</clipPath>
</defs>
</svg>
