<svg width="100" height="100" viewBox="0 0 100 100" fill="none" xmlns="http://www.w3.org/2000/svg">
<path d="M2.5 5C2.5 3.61929 3.61929 2.5 5 2.5H95C96.3807 2.5 97.5 3.61929 97.5 5V69.7591C97.5 70.674 97.0003 71.5158 96.1971 71.9538L51.1971 96.4993C50.4509 96.9063 49.5491 96.9063 48.8029 96.4993L3.80287 71.9538C2.99972 71.5158 2.5 70.674 2.5 69.7591V5Z" fill="white" stroke="#5CE500" stroke-width="5" stroke-linejoin="round"/>
<path d="M65 33.3849V49.8809C64.9895 50.0805 64.9333 50.2747 64.8362 50.4478C64.7391 50.6209 64.6036 50.768 64.441 50.8771L63.9165 51.2005L59.9215 53.5779L57.2236 55.1951L56.6646 55.5186V37.6771L41.6677 28.7499L48.7908 24.5224L49.4472 24.1375C49.6205 24.0471 49.812 24 50.0063 24C50.2005 24 50.392 24.0471 50.5653 24.1375L60.4397 30.0113L64.9969 32.7218V33.3849H65ZM53.3291 39.6566L50.2544 37.8259L43.059 33.5466C42.8853 33.4577 42.694 33.4115 42.5 33.4115C42.306 33.4115 42.1147 33.4577 41.941 33.5466L35.5559 37.3439L35 37.6771L45.8323 44.117V57L52.2079 53.2059L52.7701 52.8825C52.9326 52.7732 53.0679 52.6261 53.165 52.453C53.2621 52.28 53.3184 52.0858 53.3291 51.8863V39.6566ZM35 50.5601L42.4937 55.0173V46.0965L35 50.5601Z" fill="#5CE500"/>
<path d="M39.6546 69.8982V72H38.52V66.9454H41.72V67.6654H39.6546V69.1782H41.3637V69.8982H39.6546Z" fill="black"/>
<path d="M42.9277 67.8909C42.7532 67.8909 42.6053 67.84 42.4841 67.7382C42.3677 67.6364 42.3096 67.5006 42.3096 67.3309C42.3096 67.1612 42.3677 67.0254 42.4841 66.9236C42.6053 66.817 42.7532 66.7636 42.9277 66.7636C43.0974 66.7636 43.2429 66.817 43.3641 66.9236C43.4853 67.0254 43.5459 67.1612 43.5459 67.3309C43.5459 67.5006 43.4853 67.6364 43.3641 67.7382C43.2429 67.84 43.0974 67.8909 42.9277 67.8909ZM43.4587 68.3127V72H42.3968V68.3127H43.4587Z" fill="black"/>
<path d="M46.1101 71.3818C46.3526 71.3818 46.5562 71.2824 46.721 71.0836C46.8907 70.88 46.9756 70.5697 46.9756 70.1527C46.9756 69.7406 46.8932 69.4351 46.7283 69.2364C46.5635 69.0327 46.3574 68.9309 46.1101 68.9309C45.858 68.9309 45.652 69.0327 45.492 69.2364C45.332 69.4351 45.252 69.7406 45.252 70.1527C45.252 70.5648 45.332 70.8727 45.492 71.0764C45.652 71.28 45.858 71.3818 46.1101 71.3818ZM47.0192 71.3382C46.9077 71.5564 46.7526 71.7333 46.5538 71.8691C46.355 72.0048 46.1029 72.0727 45.7974 72.0727C45.5792 72.0727 45.3707 72.0339 45.172 71.9564C44.9732 71.8788 44.7986 71.76 44.6483 71.6C44.5029 71.44 44.3865 71.2412 44.2992 71.0036C44.212 70.7612 44.1683 70.4776 44.1683 70.1527C44.1683 69.8279 44.212 69.5467 44.2992 69.3091C44.3865 69.0667 44.5029 68.8679 44.6483 68.7127C44.7986 68.5527 44.9732 68.4339 45.172 68.3564C45.3707 68.2788 45.5816 68.24 45.8047 68.24C46.0665 68.24 46.2944 68.2933 46.4883 68.4C46.6823 68.5018 46.8423 68.6473 46.9683 68.8364V66.7273H48.0301V72H47.0992L47.0192 71.3382Z" fill="black"/>
<path d="M50.6911 71.3818C50.9335 71.3818 51.1372 71.2824 51.302 71.0836C51.4717 70.88 51.5566 70.5697 51.5566 70.1527C51.5566 69.7406 51.4741 69.4351 51.3093 69.2364C51.1444 69.0327 50.9384 68.9309 50.6911 68.9309C50.439 68.9309 50.2329 69.0327 50.0729 69.2364C49.9129 69.4351 49.8329 69.7406 49.8329 70.1527C49.8329 70.5648 49.9129 70.8727 50.0729 71.0764C50.2329 71.28 50.439 71.3818 50.6911 71.3818ZM51.6002 71.3382C51.4887 71.5564 51.3335 71.7333 51.1347 71.8691C50.9359 72.0048 50.6838 72.0727 50.3784 72.0727C50.1602 72.0727 49.9517 72.0339 49.7529 71.9564C49.5541 71.8788 49.3796 71.76 49.2293 71.6C49.0838 71.44 48.9675 71.2412 48.8802 71.0036C48.7929 70.7612 48.7493 70.4776 48.7493 70.1527C48.7493 69.8279 48.7929 69.5467 48.8802 69.3091C48.9675 69.0667 49.0838 68.8679 49.2293 68.7127C49.3796 68.5527 49.5541 68.4339 49.7529 68.3564C49.9517 68.2788 50.1626 68.24 50.3856 68.24C50.6475 68.24 50.8753 68.2933 51.0693 68.4C51.2632 68.5018 51.4232 68.6473 51.5493 68.8364V66.7273H52.6111V72H51.6802L51.6002 71.3382Z" fill="black"/>
<path d="M54.5666 66.7273V72H53.5048V66.7273H54.5666Z" fill="black"/>
<path d="M57.0943 68.8654C56.8955 68.8654 56.7306 68.943 56.5997 69.0982C56.4737 69.2485 56.3913 69.4715 56.3525 69.7673H57.7197C57.7294 69.457 57.6761 69.2291 57.5597 69.0836C57.4482 68.9382 57.2931 68.8654 57.0943 68.8654ZM58.6434 71.7018C58.5319 71.7842 58.3622 71.8667 58.1343 71.9491C57.9064 72.0315 57.6276 72.0727 57.2979 72.0727C56.9634 72.0727 56.67 72.0291 56.4179 71.9418C56.1658 71.8497 55.9549 71.7212 55.7852 71.5564C55.6203 71.3867 55.4943 71.183 55.407 70.9454C55.3246 70.7079 55.2834 70.4436 55.2834 70.1527C55.2834 69.857 55.327 69.5927 55.4143 69.36C55.5016 69.1224 55.6252 68.9212 55.7852 68.7564C55.9452 68.5915 56.1343 68.4654 56.3525 68.3782C56.5755 68.2861 56.8228 68.24 57.0943 68.24C57.3658 68.24 57.6106 68.2836 57.8288 68.3709C58.047 68.4582 58.2264 68.5891 58.367 68.7636C58.5125 68.9382 58.6119 69.1564 58.6652 69.4182C58.7234 69.68 58.7234 69.983 58.6652 70.3273H56.3379C56.3719 70.6764 56.4785 70.9357 56.6579 71.1054C56.8422 71.2703 57.0943 71.3527 57.4143 71.3527C57.6179 71.3527 57.8046 71.3236 57.9743 71.2654C58.1488 71.2073 58.304 71.137 58.4397 71.0545L58.6434 71.7018Z" fill="black"/>
<path d="M61.7264 69.2727C61.6198 69.2582 61.5058 69.2557 61.3846 69.2654C61.2683 69.2751 61.1519 69.2994 61.0355 69.3382C60.924 69.3721 60.8198 69.4206 60.7228 69.4836C60.6258 69.5467 60.5458 69.6242 60.4828 69.7164V72H59.421V68.3127H60.3737L60.4537 69.0691H60.4755C60.6113 68.8073 60.7834 68.6085 60.9919 68.4727C61.2052 68.337 61.4501 68.2594 61.7264 68.24V69.2727Z" fill="black"/>
</svg>
