<svg width="100" height="100" viewBox="0 0 100 100" fill="none" xmlns="http://www.w3.org/2000/svg">
<path d="M2.5 5C2.5 3.61929 3.61929 2.5 5 2.5H95C96.3807 2.5 97.5 3.61929 97.5 5V69.7591C97.5 70.674 97.0003 71.5158 96.1971 71.9538L51.1971 96.4993C50.4509 96.9063 49.5491 96.9063 48.8029 96.4993L3.80287 71.9538C2.99972 71.5158 2.5 70.674 2.5 69.7591V5Z" fill="white" stroke="#A4C639" stroke-width="5" stroke-linejoin="round"/>
<path d="M38.8814 68.059L38.1954 70.187H39.5534L38.8814 68.059ZM39.7774 70.873H37.9784L37.6144 72H36.7814L38.3844 67.135H39.6234L41.2194 72H40.1344L39.7774 70.873ZM43.5725 69.109C43.3672 69.109 43.1992 69.1533 43.0685 69.242C42.9425 69.3307 42.8399 69.4427 42.7605 69.578V72H41.7385V68.451H42.6765L42.7325 68.962H42.7465C42.8539 68.7987 43.0055 68.661 43.2015 68.549C43.4022 68.437 43.6495 68.381 43.9435 68.381C44.3075 68.381 44.5992 68.4767 44.8185 68.668C45.0379 68.8547 45.1475 69.1463 45.1475 69.543V72H44.1255V69.627C44.1255 69.431 44.0742 69.2957 43.9715 69.221C43.8735 69.1463 43.7405 69.109 43.5725 69.109ZM47.6505 71.405C47.8838 71.405 48.0798 71.3093 48.2385 71.118C48.4018 70.922 48.4835 70.6233 48.4835 70.222C48.4835 69.8253 48.4041 69.5313 48.2455 69.34C48.0868 69.144 47.8885 69.046 47.6505 69.046C47.4078 69.046 47.2095 69.144 47.0555 69.34C46.9015 69.5313 46.8245 69.8253 46.8245 70.222C46.8245 70.6187 46.9015 70.915 47.0555 71.111C47.2095 71.307 47.4078 71.405 47.6505 71.405ZM48.5255 71.363C48.4181 71.573 48.2688 71.7433 48.0775 71.874C47.8861 72.0047 47.6435 72.07 47.3495 72.07C47.1395 72.07 46.9388 72.0327 46.7475 71.958C46.5561 71.8833 46.3881 71.769 46.2435 71.615C46.1035 71.461 45.9915 71.2697 45.9075 71.041C45.8235 70.8077 45.7815 70.5347 45.7815 70.222C45.7815 69.9093 45.8235 69.6387 45.9075 69.41C45.9915 69.1767 46.1035 68.9853 46.2435 68.836C46.3881 68.682 46.5561 68.5677 46.7475 68.493C46.9388 68.4183 47.1418 68.381 47.3565 68.381C47.6085 68.381 47.8278 68.4323 48.0145 68.535C48.2011 68.633 48.3551 68.773 48.4765 68.955V66.925H49.4985V72H48.6025L48.5255 71.363ZM52.5776 69.375C52.475 69.361 52.3653 69.3587 52.2486 69.368C52.1366 69.3773 52.0246 69.4007 51.9126 69.438C51.8053 69.4707 51.705 69.5173 51.6116 69.578C51.5183 69.6387 51.4413 69.7133 51.3806 69.802V72H50.3586V68.451H51.2756L51.3526 69.179H51.3736C51.5043 68.927 51.67 68.7357 51.8706 68.605C52.076 68.4743 52.3116 68.3997 52.5776 68.381V69.375ZM54.8762 72.07C54.6149 72.07 54.3699 72.0303 54.1412 71.951C53.9125 71.867 53.7142 71.748 53.5462 71.594C53.3782 71.4353 53.2452 71.2417 53.1472 71.013C53.0492 70.7843 53.0002 70.5207 53.0002 70.222C53.0002 69.9233 53.0492 69.6597 53.1472 69.431C53.2452 69.2023 53.3782 69.011 53.5462 68.857C53.7142 68.6983 53.9125 68.5793 54.1412 68.5C54.3699 68.4207 54.6149 68.381 54.8762 68.381C55.1375 68.381 55.3825 68.4207 55.6112 68.5C55.8445 68.5793 56.0452 68.6983 56.2132 68.857C56.3859 69.011 56.5212 69.2023 56.6192 69.431C56.7172 69.6597 56.7662 69.9233 56.7662 70.222C56.7662 70.5207 56.7172 70.7843 56.6192 71.013C56.5212 71.2417 56.3859 71.4353 56.2132 71.594C56.0452 71.748 55.8469 71.867 55.6182 71.951C55.3895 72.0303 55.1422 72.07 54.8762 72.07ZM54.8762 71.405C55.1189 71.405 55.3195 71.3163 55.4782 71.139C55.6415 70.957 55.7232 70.6513 55.7232 70.222C55.7232 69.7973 55.6415 69.4963 55.4782 69.319C55.3195 69.137 55.1189 69.046 54.8762 69.046C54.7549 69.046 54.6429 69.067 54.5402 69.109C54.4422 69.151 54.3559 69.2187 54.2812 69.312C54.2065 69.4053 54.1482 69.5267 54.1062 69.676C54.0642 69.8253 54.0432 70.0073 54.0432 70.222C54.0432 70.4367 54.0642 70.6187 54.1062 70.768C54.1482 70.9173 54.2065 71.041 54.2812 71.139C54.3559 71.2323 54.4422 71.3 54.5402 71.342C54.6429 71.384 54.7549 71.405 54.8762 71.405ZM57.9653 68.045C57.7973 68.045 57.655 67.996 57.5383 67.898C57.4263 67.8 57.3703 67.6693 57.3703 67.506C57.3703 67.3427 57.4263 67.212 57.5383 67.114C57.655 67.0113 57.7973 66.96 57.9653 66.96C58.1287 66.96 58.2687 67.0113 58.3853 67.114C58.502 67.212 58.5603 67.3427 58.5603 67.506C58.5603 67.6693 58.502 67.8 58.3853 67.898C58.2687 67.996 58.1287 68.045 57.9653 68.045ZM58.4763 68.451V72H57.4543V68.451H58.4763ZM61.0284 71.405C61.2617 71.405 61.4577 71.3093 61.6164 71.118C61.7797 70.922 61.8614 70.6233 61.8614 70.222C61.8614 69.8253 61.7821 69.5313 61.6234 69.34C61.4647 69.144 61.2664 69.046 61.0284 69.046C60.7857 69.046 60.5874 69.144 60.4334 69.34C60.2794 69.5313 60.2024 69.8253 60.2024 70.222C60.2024 70.6187 60.2794 70.915 60.4334 71.111C60.5874 71.307 60.7857 71.405 61.0284 71.405ZM61.9034 71.363C61.7961 71.573 61.6467 71.7433 61.4554 71.874C61.2641 72.0047 61.0214 72.07 60.7274 72.07C60.5174 72.07 60.3167 72.0327 60.1254 71.958C59.9341 71.8833 59.7661 71.769 59.6214 71.615C59.4814 71.461 59.3694 71.2697 59.2854 71.041C59.2014 70.8077 59.1594 70.5347 59.1594 70.222C59.1594 69.9093 59.2014 69.6387 59.2854 69.41C59.3694 69.1767 59.4814 68.9853 59.6214 68.836C59.7661 68.682 59.9341 68.5677 60.1254 68.493C60.3167 68.4183 60.5197 68.381 60.7344 68.381C60.9864 68.381 61.2057 68.4323 61.3924 68.535C61.5791 68.633 61.7331 68.773 61.8544 68.955V66.925H62.8764V72H61.9804L61.9034 71.363Z" fill="black"/>
<mask id="mask0" mask-type="alpha" maskUnits="userSpaceOnUse" x="35" y="23" width="30" height="35">
<path fill-rule="evenodd" clip-rule="evenodd" d="M54.0907 29.8578C53.5253 29.8578 53.0675 29.4123 53.0675 28.8619C53.0675 28.3116 53.5253 27.8681 54.0907 27.8681C54.6562 27.8681 55.1139 28.3116 55.1139 28.8619C55.1139 29.4123 54.6562 29.8578 54.0907 29.8578ZM45.9093 29.8578C45.3438 29.8578 44.8861 29.4123 44.8861 28.8619C44.8861 28.3116 45.3438 27.8681 45.9093 27.8681C46.4747 27.8681 46.9325 28.3116 46.9325 28.8619C46.9325 29.4123 46.4747 29.8578 45.9093 29.8578ZM54.6955 25.8704L55.0766 25.31L55.4578 24.7576L56.307 23.5159C56.4126 23.3627 56.3691 23.157 56.2117 23.0562C56.0563 22.9534 55.843 22.9958 55.7415 23.149L54.4449 25.0378L54.0555 25.6063C52.8231 25.1407 51.4499 24.8806 50 24.8806C48.5522 24.8806 47.1769 25.1407 45.9445 25.6063L45.5572 25.0378L45.174 24.4794L44.2626 23.149C44.157 22.9958 43.9457 22.9554 43.7883 23.0562C43.633 23.157 43.5895 23.3627 43.693 23.5159L44.5422 24.7576L44.9234 25.31L45.3065 25.8704C42.413 27.1827 40.4557 29.6683 40.4557 32.5127H59.5443C59.5443 29.6683 57.587 27.1827 54.6955 25.8704ZM40.6027 33.8391H40.4557V48.4381C40.4557 49.5972 41.4229 50.5406 42.616 50.5406H44.1736C44.1197 50.716 44.0907 50.8994 44.0907 51.093V55.2961C44.0907 56.3947 45.0083 57.2857 46.1371 57.2857C47.266 57.2857 48.1835 56.3947 48.1835 55.2961V51.093C48.1835 50.8994 48.1524 50.716 48.1007 50.5406H51.8993C51.8476 50.716 51.8186 50.8994 51.8186 51.093V55.2961C51.8186 56.3947 52.7341 57.2857 53.8629 57.2857C54.9938 57.2857 55.9114 56.3947 55.9114 55.2961V51.093C55.9114 50.8994 55.8803 50.716 55.8264 50.5406H57.3861C58.5791 50.5406 59.5443 49.5972 59.5443 48.4381V33.8391H40.6027ZM37.0464 33.8391C35.9155 33.8391 35 34.7301 35 35.8288V44.3458C35 45.4445 35.9155 46.3355 37.0464 46.3355C38.1752 46.3355 39.0907 45.4445 39.0907 44.3458V35.8288C39.0907 34.7301 38.1752 33.8391 37.0464 33.8391ZM62.9557 33.8391C61.8248 33.8391 60.9093 34.7301 60.9093 35.8288V44.3458C60.9093 45.4445 61.8248 46.3355 62.9557 46.3355C64.0845 46.3355 65 45.4445 65 44.3458V35.8288C65 34.7301 64.0845 33.8391 62.9557 33.8391Z" fill="white"/>
</mask>
<g mask="url(#mask0)">
<path fill-rule="evenodd" clip-rule="evenodd" d="M54.0907 29.8578C53.5253 29.8578 53.0675 29.4123 53.0675 28.8619C53.0675 28.3116 53.5253 27.8681 54.0907 27.8681C54.6562 27.8681 55.1139 28.3116 55.1139 28.8619C55.1139 29.4123 54.6562 29.8578 54.0907 29.8578ZM45.9093 29.8578C45.3438 29.8578 44.8861 29.4123 44.8861 28.8619C44.8861 28.3116 45.3438 27.8681 45.9093 27.8681C46.4747 27.8681 46.9325 28.3116 46.9325 28.8619C46.9325 29.4123 46.4747 29.8578 45.9093 29.8578ZM54.6955 25.8704L55.0766 25.31L55.4578 24.7576L56.307 23.5159C56.4126 23.3627 56.3691 23.157 56.2117 23.0562C56.0563 22.9534 55.843 22.9958 55.7415 23.149L54.4449 25.0378L54.0555 25.6063C52.8231 25.1407 51.4499 24.8806 50 24.8806C48.5522 24.8806 47.1769 25.1407 45.9445 25.6063L45.5572 25.0378L45.174 24.4794L44.2626 23.149C44.157 22.9958 43.9457 22.9554 43.7883 23.0562C43.633 23.157 43.5895 23.3627 43.693 23.5159L44.5422 24.7576L44.9234 25.31L45.3065 25.8704C42.413 27.1827 40.4557 29.6683 40.4557 32.5127H59.5443C59.5443 29.6683 57.587 27.1827 54.6955 25.8704ZM40.6027 33.8391H40.4557V48.4381C40.4557 49.5972 41.4229 50.5406 42.616 50.5406H44.1736C44.1197 50.716 44.0907 50.8994 44.0907 51.093V55.2961C44.0907 56.3947 45.0083 57.2857 46.1371 57.2857C47.266 57.2857 48.1835 56.3947 48.1835 55.2961V51.093C48.1835 50.8994 48.1524 50.716 48.1007 50.5406H51.8993C51.8476 50.716 51.8186 50.8994 51.8186 51.093V55.2961C51.8186 56.3947 52.7341 57.2857 53.8629 57.2857C54.9938 57.2857 55.9114 56.3947 55.9114 55.2961V51.093C55.9114 50.8994 55.8803 50.716 55.8264 50.5406H57.3861C58.5791 50.5406 59.5443 49.5972 59.5443 48.4381V33.8391H40.6027ZM37.0464 33.8391C35.9155 33.8391 35 34.7301 35 35.8288V44.3458C35 45.4445 35.9155 46.3355 37.0464 46.3355C38.1752 46.3355 39.0907 45.4445 39.0907 44.3458V35.8288C39.0907 34.7301 38.1752 33.8391 37.0464 33.8391ZM62.9557 33.8391C61.8248 33.8391 60.9093 34.7301 60.9093 35.8288V44.3458C60.9093 45.4445 61.8248 46.3355 62.9557 46.3355C64.0845 46.3355 65 45.4445 65 44.3458V35.8288C65 34.7301 64.0845 33.8391 62.9557 33.8391Z" fill="#A4C639"/>
</g>
</svg>
