<svg width="100" height="100" viewBox="0 0 100 100" fill="none" xmlns="http://www.w3.org/2000/svg">
<path d="M2.5 5C2.5 3.61929 3.61929 2.5 5 2.5H95C96.3807 2.5 97.5 3.61929 97.5 5V69.7591C97.5 70.674 97.0003 71.5158 96.1971 71.9538L51.1971 96.4993C50.4509 96.9063 49.5491 96.9063 48.8029 96.4993L3.80287 71.9538C2.99972 71.5158 2.5 70.674 2.5 69.7591V5Z" fill="white" stroke="url(#paint0_linear)" stroke-width="5" stroke-linejoin="round"/>
<path d="M58.7067 38.4004L64.6634 28.8701H50.3351L48.3555 32.0462L58.7067 38.4004Z" fill="url(#paint1_linear)"/>
<path opacity="0.15" d="M48.3574 32.0462L49.3713 30.416L58.7088 38.4004L48.3574 32.0463V32.0462Z" fill="black"/>
<path d="M61.8567 55.6785V41.3515L58.7656 39.4194L52.2656 49.6864L61.8567 55.6788V55.6785Z" fill="url(#paint2_linear)"/>
<path opacity="0.15" d="M52.2657 49.6856L53.8713 50.6882L58.7656 39.4194L52.2656 49.6858L52.2657 49.6856Z" fill="black"/>
<path d="M38.7812 26.0029V40.3303L42.0964 42.2623L58.7055 38.3985L38.7812 26.0029Z" fill="url(#paint3_linear)"/>
<path d="M42.0269 43.3547L36.0703 52.7235H50.3979L58.7688 39.4194L42.0269 43.3547Z" fill="url(#paint4_linear)"/>
<path d="M34.0006 64.8613H34.8337L35.2501 59.7737H34.397V58.7919H36.688L38.2548 62.7691C38.3736 63.1162 38.4232 63.3541 38.4232 63.3541H38.443C38.443 63.3541 38.4927 63.1162 38.6217 62.7691L40.1785 58.7919H42.4691V59.7737H41.6265L42.0329 64.8612H42.8659V65.8332H39.9797V64.8613H40.7631L40.5054 61.3115C40.4857 61.0632 40.5353 60.6568 40.5353 60.6568H40.5054C40.5054 60.6568 40.4259 61.0431 40.3369 61.2816L38.9881 64.5241H37.8774L36.5287 61.2815C36.4393 61.0431 36.3702 60.6567 36.3702 60.6567H36.3304C36.3304 60.6567 36.3802 61.0626 36.3604 61.3115L36.1027 64.8612H36.896V65.8332H34V64.8613H34.0006ZM47.0034 58.6729C49.0858 58.6729 50.6525 60.2498 50.6525 62.2634C50.6525 64.3361 49.0857 65.9524 47.0034 65.9524C44.9204 65.9524 43.3536 64.3362 43.3536 62.2634C43.3536 60.2495 44.9204 58.6729 47.0034 58.6729ZM47.0034 64.8116C48.2727 64.8116 49.3143 63.7111 49.3143 62.263C49.3143 60.8743 48.273 59.8129 47.0034 59.8129C45.7337 59.8129 44.6925 60.8746 44.6925 62.263C44.6925 63.7113 45.7341 64.8116 47.0034 64.8116ZM51.2986 64.8613H52.1409V59.7737H51.2985V58.7919H54.3429C54.909 58.7919 55.3549 58.8219 55.811 58.9601C57.1793 59.3667 58.092 60.5769 58.092 62.3121C58.092 63.9783 57.2487 65.1783 55.9103 65.6248C55.4337 65.7929 54.9384 65.8324 54.3527 65.8324H51.2986V64.8613ZM54.2935 64.7922C54.7394 64.7922 55.0967 64.7524 55.4437 64.613C56.2473 64.2856 56.753 63.4627 56.753 62.3124C56.753 61.122 56.2176 60.3094 55.3941 59.9918C55.0374 59.853 54.7098 59.8336 54.2935 59.8336H53.4402V64.7922H54.2935ZM58.8385 64.8613H59.4637L61.2386 62.263L59.5127 59.7737H58.8876V58.7919H61.5461V59.7737H60.8519L61.8238 61.2319C61.9534 61.3899 62.0225 61.5294 62.0225 61.5294H62.0419C62.0419 61.5389 62.1107 61.3998 62.2303 61.2319L63.1721 59.7737H62.4977V58.7919H65.0564V59.7737H64.4414L62.6565 62.3618L64.4115 64.8612H65.0364V65.8332H62.3684V64.8613H63.0626L62.0808 63.3837C61.9522 63.2155 61.8827 63.0766 61.8827 63.0766H61.863C61.8433 63.0766 61.7834 63.2158 61.6748 63.3837L60.7327 64.8613H61.4166V65.8332H58.8389L58.8385 64.8613Z" fill="black"/>
<defs>
<linearGradient id="paint0_linear" x1="50" y1="0" x2="50" y2="100" gradientUnits="userSpaceOnUse">
<stop stop-color="#42AB4A"/>
<stop offset="1" stop-color="#ADD155"/>
</linearGradient>
<linearGradient id="paint1_linear" x1="62.2345" y1="34.1862" x2="57.0956" y2="24.388" gradientUnits="userSpaceOnUse">
<stop stop-color="#80C3E6"/>
<stop offset="1" stop-color="#3380C2"/>
</linearGradient>
<linearGradient id="paint2_linear" x1="64.0984" y1="50.1664" x2="55.408" y2="48.1695" gradientUnits="userSpaceOnUse">
<stop stop-color="#F38649"/>
<stop offset="0.1849" stop-color="#F28147"/>
<stop offset="0.4091" stop-color="#EF7242"/>
<stop offset="0.6537" stop-color="#EA5A3A"/>
<stop offset="0.911" stop-color="#E4382E"/>
<stop offset="1" stop-color="#E12A29"/>
</linearGradient>
<linearGradient id="paint3_linear" x1="37.9255" y1="38.9605" x2="50.746" y2="26.9309" gradientUnits="userSpaceOnUse">
<stop stop-color="#42AB4A"/>
<stop offset="1" stop-color="#ADD155"/>
</linearGradient>
<linearGradient id="paint4_linear" x1="41.2433" y1="55.9558" x2="45.8442" y2="34.5231" gradientUnits="userSpaceOnUse">
<stop stop-color="#42AB4A"/>
<stop offset="1" stop-color="#ADD155"/>
</linearGradient>
</defs>
</svg>
