<svg width="100" height="100" viewBox="0 0 100 100" fill="none" xmlns="http://www.w3.org/2000/svg">
<path d="M2.5 5C2.5 3.61929 3.61929 2.5 5 2.5H95C96.3807 2.5 97.5 3.61929 97.5 5V69.7591C97.5 70.674 97.0003 71.5158 96.1971 71.9538L51.1971 96.4993C50.4509 96.9063 49.5491 96.9063 48.8029 96.4993L3.80287 71.9538C2.99972 71.5158 2.5 70.674 2.5 69.7591V5Z" fill="white" stroke="#C60C30" stroke-width="5" stroke-linejoin="round"/>
<path d="M32.2849 72V68.227L31.2839 69.172V68.234L32.4459 67.135H33.3489V72H32.2849Z" fill="black"/>
<path d="M36.7556 72.07C36.3869 72.07 36.0486 72.014 35.7406 71.902C35.4373 71.7853 35.1759 71.622 34.9566 71.412C34.7372 71.1973 34.5669 70.936 34.4456 70.628C34.3243 70.3153 34.2636 69.963 34.2636 69.571C34.2636 69.179 34.3219 68.829 34.4386 68.521C34.5599 68.2083 34.7279 67.947 34.9426 67.737C35.1572 67.5223 35.4163 67.359 35.7196 67.247C36.0229 67.1303 36.3612 67.072 36.7346 67.072C37.0426 67.072 37.3109 67.1 37.5396 67.156C37.7682 67.212 37.9433 67.282 38.0646 67.366L37.9456 68.192C37.8056 68.094 37.6399 68.0077 37.4486 67.933C37.2619 67.8583 37.0519 67.821 36.8186 67.821C36.3519 67.821 35.9973 67.9703 35.7546 68.269C35.5119 68.5677 35.3906 69.0017 35.3906 69.571C35.3906 70.7377 35.8783 71.321 36.8536 71.321C37.0683 71.321 37.2596 71.2953 37.4276 71.244C37.5956 71.188 37.7519 71.1087 37.8966 71.006L38.1276 71.72C38.0016 71.8087 37.8242 71.8903 37.5956 71.965C37.3669 72.035 37.0869 72.07 36.7556 72.07Z" fill="black"/>
<path d="M38.8175 69.536H40.5675V70.299H38.8175V69.536Z" fill="black"/>
<path d="M42.4274 69.662V71.307H43.0154C43.3094 71.307 43.5357 71.244 43.6944 71.118C43.8577 70.9873 43.9394 70.7703 43.9394 70.467C43.9394 70.187 43.8624 69.984 43.7084 69.858C43.5591 69.7273 43.3327 69.662 43.0294 69.662H42.4274ZM41.3704 67.135H44.6534V67.828H42.4274V68.969H43.0434C43.6827 68.969 44.1751 69.0857 44.5204 69.319C44.8657 69.5477 45.0384 69.9187 45.0384 70.432C45.0384 70.7073 44.9894 70.9453 44.8914 71.146C44.7981 71.342 44.6627 71.503 44.4854 71.629C44.3127 71.755 44.1004 71.8483 43.8484 71.909C43.6011 71.9697 43.3234 72 43.0154 72H41.3704V67.135Z" fill="black"/>
<path d="M45.7512 68.451H46.7522V70.81L48.3412 68.451H49.2512V72H48.2502V69.641L46.6682 72H45.7512V68.451Z" fill="black"/>
<path d="M51.9117 69.158V72H50.8827V69.158H49.8957V68.451H52.9057V69.158H51.9117Z" fill="black"/>
<path d="M55.378 71.405C55.616 71.405 55.8097 71.3117 55.959 71.125C56.113 70.9337 56.19 70.6327 56.19 70.222C56.19 69.8207 56.113 69.5243 55.959 69.333C55.805 69.1417 55.6114 69.046 55.378 69.046C55.14 69.046 54.9394 69.1417 54.776 69.333C54.6174 69.5197 54.538 69.816 54.538 70.222C54.538 70.4273 54.559 70.6047 54.601 70.754C54.643 70.9033 54.7014 71.027 54.776 71.125C54.8554 71.2183 54.944 71.2883 55.042 71.335C55.1447 71.3817 55.2567 71.405 55.378 71.405ZM55.672 72.07C55.4107 72.07 55.1867 72.0163 55 71.909C54.818 71.797 54.6664 71.6453 54.545 71.454V73.267H53.523V68.451H54.44L54.517 69.039C54.6337 68.8337 54.7877 68.6727 54.979 68.556C55.175 68.4393 55.4107 68.381 55.686 68.381C55.8914 68.381 56.0874 68.4183 56.274 68.493C56.4607 68.5677 56.624 68.682 56.764 68.836C56.9087 68.9853 57.023 69.1767 57.107 69.41C57.191 69.6387 57.233 69.9093 57.233 70.222C57.233 70.5347 57.191 70.8077 57.107 71.041C57.023 71.2697 56.9087 71.461 56.764 71.615C56.6194 71.769 56.4537 71.8833 56.267 71.958C56.0804 72.0327 55.882 72.07 55.672 72.07Z" fill="black"/>
<path d="M57.8919 68.451H58.8929V70.81L60.4819 68.451H61.3919V72H60.3909V69.641L58.8089 72H57.8919V68.451Z" fill="black"/>
<path d="M63.2684 70.159V72H62.2464V68.451H63.2684V70.145L64.6544 68.451H65.5644L64.2974 70.012L65.6624 72H64.5074L63.2684 70.159Z" fill="black"/>
<path d="M67.6866 72.07C67.4206 72.07 67.1733 72.0303 66.9446 71.951C66.716 71.8717 66.5176 71.755 66.3496 71.601C66.1863 71.447 66.0556 71.258 65.9576 71.034C65.8643 70.81 65.8176 70.551 65.8176 70.257C65.8176 69.9677 65.8666 69.7063 65.9646 69.473C66.0626 69.2397 66.1979 69.0437 66.3706 68.885C66.5433 68.7217 66.7486 68.598 66.9866 68.514C67.2293 68.4253 67.4906 68.381 67.7706 68.381C68.0133 68.381 68.2116 68.3997 68.3656 68.437C68.5196 68.4697 68.6433 68.5093 68.7366 68.556L68.5126 69.312C68.4006 69.2327 68.2909 69.1697 68.1836 69.123C68.0809 69.0763 67.941 69.053 67.7636 69.053C67.6423 69.053 67.5279 69.0787 67.4206 69.13C67.3133 69.1767 67.2176 69.249 67.1336 69.347C67.0543 69.4403 66.9889 69.5593 66.9376 69.704C66.8909 69.8487 66.8676 70.019 66.8676 70.215C66.8676 70.6117 66.954 70.908 67.1266 71.104C67.304 71.3 67.5466 71.398 67.8546 71.398C67.9899 71.398 68.1206 71.3747 68.2466 71.328C68.3773 71.2767 68.4893 71.2137 68.5826 71.139L68.7926 71.727C68.704 71.8063 68.5663 71.8833 68.3796 71.958C68.1976 72.0327 67.9666 72.07 67.6866 72.07Z" fill="black"/>
<g clip-path="url(#clip0)">
<path d="M46.1379 59.7579C42.6324 59.0422 39.3659 57.4119 36.8165 55.1455C30.2437 49.3203 28.1922 40.155 31.6778 31.9838C32.5342 29.9758 33.9284 27.948 35.6413 26.1785L37.1551 24.6278L37.2547 33.7334C37.3542 42.4612 37.3742 42.8986 37.7924 43.9921C38.629 46.1989 39.5053 47.5906 41.039 49.1016C44.9826 53.0182 50.7587 53.9924 55.6783 51.5867C60.2992 49.3203 63.2072 44.3698 62.8686 39.3598C62.6495 35.9998 61.5142 33.5346 59.0643 31.0892C57.212 29.2402 55.041 28.0275 52.6907 27.5304C50.2807 27.0334 50.4002 26.9539 50.4002 28.9818V30.7313L51.7148 30.9699C56.8136 31.9043 60.1996 36.9144 59.144 41.9642C58.8054 43.5746 58.0485 45.006 56.8336 46.3182C54.9812 48.3063 52.372 49.2606 50.1014 49.2606C46.337 49.2606 43.21 47.1135 41.6763 43.9722C41.6763 43.9722 41.278 43.0776 41.1585 42.5209C40.4016 39.2405 40.8796 32.3616 40.8796 32.3616L40.8199 22.2818L41.4174 21.9836C41.7361 21.8047 42.0548 21.6854 42.1145 21.6854C42.1743 21.6854 42.234 26.3177 42.2739 31.9838C42.2739 31.9838 41.5568 39.3995 42.4531 42.2426C42.5726 42.6601 42.8316 43.3559 42.8316 43.3559C43.6083 44.9464 44.8631 46.358 46.4964 47.1333C47.7313 47.7099 48.3686 47.9882 50.201 47.9882C51.3961 47.9882 52.4517 47.6105 53.6866 47.0538C55.1207 46.3977 56.7738 44.6482 57.3913 43.0378C59.0643 38.6242 56.734 33.8924 52.2127 32.5604C50.3604 32.0236 50.4002 31.9838 50.4002 33.9918V35.7414L51.2766 35.98C54.4634 36.8349 55.4393 41.1093 52.9297 43.2963C52.0534 44.0716 51.2567 44.4096 49.8624 44.4096C48.3686 44.4096 46.9346 43.515 46.1976 42.1233C45.7594 41.2883 45.7196 40.5129 45.7196 40.155C45.7196 36.8349 45.6399 30.8307 45.6399 30.8307L45.5802 20.5521L46.0383 20.4328C46.2972 20.3732 47.313 20.2142 48.3089 20.0949C51.6749 19.6575 56.6543 20.7708 60.0004 22.6794C64.5615 25.2839 68.0073 29.7571 69.4413 34.9263C69.9393 36.6957 69.999 37.2325 69.999 40.0755C69.999 42.9185 69.9393 43.4553 69.4613 45.2049C67.5093 52.2428 62.53 57.2529 55.4194 59.4001C53.9256 59.8573 53.2285 59.9368 50.5795 59.9965C48.4483 60.0164 47.074 59.9567 46.1379 59.7579Z" fill="#C60C30"/>
</g>
<defs>
<clipPath id="clip0">
<rect x="30" y="20" width="40" height="40" fill="white"/>
</clipPath>
</defs>
</svg>
