<svg width="100" height="100" viewBox="0 0 100 100" fill="none" xmlns="http://www.w3.org/2000/svg">
<path d="M2.5 5C2.5 3.61929 3.61929 2.5 5 2.5H95C96.3807 2.5 97.5 3.61929 97.5 5V69.7591C97.5 70.674 97.0003 71.5158 96.1971 71.9538L51.1971 96.4993C50.4509 96.9063 49.5491 96.9063 48.8029 96.4993L3.80287 71.9538C2.99972 71.5158 2.5 70.674 2.5 69.7591V5Z" fill="white" stroke="#FF6C37" stroke-width="5" stroke-linejoin="round"/>
<path d="M37.0225 67.6655V69.5418H37.517C37.8225 69.5418 38.0625 69.4643 38.237 69.3091C38.4116 69.1539 38.4988 68.9043 38.4988 68.56C38.4988 68.2352 38.4164 68.0049 38.2516 67.8691C38.0916 67.7333 37.8564 67.6655 37.5461 67.6655H37.0225ZM37.0225 70.2618V72H35.8879V66.9455H37.517C38.1861 66.9455 38.7049 67.0739 39.0734 67.3309C39.4419 67.5879 39.6261 67.9903 39.6261 68.5382C39.6261 68.8388 39.5752 69.0982 39.4734 69.3164C39.3764 69.5297 39.2358 69.7067 39.0516 69.8473C38.8673 69.9879 38.6443 70.0921 38.3825 70.16C38.1207 70.2279 37.8298 70.2618 37.5098 70.2618H37.0225Z" fill="black"/>
<path d="M41.9867 72.0727C41.7152 72.0727 41.4607 72.0315 41.2231 71.9491C40.9855 71.8618 40.7795 71.7382 40.6049 71.5782C40.4304 71.4133 40.2922 71.2121 40.1904 70.9746C40.0886 70.737 40.0377 70.463 40.0377 70.1527C40.0377 69.8424 40.0886 69.5685 40.1904 69.3309C40.2922 69.0933 40.4304 68.8946 40.6049 68.7346C40.7795 68.5697 40.9855 68.4461 41.2231 68.3636C41.4607 68.2812 41.7152 68.24 41.9867 68.24C42.2583 68.24 42.5128 68.2812 42.7504 68.3636C42.9928 68.4461 43.2013 68.5697 43.3758 68.7346C43.5552 68.8946 43.6958 69.0933 43.7977 69.3309C43.8995 69.5685 43.9504 69.8424 43.9504 70.1527C43.9504 70.463 43.8995 70.737 43.7977 70.9746C43.6958 71.2121 43.5552 71.4133 43.3758 71.5782C43.2013 71.7382 42.9952 71.8618 42.7577 71.9491C42.5201 72.0315 42.2631 72.0727 41.9867 72.0727ZM41.9867 71.3818C42.2389 71.3818 42.4474 71.2897 42.6122 71.1055C42.7819 70.9164 42.8667 70.5988 42.8667 70.1527C42.8667 69.7115 42.7819 69.3988 42.6122 69.2146C42.4474 69.0255 42.2389 68.9309 41.9867 68.9309C41.8607 68.9309 41.7443 68.9527 41.6377 68.9964C41.5358 69.04 41.4461 69.1103 41.3686 69.2073C41.291 69.3043 41.2304 69.4303 41.1867 69.5855C41.1431 69.7406 41.1213 69.9297 41.1213 70.1527C41.1213 70.3758 41.1431 70.5649 41.1867 70.72C41.2304 70.8752 41.291 71.0036 41.3686 71.1055C41.4461 71.2024 41.5358 71.2727 41.6377 71.3164C41.7443 71.36 41.8607 71.3818 41.9867 71.3818Z" fill="black"/>
<path d="M45.8807 72.0727C45.5316 72.0727 45.2407 72.0388 45.008 71.9709C44.7753 71.8982 44.5935 71.8109 44.4625 71.7091L44.6298 71.0182C44.7559 71.12 44.9256 71.2073 45.1389 71.28C45.3522 71.3527 45.5971 71.3891 45.8735 71.3891C46.3341 71.3891 46.5644 71.2485 46.5644 70.9673C46.5644 70.8752 46.5401 70.8049 46.4916 70.7564C46.448 70.703 46.385 70.6618 46.3025 70.6327C46.225 70.5988 46.1328 70.5746 46.0262 70.56C45.9244 70.5455 45.8153 70.5285 45.6989 70.5091C45.5535 70.4849 45.4104 70.4533 45.2698 70.4146C45.1292 70.3709 45.0031 70.3103 44.8916 70.2327C44.7801 70.1552 44.688 70.0533 44.6153 69.9273C44.5474 69.7964 44.5135 69.6291 44.5135 69.4255C44.5135 69.0327 44.6468 68.737 44.9135 68.5382C45.185 68.3394 45.5801 68.24 46.0989 68.24C46.4092 68.24 46.6613 68.2715 46.8553 68.3346C47.0541 68.3927 47.1995 68.4485 47.2916 68.5018L47.0953 69.1709C47.0128 69.1127 46.8844 69.0546 46.7098 68.9964C46.5353 68.9333 46.3389 68.9018 46.1207 68.9018C45.9171 68.9018 45.7498 68.9309 45.6189 68.9891C45.488 69.0473 45.4225 69.1467 45.4225 69.2873C45.4225 69.3697 45.4419 69.4352 45.4807 69.4836C45.5244 69.5273 45.5801 69.5636 45.648 69.5927C45.7207 69.617 45.8007 69.6364 45.888 69.6509C45.9801 69.6606 46.0771 69.6727 46.1789 69.6873C46.3292 69.7115 46.4844 69.743 46.6444 69.7818C46.8044 69.8206 46.9498 69.8812 47.0807 69.9636C47.2165 70.0461 47.3256 70.1576 47.408 70.2982C47.4953 70.4388 47.5389 70.623 47.5389 70.8509C47.5389 71.0885 47.4928 71.2849 47.4007 71.44C47.3086 71.5952 47.185 71.7212 47.0298 71.8182C46.8795 71.9103 46.7025 71.9758 46.4989 72.0146C46.3001 72.0533 46.0941 72.0727 45.8807 72.0727Z" fill="black"/>
<path d="M50.5302 71.8909C50.4478 71.9394 50.3387 71.9806 50.2029 72.0146C50.072 72.0533 49.8999 72.0727 49.6866 72.0727C49.2211 72.0727 48.8793 71.9685 48.6611 71.76C48.4478 71.5467 48.3411 71.2291 48.3411 70.8073V68.9964H47.9048V68.3127H48.3411V67.5418H49.4102V68.3127H50.4429V68.9964H49.4102V70.7855C49.4102 70.9843 49.4514 71.1249 49.5338 71.2073C49.6211 71.2849 49.7423 71.3236 49.8975 71.3236C50.0042 71.3236 50.0987 71.3091 50.1811 71.28C50.2635 71.2461 50.3314 71.2146 50.3848 71.1855L50.5302 71.8909Z" fill="black"/>
<path d="M52.247 72H51.1852V68.3127H52.1379L52.2179 68.8436H52.2325C52.3343 68.674 52.4798 68.5309 52.6688 68.4146C52.8628 68.2982 53.1052 68.24 53.3961 68.24C53.6725 68.24 53.9028 68.2982 54.087 68.4146C54.2761 68.5309 54.4119 68.7079 54.4943 68.9455C54.6204 68.7079 54.7876 68.5309 54.9961 68.4146C55.2095 68.2982 55.4543 68.24 55.7307 68.24C56.0846 68.24 56.3707 68.3394 56.5889 68.5382C56.807 68.737 56.9161 69.04 56.9161 69.4473V72H55.847V69.5636C55.847 69.3649 55.801 69.2218 55.7089 69.1346C55.6167 69.0424 55.4931 68.9964 55.3379 68.9964C55.1537 68.9964 55.001 69.0449 54.8798 69.1418C54.7634 69.2388 54.664 69.3624 54.5816 69.5127V72H53.5198V69.5273C53.5198 69.3236 53.4713 69.1855 53.3743 69.1127C53.2822 69.0352 53.1585 68.9964 53.0034 68.9964C52.8143 68.9964 52.6616 69.0449 52.5452 69.1418C52.4289 69.234 52.3295 69.3576 52.247 69.5127V72Z" fill="black"/>
<path d="M59.093 71.4255C59.2675 71.4255 59.4057 71.3843 59.5075 71.3018C59.6142 71.2146 59.6966 71.1079 59.7548 70.9818V70.3127H59.4639C59.1342 70.3127 58.9039 70.3636 58.773 70.4655C58.6469 70.5673 58.5839 70.7152 58.5839 70.9091C58.5839 71.0836 58.63 71.2146 58.7221 71.3018C58.8142 71.3843 58.9378 71.4255 59.093 71.4255ZM59.9003 72C59.876 71.937 59.8542 71.8643 59.8348 71.7818C59.8203 71.6946 59.8081 71.6024 59.7985 71.5055C59.7548 71.5733 59.7015 71.6412 59.6385 71.7091C59.5754 71.777 59.5027 71.8376 59.4203 71.8909C59.3378 71.9443 59.2409 71.9879 59.1294 72.0218C59.0178 72.0558 58.8918 72.0727 58.7512 72.0727C58.5766 72.0727 58.4142 72.0509 58.2639 72.0073C58.1136 71.9636 57.9851 71.8982 57.8785 71.8109C57.7718 71.7188 57.6869 71.6049 57.6239 71.4691C57.5657 71.3333 57.5366 71.1758 57.5366 70.9964C57.5366 70.6376 57.6918 70.3491 58.0021 70.1309C58.3124 69.9079 58.7924 69.7964 59.4421 69.7964H59.7548V69.5927C59.7548 69.3746 59.7015 69.2121 59.5948 69.1055C59.4881 68.994 59.2894 68.9382 58.9985 68.9382C58.7851 68.9382 58.6009 68.9746 58.4457 69.0473C58.2906 69.1152 58.1378 69.2024 57.9875 69.3091L57.6821 68.5746C57.8372 68.4824 58.0312 68.4049 58.2639 68.3418C58.5015 68.274 58.7972 68.24 59.1512 68.24C59.6845 68.24 60.0942 68.3443 60.3803 68.5527C60.6712 68.7564 60.8166 69.0909 60.8166 69.5564V71.4109C60.8166 71.4933 60.8191 71.5976 60.8239 71.7236C60.8336 71.8449 60.8457 71.937 60.8603 72H59.9003Z" fill="black"/>
<path d="M63.5736 68.9964C63.3603 68.9964 63.1857 69.0424 63.05 69.1346C62.9191 69.2267 62.8124 69.343 62.73 69.4836V72H61.6682V68.3127H62.6427L62.7009 68.8436H62.7154C62.827 68.674 62.9845 68.5309 63.1882 68.4146C63.3967 68.2982 63.6536 68.24 63.9591 68.24C64.3373 68.24 64.6403 68.3394 64.8682 68.5382C65.096 68.7321 65.21 69.0352 65.21 69.4473V72H64.1482V69.5346C64.1482 69.3309 64.0948 69.1903 63.9882 69.1127C63.8864 69.0352 63.7482 68.9964 63.5736 68.9964Z" fill="black"/>
<path d="M52.4201 21.1161C41.971 19.7709 32.4107 27.1573 31.0776 37.6063C29.7444 48.0554 37.1188 57.6157 47.5679 58.9488C58.0169 60.294 67.5772 52.9076 68.9103 42.4585C68.9103 42.4465 68.9103 42.4345 68.9103 42.4345C70.2435 31.9855 62.8571 22.4492 52.4201 21.1161Z" fill="white"/>
<path d="M61.44 30.0518C61.3319 30.0998 61.2719 30.232 61.3199 30.3401C61.3199 30.3521 61.3319 30.3521 61.3319 30.3641C61.452 30.6043 61.428 30.9045 61.2478 31.1087C61.1638 31.1928 61.1518 31.3369 61.2358 31.421C61.2358 31.421 61.2358 31.421 61.2478 31.433C61.2959 31.445 61.3559 31.445 61.404 31.433C61.464 31.433 61.5361 31.397 61.5721 31.3489C61.8724 31.0006 61.9324 30.5082 61.7163 30.0998C61.6562 30.0158 61.5361 29.9918 61.44 30.0518Z" fill="#FF6C37"/>
<path d="M52.5402 20.1672C41.5867 18.75 31.57 26.4967 30.1648 37.4502C28.7596 48.4037 36.4943 58.4324 47.4478 59.8376C58.4013 61.2428 68.4179 53.5081 69.8352 42.5546C71.2404 31.6011 63.5057 21.5725 52.5402 20.1672C52.5522 20.1672 52.5522 20.1672 52.5402 20.1672ZM56.6598 32.634C56.2874 32.6461 55.9391 32.7902 55.6749 33.0544L48.2525 40.4768L46.6671 38.8915C53.9694 31.6011 55.3026 31.5291 56.6598 32.634ZM48.5527 40.7411L55.9512 33.3907C56.3595 32.9944 57.0081 32.9944 57.4164 33.3907C57.6206 33.5949 57.7287 33.8711 57.7167 34.1474C57.7047 34.4356 57.5846 34.6998 57.3684 34.892L49.5496 41.786L48.5527 40.7411ZM49.1052 41.858L47.2676 42.3264C47.2316 42.3505 47.1956 42.3505 47.1595 42.3264C47.1355 42.2904 47.1355 42.2424 47.1595 42.2063L48.2765 41.0894L49.1052 41.858ZM44.4212 41.0894L46.3789 39.1317L47.8561 40.645L44.5052 41.3656C44.4332 41.3776 44.3611 41.3296 44.3491 41.2575C44.3371 41.2095 44.3491 41.1734 44.3851 41.1374L44.4212 41.0894ZM38.3559 51.2622C38.3079 51.2502 38.2598 51.2141 38.2478 51.1781C38.2358 51.1301 38.2358 51.082 38.2478 51.046L39.8212 49.4606L41.863 51.4904L38.3559 51.2622ZM42.3914 49.1604C42.2353 49.2444 42.1512 49.4126 42.1872 49.5807L42.5235 51.022C42.5476 51.118 42.4995 51.2141 42.4274 51.2622C42.3554 51.3222 42.2473 51.3222 42.1872 51.2622L40.1455 49.1604L46.4149 42.8789L49.4535 42.2304L50.9068 43.6836C48.3125 45.8455 45.4541 47.6831 42.4034 49.1363V49.1604H42.3914ZM51.207 43.4434L49.8138 42.0502L57.6326 35.1682C57.7047 35.1082 57.7767 35.0361 57.8368 34.952C57.5846 37.186 54.4378 40.3567 51.207 43.4434ZM57.3083 32.6701C56.1433 31.457 56.1914 29.5354 57.4044 28.3703C58.5094 27.3134 60.2148 27.2414 61.4039 28.2022L58.7135 30.8805C58.6415 30.9646 58.6415 31.0847 58.7135 31.1688L60.8034 33.2466C59.6263 33.8231 58.2091 33.5829 57.2963 32.6461L57.3083 32.6701ZM61.596 32.6701C61.4519 32.8022 61.3078 32.9343 61.1396 33.0424L59.1339 31.0367L61.6921 28.4784C62.7971 29.6675 62.7611 31.5171 61.596 32.6701Z" fill="#FF6C37"/>
</svg>
