<svg width="100" height="100" viewBox="0 0 100 100" fill="none" xmlns="http://www.w3.org/2000/svg">
<path d="M2.5 5C2.5 3.61929 3.61929 2.5 5 2.5H95C96.3807 2.5 97.5 3.61929 97.5 5V69.7591C97.5 70.674 97.0003 71.5158 96.1971 71.9538L51.1971 96.4993C50.4509 96.9063 49.5491 96.9063 48.8029 96.4993L3.80287 71.9538C2.99972 71.5158 2.5 70.674 2.5 69.7591V5Z" fill="white" stroke="#F35045" stroke-width="5" stroke-linejoin="round"/>
<path d="M38.7078 67.135H39.7998V71.307H41.7808V72H38.7078V67.135ZM43.8092 71.447C43.9772 71.447 44.1102 71.4073 44.2082 71.328C44.3109 71.244 44.3902 71.1413 44.4462 71.02V70.376H44.1662C43.8489 70.376 43.6272 70.425 43.5012 70.523C43.3799 70.621 43.3192 70.7633 43.3192 70.95C43.3192 71.118 43.3636 71.244 43.4522 71.328C43.5409 71.4073 43.6599 71.447 43.8092 71.447ZM44.5862 72C44.5629 71.9393 44.5419 71.8693 44.5232 71.79C44.5092 71.706 44.4976 71.6173 44.4882 71.524C44.4462 71.5893 44.3949 71.6547 44.3342 71.72C44.2736 71.7853 44.2036 71.8437 44.1242 71.895C44.0449 71.9463 43.9516 71.9883 43.8442 72.021C43.7369 72.0537 43.6156 72.07 43.4802 72.07C43.3122 72.07 43.1559 72.049 43.0112 72.007C42.8666 71.965 42.7429 71.902 42.6402 71.818C42.5376 71.7293 42.4559 71.6197 42.3952 71.489C42.3392 71.3583 42.3112 71.2067 42.3112 71.034C42.3112 70.6887 42.4606 70.411 42.7592 70.201C43.0579 69.9863 43.5199 69.879 44.1452 69.879H44.4462V69.683C44.4462 69.473 44.3949 69.3167 44.2922 69.214C44.1896 69.1067 43.9982 69.053 43.7182 69.053C43.5129 69.053 43.3356 69.088 43.1862 69.158C43.0369 69.2233 42.8899 69.3073 42.7452 69.41L42.4512 68.703C42.6006 68.6143 42.7872 68.5397 43.0112 68.479C43.2399 68.4137 43.5246 68.381 43.8652 68.381C44.3786 68.381 44.7729 68.4813 45.0482 68.682C45.3282 68.878 45.4682 69.2 45.4682 69.648V71.433C45.4682 71.5123 45.4706 71.6127 45.4752 71.734C45.4846 71.8507 45.4962 71.9393 45.5102 72H44.5862ZM48.5068 69.375C48.4042 69.361 48.2945 69.3587 48.1778 69.368C48.0658 69.3773 47.9538 69.4007 47.8418 69.438C47.7345 69.4707 47.6342 69.5173 47.5408 69.578C47.4475 69.6387 47.3705 69.7133 47.3098 69.802V72H46.2878V68.451H47.2048L47.2818 69.179H47.3028C47.4335 68.927 47.5992 68.7357 47.7998 68.605C48.0052 68.4743 48.2408 68.3997 48.5068 68.381V69.375ZM50.3854 71.447C50.5534 71.447 50.6864 71.4073 50.7844 71.328C50.8871 71.244 50.9664 71.1413 51.0224 71.02V70.376H50.7424C50.4251 70.376 50.2034 70.425 50.0774 70.523C49.9561 70.621 49.8954 70.7633 49.8954 70.95C49.8954 71.118 49.9397 71.244 50.0284 71.328C50.1171 71.4073 50.2361 71.447 50.3854 71.447ZM51.1624 72C51.1391 71.9393 51.1181 71.8693 51.0994 71.79C51.0854 71.706 51.0737 71.6173 51.0644 71.524C51.0224 71.5893 50.9711 71.6547 50.9104 71.72C50.8497 71.7853 50.7797 71.8437 50.7004 71.895C50.6211 71.9463 50.5277 71.9883 50.4204 72.021C50.3131 72.0537 50.1917 72.07 50.0564 72.07C49.8884 72.07 49.7321 72.049 49.5874 72.007C49.4427 71.965 49.3191 71.902 49.2164 71.818C49.1137 71.7293 49.0321 71.6197 48.9714 71.489C48.9154 71.3583 48.8874 71.2067 48.8874 71.034C48.8874 70.6887 49.0367 70.411 49.3354 70.201C49.6341 69.9863 50.0961 69.879 50.7214 69.879H51.0224V69.683C51.0224 69.473 50.9711 69.3167 50.8684 69.214C50.7657 69.1067 50.5744 69.053 50.2944 69.053C50.0891 69.053 49.9117 69.088 49.7624 69.158C49.6131 69.2233 49.4661 69.3073 49.3214 69.41L49.0274 68.703C49.1767 68.6143 49.3634 68.5397 49.5874 68.479C49.8161 68.4137 50.1007 68.381 50.4414 68.381C50.9547 68.381 51.3491 68.4813 51.6244 68.682C51.9044 68.878 52.0444 69.2 52.0444 69.648V71.433C52.0444 71.5123 52.0467 71.6127 52.0514 71.734C52.0607 71.8507 52.0724 71.9393 52.0864 72H51.1624ZM52.5008 68.451H53.5298L54.3698 71.181L55.2168 68.451H56.0708L54.8808 72H53.6838L52.5008 68.451ZM58.0689 68.983C57.8776 68.983 57.7189 69.0577 57.5929 69.207C57.4716 69.3517 57.3922 69.5663 57.3549 69.851H58.6709C58.6802 69.5523 58.6289 69.333 58.5169 69.193C58.4096 69.053 58.2602 68.983 58.0689 68.983ZM59.5599 71.713C59.4526 71.7923 59.2892 71.8717 59.0699 71.951C58.8506 72.0303 58.5822 72.07 58.2649 72.07C57.9429 72.07 57.6606 72.028 57.4179 71.944C57.1752 71.8553 56.9722 71.7317 56.8089 71.573C56.6502 71.4097 56.5289 71.2137 56.4449 70.985C56.3656 70.7563 56.3259 70.502 56.3259 70.222C56.3259 69.9373 56.3679 69.683 56.4519 69.459C56.5359 69.2303 56.6549 69.0367 56.8089 68.878C56.9629 68.7193 57.1449 68.598 57.3549 68.514C57.5696 68.4253 57.8076 68.381 58.0689 68.381C58.3302 68.381 58.5659 68.423 58.7759 68.507C58.9859 68.591 59.1586 68.717 59.2939 68.885C59.4339 69.053 59.5296 69.263 59.5809 69.515C59.6369 69.767 59.6369 70.0587 59.5809 70.39H57.3409C57.3736 70.726 57.4762 70.9757 57.6489 71.139C57.8262 71.2977 58.0689 71.377 58.3769 71.377C58.5729 71.377 58.7526 71.349 58.9159 71.293C59.0839 71.237 59.2332 71.1693 59.3639 71.09L59.5599 71.713ZM61.3303 66.925V72H60.3083V66.925H61.3303Z" fill="black"/>
<g clip-path="url(#clip0)">
<path d="M55.0696 52.5001C55.3821 52.9515 55.5731 52.9168 55.816 52.8126C56.059 52.7083 68.5593 48.4896 68.9412 48.3508C69.3231 48.2119 69.2017 48.0904 69.0803 47.8993C68.9587 47.7083 64.7919 42.0487 64.5835 41.7188C64.3752 41.389 64.271 41.4583 63.9411 41.5626L50.6902 45.0105C50.6902 45.0105 54.7571 52.0485 55.0696 52.5001ZM70.0003 46.7368V40.1121C68.5095 40.5093 66.6238 41.0115 65.8794 41.2094C67.0024 42.7119 68.7581 45.0633 70.0003 46.7368ZM65.8666 33.0502C65.6624 33.0966 61.1405 33.9138 60.8619 33.9508C60.5834 33.988 60.6762 34.1458 60.7877 34.3037L64.7669 39.7635C64.7669 39.7635 69.6325 38.5565 69.9296 38.4915C69.9537 38.4862 69.9773 38.4805 70.0003 38.4747V37.7518C69.1159 36.6304 66.7065 33.5771 66.4982 33.2918C66.2476 32.9482 66.071 33.004 65.8666 33.0502Z" fill="#F35045"/>
<path d="M37.415 24.4741C38.3943 24.4295 38.4836 24.6523 38.9138 25.2903L49.7216 43.3594L63.3113 40.1039C62.5583 39.0366 59.1402 34.1905 58.8097 33.728C58.4385 33.208 58.8191 32.9666 59.4227 32.8645C60.0261 32.7623 65.2258 31.8895 65.6715 31.8245C66.1172 31.7595 66.4702 31.6017 67.1943 32.4745C67.5649 32.9211 68.8211 34.4855 70 35.9519V27.5C70 25.4341 69.2665 23.6675 67.7996 22.2005C66.3326 20.7336 64.566 20 62.5 20H37.5C35.4341 20 33.6675 20.7336 32.2005 22.2005C31.3591 23.0422 30.7602 23.9823 30.4016 25.0209C32.8513 24.8197 36.7299 24.5053 37.4152 24.4741H37.415Z" fill="#F35045"/>
<path d="M56.2952 54.9319C55.1492 55.2791 54.6353 55.4514 53.8889 54.4097C53.3298 53.6295 50.3066 48.1842 48.8242 45.4998C46.0187 46.2345 40.8845 47.5745 39.4039 47.9303C37.9589 48.2775 37.3417 47.4111 37.1044 46.8772C36.938 46.5025 32.7014 37.3684 30 31.5078V52.5C30 54.5661 30.7336 56.3323 32.2005 57.7995C33.6675 59.2664 35.4341 60 37.5 60H62.5C64.5659 60 66.3325 59.2664 67.7995 57.7995C69.2664 56.3323 70 54.5661 70 52.5V50.0342C66.9313 51.1567 57.0672 54.698 56.2952 54.9319Z" fill="#F35045"/>
<path d="M39.4393 45.8263C39.8456 45.7333 47.457 43.9118 47.6195 43.8769C47.782 43.8421 47.8864 43.7493 47.7123 43.4477C47.5382 43.1462 37.5664 25.9338 37.5664 25.9338C37.4743 25.7758 37.5006 25.7231 37.2504 25.7363C37.0275 25.7481 31.3851 26.2516 30.0789 26.3606C30.0403 26.6368 30.0163 26.9149 30.0068 27.1936C31.3329 29.9084 38.9442 45.6055 38.9868 45.7333C39.0332 45.8727 39.0332 45.9191 39.4393 45.8263Z" fill="#F35045"/>
</g>
<defs>
<clipPath id="clip0">
<rect x="30" y="20" width="40" height="40" fill="white"/>
</clipPath>
</defs>
</svg>
