<svg width="100" height="100" viewBox="0 0 100 100" fill="none" xmlns="http://www.w3.org/2000/svg">
<path d="M2.5 5C2.5 3.61929 3.61929 2.5 5 2.5H95C96.3807 2.5 97.5 3.61929 97.5 5V69.7591C97.5 70.674 97.0003 71.5158 96.1971 71.9538L51.1971 96.4993C50.4509 96.9063 49.5491 96.9063 48.8029 96.4993L3.80287 71.9538C2.99972 71.5158 2.5 70.674 2.5 69.7591V5Z" fill="white" stroke="#0B0B0A" stroke-width="5" stroke-linejoin="round"/>
<path d="M45.2539 68.045C45.0859 68.045 44.9436 67.996 44.8269 67.898C44.7149 67.8 44.6589 67.6693 44.6589 67.506C44.6589 67.3427 44.7149 67.212 44.8269 67.114C44.9436 67.0113 45.0859 66.96 45.2539 66.96C45.4173 66.96 45.5573 67.0113 45.6739 67.114C45.7906 67.212 45.8489 67.3427 45.8489 67.506C45.8489 67.6693 45.7906 67.8 45.6739 67.898C45.5573 67.996 45.4173 68.045 45.2539 68.045ZM45.7649 68.451V72H44.7429V68.451H45.7649ZM48.933 72.07C48.5876 72.07 48.2656 72.0163 47.967 71.909C47.6683 71.8017 47.407 71.6453 47.183 71.44C46.9636 71.23 46.791 70.971 46.665 70.663C46.539 70.3503 46.476 69.991 46.476 69.585C46.476 69.179 46.539 68.8197 46.665 68.507C46.791 68.1943 46.9636 67.933 47.183 67.723C47.407 67.5083 47.6683 67.3473 47.967 67.24C48.2656 67.128 48.5876 67.072 48.933 67.072C49.2736 67.072 49.5933 67.1257 49.892 67.233C50.1953 67.3357 50.4566 67.492 50.676 67.702C50.9 67.912 51.075 68.171 51.201 68.479C51.3316 68.787 51.397 69.144 51.397 69.55C51.397 69.956 51.3316 70.3153 51.201 70.628C51.075 70.9407 50.9 71.2043 50.676 71.419C50.4566 71.6337 50.1953 71.797 49.892 71.909C49.5933 72.0163 49.2736 72.07 48.933 72.07ZM48.933 71.356C49.1243 71.356 49.3016 71.3257 49.465 71.265C49.6283 71.1997 49.7683 71.097 49.885 70.957C50.0063 70.817 50.0996 70.635 50.165 70.411C50.235 70.1823 50.27 69.9023 50.27 69.571C50.27 69.2443 50.235 68.9667 50.165 68.738C50.0996 68.5093 50.0063 68.325 49.885 68.185C49.7683 68.045 49.6283 67.9447 49.465 67.884C49.3016 67.8187 49.1243 67.786 48.933 67.786C48.737 67.786 48.5573 67.8187 48.394 67.884C48.2353 67.9447 48.0953 68.045 47.974 68.185C47.8573 68.325 47.7663 68.5093 47.701 68.738C47.6356 68.9667 47.603 69.2443 47.603 69.571C47.603 69.9023 47.6356 70.1823 47.701 70.411C47.7663 70.635 47.8573 70.817 47.974 70.957C48.0953 71.097 48.2353 71.1997 48.394 71.265C48.5573 71.3257 48.737 71.356 48.933 71.356ZM53.5409 72.07C53.3262 72.07 53.1302 72.0537 52.9529 72.021C52.7755 71.9883 52.6192 71.9487 52.4839 71.902C52.3485 71.8553 52.2319 71.804 52.1339 71.748C52.0359 71.692 51.9589 71.6383 51.9029 71.587L52.0149 70.838C52.0802 70.8893 52.1619 70.9453 52.2599 71.006C52.3625 71.0667 52.4769 71.1227 52.6029 71.174C52.7289 71.2207 52.8642 71.2603 53.0089 71.293C53.1582 71.3257 53.3122 71.342 53.4709 71.342C53.7509 71.342 53.9772 71.2883 54.1499 71.181C54.3272 71.069 54.4159 70.8987 54.4159 70.67C54.4159 70.5533 54.3902 70.4577 54.3389 70.383C54.2922 70.3083 54.2222 70.2477 54.1289 70.201C54.0402 70.1497 53.9305 70.11 53.7999 70.082C53.6739 70.0493 53.5339 70.0143 53.3799 69.977C53.2072 69.935 53.0345 69.8837 52.8619 69.823C52.6892 69.7623 52.5352 69.6783 52.3999 69.571C52.2645 69.4637 52.1525 69.326 52.0639 69.158C51.9799 68.99 51.9379 68.7753 51.9379 68.514C51.9379 68.262 51.9845 68.045 52.0779 67.863C52.1712 67.681 52.2995 67.5317 52.4629 67.415C52.6262 67.2983 52.8199 67.212 53.0439 67.156C53.2679 67.1 53.5105 67.072 53.7719 67.072C54.1219 67.072 54.4159 67.1093 54.6539 67.184C54.8919 67.254 55.0622 67.3333 55.1649 67.422L55.0739 68.171C54.9292 68.0637 54.7472 67.975 54.5279 67.905C54.3085 67.835 54.0659 67.8 53.7999 67.8C53.4919 67.8 53.2679 67.8537 53.1279 67.961C52.9879 68.0637 52.9179 68.213 52.9179 68.409C52.9179 68.5163 52.9412 68.605 52.9879 68.675C53.0345 68.7403 53.0999 68.7987 53.1839 68.85C53.2725 68.8967 53.3822 68.9387 53.5129 68.976C53.6435 69.0087 53.7929 69.0413 53.9609 69.074C54.1335 69.1113 54.3085 69.158 54.4859 69.214C54.6632 69.27 54.8242 69.354 54.9689 69.466C55.1135 69.5733 55.2302 69.7133 55.3189 69.886C55.4075 70.0587 55.4519 70.2803 55.4519 70.551C55.4519 70.8497 55.3935 71.097 55.2769 71.293C55.1649 71.489 55.0179 71.6453 54.8359 71.762C54.6539 71.874 54.4485 71.9533 54.2199 72C53.9959 72.0467 53.7695 72.07 53.5409 72.07Z" fill="black"/>
<path fill-rule="evenodd" clip-rule="evenodd" d="M54.884 27.7018C56.0294 26.2232 56.8977 24.1333 56.5836 22C54.7115 22.1301 52.5233 23.3279 51.2464 24.8891C50.0825 26.3037 49.1259 28.4081 49.4995 30.4505C51.5462 30.5145 53.6584 29.2878 54.884 27.7018ZM65 47.7687C64.1809 49.5943 63.7868 50.41 62.7317 52.027C61.2599 54.2842 59.1845 57.0948 56.6103 57.1155C54.3256 57.1403 53.7365 55.6183 50.6347 55.6369C47.533 55.6534 46.8864 57.1444 44.5975 57.1217C42.0254 57.099 40.0589 54.563 38.587 52.3058C34.4692 45.9989 34.036 38.5954 36.5753 34.6572C38.3817 31.861 41.231 30.2254 43.9078 30.2254C46.6318 30.2254 48.3459 31.7288 50.6019 31.7288C52.7901 31.7288 54.1224 30.2213 57.2734 30.2213C59.6587 30.2213 62.1857 31.5285 63.9839 33.7836C58.0883 37.0342 59.0429 45.5033 65 47.7687Z" fill="#0B0B0A"/>
</svg>
