<svg width="40" height="40" viewBox="0 0 40 40" fill="none" xmlns="http://www.w3.org/2000/svg">
<path d="M0 20C0 8.95433 8.95433 0 20 0C31.0457 0 40 8.95433 40 20C40 31.0457 31.0457 40 20 40C8.95433 40 0 31.0457 0 20Z" fill="#F37021"/>
<path d="M2 20C2 10.0589 10.0589 2 20 2C29.9411 2 38 10.0589 38 20C38 29.9411 29.9411 38 20 38C10.0589 38 2 29.9411 2 20Z" fill="url(#paint0_radial)"/>
<path fill-rule="evenodd" clip-rule="evenodd" d="M13.354 23.8366L12.1113 28.5411C12.0856 28.6704 12.0336 28.7007 11.8785 28.7007H9.57386C9.41884 28.7007 9.39311 28.6489 9.41884 28.4677L13.8718 12.8639C13.9494 12.5791 14.0012 12.334 14.0271 11.5574C14.0271 11.4538 14.0789 11.402 14.1567 11.402H17.4445C17.548 11.402 17.5998 11.4279 17.6258 11.5574L22.6223 28.4935C22.6482 28.6228 22.6223 28.7007 22.4928 28.7007H19.9039C19.7746 28.7007 19.6968 28.6704 19.6711 28.5668L18.3766 23.8366H13.3541H13.354ZM17.7295 21.2869C17.2894 19.5523 16.2537 15.7506 15.8655 13.9124H15.8396C15.5029 15.7506 14.6744 18.8533 14.0273 21.2869H17.7295ZM24.7891 12.5666C24.7891 11.5569 25.4881 10.9614 26.3942 10.9614C27.3521 10.9614 27.9993 11.6087 27.9993 12.5666C27.9993 13.6021 27.3262 14.1717 26.3683 14.1717C25.4363 14.1717 24.7891 13.6021 24.7891 12.5666ZM24.9648 16.1334C24.9648 16.0039 25.0166 15.9521 25.1461 15.9521H27.6079C27.7373 15.9521 27.7891 16.0039 27.7891 16.1334V28.5194C27.7891 28.6488 27.7632 28.7006 27.6079 28.7006H25.172C25.0166 28.7006 24.9648 28.6227 24.9648 28.4935V16.1334Z" fill="#FF7F18"/>
<defs>
<radialGradient id="paint0_radial" cx="0" cy="0" r="1" gradientUnits="userSpaceOnUse" gradientTransform="translate(16.3525 13.992) scale(23.4707)">
<stop stop-color="#1C0A00" stop-opacity="0.85"/>
<stop offset="0.767" stop-color="#1C0A00"/>
</radialGradient>
</defs>
</svg>
