<svg width="40" height="40" viewBox="0 0 40 40" fill="none" xmlns="http://www.w3.org/2000/svg">
<path d="M0 20C0 8.95433 8.95433 0 20 0C31.0457 0 40 8.95433 40 20C40 31.0457 31.0457 40 20 40C8.95433 40 0 31.0457 0 20Z" fill="#31C5F0"/>
<path d="M2 20C2 10.0589 10.0589 2 20 2C29.9411 2 38 10.0589 38 20C38 29.9411 29.9411 38 20 38C10.0589 38 2 29.9411 2 20Z" fill="url(#paint0_radial)"/>
<path fill-rule="evenodd" clip-rule="evenodd" d="M10 11.5946C10 11.4901 10.2241 11.4117 10.3548 11.4117C11.3741 11.3594 12.8707 11.3333 14.4387 11.3333C18.8295 11.3333 20.5396 13.7378 20.5396 16.8218C20.5396 20.8467 17.6206 22.5717 14.04 22.5717C13.4389 22.5717 13.2298 22.5454 12.8116 22.5454V28.6311C12.8116 28.762 12.7593 28.8142 12.6286 28.8142H10.183C10.0523 28.8142 10 28.762 10 28.6311V11.5946ZM12.8118 20.0105C13.1778 20.0365 13.4652 20.0365 14.0925 20.0365C15.9482 20.0365 17.691 19.3831 17.691 16.8741C17.691 14.8614 16.4447 13.8423 14.3277 13.8423C13.7005 13.8423 13.0993 13.8683 12.8118 13.8946V20.0104V20.0105ZM26.4455 18.1286C25.191 18.1286 24.7728 18.7559 24.7728 19.2786C24.7728 19.8536 25.0603 20.2455 26.7332 21.1081C29.2161 22.3104 30.0002 23.4603 30.0002 25.159C30.0002 27.6944 28.0661 29.0534 25.4525 29.0534C24.0673 29.0534 22.8883 28.7658 22.2088 28.3739C22.1043 28.3216 22.0781 28.2432 22.0781 28.1125V25.7864C22.0781 25.6296 22.1565 25.5774 22.2611 25.6556C23.2542 26.3088 24.4069 26.5965 25.4525 26.5965C26.707 26.5965 27.2298 26.0738 27.2298 25.3681C27.2298 24.7931 26.8638 24.2964 25.2696 23.4602C23.0219 22.3885 22.081 21.2907 22.081 19.4614C22.081 17.4228 23.6753 15.7238 26.4455 15.7238C27.8046 15.7238 28.7642 15.9329 29.2869 16.1679C29.4176 16.2465 29.4437 16.377 29.4437 16.4816V18.6513C29.4437 18.7819 29.3653 18.8604 29.2085 18.8082C28.503 18.39 27.465 18.1286 26.4455 18.1286Z" fill="#31C5F0"/>
<defs>
<radialGradient id="paint0_radial" cx="0" cy="0" r="1" gradientUnits="userSpaceOnUse" gradientTransform="translate(16.3525 13.992) scale(23.4707)">
<stop stop-color="#0E0E17" stop-opacity="0.85"/>
<stop offset="0.767" stop-color="#0E0E17"/>
</radialGradient>
</defs>
</svg>
