<svg width="40" height="40" viewBox="0 0 40 40" fill="none" xmlns="http://www.w3.org/2000/svg">
<g clip-path="url(#clip0)">
<path d="M16.1379 39.7578C12.6324 39.0421 9.36592 37.4118 6.81648 35.1454C0.243705 29.3202 -1.8078 20.1549 1.67776 11.9837C2.53422 9.97573 3.92844 7.94784 5.64135 6.17841L7.15507 4.62768L7.25466 13.7333C7.35425 22.4611 7.37417 22.8985 7.79244 23.992C8.62897 26.1988 9.50534 27.5905 11.039 29.1015C14.9826 33.0181 20.7587 33.9923 25.6783 31.5866C30.2992 29.3202 33.2072 24.3697 32.8686 19.3597C32.6495 15.9997 31.5142 13.5345 29.0643 11.0891C27.212 9.24013 25.041 8.02737 22.6907 7.53034C20.2807 7.03331 20.4002 6.95378 20.4002 8.98167V10.7312L21.7148 10.9698C26.8136 11.9042 30.1996 16.9143 29.144 21.9641C28.8054 23.5745 28.0485 25.0059 26.8336 26.3181C24.9812 28.3062 22.372 29.2605 20.1014 29.2605C16.337 29.2605 13.21 27.1133 11.6763 23.9721C11.6763 23.9721 11.278 23.0775 11.1585 22.5208C10.4016 19.2404 10.8796 12.3615 10.8796 12.3615L10.8199 2.2817L11.4174 1.98348C11.7361 1.80455 12.0548 1.68526 12.1145 1.68526C12.1743 1.68526 12.234 6.31758 12.2739 11.9837C12.2739 11.9837 11.5568 19.3994 12.4531 22.2424C12.5726 22.66 12.8316 23.3558 12.8316 23.3558C13.6083 24.9463 14.8631 26.3579 16.4964 27.1332C17.7313 27.7098 18.3686 27.9881 20.201 27.9881C21.3961 27.9881 22.4517 27.6104 23.6866 27.0537C25.1207 26.3976 26.7738 24.6481 27.3913 23.0377C29.0643 18.6241 26.734 13.8923 22.2127 12.5603C20.3604 12.0235 20.4002 11.9837 20.4002 13.9917V15.7413L21.2766 15.9799C24.4634 16.8348 25.4393 21.1092 22.9297 23.2962C22.0534 24.0715 21.2567 24.4095 19.8624 24.4095C18.3686 24.4095 16.9346 23.5148 16.1976 22.1232C15.7594 21.2881 15.7196 20.5128 15.7196 20.1549C15.7196 16.8348 15.6399 10.8306 15.6399 10.8306L15.5802 0.552029L16.0383 0.432741C16.2972 0.373097 17.313 0.214048 18.3089 0.0947605C21.6749 -0.342627 26.6543 0.770722 30.0004 2.67932C34.5615 5.28376 38.0073 9.75704 39.4413 14.9262C39.9393 16.6956 39.999 17.2324 39.999 20.0754C39.999 22.9184 39.9393 23.4552 39.4613 25.2048C37.5093 32.2427 32.53 37.2528 25.4194 39.3999C23.9256 39.8572 23.2285 39.9367 20.5795 39.9964C18.4483 40.0163 17.074 39.9566 16.1379 39.7578Z" fill="#C60C30"/>
</g>
<defs>
<clipPath id="clip0">
<rect width="40" height="40" fill="white"/>
</clipPath>
</defs>
</svg>
