<svg width="40" height="40" viewBox="0 0 40 40" fill="none" xmlns="http://www.w3.org/2000/svg">
<path d="M0 34.8423C0 37.6911 2.30922 40 5.15766 40H34.8422C37.6911 40 40 37.6908 40 34.8423V5.15781C40 2.30891 37.6908 0 34.8423 0H5.15781C2.30891 0 0 2.30922 0 5.15766V34.8422V34.8423Z" fill="#563D7C"/>
<path d="M16.5872 17.6934V12.0289H21.5733C22.0483 12.0289 22.5062 12.0684 22.9471 12.1477C23.388 12.2267 23.7782 12.368 24.1174 12.5716C24.4565 12.7752 24.7279 13.0578 24.9315 13.4195C25.1349 13.7814 25.2368 14.245 25.2368 14.8102C25.2368 15.8278 24.9315 16.5628 24.3209 17.015C23.7104 17.4673 22.9302 17.6934 21.9804 17.6934H16.5872ZM11.2617 7.89062V32.1094H22.998C24.0835 32.1094 25.1407 31.9738 26.1696 31.7023C27.1985 31.4309 28.1143 31.0127 28.9171 30.4473C29.7198 29.882 30.3587 29.1527 30.8336 28.2595C31.3086 27.3662 31.5459 26.3091 31.5459 25.088C31.5459 23.5728 31.1784 22.2783 30.4436 21.2042C29.7085 20.13 28.5948 19.3781 27.1023 18.9484C28.1878 18.4284 29.0076 17.7612 29.5617 16.9472C30.1156 16.1331 30.3926 15.1156 30.3926 13.8944C30.3926 12.7638 30.2061 11.8141 29.8329 11.0452C29.4598 10.2764 28.934 9.66016 28.2556 9.19656C27.5773 8.73297 26.7632 8.39937 25.8134 8.19594C24.8637 7.99234 23.8121 7.89062 22.6588 7.89062H11.2617ZM16.5872 27.9711V21.3228H22.3874C23.5407 21.3228 24.4679 21.5884 25.169 22.12C25.8699 22.6514 26.2206 23.5389 26.2206 24.7827C26.2206 25.4159 26.1131 25.9359 25.8982 26.343C25.6834 26.75 25.3951 27.0723 25.0332 27.3097C24.6715 27.5472 24.253 27.7167 23.7782 27.8186C23.3032 27.9202 22.8059 27.9711 22.2857 27.9711H16.5872Z" fill="white"/>
</svg>
