<svg width="40" height="40" viewBox="0 0 40 40" fill="none" xmlns="http://www.w3.org/2000/svg">
<path d="M30.1157 34.7172L19.9996 37.441L9.88325 34.7172L7.54883 9.42676H32.4504L30.1157 34.7172Z" fill="#2062AF"/>
<path d="M20 11.4751V35.2683L20.0229 35.2745L28.2095 33.0701L30.0991 11.4751H20Z" fill="#3C9CD7"/>
<path d="M14.2585 5.7115V4.20622H16.4547V2.55908H12.6113V7.21455H16.4547V5.7115H14.2585ZM20.4054 4.20622H21.9408V2.55908H18.0971V4.20622C18.6114 4.72045 18.8795 4.96658 19.6233 5.71031C19.1885 5.71031 18.0971 5.71187 18.0971 5.71179V7.21455H21.9408V5.7115L20.4054 4.20622ZM25.8532 4.20622H27.3885V2.55908H23.5447V4.20622C24.0589 4.72045 24.3272 4.96658 25.071 5.71031C24.6363 5.71031 23.5447 5.71187 23.5447 5.71179V7.21455H27.3886V5.7115L25.8532 4.20622Z" fill="black"/>
<path d="M19.9925 17.7993L12.752 20.8147L12.9921 23.8002L19.9925 20.8071L27.439 17.6234L27.7478 14.5693L19.9925 17.7993Z" fill="white"/>
<path d="M12.75 20.8142L12.9901 23.7997L19.9905 20.8067V17.7988L12.75 20.8142Z" fill="url(#paint0_linear)"/>
<path d="M27.7476 14.5688L19.9922 17.7987V20.8066L27.4389 17.6229L27.7476 14.5688Z" fill="url(#paint1_linear)"/>
<path d="M12.7617 20.8145L13.0019 23.8L23.7431 23.8342L23.5028 27.8149L19.9683 28.8099L16.5707 27.9521L16.3648 25.4813H13.2078L13.6196 30.2512L20.0027 32.1385L26.3511 30.2854L27.1748 20.8145H12.7617Z" fill="url(#paint2_linear)"/>
<path opacity="0.05" d="M19.9924 20.8145H12.752L12.9921 23.8L19.9924 23.8223V20.8145ZM19.9924 28.8004L19.958 28.81L16.5609 27.9521L16.355 25.4814H13.1981L13.6098 30.2513L19.9924 32.1386V28.8004Z" fill="black"/>
<path d="M12.0977 14.5688H27.7456L27.4368 17.6229H12.4751L12.0977 14.5688Z" fill="url(#paint3_linear)"/>
<path opacity="0.05" d="M19.9901 14.5688H12.0977L12.4751 17.6229H19.9901V14.5688Z" fill="black"/>
<defs>
<linearGradient id="paint0_linear" x1="16.3702" y1="23.7998" x2="16.3702" y2="17.7989" gradientUnits="userSpaceOnUse">
<stop offset="0.387" stop-color="#D1D3D4" stop-opacity="0"/>
<stop offset="1" stop-color="#D1D3D4"/>
</linearGradient>
<linearGradient id="paint1_linear" x1="23.8698" y1="20.8067" x2="23.8698" y2="14.5689" gradientUnits="userSpaceOnUse">
<stop offset="0.387" stop-color="#D1D3D4" stop-opacity="0"/>
<stop offset="1" stop-color="#D1D3D4"/>
</linearGradient>
<linearGradient id="paint2_linear" x1="12.7617" y1="26.4766" x2="27.1747" y2="26.4766" gradientUnits="userSpaceOnUse">
<stop stop-color="#E8E7E5"/>
<stop offset="1" stop-color="white"/>
</linearGradient>
<linearGradient id="paint3_linear" x1="12.0977" y1="16.0959" x2="27.7455" y2="16.0959" gradientUnits="userSpaceOnUse">
<stop stop-color="#E8E7E5"/>
<stop offset="1" stop-color="white"/>
</linearGradient>
</defs>
</svg>
