<svg width="29" height="40" viewBox="0 0 29 40" fill="none" xmlns="http://www.w3.org/2000/svg">
<path d="M19.0417 14.4479L15.0247 18.1725L11.2959 10.6794L13.2222 6.37099C13.709 5.51158 14.5053 5.50023 14.9921 6.37099L19.0417 14.4479Z" fill="#FFA000"/>
<path d="M15.0259 18.1712L0 32.0888L11.2971 10.6797L15.0259 18.1712Z" fill="#F57F17"/>
<path d="M23.4459 8.75134C24.1656 8.06867 24.9065 8.29893 25.0937 9.26861L29 31.9004L16.0436 39.6464C15.5893 39.8994 14.3844 39.9983 14.3844 39.9983C14.3844 39.9983 13.2885 39.8653 12.8684 39.6351L0 32.0885L23.4459 8.75134Z" fill="#FFCA28"/>
<path d="M11.2971 10.6801L0 32.0892L5.0347 0.796821C5.22358 -0.172856 5.77558 -0.27177 6.27383 0.587643L11.2971 10.6801Z" fill="#FFA000"/>
</svg>
