<svg width="100" height="100" viewBox="0 0 100 100" fill="none" xmlns="http://www.w3.org/2000/svg">
<path d="M2.5 5C2.5 3.61929 3.61929 2.5 5 2.5H95C96.3807 2.5 97.5 3.61929 97.5 5V69.7591C97.5 70.674 97.0003 71.5158 96.1971 71.9538L51.1971 96.4993C50.4509 96.9063 49.5491 96.9063 48.8029 96.4993L3.80287 71.9538C2.99972 71.5158 2.5 70.674 2.5 69.7591V5Z" fill="white" stroke="#00A0E3" stroke-width="5" stroke-linejoin="round"/>
<path d="M19.7586 56.7978H18.5V45H23.8236C24.9801 45 25.8929 45.2921 26.5619 45.8764C27.2422 46.4494 27.5824 47.2247 27.5824 48.2022C27.5824 49.0449 27.3329 49.7472 26.834 50.309C26.3465 50.8708 25.6605 51.2247 24.776 51.3708L28.6199 56.7978H27.1402L23.3984 51.4888H19.7586V56.7978ZM19.7586 46.1292V50.3596H23.7555C24.5719 50.3596 25.2012 50.1798 25.6434 49.8202C26.097 49.4494 26.3238 48.927 26.3238 48.2528C26.3238 47.5787 26.097 47.0562 25.6434 46.6854C25.1899 46.3146 24.5606 46.1292 23.7555 46.1292H19.7586Z" fill="black"/>
<path d="M43.9966 56.7978H42.772V48.6573H43.9966V56.7978Z" fill="black"/>
<path d="M50.7425 57C50.0849 57 49.4386 56.9213 48.8036 56.764C48.1799 56.5955 47.6924 56.3933 47.3409 56.1573V54.9101C48.3387 55.573 49.4612 55.9045 50.7085 55.9045C51.4115 55.9045 51.9614 55.7921 52.3583 55.5674C52.7665 55.3315 52.9706 55.0112 52.9706 54.6067C52.9706 54.2584 52.7778 53.9719 52.3923 53.7472C52.2789 53.6573 51.9898 53.5562 51.5249 53.4438C51.3888 53.3989 51.2017 53.3539 50.9636 53.309C50.6575 53.2303 50.4704 53.1854 50.4024 53.1742C49.3705 52.9157 48.6335 52.6124 48.1913 52.264C47.7491 51.9045 47.528 51.3876 47.528 50.7135C47.528 50.0056 47.8171 49.4551 48.3954 49.0618C48.9737 48.6573 49.7844 48.4551 50.8276 48.4551C52.0635 48.4551 53.0613 48.6966 53.821 49.1798V50.3764C52.8912 49.8258 51.9104 49.5506 50.8786 49.5506C50.1869 49.5506 49.6597 49.6573 49.2968 49.8708C48.9453 50.0843 48.7696 50.3764 48.7696 50.7472C48.7696 51.1517 48.9793 51.4551 49.3989 51.6573C49.4782 51.6798 49.5746 51.7191 49.688 51.7753C49.8127 51.8202 49.9375 51.8596 50.0622 51.8933L50.4364 51.9944C50.7085 52.0843 50.9806 52.1461 51.2528 52.1798C52.2733 52.427 53.0216 52.7303 53.4978 53.0899C53.9854 53.4494 54.2292 53.9607 54.2292 54.6236C54.2292 55.3652 53.9004 55.9438 53.2427 56.3596C52.5851 56.7865 51.7517 57 50.7425 57Z" fill="black"/>
<path d="M60.6065 57C59.8468 57 59.2685 56.7809 58.8716 56.3427C58.4861 55.8933 58.2934 55.2753 58.2934 54.4888V49.7191H56.3544V48.6573H58.2934V46.1461H59.518V48.6573H62.3923V49.7191H59.518V54.118C59.518 54.7697 59.6257 55.2191 59.8411 55.4663C60.0679 55.7247 60.4364 55.8539 60.9466 55.8539C61.4455 55.8539 61.8934 55.7416 62.2903 55.5169V56.6292C61.9388 56.8764 61.3775 57 60.6065 57Z" fill="black"/>
<path d="M68.2719 55.9045C68.8388 55.9045 69.3774 55.7753 69.8876 55.5169C70.3979 55.2584 70.8118 54.9326 71.1292 54.5393V53.4101C70.2902 52.8708 69.4001 52.6011 68.459 52.6011C67.7106 52.6011 67.1153 52.7472 66.6731 53.0393C66.2422 53.3315 66.0268 53.7303 66.0268 54.236C66.0268 54.764 66.2365 55.1742 66.6561 55.4663C67.0756 55.7584 67.6142 55.9045 68.2719 55.9045ZM67.9317 57C67.0586 57 66.3159 56.764 65.7036 56.2921C65.1027 55.7978 64.8022 55.1348 64.8022 54.3034C64.8022 53.4831 65.1197 52.8258 65.7547 52.3315C66.3896 51.8483 67.1947 51.6067 68.1698 51.6067C69.2357 51.6067 70.2221 51.8708 71.1292 52.3989V51.5899C71.1292 50.2303 70.2278 49.5506 68.4249 49.5506C67.4611 49.5506 66.5654 49.8258 65.7376 50.3764V49.1966C66.5427 48.7022 67.5235 48.4551 68.6801 48.4551C69.8026 48.4551 70.6927 48.7191 71.3503 49.2472C72.0193 49.764 72.3538 50.5056 72.3538 51.4719V54.8258C72.3538 55.1405 72.4219 55.3876 72.5579 55.5674C72.7053 55.7472 72.8981 55.8371 73.1362 55.8371C73.3176 55.8371 73.4764 55.8034 73.6124 55.736V56.6798C73.431 56.8034 73.1589 56.8652 72.796 56.8652C72.3878 56.8652 72.042 56.7584 71.7585 56.5449C71.4864 56.3202 71.3163 55.9944 71.2483 55.5674C70.4206 56.5225 69.315 57 67.9317 57Z" fill="black"/>
<path d="M79.7141 57C78.9544 57 78.3762 56.7809 77.9793 56.3427C77.5938 55.8933 77.401 55.2753 77.401 54.4888V49.7191H75.4621V48.6573H77.401V46.1461H78.6256V48.6573H81.5V49.7191H78.6256V54.118C78.6256 54.7697 78.7333 55.2191 78.9488 55.4663C79.1755 55.7247 79.5441 55.8539 80.0543 55.8539C80.5532 55.8539 81.0011 55.7416 81.3979 55.5169V56.6292C81.0464 56.8764 80.4852 57 79.7141 57Z" fill="black"/>
<path d="M39.1522 50.7305C39.6658 51.612 39.8251 52.6529 39.5984 53.6457C39.3718 54.6384 38.7757 55.51 37.9292 56.0865C37.0827 56.663 36.0479 56.9021 35.0314 56.756C34.0149 56.61 33.0913 56.0895 32.4448 55.2985C31.7984 54.5075 31.4767 53.5041 31.5439 52.4884C31.6111 51.4727 32.0622 50.5195 32.8073 49.8189C33.5524 49.1182 34.5366 48.7217 35.5637 48.7084C36.5908 48.695 37.5852 49.0659 38.3485 49.747L37.5291 50.6488C36.9948 50.172 36.2987 49.9124 35.5797 49.9217C34.8608 49.9311 34.1718 50.2086 33.6502 50.6991C33.1287 51.1895 32.8129 51.8568 32.7659 52.5678C32.7188 53.2787 32.944 53.9811 33.3965 54.5348C33.849 55.0886 34.4955 55.4529 35.2071 55.5551C35.9187 55.6573 36.643 55.49 37.2356 55.0864C37.8281 54.6829 38.2454 54.0728 38.4041 53.3778C38.5627 52.6829 38.4512 51.9543 38.0917 51.3372L39.1522 50.7305Z" fill="#00A0E3"/>
<path d="M43.2858 46.0112C43.5887 46.3114 43.842 46.6569 44.0365 47.0351L42.9454 47.586C42.8093 47.3212 42.6319 47.0794 42.4199 46.8693L43.2858 46.0112Z" fill="#00A0E3"/>
<path d="M16.8493 23.07C16.4806 23.07 16.1423 23.014 15.8343 22.902C15.531 22.7853 15.2696 22.622 15.0503 22.412C14.831 22.1973 14.6606 21.936 14.5393 21.628C14.418 21.3153 14.3573 20.963 14.3573 20.571C14.3573 20.179 14.4156 19.829 14.5323 19.521C14.6536 19.2083 14.8216 18.947 15.0363 18.737C15.251 18.5223 15.51 18.359 15.8133 18.247C16.1166 18.1303 16.455 18.072 16.8283 18.072C17.1363 18.072 17.4046 18.1 17.6333 18.156C17.862 18.212 18.037 18.282 18.1583 18.366L18.0393 19.192C17.8993 19.094 17.7336 19.0077 17.5423 18.933C17.3556 18.8583 17.1456 18.821 16.9123 18.821C16.4456 18.821 16.091 18.9703 15.8483 19.269C15.6056 19.5677 15.4843 20.0017 15.4843 20.571C15.4843 21.7377 15.972 22.321 16.9473 22.321C17.162 22.321 17.3533 22.2953 17.5213 22.244C17.6893 22.188 17.8456 22.1087 17.9903 22.006L18.2213 22.72C18.0953 22.8087 17.918 22.8903 17.6893 22.965C17.4606 23.035 17.1806 23.07 16.8493 23.07ZM20.7139 19.983C20.5226 19.983 20.3639 20.0577 20.2379 20.207C20.1166 20.3517 20.0372 20.5663 19.9999 20.851H21.3159C21.3252 20.5523 21.2739 20.333 21.1619 20.193C21.0546 20.053 20.9052 19.983 20.7139 19.983ZM22.2049 22.713C22.0976 22.7923 21.9342 22.8717 21.7149 22.951C21.4956 23.0303 21.2272 23.07 20.9099 23.07C20.5879 23.07 20.3056 23.028 20.0629 22.944C19.8202 22.8553 19.6172 22.7317 19.4539 22.573C19.2952 22.4097 19.1739 22.2137 19.0899 21.985C19.0106 21.7563 18.9709 21.502 18.9709 21.222C18.9709 20.9373 19.0129 20.683 19.0969 20.459C19.1809 20.2303 19.2999 20.0367 19.4539 19.878C19.6079 19.7193 19.7899 19.598 19.9999 19.514C20.2146 19.4253 20.4526 19.381 20.7139 19.381C20.9752 19.381 21.2109 19.423 21.4209 19.507C21.6309 19.591 21.8036 19.717 21.9389 19.885C22.0789 20.053 22.1746 20.263 22.2259 20.515C22.2819 20.767 22.2819 21.0587 22.2259 21.39H19.9859C20.0186 21.726 20.1212 21.9757 20.2939 22.139C20.4712 22.2977 20.7139 22.377 21.0219 22.377C21.2179 22.377 21.3976 22.349 21.5609 22.293C21.7289 22.237 21.8782 22.1693 22.0089 22.09L22.2049 22.713ZM24.7804 22.405C25.0184 22.405 25.212 22.3117 25.3614 22.125C25.5154 21.9337 25.5924 21.6327 25.5924 21.222C25.5924 20.8207 25.5154 20.5243 25.3614 20.333C25.2074 20.1417 25.0137 20.046 24.7804 20.046C24.5424 20.046 24.3417 20.1417 24.1784 20.333C24.0197 20.5197 23.9404 20.816 23.9404 21.222C23.9404 21.4273 23.9614 21.6047 24.0034 21.754C24.0454 21.9033 24.1037 22.027 24.1784 22.125C24.2577 22.2183 24.3464 22.2883 24.4444 22.335C24.547 22.3817 24.659 22.405 24.7804 22.405ZM25.0744 23.07C24.813 23.07 24.589 23.0163 24.4024 22.909C24.2204 22.797 24.0687 22.6453 23.9474 22.454V24.267H22.9254V19.451H23.8424L23.9194 20.039C24.036 19.8337 24.19 19.6727 24.3814 19.556C24.5774 19.4393 24.813 19.381 25.0884 19.381C25.2937 19.381 25.4897 19.4183 25.6764 19.493C25.863 19.5677 26.0264 19.682 26.1664 19.836C26.311 19.9853 26.4254 20.1767 26.5094 20.41C26.5934 20.6387 26.6354 20.9093 26.6354 21.222C26.6354 21.5347 26.5934 21.8077 26.5094 22.041C26.4254 22.2697 26.311 22.461 26.1664 22.615C26.0217 22.769 25.856 22.8833 25.6694 22.958C25.4827 23.0327 25.2844 23.07 25.0744 23.07ZM29.0318 20.158V23H28.0028V20.158H27.0158V19.451H30.0258V20.158H29.0318ZM30.6711 19.451H31.6721V21.81L33.2611 19.451H34.1711V23H33.1701V20.641L31.5881 23H30.6711V19.451ZM36.8106 24.309V23.049C36.526 23.0303 36.2646 22.979 36.0266 22.895C35.7886 22.8063 35.5833 22.6873 35.4106 22.538C35.238 22.384 35.1026 22.1997 35.0046 21.985C34.9066 21.7657 34.8576 21.516 34.8576 21.236C34.8576 20.9513 34.9066 20.7017 35.0046 20.487C35.1026 20.2723 35.238 20.0903 35.4106 19.941C35.5833 19.787 35.7886 19.668 36.0266 19.584C36.2646 19.5 36.526 19.4463 36.8106 19.423V18.009H37.8116V19.423C38.0916 19.4463 38.3506 19.5023 38.5886 19.591C38.8266 19.675 39.032 19.794 39.2046 19.948C39.3773 20.0973 39.5103 20.2793 39.6036 20.494C39.7016 20.7087 39.7506 20.956 39.7506 21.236C39.7506 21.5207 39.7016 21.7727 39.6036 21.992C39.5056 22.2067 39.3703 22.3887 39.1976 22.538C39.0296 22.6873 38.8266 22.8063 38.5886 22.895C38.3506 22.979 38.0916 23.0303 37.8116 23.049V24.309H36.8106ZM35.8726 21.236C35.8726 21.6 35.959 21.8823 36.1316 22.083C36.309 22.2837 36.5353 22.3957 36.8106 22.419V20.053C36.54 20.081 36.316 20.1953 36.1386 20.396C35.9613 20.592 35.8726 20.872 35.8726 21.236ZM38.7356 21.236C38.7356 20.8767 38.6493 20.5967 38.4766 20.396C38.304 20.1953 38.0823 20.081 37.8116 20.053V22.419C38.0776 22.391 38.297 22.2767 38.4696 22.076C38.647 21.8707 38.7356 21.5907 38.7356 21.236ZM40.4397 19.451H41.4407V21.81L43.0297 19.451H43.9397V23H42.9387V20.641L41.3567 23H40.4397V19.451ZM47.9442 24.113L47.7902 23H44.7942V19.451H45.8162V22.349H47.1252V19.451H48.1472V22.349H48.6862V24.113H47.9442ZM49.2581 19.451H50.2591V21.81L51.8481 19.451H52.7581V23H51.7571V20.641L50.1751 23H49.2581V19.451ZM55.4395 22.405C55.6775 22.405 55.8712 22.3117 56.0205 22.125C56.1745 21.9337 56.2515 21.6327 56.2515 21.222C56.2515 20.8207 56.1745 20.5243 56.0205 20.333C55.8665 20.1417 55.6729 20.046 55.4395 20.046C55.2015 20.046 55.0009 20.1417 54.8375 20.333C54.6789 20.5197 54.5995 20.816 54.5995 21.222C54.5995 21.4273 54.6205 21.6047 54.6625 21.754C54.7045 21.9033 54.7629 22.027 54.8375 22.125C54.9169 22.2183 55.0055 22.2883 55.1035 22.335C55.2062 22.3817 55.3182 22.405 55.4395 22.405ZM55.7335 23.07C55.4722 23.07 55.2482 23.0163 55.0615 22.909C54.8795 22.797 54.7279 22.6453 54.6065 22.454V24.267H53.5845V19.451H54.5015L54.5785 20.039C54.6952 19.8337 54.8492 19.6727 55.0405 19.556C55.2365 19.4393 55.4722 19.381 55.7475 19.381C55.9529 19.381 56.1489 19.4183 56.3355 19.493C56.5222 19.5677 56.6855 19.682 56.8255 19.836C56.9702 19.9853 57.0845 20.1767 57.1685 20.41C57.2525 20.6387 57.2945 20.9093 57.2945 21.222C57.2945 21.5347 57.2525 21.8077 57.1685 22.041C57.0845 22.2697 56.9702 22.461 56.8255 22.615C56.6809 22.769 56.5152 22.8833 56.3285 22.958C56.1419 23.0327 55.9435 23.07 55.7335 23.07ZM59.6614 23.07C59.4 23.07 59.155 23.0303 58.9264 22.951C58.6977 22.867 58.4994 22.748 58.3314 22.594C58.1634 22.4353 58.0304 22.2417 57.9324 22.013C57.8344 21.7843 57.7854 21.5207 57.7854 21.222C57.7854 20.9233 57.8344 20.6597 57.9324 20.431C58.0304 20.2023 58.1634 20.011 58.3314 19.857C58.4994 19.6983 58.6977 19.5793 58.9264 19.5C59.155 19.4207 59.4 19.381 59.6614 19.381C59.9227 19.381 60.1677 19.4207 60.3964 19.5C60.6297 19.5793 60.8304 19.6983 60.9984 19.857C61.171 20.011 61.3064 20.2023 61.4044 20.431C61.5024 20.6597 61.5514 20.9233 61.5514 21.222C61.5514 21.5207 61.5024 21.7843 61.4044 22.013C61.3064 22.2417 61.171 22.4353 60.9984 22.594C60.8304 22.748 60.632 22.867 60.4034 22.951C60.1747 23.0303 59.9274 23.07 59.6614 23.07ZM59.6614 22.405C59.904 22.405 60.1047 22.3163 60.2634 22.139C60.4267 21.957 60.5084 21.6513 60.5084 21.222C60.5084 20.7973 60.4267 20.4963 60.2634 20.319C60.1047 20.137 59.904 20.046 59.6614 20.046C59.54 20.046 59.428 20.067 59.3254 20.109C59.2274 20.151 59.141 20.2187 59.0664 20.312C58.9917 20.4053 58.9334 20.5267 58.8914 20.676C58.8494 20.8253 58.8284 21.0073 58.8284 21.222C58.8284 21.4367 58.8494 21.6187 58.8914 21.768C58.9334 21.9173 58.9917 22.041 59.0664 22.139C59.141 22.2323 59.2274 22.3 59.3254 22.342C59.428 22.384 59.54 22.405 59.6614 22.405ZM63.2265 20.011V20.928H63.5975C63.7795 20.928 63.9218 20.8907 64.0245 20.816C64.1272 20.7367 64.1785 20.6293 64.1785 20.494C64.1785 20.3213 64.1318 20.1977 64.0385 20.123C63.9452 20.0483 63.8075 20.011 63.6255 20.011H63.2265ZM63.2265 21.439V22.44H63.6395C63.8355 22.44 63.9895 22.4027 64.1015 22.328C64.2182 22.2533 64.2765 22.1203 64.2765 21.929C64.2765 21.7517 64.2228 21.6257 64.1155 21.551C64.0128 21.4763 63.8542 21.439 63.6395 21.439H63.2265ZM62.2395 19.451H63.8215C64.2742 19.451 64.6102 19.5257 64.8295 19.675C65.0535 19.8197 65.1655 20.0507 65.1655 20.368C65.1655 20.5827 65.1048 20.7553 64.9835 20.886C64.8668 21.012 64.7082 21.1007 64.5075 21.152C64.7688 21.194 64.9672 21.2827 65.1025 21.418C65.2425 21.5487 65.3125 21.7377 65.3125 21.985C65.3125 22.3257 65.1772 22.58 64.9065 22.748C64.6405 22.916 64.2742 23 63.8075 23H62.2395V19.451ZM67.3283 22.447C67.4963 22.447 67.6293 22.4073 67.7273 22.328C67.8299 22.244 67.9093 22.1413 67.9653 22.02V21.376H67.6853C67.3679 21.376 67.1463 21.425 67.0203 21.523C66.8989 21.621 66.8383 21.7633 66.8383 21.95C66.8383 22.118 66.8826 22.244 66.9713 22.328C67.0599 22.4073 67.1789 22.447 67.3283 22.447ZM68.1053 23C68.0819 22.9393 68.0609 22.8693 68.0423 22.79C68.0283 22.706 68.0166 22.6173 68.0073 22.524C67.9653 22.5893 67.9139 22.6547 67.8533 22.72C67.7926 22.7853 67.7226 22.8437 67.6433 22.895C67.5639 22.9463 67.4706 22.9883 67.3633 23.021C67.2559 23.0537 67.1346 23.07 66.9993 23.07C66.8313 23.07 66.6749 23.049 66.5303 23.007C66.3856 22.965 66.2619 22.902 66.1593 22.818C66.0566 22.7293 65.9749 22.6197 65.9143 22.489C65.8583 22.3583 65.8303 22.2067 65.8303 22.034C65.8303 21.6887 65.9796 21.411 66.2783 21.201C66.5769 20.9863 67.0389 20.879 67.6643 20.879H67.9653V20.683C67.9653 20.473 67.9139 20.3167 67.8113 20.214C67.7086 20.1067 67.5173 20.053 67.2373 20.053C67.0319 20.053 66.8546 20.088 66.7053 20.158C66.5559 20.2233 66.4089 20.3073 66.2643 20.41L65.9703 19.703C66.1196 19.6143 66.3063 19.5397 66.5303 19.479C66.7589 19.4137 67.0436 19.381 67.3843 19.381C67.8976 19.381 68.2919 19.4813 68.5673 19.682C68.8473 19.878 68.9873 20.2 68.9873 20.648V22.433C68.9873 22.5123 68.9896 22.6127 68.9943 22.734C69.0036 22.8507 69.0153 22.9393 69.0293 23H68.1053ZM72.1659 21.509H70.8289V23H69.8069V19.451H70.8289V20.872H72.1659V19.451H73.1809V23H72.1659V21.509ZM76.3905 21.509H75.0535V23H74.0315V19.451H75.0535V20.872H76.3905V19.451H77.4055V23H76.3905V21.509ZM79.9641 23.07C79.7028 23.07 79.4578 23.0303 79.2291 22.951C79.0004 22.867 78.8021 22.748 78.6341 22.594C78.4661 22.4353 78.3331 22.2417 78.2351 22.013C78.1371 21.7843 78.0881 21.5207 78.0881 21.222C78.0881 20.9233 78.1371 20.6597 78.2351 20.431C78.3331 20.2023 78.4661 20.011 78.6341 19.857C78.8021 19.6983 79.0004 19.5793 79.2291 19.5C79.4578 19.4207 79.7028 19.381 79.9641 19.381C80.2254 19.381 80.4704 19.4207 80.6991 19.5C80.9324 19.5793 81.1331 19.6983 81.3011 19.857C81.4738 20.011 81.6091 20.2023 81.7071 20.431C81.8051 20.6597 81.8541 20.9233 81.8541 21.222C81.8541 21.5207 81.8051 21.7843 81.7071 22.013C81.6091 22.2417 81.4738 22.4353 81.3011 22.594C81.1331 22.748 80.9348 22.867 80.7061 22.951C80.4774 23.0303 80.2301 23.07 79.9641 23.07ZM79.9641 22.405C80.2068 22.405 80.4074 22.3163 80.5661 22.139C80.7294 21.957 80.8111 21.6513 80.8111 21.222C80.8111 20.7973 80.7294 20.4963 80.5661 20.319C80.4074 20.137 80.2068 20.046 79.9641 20.046C79.8428 20.046 79.7308 20.067 79.6281 20.109C79.5301 20.151 79.4438 20.2187 79.3691 20.312C79.2944 20.4053 79.2361 20.5267 79.1941 20.676C79.1521 20.8253 79.1311 21.0073 79.1311 21.222C79.1311 21.4367 79.1521 21.6187 79.1941 21.768C79.2361 21.9173 79.2944 22.041 79.3691 22.139C79.4438 22.2323 79.5301 22.3 79.6281 22.342C79.7308 22.384 79.8428 22.405 79.9641 22.405ZM84.1172 19.983C83.9259 19.983 83.7672 20.0577 83.6412 20.207C83.5199 20.3517 83.4406 20.5663 83.4032 20.851H84.7192C84.7286 20.5523 84.6772 20.333 84.5652 20.193C84.4579 20.053 84.3086 19.983 84.1172 19.983ZM85.6082 22.713C85.5009 22.7923 85.3376 22.8717 85.1182 22.951C84.8989 23.0303 84.6306 23.07 84.3132 23.07C83.9912 23.07 83.7089 23.028 83.4662 22.944C83.2236 22.8553 83.0206 22.7317 82.8572 22.573C82.6986 22.4097 82.5772 22.2137 82.4932 21.985C82.4139 21.7563 82.3742 21.502 82.3742 21.222C82.3742 20.9373 82.4162 20.683 82.5002 20.459C82.5842 20.2303 82.7032 20.0367 82.8572 19.878C83.0112 19.7193 83.1932 19.598 83.4032 19.514C83.6179 19.4253 83.8559 19.381 84.1172 19.381C84.3786 19.381 84.6142 19.423 84.8242 19.507C85.0342 19.591 85.2069 19.717 85.3422 19.885C85.4822 20.053 85.5779 20.263 85.6292 20.515C85.6852 20.767 85.6852 21.0587 85.6292 21.39H83.3892C83.4219 21.726 83.5246 21.9757 83.6972 22.139C83.8746 22.2977 84.1172 22.377 84.4252 22.377C84.6212 22.377 84.8009 22.349 84.9642 22.293C85.1322 22.237 85.2816 22.1693 85.4122 22.09L85.6082 22.713ZM35.1276 31.447C35.2956 31.447 35.4286 31.4073 35.5266 31.328C35.6293 31.244 35.7086 31.1413 35.7646 31.02V30.376H35.4846C35.1673 30.376 34.9456 30.425 34.8196 30.523C34.6983 30.621 34.6376 30.7633 34.6376 30.95C34.6376 31.118 34.6819 31.244 34.7706 31.328C34.8593 31.4073 34.9783 31.447 35.1276 31.447ZM35.9046 32C35.8813 31.9393 35.8603 31.8693 35.8416 31.79C35.8276 31.706 35.8159 31.6173 35.8066 31.524C35.7646 31.5893 35.7133 31.6547 35.6526 31.72C35.5919 31.7853 35.5219 31.8437 35.4426 31.895C35.3633 31.9463 35.2699 31.9883 35.1626 32.021C35.0553 32.0537 34.9339 32.07 34.7986 32.07C34.6306 32.07 34.4743 32.049 34.3296 32.007C34.1849 31.965 34.0613 31.902 33.9586 31.818C33.8559 31.7293 33.7743 31.6197 33.7136 31.489C33.6576 31.3583 33.6296 31.2067 33.6296 31.034C33.6296 30.6887 33.7789 30.411 34.0776 30.201C34.3763 29.9863 34.8383 29.879 35.4636 29.879H35.7646V29.683C35.7646 29.473 35.7133 29.3167 35.6106 29.214C35.5079 29.1067 35.3166 29.053 35.0366 29.053C34.8313 29.053 34.6539 29.088 34.5046 29.158C34.3553 29.2233 34.2083 29.3073 34.0636 29.41L33.7696 28.703C33.9189 28.6143 34.1056 28.5397 34.3296 28.479C34.5583 28.4137 34.8429 28.381 35.1836 28.381C35.6969 28.381 36.0913 28.4813 36.3666 28.682C36.6466 28.878 36.7866 29.2 36.7866 29.648V31.433C36.7866 31.5123 36.7889 31.6127 36.7936 31.734C36.8029 31.8507 36.8146 31.9393 36.8286 32H35.9046ZM38.6142 29.102V32H37.6062V28.451H39.9302V29.102H38.6142ZM42.0933 28.983C41.902 28.983 41.7433 29.0577 41.6173 29.207C41.496 29.3517 41.4166 29.5663 41.3793 29.851H42.6953C42.7046 29.5523 42.6533 29.333 42.5413 29.193C42.434 29.053 42.2846 28.983 42.0933 28.983ZM43.5843 31.713C43.477 31.7923 43.3136 31.8717 43.0943 31.951C42.875 32.0303 42.6066 32.07 42.2893 32.07C41.9673 32.07 41.685 32.028 41.4423 31.944C41.1996 31.8553 40.9966 31.7317 40.8333 31.573C40.6746 31.4097 40.5533 31.2137 40.4693 30.985C40.39 30.7563 40.3503 30.502 40.3503 30.222C40.3503 29.9373 40.3923 29.683 40.4763 29.459C40.5603 29.2303 40.6793 29.0367 40.8333 28.878C40.9873 28.7193 41.1693 28.598 41.3793 28.514C41.594 28.4253 41.832 28.381 42.0933 28.381C42.3546 28.381 42.5903 28.423 42.8003 28.507C43.0103 28.591 43.183 28.717 43.3183 28.885C43.4583 29.053 43.554 29.263 43.6053 29.515C43.6613 29.767 43.6613 30.0587 43.6053 30.39H41.3653C41.398 30.726 41.5006 30.9757 41.6733 31.139C41.8506 31.2977 42.0933 31.377 42.4013 31.377C42.5973 31.377 42.777 31.349 42.9403 31.293C43.1083 31.237 43.2576 31.1693 43.3883 31.09L43.5843 31.713ZM46.6918 30.509H45.3548V32H44.3328V28.451H45.3548V29.872H46.6918V28.451H47.7068V32H46.6918V30.509ZM50.3634 29.158V32H49.3344V29.158H48.3474V28.451H51.3574V29.158H50.3634ZM53.6353 32.07C53.3693 32.07 53.122 32.0303 52.8933 31.951C52.6647 31.8717 52.4663 31.755 52.2983 31.601C52.135 31.447 52.0043 31.258 51.9063 31.034C51.813 30.81 51.7663 30.551 51.7663 30.257C51.7663 29.9677 51.8153 29.7063 51.9133 29.473C52.0113 29.2397 52.1467 29.0437 52.3193 28.885C52.492 28.7217 52.6973 28.598 52.9353 28.514C53.178 28.4253 53.4393 28.381 53.7193 28.381C53.962 28.381 54.1603 28.3997 54.3143 28.437C54.4683 28.4697 54.592 28.5093 54.6853 28.556L54.4613 29.312C54.3493 29.2327 54.2397 29.1697 54.1323 29.123C54.0297 29.0763 53.8897 29.053 53.7123 29.053C53.591 29.053 53.4767 29.0787 53.3693 29.13C53.262 29.1767 53.1663 29.249 53.0823 29.347C53.003 29.4403 52.9377 29.5593 52.8863 29.704C52.8397 29.8487 52.8163 30.019 52.8163 30.215C52.8163 30.6117 52.9027 30.908 53.0753 31.104C53.2527 31.3 53.4953 31.398 53.8033 31.398C53.9387 31.398 54.0693 31.3747 54.1953 31.328C54.326 31.2767 54.438 31.2137 54.5313 31.139L54.7413 31.727C54.6527 31.8063 54.515 31.8833 54.3283 31.958C54.1463 32.0327 53.9153 32.07 53.6353 32.07ZM57.2882 29.158V32H56.2592V29.158H55.2722V28.451H58.2822V29.158H57.2882ZM59.9145 29.011V29.928H60.2855C60.4675 29.928 60.6098 29.8907 60.7125 29.816C60.8152 29.7367 60.8665 29.6293 60.8665 29.494C60.8665 29.3213 60.8198 29.1977 60.7265 29.123C60.6332 29.0483 60.4955 29.011 60.3135 29.011H59.9145ZM59.9145 30.439V31.44H60.3275C60.5235 31.44 60.6775 31.4027 60.7895 31.328C60.9062 31.2533 60.9645 31.1203 60.9645 30.929C60.9645 30.7517 60.9108 30.6257 60.8035 30.551C60.7008 30.4763 60.5422 30.439 60.3275 30.439H59.9145ZM58.9275 28.451H60.5095C60.9622 28.451 61.2982 28.5257 61.5175 28.675C61.7415 28.8197 61.8535 29.0507 61.8535 29.368C61.8535 29.5827 61.7928 29.7553 61.6715 29.886C61.5548 30.012 61.3962 30.1007 61.1955 30.152C61.4568 30.194 61.6552 30.2827 61.7905 30.418C61.9305 30.5487 62.0005 30.7377 62.0005 30.985C62.0005 31.3257 61.8652 31.58 61.5945 31.748C61.3285 31.916 60.9622 32 60.4955 32H58.9275V28.451ZM64.4363 32.07C64.1749 32.07 63.9299 32.0303 63.7013 31.951C63.4726 31.867 63.2743 31.748 63.1063 31.594C62.9383 31.4353 62.8053 31.2417 62.7073 31.013C62.6093 30.7843 62.5603 30.5207 62.5603 30.222C62.5603 29.9233 62.6093 29.6597 62.7073 29.431C62.8053 29.2023 62.9383 29.011 63.1063 28.857C63.2743 28.6983 63.4726 28.5793 63.7013 28.5C63.9299 28.4207 64.1749 28.381 64.4363 28.381C64.6976 28.381 64.9426 28.4207 65.1713 28.5C65.4046 28.5793 65.6053 28.6983 65.7733 28.857C65.9459 29.011 66.0813 29.2023 66.1793 29.431C66.2773 29.6597 66.3263 29.9233 66.3263 30.222C66.3263 30.5207 66.2773 30.7843 66.1793 31.013C66.0813 31.2417 65.9459 31.4353 65.7733 31.594C65.6053 31.748 65.4069 31.867 65.1783 31.951C64.9496 32.0303 64.7023 32.07 64.4363 32.07ZM64.4363 31.405C64.6789 31.405 64.8796 31.3163 65.0383 31.139C65.2016 30.957 65.2833 30.6513 65.2833 30.222C65.2833 29.7973 65.2016 29.4963 65.0383 29.319C64.8796 29.137 64.6789 29.046 64.4363 29.046C64.3149 29.046 64.2029 29.067 64.1003 29.109C64.0023 29.151 63.9159 29.2187 63.8413 29.312C63.7666 29.4053 63.7083 29.5267 63.6663 29.676C63.6243 29.8253 63.6033 30.0073 63.6033 30.222C63.6033 30.4367 63.6243 30.6187 63.6663 30.768C63.7083 30.9173 63.7666 31.041 63.8413 31.139C63.9159 31.2323 64.0023 31.3 64.1003 31.342C64.2029 31.384 64.3149 31.405 64.4363 31.405Z" fill="black"/>
</svg>
