<svg width="100" height="100" viewBox="0 0 100 100" fill="none" xmlns="http://www.w3.org/2000/svg">
<path d="M2.5 5C2.5 3.61929 3.61929 2.5 5 2.5H95C96.3807 2.5 97.5 3.61929 97.5 5V69.7591C97.5 70.674 97.0003 71.5158 96.1971 71.9538L51.1971 96.4993C50.4509 96.9063 49.5491 96.9063 48.8029 96.4993L3.80287 71.9538C2.99972 71.5158 2.5 70.674 2.5 69.7591V5Z" fill="white" stroke="#FEDA4B" stroke-width="5" stroke-linejoin="round"/>
<g clip-path="url(#clip0)">
<path d="M31.9398 42H29.0535C26.1671 42 23.6836 44.1896 23.6836 48.4319C23.6836 50.9636 24.8918 52.8795 26.9727 53.8374L23.0794 60.9536C22.9452 61.1589 23.0794 61.3642 23.2808 61.3642H25.0932C25.2274 61.3642 25.3616 61.2958 25.4287 61.1589L28.9864 54.1796H30.2617V61.1589C30.2617 61.2273 30.3289 61.3642 30.4631 61.3642H32.0742C32.2084 61.3642 32.2755 61.2958 32.2755 61.1589V42.2736C32.2084 42.0684 32.1413 42 31.9398 42ZM30.2617 52.5375H29.1878C24.5562 52.5375 24.8918 43.6422 28.9864 43.6422H30.3289V52.5375H30.2617Z" fill="#FF0000"/>
<path d="M41.606 48.4318H39.9951C39.8609 48.4318 39.7936 48.5002 39.7936 48.6371V53.5636H36.8401V48.6371C36.8401 48.5003 36.773 48.4318 36.6388 48.4318H35.0949C34.9607 48.4318 34.8936 48.5002 34.8936 48.6371V61.1589C34.8936 61.2957 34.9607 61.3641 35.0949 61.3641H36.7059C36.8401 61.3641 36.9073 61.2957 36.9073 61.1589V55.1374H39.8607V61.1589C39.8607 61.2957 39.9279 61.3641 40.0622 61.3641H41.6731C41.8073 61.3641 41.8745 61.2957 41.8745 61.1589V48.6371C41.8074 48.5003 41.7403 48.4318 41.6061 48.4318H41.606ZM77.8534 59.6536C77.8534 59.5852 77.7863 59.5852 77.7191 59.5852C77.0478 59.5852 72.9533 61.5695 72.9533 55.0007C72.9533 52.1269 74.0272 48.0899 76.578 50.4847C76.6451 50.5531 76.7122 50.5531 76.7793 50.5531C76.8464 50.5531 76.9135 50.4847 76.9807 50.3479L77.6519 49.1846C77.719 49.1162 77.719 49.0478 77.719 48.9794C77.719 48.8426 77.5848 48.7741 77.4506 48.7057C73.0204 46.4477 70.7382 50.6215 70.7382 55.4797C70.7382 61.7748 75.2355 62.6643 77.7861 60.7484C77.9204 60.68 77.9204 60.5431 77.9204 60.4748L77.8534 59.6536ZM66.8449 54.248L69.9327 48.5688C69.9998 48.5003 69.9327 48.3635 69.8655 48.3635H68.3216C67.8518 48.3635 67.7175 48.5003 67.5832 48.8425C67.449 49.1846 65.1668 54.0428 64.8982 54.248V48.5687C64.8982 48.5002 64.8311 48.3634 64.764 48.3634H63.0859C63.0188 48.3634 62.9517 48.4318 62.9517 48.5687V61.1589C62.9517 61.2273 63.0188 61.3641 63.0859 61.3641H64.764C64.8982 61.3641 64.8982 61.2957 64.8982 61.1589V54.6585C65.0997 54.7953 67.9189 60.7483 67.986 60.9535C68.1202 61.2272 68.3887 61.3641 68.7244 61.3641H70.4025C70.5367 61.3641 70.5367 61.2957 70.4696 61.1589L66.8449 54.248ZM52.1446 59.7221H51.8089C51.4063 59.7221 51.339 59.5853 51.339 59.243V48.5687C51.339 48.4319 51.2719 48.3634 51.2048 48.3634H46.0362C45.902 48.3634 45.8349 48.4318 45.8349 48.5687C45.8349 51.4425 45.902 56.2323 44.0224 59.722H43.4856C43.3513 59.722 43.2841 59.7904 43.2841 59.9272V63.6905C43.2841 63.8273 43.4183 63.8958 43.4856 63.8958H44.6937C44.9622 63.8958 45.0965 63.6905 45.0965 63.4853V61.3641H50.5336V63.6905C50.5336 63.759 50.6007 63.8958 50.735 63.8958H52.0775C52.2117 63.8958 52.4131 63.759 52.4131 63.4853V59.9272C52.346 59.7904 52.2789 59.722 52.1447 59.722L52.1446 59.7221ZM49.3254 59.7221H45.5662C46.6403 57.943 47.6471 55.0692 47.6471 50.0057H49.3253V59.7221H49.3254ZM57.3803 48.0899C54.6282 48.0899 53.3528 51.5795 53.3528 55.4112C53.3528 61.7063 57.6488 62.6643 60.6022 60.8168C60.7365 60.7484 60.7365 60.68 60.7365 60.6116L60.5351 59.7221C60.5351 59.6536 60.468 59.5853 60.3338 59.5853C59.2598 59.5853 55.5008 61.501 55.5008 55.2745C56.8433 55.4113 56.8433 55.4113 60.8708 55.4113C60.8037 52.2638 60.4681 48.0899 57.3803 48.0899ZM55.5681 53.8372C55.5681 48.8423 58.79 47.8843 58.79 53.7004C57.3804 53.7004 56.7763 53.7004 55.5681 53.8372Z" fill="black"/>
</g>
<path d="M16.8493 23.07C16.4806 23.07 16.1423 23.014 15.8343 22.902C15.531 22.7853 15.2696 22.622 15.0503 22.412C14.831 22.1973 14.6606 21.936 14.5393 21.628C14.418 21.3153 14.3573 20.963 14.3573 20.571C14.3573 20.179 14.4156 19.829 14.5323 19.521C14.6536 19.2083 14.8216 18.947 15.0363 18.737C15.251 18.5223 15.51 18.359 15.8133 18.247C16.1166 18.1303 16.455 18.072 16.8283 18.072C17.1363 18.072 17.4046 18.1 17.6333 18.156C17.862 18.212 18.037 18.282 18.1583 18.366L18.0393 19.192C17.8993 19.094 17.7336 19.0077 17.5423 18.933C17.3556 18.8583 17.1456 18.821 16.9123 18.821C16.4456 18.821 16.091 18.9703 15.8483 19.269C15.6056 19.5677 15.4843 20.0017 15.4843 20.571C15.4843 21.7377 15.972 22.321 16.9473 22.321C17.162 22.321 17.3533 22.2953 17.5213 22.244C17.6893 22.188 17.8456 22.1087 17.9903 22.006L18.2213 22.72C18.0953 22.8087 17.918 22.8903 17.6893 22.965C17.4606 23.035 17.1806 23.07 16.8493 23.07ZM20.7139 19.983C20.5226 19.983 20.3639 20.0577 20.2379 20.207C20.1166 20.3517 20.0372 20.5663 19.9999 20.851H21.3159C21.3252 20.5523 21.2739 20.333 21.1619 20.193C21.0546 20.053 20.9052 19.983 20.7139 19.983ZM22.2049 22.713C22.0976 22.7923 21.9342 22.8717 21.7149 22.951C21.4956 23.0303 21.2272 23.07 20.9099 23.07C20.5879 23.07 20.3056 23.028 20.0629 22.944C19.8202 22.8553 19.6172 22.7317 19.4539 22.573C19.2952 22.4097 19.1739 22.2137 19.0899 21.985C19.0106 21.7563 18.9709 21.502 18.9709 21.222C18.9709 20.9373 19.0129 20.683 19.0969 20.459C19.1809 20.2303 19.2999 20.0367 19.4539 19.878C19.6079 19.7193 19.7899 19.598 19.9999 19.514C20.2146 19.4253 20.4526 19.381 20.7139 19.381C20.9752 19.381 21.2109 19.423 21.4209 19.507C21.6309 19.591 21.8036 19.717 21.9389 19.885C22.0789 20.053 22.1746 20.263 22.2259 20.515C22.2819 20.767 22.2819 21.0587 22.2259 21.39H19.9859C20.0186 21.726 20.1212 21.9757 20.2939 22.139C20.4712 22.2977 20.7139 22.377 21.0219 22.377C21.2179 22.377 21.3976 22.349 21.5609 22.293C21.7289 22.237 21.8782 22.1693 22.0089 22.09L22.2049 22.713ZM24.7804 22.405C25.0184 22.405 25.212 22.3117 25.3614 22.125C25.5154 21.9337 25.5924 21.6327 25.5924 21.222C25.5924 20.8207 25.5154 20.5243 25.3614 20.333C25.2074 20.1417 25.0137 20.046 24.7804 20.046C24.5424 20.046 24.3417 20.1417 24.1784 20.333C24.0197 20.5197 23.9404 20.816 23.9404 21.222C23.9404 21.4273 23.9614 21.6047 24.0034 21.754C24.0454 21.9033 24.1037 22.027 24.1784 22.125C24.2577 22.2183 24.3464 22.2883 24.4444 22.335C24.547 22.3817 24.659 22.405 24.7804 22.405ZM25.0744 23.07C24.813 23.07 24.589 23.0163 24.4024 22.909C24.2204 22.797 24.0687 22.6453 23.9474 22.454V24.267H22.9254V19.451H23.8424L23.9194 20.039C24.036 19.8337 24.19 19.6727 24.3814 19.556C24.5774 19.4393 24.813 19.381 25.0884 19.381C25.2937 19.381 25.4897 19.4183 25.6764 19.493C25.863 19.5677 26.0264 19.682 26.1664 19.836C26.311 19.9853 26.4254 20.1767 26.5094 20.41C26.5934 20.6387 26.6354 20.9093 26.6354 21.222C26.6354 21.5347 26.5934 21.8077 26.5094 22.041C26.4254 22.2697 26.311 22.461 26.1664 22.615C26.0217 22.769 25.856 22.8833 25.6694 22.958C25.4827 23.0327 25.2844 23.07 25.0744 23.07ZM29.0318 20.158V23H28.0028V20.158H27.0158V19.451H30.0258V20.158H29.0318ZM30.6711 19.451H31.6721V21.81L33.2611 19.451H34.1711V23H33.1701V20.641L31.5881 23H30.6711V19.451ZM36.8106 24.309V23.049C36.526 23.0303 36.2646 22.979 36.0266 22.895C35.7886 22.8063 35.5833 22.6873 35.4106 22.538C35.238 22.384 35.1026 22.1997 35.0046 21.985C34.9066 21.7657 34.8576 21.516 34.8576 21.236C34.8576 20.9513 34.9066 20.7017 35.0046 20.487C35.1026 20.2723 35.238 20.0903 35.4106 19.941C35.5833 19.787 35.7886 19.668 36.0266 19.584C36.2646 19.5 36.526 19.4463 36.8106 19.423V18.009H37.8116V19.423C38.0916 19.4463 38.3506 19.5023 38.5886 19.591C38.8266 19.675 39.032 19.794 39.2046 19.948C39.3773 20.0973 39.5103 20.2793 39.6036 20.494C39.7016 20.7087 39.7506 20.956 39.7506 21.236C39.7506 21.5207 39.7016 21.7727 39.6036 21.992C39.5056 22.2067 39.3703 22.3887 39.1976 22.538C39.0296 22.6873 38.8266 22.8063 38.5886 22.895C38.3506 22.979 38.0916 23.0303 37.8116 23.049V24.309H36.8106ZM35.8726 21.236C35.8726 21.6 35.959 21.8823 36.1316 22.083C36.309 22.2837 36.5353 22.3957 36.8106 22.419V20.053C36.54 20.081 36.316 20.1953 36.1386 20.396C35.9613 20.592 35.8726 20.872 35.8726 21.236ZM38.7356 21.236C38.7356 20.8767 38.6493 20.5967 38.4766 20.396C38.304 20.1953 38.0823 20.081 37.8116 20.053V22.419C38.0776 22.391 38.297 22.2767 38.4696 22.076C38.647 21.8707 38.7356 21.5907 38.7356 21.236ZM40.4397 19.451H41.4407V21.81L43.0297 19.451H43.9397V23H42.9387V20.641L41.3567 23H40.4397V19.451ZM47.9442 24.113L47.7902 23H44.7942V19.451H45.8162V22.349H47.1252V19.451H48.1472V22.349H48.6862V24.113H47.9442ZM49.2581 19.451H50.2591V21.81L51.8481 19.451H52.7581V23H51.7571V20.641L50.1751 23H49.2581V19.451ZM55.4395 22.405C55.6775 22.405 55.8712 22.3117 56.0205 22.125C56.1745 21.9337 56.2515 21.6327 56.2515 21.222C56.2515 20.8207 56.1745 20.5243 56.0205 20.333C55.8665 20.1417 55.6729 20.046 55.4395 20.046C55.2015 20.046 55.0009 20.1417 54.8375 20.333C54.6789 20.5197 54.5995 20.816 54.5995 21.222C54.5995 21.4273 54.6205 21.6047 54.6625 21.754C54.7045 21.9033 54.7629 22.027 54.8375 22.125C54.9169 22.2183 55.0055 22.2883 55.1035 22.335C55.2062 22.3817 55.3182 22.405 55.4395 22.405ZM55.7335 23.07C55.4722 23.07 55.2482 23.0163 55.0615 22.909C54.8795 22.797 54.7279 22.6453 54.6065 22.454V24.267H53.5845V19.451H54.5015L54.5785 20.039C54.6952 19.8337 54.8492 19.6727 55.0405 19.556C55.2365 19.4393 55.4722 19.381 55.7475 19.381C55.9529 19.381 56.1489 19.4183 56.3355 19.493C56.5222 19.5677 56.6855 19.682 56.8255 19.836C56.9702 19.9853 57.0845 20.1767 57.1685 20.41C57.2525 20.6387 57.2945 20.9093 57.2945 21.222C57.2945 21.5347 57.2525 21.8077 57.1685 22.041C57.0845 22.2697 56.9702 22.461 56.8255 22.615C56.6809 22.769 56.5152 22.8833 56.3285 22.958C56.1419 23.0327 55.9435 23.07 55.7335 23.07ZM59.6614 23.07C59.4 23.07 59.155 23.0303 58.9264 22.951C58.6977 22.867 58.4994 22.748 58.3314 22.594C58.1634 22.4353 58.0304 22.2417 57.9324 22.013C57.8344 21.7843 57.7854 21.5207 57.7854 21.222C57.7854 20.9233 57.8344 20.6597 57.9324 20.431C58.0304 20.2023 58.1634 20.011 58.3314 19.857C58.4994 19.6983 58.6977 19.5793 58.9264 19.5C59.155 19.4207 59.4 19.381 59.6614 19.381C59.9227 19.381 60.1677 19.4207 60.3964 19.5C60.6297 19.5793 60.8304 19.6983 60.9984 19.857C61.171 20.011 61.3064 20.2023 61.4044 20.431C61.5024 20.6597 61.5514 20.9233 61.5514 21.222C61.5514 21.5207 61.5024 21.7843 61.4044 22.013C61.3064 22.2417 61.171 22.4353 60.9984 22.594C60.8304 22.748 60.632 22.867 60.4034 22.951C60.1747 23.0303 59.9274 23.07 59.6614 23.07ZM59.6614 22.405C59.904 22.405 60.1047 22.3163 60.2634 22.139C60.4267 21.957 60.5084 21.6513 60.5084 21.222C60.5084 20.7973 60.4267 20.4963 60.2634 20.319C60.1047 20.137 59.904 20.046 59.6614 20.046C59.54 20.046 59.428 20.067 59.3254 20.109C59.2274 20.151 59.141 20.2187 59.0664 20.312C58.9917 20.4053 58.9334 20.5267 58.8914 20.676C58.8494 20.8253 58.8284 21.0073 58.8284 21.222C58.8284 21.4367 58.8494 21.6187 58.8914 21.768C58.9334 21.9173 58.9917 22.041 59.0664 22.139C59.141 22.2323 59.2274 22.3 59.3254 22.342C59.428 22.384 59.54 22.405 59.6614 22.405ZM63.2265 20.011V20.928H63.5975C63.7795 20.928 63.9218 20.8907 64.0245 20.816C64.1272 20.7367 64.1785 20.6293 64.1785 20.494C64.1785 20.3213 64.1318 20.1977 64.0385 20.123C63.9452 20.0483 63.8075 20.011 63.6255 20.011H63.2265ZM63.2265 21.439V22.44H63.6395C63.8355 22.44 63.9895 22.4027 64.1015 22.328C64.2182 22.2533 64.2765 22.1203 64.2765 21.929C64.2765 21.7517 64.2228 21.6257 64.1155 21.551C64.0128 21.4763 63.8542 21.439 63.6395 21.439H63.2265ZM62.2395 19.451H63.8215C64.2742 19.451 64.6102 19.5257 64.8295 19.675C65.0535 19.8197 65.1655 20.0507 65.1655 20.368C65.1655 20.5827 65.1048 20.7553 64.9835 20.886C64.8668 21.012 64.7082 21.1007 64.5075 21.152C64.7688 21.194 64.9672 21.2827 65.1025 21.418C65.2425 21.5487 65.3125 21.7377 65.3125 21.985C65.3125 22.3257 65.1772 22.58 64.9065 22.748C64.6405 22.916 64.2742 23 63.8075 23H62.2395V19.451ZM67.3283 22.447C67.4963 22.447 67.6293 22.4073 67.7273 22.328C67.8299 22.244 67.9093 22.1413 67.9653 22.02V21.376H67.6853C67.3679 21.376 67.1463 21.425 67.0203 21.523C66.8989 21.621 66.8383 21.7633 66.8383 21.95C66.8383 22.118 66.8826 22.244 66.9713 22.328C67.0599 22.4073 67.1789 22.447 67.3283 22.447ZM68.1053 23C68.0819 22.9393 68.0609 22.8693 68.0423 22.79C68.0283 22.706 68.0166 22.6173 68.0073 22.524C67.9653 22.5893 67.9139 22.6547 67.8533 22.72C67.7926 22.7853 67.7226 22.8437 67.6433 22.895C67.5639 22.9463 67.4706 22.9883 67.3633 23.021C67.2559 23.0537 67.1346 23.07 66.9993 23.07C66.8313 23.07 66.6749 23.049 66.5303 23.007C66.3856 22.965 66.2619 22.902 66.1593 22.818C66.0566 22.7293 65.9749 22.6197 65.9143 22.489C65.8583 22.3583 65.8303 22.2067 65.8303 22.034C65.8303 21.6887 65.9796 21.411 66.2783 21.201C66.5769 20.9863 67.0389 20.879 67.6643 20.879H67.9653V20.683C67.9653 20.473 67.9139 20.3167 67.8113 20.214C67.7086 20.1067 67.5173 20.053 67.2373 20.053C67.0319 20.053 66.8546 20.088 66.7053 20.158C66.5559 20.2233 66.4089 20.3073 66.2643 20.41L65.9703 19.703C66.1196 19.6143 66.3063 19.5397 66.5303 19.479C66.7589 19.4137 67.0436 19.381 67.3843 19.381C67.8976 19.381 68.2919 19.4813 68.5673 19.682C68.8473 19.878 68.9873 20.2 68.9873 20.648V22.433C68.9873 22.5123 68.9896 22.6127 68.9943 22.734C69.0036 22.8507 69.0153 22.9393 69.0293 23H68.1053ZM72.1659 21.509H70.8289V23H69.8069V19.451H70.8289V20.872H72.1659V19.451H73.1809V23H72.1659V21.509ZM76.3905 21.509H75.0535V23H74.0315V19.451H75.0535V20.872H76.3905V19.451H77.4055V23H76.3905V21.509ZM79.9641 23.07C79.7028 23.07 79.4578 23.0303 79.2291 22.951C79.0004 22.867 78.8021 22.748 78.6341 22.594C78.4661 22.4353 78.3331 22.2417 78.2351 22.013C78.1371 21.7843 78.0881 21.5207 78.0881 21.222C78.0881 20.9233 78.1371 20.6597 78.2351 20.431C78.3331 20.2023 78.4661 20.011 78.6341 19.857C78.8021 19.6983 79.0004 19.5793 79.2291 19.5C79.4578 19.4207 79.7028 19.381 79.9641 19.381C80.2254 19.381 80.4704 19.4207 80.6991 19.5C80.9324 19.5793 81.1331 19.6983 81.3011 19.857C81.4738 20.011 81.6091 20.2023 81.7071 20.431C81.8051 20.6597 81.8541 20.9233 81.8541 21.222C81.8541 21.5207 81.8051 21.7843 81.7071 22.013C81.6091 22.2417 81.4738 22.4353 81.3011 22.594C81.1331 22.748 80.9348 22.867 80.7061 22.951C80.4774 23.0303 80.2301 23.07 79.9641 23.07ZM79.9641 22.405C80.2068 22.405 80.4074 22.3163 80.5661 22.139C80.7294 21.957 80.8111 21.6513 80.8111 21.222C80.8111 20.7973 80.7294 20.4963 80.5661 20.319C80.4074 20.137 80.2068 20.046 79.9641 20.046C79.8428 20.046 79.7308 20.067 79.6281 20.109C79.5301 20.151 79.4438 20.2187 79.3691 20.312C79.2944 20.4053 79.2361 20.5267 79.1941 20.676C79.1521 20.8253 79.1311 21.0073 79.1311 21.222C79.1311 21.4367 79.1521 21.6187 79.1941 21.768C79.2361 21.9173 79.2944 22.041 79.3691 22.139C79.4438 22.2323 79.5301 22.3 79.6281 22.342C79.7308 22.384 79.8428 22.405 79.9641 22.405ZM84.1172 19.983C83.9259 19.983 83.7672 20.0577 83.6412 20.207C83.5199 20.3517 83.4406 20.5663 83.4032 20.851H84.7192C84.7286 20.5523 84.6772 20.333 84.5652 20.193C84.4579 20.053 84.3086 19.983 84.1172 19.983ZM85.6082 22.713C85.5009 22.7923 85.3376 22.8717 85.1182 22.951C84.8989 23.0303 84.6306 23.07 84.3132 23.07C83.9912 23.07 83.7089 23.028 83.4662 22.944C83.2236 22.8553 83.0206 22.7317 82.8572 22.573C82.6986 22.4097 82.5772 22.2137 82.4932 21.985C82.4139 21.7563 82.3742 21.502 82.3742 21.222C82.3742 20.9373 82.4162 20.683 82.5002 20.459C82.5842 20.2303 82.7032 20.0367 82.8572 19.878C83.0112 19.7193 83.1932 19.598 83.4032 19.514C83.6179 19.4253 83.8559 19.381 84.1172 19.381C84.3786 19.381 84.6142 19.423 84.8242 19.507C85.0342 19.591 85.2069 19.717 85.3422 19.885C85.4822 20.053 85.5779 20.263 85.6292 20.515C85.6852 20.767 85.6852 21.0587 85.6292 21.39H83.3892C83.4219 21.726 83.5246 21.9757 83.6972 22.139C83.8746 22.2977 84.1172 22.377 84.4252 22.377C84.6212 22.377 84.8009 22.349 84.9642 22.293C85.1322 22.237 85.2816 22.1693 85.4122 22.09L85.6082 22.713ZM35.1276 31.447C35.2956 31.447 35.4286 31.4073 35.5266 31.328C35.6293 31.244 35.7086 31.1413 35.7646 31.02V30.376H35.4846C35.1673 30.376 34.9456 30.425 34.8196 30.523C34.6983 30.621 34.6376 30.7633 34.6376 30.95C34.6376 31.118 34.6819 31.244 34.7706 31.328C34.8593 31.4073 34.9783 31.447 35.1276 31.447ZM35.9046 32C35.8813 31.9393 35.8603 31.8693 35.8416 31.79C35.8276 31.706 35.8159 31.6173 35.8066 31.524C35.7646 31.5893 35.7133 31.6547 35.6526 31.72C35.5919 31.7853 35.5219 31.8437 35.4426 31.895C35.3633 31.9463 35.2699 31.9883 35.1626 32.021C35.0553 32.0537 34.9339 32.07 34.7986 32.07C34.6306 32.07 34.4743 32.049 34.3296 32.007C34.1849 31.965 34.0613 31.902 33.9586 31.818C33.8559 31.7293 33.7743 31.6197 33.7136 31.489C33.6576 31.3583 33.6296 31.2067 33.6296 31.034C33.6296 30.6887 33.7789 30.411 34.0776 30.201C34.3763 29.9863 34.8383 29.879 35.4636 29.879H35.7646V29.683C35.7646 29.473 35.7133 29.3167 35.6106 29.214C35.5079 29.1067 35.3166 29.053 35.0366 29.053C34.8313 29.053 34.6539 29.088 34.5046 29.158C34.3553 29.2233 34.2083 29.3073 34.0636 29.41L33.7696 28.703C33.9189 28.6143 34.1056 28.5397 34.3296 28.479C34.5583 28.4137 34.8429 28.381 35.1836 28.381C35.6969 28.381 36.0913 28.4813 36.3666 28.682C36.6466 28.878 36.7866 29.2 36.7866 29.648V31.433C36.7866 31.5123 36.7889 31.6127 36.7936 31.734C36.8029 31.8507 36.8146 31.9393 36.8286 32H35.9046ZM38.6142 29.102V32H37.6062V28.451H39.9302V29.102H38.6142ZM42.0933 28.983C41.902 28.983 41.7433 29.0577 41.6173 29.207C41.496 29.3517 41.4166 29.5663 41.3793 29.851H42.6953C42.7046 29.5523 42.6533 29.333 42.5413 29.193C42.434 29.053 42.2846 28.983 42.0933 28.983ZM43.5843 31.713C43.477 31.7923 43.3136 31.8717 43.0943 31.951C42.875 32.0303 42.6066 32.07 42.2893 32.07C41.9673 32.07 41.685 32.028 41.4423 31.944C41.1996 31.8553 40.9966 31.7317 40.8333 31.573C40.6746 31.4097 40.5533 31.2137 40.4693 30.985C40.39 30.7563 40.3503 30.502 40.3503 30.222C40.3503 29.9373 40.3923 29.683 40.4763 29.459C40.5603 29.2303 40.6793 29.0367 40.8333 28.878C40.9873 28.7193 41.1693 28.598 41.3793 28.514C41.594 28.4253 41.832 28.381 42.0933 28.381C42.3546 28.381 42.5903 28.423 42.8003 28.507C43.0103 28.591 43.183 28.717 43.3183 28.885C43.4583 29.053 43.554 29.263 43.6053 29.515C43.6613 29.767 43.6613 30.0587 43.6053 30.39H41.3653C41.398 30.726 41.5006 30.9757 41.6733 31.139C41.8506 31.2977 42.0933 31.377 42.4013 31.377C42.5973 31.377 42.777 31.349 42.9403 31.293C43.1083 31.237 43.2576 31.1693 43.3883 31.09L43.5843 31.713ZM46.6918 30.509H45.3548V32H44.3328V28.451H45.3548V29.872H46.6918V28.451H47.7068V32H46.6918V30.509ZM50.3634 29.158V32H49.3344V29.158H48.3474V28.451H51.3574V29.158H50.3634ZM53.6353 32.07C53.3693 32.07 53.122 32.0303 52.8933 31.951C52.6647 31.8717 52.4663 31.755 52.2983 31.601C52.135 31.447 52.0043 31.258 51.9063 31.034C51.813 30.81 51.7663 30.551 51.7663 30.257C51.7663 29.9677 51.8153 29.7063 51.9133 29.473C52.0113 29.2397 52.1467 29.0437 52.3193 28.885C52.492 28.7217 52.6973 28.598 52.9353 28.514C53.178 28.4253 53.4393 28.381 53.7193 28.381C53.962 28.381 54.1603 28.3997 54.3143 28.437C54.4683 28.4697 54.592 28.5093 54.6853 28.556L54.4613 29.312C54.3493 29.2327 54.2397 29.1697 54.1323 29.123C54.0297 29.0763 53.8897 29.053 53.7123 29.053C53.591 29.053 53.4767 29.0787 53.3693 29.13C53.262 29.1767 53.1663 29.249 53.0823 29.347C53.003 29.4403 52.9377 29.5593 52.8863 29.704C52.8397 29.8487 52.8163 30.019 52.8163 30.215C52.8163 30.6117 52.9027 30.908 53.0753 31.104C53.2527 31.3 53.4953 31.398 53.8033 31.398C53.9387 31.398 54.0693 31.3747 54.1953 31.328C54.326 31.2767 54.438 31.2137 54.5313 31.139L54.7413 31.727C54.6527 31.8063 54.515 31.8833 54.3283 31.958C54.1463 32.0327 53.9153 32.07 53.6353 32.07ZM57.2882 29.158V32H56.2592V29.158H55.2722V28.451H58.2822V29.158H57.2882ZM59.9145 29.011V29.928H60.2855C60.4675 29.928 60.6098 29.8907 60.7125 29.816C60.8152 29.7367 60.8665 29.6293 60.8665 29.494C60.8665 29.3213 60.8198 29.1977 60.7265 29.123C60.6332 29.0483 60.4955 29.011 60.3135 29.011H59.9145ZM59.9145 30.439V31.44H60.3275C60.5235 31.44 60.6775 31.4027 60.7895 31.328C60.9062 31.2533 60.9645 31.1203 60.9645 30.929C60.9645 30.7517 60.9108 30.6257 60.8035 30.551C60.7008 30.4763 60.5422 30.439 60.3275 30.439H59.9145ZM58.9275 28.451H60.5095C60.9622 28.451 61.2982 28.5257 61.5175 28.675C61.7415 28.8197 61.8535 29.0507 61.8535 29.368C61.8535 29.5827 61.7928 29.7553 61.6715 29.886C61.5548 30.012 61.3962 30.1007 61.1955 30.152C61.4568 30.194 61.6552 30.2827 61.7905 30.418C61.9305 30.5487 62.0005 30.7377 62.0005 30.985C62.0005 31.3257 61.8652 31.58 61.5945 31.748C61.3285 31.916 60.9622 32 60.4955 32H58.9275V28.451ZM64.4363 32.07C64.1749 32.07 63.9299 32.0303 63.7013 31.951C63.4726 31.867 63.2743 31.748 63.1063 31.594C62.9383 31.4353 62.8053 31.2417 62.7073 31.013C62.6093 30.7843 62.5603 30.5207 62.5603 30.222C62.5603 29.9233 62.6093 29.6597 62.7073 29.431C62.8053 29.2023 62.9383 29.011 63.1063 28.857C63.2743 28.6983 63.4726 28.5793 63.7013 28.5C63.9299 28.4207 64.1749 28.381 64.4363 28.381C64.6976 28.381 64.9426 28.4207 65.1713 28.5C65.4046 28.5793 65.6053 28.6983 65.7733 28.857C65.9459 29.011 66.0813 29.2023 66.1793 29.431C66.2773 29.6597 66.3263 29.9233 66.3263 30.222C66.3263 30.5207 66.2773 30.7843 66.1793 31.013C66.0813 31.2417 65.9459 31.4353 65.7733 31.594C65.6053 31.748 65.4069 31.867 65.1783 31.951C64.9496 32.0303 64.7023 32.07 64.4363 32.07ZM64.4363 31.405C64.6789 31.405 64.8796 31.3163 65.0383 31.139C65.2016 30.957 65.2833 30.6513 65.2833 30.222C65.2833 29.7973 65.2016 29.4963 65.0383 29.319C64.8796 29.137 64.6789 29.046 64.4363 29.046C64.3149 29.046 64.2029 29.067 64.1003 29.109C64.0023 29.151 63.9159 29.2187 63.8413 29.312C63.7666 29.4053 63.7083 29.5267 63.6663 29.676C63.6243 29.8253 63.6033 30.0073 63.6033 30.222C63.6033 30.4367 63.6243 30.6187 63.6663 30.768C63.7083 30.9173 63.7666 31.041 63.8413 31.139C63.9159 31.2323 64.0023 31.3 64.1003 31.342C64.2029 31.384 64.3149 31.405 64.4363 31.405Z" fill="black"/>
<path d="M40.6075 69.984H38.5675C38.5515 70.6507 38.5275 71.2347 38.4955 71.736C38.4635 72.232 38.4182 72.6587 38.3595 73.016C38.3009 73.368 38.2235 73.6613 38.1275 73.896C38.0369 74.1307 37.9222 74.3173 37.7835 74.456H40.6075V69.984ZM41.3275 75H37.3675L37.2075 76.448H36.6475V74.456H37.0555C37.2369 74.3013 37.3835 74.088 37.4955 73.816C37.6075 73.5387 37.6955 73.1973 37.7595 72.792C37.8235 72.3813 37.8689 71.9013 37.8955 71.352C37.9275 70.7973 37.9515 70.16 37.9675 69.44H41.3435V74.456H42.0555V76.448H41.4955L41.3275 75ZM42.9469 70.976H43.6269V74.088L45.8429 70.976H46.4669V75H45.7869V71.88L43.5789 75H42.9469V70.976ZM49.5232 74.592C49.8805 74.592 50.1685 74.4667 50.3872 74.216C50.6112 73.96 50.7232 73.5493 50.7232 72.984C50.7232 72.4293 50.6112 72.024 50.3872 71.768C50.1685 71.5067 49.8805 71.376 49.5232 71.376C49.3472 71.376 49.1792 71.408 49.0192 71.472C48.8592 71.5307 48.7178 71.6267 48.5952 71.76C48.4778 71.888 48.3845 72.0533 48.3152 72.256C48.2458 72.4587 48.2112 72.7013 48.2112 72.984C48.2112 73.272 48.2458 73.5173 48.3152 73.72C48.3845 73.9227 48.4778 74.088 48.5952 74.216C48.7178 74.344 48.8592 74.44 49.0192 74.504C49.1792 74.5627 49.3472 74.592 49.5232 74.592ZM49.6272 75.08C49.3285 75.08 49.0645 75.016 48.8352 74.888C48.6112 74.7547 48.4272 74.5733 48.2832 74.344V76.496H47.6032V70.976H48.2032L48.2512 71.688C48.3952 71.448 48.5818 71.256 48.8112 71.112C49.0458 70.968 49.3285 70.896 49.6592 70.896C49.8938 70.896 50.1178 70.9387 50.3312 71.024C50.5445 71.1093 50.7312 71.2373 50.8912 71.408C51.0565 71.5787 51.1872 71.7973 51.2832 72.064C51.3792 72.3253 51.4272 72.632 51.4272 72.984C51.4272 73.336 51.3765 73.6453 51.2752 73.912C51.1792 74.1733 51.0485 74.392 50.8832 74.568C50.7178 74.7387 50.5258 74.8667 50.3072 74.952C50.0938 75.0373 49.8672 75.08 49.6272 75.08ZM53.9299 71.384C53.6419 71.384 53.3939 71.4853 53.1859 71.688C52.9832 71.8907 52.8552 72.1973 52.8019 72.608H54.8419C54.8739 72.192 54.8019 71.8853 54.6259 71.688C54.4552 71.4853 54.2232 71.384 53.9299 71.384ZM55.4099 74.656C55.2659 74.7787 55.0792 74.88 54.8499 74.96C54.6206 75.04 54.3592 75.08 54.0659 75.08C53.4259 75.08 52.9352 74.8987 52.5939 74.536C52.2526 74.168 52.0819 73.6507 52.0819 72.984C52.0819 72.6587 52.1299 72.368 52.2259 72.112C52.3219 71.8507 52.4526 71.6293 52.6179 71.448C52.7886 71.2667 52.9859 71.1307 53.2099 71.04C53.4392 70.944 53.6846 70.896 53.9459 70.896C54.2179 70.896 54.4606 70.944 54.6739 71.04C54.8926 71.1307 55.0712 71.2693 55.2099 71.456C55.3539 71.6373 55.4499 71.8667 55.4979 72.144C55.5512 72.416 55.5512 72.7307 55.4979 73.088H52.7779C52.8099 74.0533 53.2606 74.536 54.1299 74.536C54.3592 74.536 54.5646 74.5013 54.7459 74.432C54.9272 74.3627 55.0952 74.2747 55.2499 74.168L55.4099 74.656ZM58.8953 75L57.2153 72.856L58.8713 70.976H59.5833L57.9433 72.776L59.6953 75H58.8953ZM57.1113 70.976V75H56.4313V70.976H57.1113ZM61.9918 71.456V75H61.3038V71.456H60.0798V70.976H63.2398V71.456H61.9918Z" fill="black"/>
<defs>
<clipPath id="clip0">
<rect x="23" y="42" width="55" height="22" fill="white"/>
</clipPath>
</defs>
</svg>
