<svg width="40" height="40" viewBox="0 0 40 40" fill="none" xmlns="http://www.w3.org/2000/svg">
<rect width="40" height="40" rx="20" fill="#CF4647"/>
<path d="M12.8886 20.2564C12.8678 20.2881 12.8276 20.3882 12.7727 20.5554C12.7165 20.7238 12.6482 20.9337 12.5676 21.1899C12.4871 21.4426 12.3992 21.7269 12.3065 22.0405L12.0173 23.0022C11.9074 23.3292 11.822 23.649 11.7244 23.9638L11.4803 24.8156L11.2972 25.4527L11.2118 25.7578C11.1752 25.8591 11.1386 25.9713 11.0776 26.0958C11.0166 26.2178 10.9433 26.3362 10.8701 26.4473C10.7847 26.5571 10.6993 26.6511 10.6016 26.7243C10.504 26.7975 10.4064 26.8341 10.2965 26.8341C10.1257 26.8341 10.0037 26.7756 9.91823 26.6633C9.8328 26.5473 9.79619 26.3387 9.79619 26.0336V25.7578C9.79619 25.6565 9.845 25.4649 9.91823 25.1866C9.99145 24.906 10.0769 24.5911 10.1867 24.2396C10.2843 23.8857 10.4064 23.5221 10.5162 23.145L10.8457 22.1199C10.5528 22.4372 10.2477 22.7545 9.91823 23.0595C9.58873 23.3768 9.24703 23.6575 8.90532 23.9016C8.55142 24.1457 8.19751 24.3531 7.84361 24.5118C7.4897 24.6704 7.148 24.7436 6.8185 24.7436C6.44019 24.7436 6.12289 24.6582 5.85441 24.4874C5.58593 24.3165 5.35407 24.1091 5.18321 23.8406C5.01236 23.5721 4.87812 23.267 4.7927 22.9375C4.7451 22.6214 4.69629 22.2797 4.69629 21.9502V21.8282C4.69629 21.7916 4.70117 21.7513 4.70849 21.7135C4.73778 21.1033 4.82443 20.4809 4.96477 19.8414C5.11121 19.1971 5.29427 18.5601 5.52614 17.9255C5.75801 17.2909 6.02649 16.6685 6.33158 16.0632C6.64887 15.4823 6.97837 14.9087 7.33228 14.3718C7.68618 13.8348 8.06693 13.3345 8.46721 12.8829C8.86993 12.429 9.2812 12.0384 9.70466 11.7114C10.1269 11.3819 10.554 11.1256 10.986 10.9425C11.4132 10.7595 11.8403 10.6619 12.2625 10.6619C12.7507 10.6619 13.2218 10.7961 13.6782 11.0609C14.1297 11.3331 14.5568 11.7602 14.9571 12.3582C15.0474 12.4924 15.1036 12.6267 15.128 12.7633C15.1524 12.8976 15.1646 13.0282 15.1646 13.1477C15.1646 13.4333 15.0975 13.6603 14.9608 13.8238C14.8265 13.9947 14.6679 14.0679 14.4726 14.0679C14.3018 14.0679 14.1431 13.9825 13.9967 13.7994C13.8502 13.6164 13.6794 13.3601 13.5085 13.0306C13.3377 12.7255 13.1546 12.5058 12.9472 12.3716C12.7397 12.2374 12.52 12.1763 12.276 12.1763C11.8977 12.1763 11.5071 12.335 11.08 12.6523C10.6529 12.9696 10.238 13.3723 9.82304 13.8848C9.40811 14.3974 9.00539 14.9832 8.62708 15.6422C8.24877 16.3012 7.90707 16.9724 7.61418 17.668C7.32129 18.3636 7.08942 19.0348 6.91857 19.706C6.74772 20.3772 6.6623 20.9752 6.6623 21.5121C6.6623 21.6952 6.6745 21.8782 6.69891 22.0613C6.72331 22.2565 6.77213 22.4152 6.83315 22.5738C6.89416 22.7325 6.99179 22.8545 7.11383 22.9522C7.23587 23.0498 7.38231 23.0986 7.55316 23.0986C7.74842 23.0986 7.98029 23.0376 8.22436 22.9033C8.48064 22.7691 8.73691 22.5982 9.00539 22.3786C9.27387 22.1589 9.55456 21.9148 9.82304 21.6464C10.0915 21.3779 10.36 21.0972 10.5919 20.8165C10.8237 20.5358 11.0434 20.2674 11.2143 20.0111C11.3973 19.7548 11.5315 19.5351 11.6292 19.3399L12.3358 17.0688C12.4261 16.8284 12.5432 16.6563 12.6933 16.5562C12.8398 16.4537 12.9899 16.4025 13.1449 16.4025C13.2181 16.4025 13.295 16.4147 13.3706 16.4391C13.4439 16.4635 13.5146 16.5025 13.5744 16.5562C13.6355 16.605 13.6806 16.6783 13.716 16.7637C13.7526 16.8491 13.777 16.9467 13.777 17.0688C13.777 17.3739 13.7526 17.6619 13.7038 17.9279C13.655 18.1964 13.5818 18.4527 13.4963 18.7089C13.4231 18.9591 13.3255 19.2142 13.2279 19.4717C13.1302 19.728 13.0326 19.9964 12.935 20.2771L12.8886 20.2564ZM23.0213 22.1211C22.7857 22.4384 22.5112 22.7484 22.1988 23.0486C21.8968 23.3414 21.5728 23.6106 21.2298 23.854C20.8978 24.0883 20.5708 24.2775 20.2498 24.4202C19.9277 24.563 19.6396 24.6338 19.3834 24.6338C19.1271 24.6338 18.916 24.5484 18.7549 24.3775C18.5938 24.2067 18.5133 23.9138 18.5133 23.4989C18.5133 23.206 18.5572 22.8643 18.6426 22.4738C18.5035 22.7178 18.329 22.9741 18.1203 23.2182C17.9128 23.4745 17.6724 23.7063 17.4052 23.9138C17.1367 24.1213 16.8365 24.2921 16.5045 24.4141C16.1726 24.5362 15.8114 24.6094 15.4184 24.6094C15.2439 24.6094 15.073 24.585 14.9095 24.5362C14.7387 24.4874 14.5922 24.4141 14.4702 24.3043C14.3481 24.1945 14.2505 24.048 14.1651 23.865C14.0919 23.6819 14.0553 23.4501 14.0553 23.1816L14.0797 22.8887C14.1041 22.7056 14.1651 22.4005 14.2871 21.9978C14.4092 21.5951 14.58 21.0704 14.8241 20.4236C15.0682 19.7768 15.3977 19.0079 15.837 18.0927C15.9468 17.8486 16.0689 17.6777 16.2275 17.5679C16.374 17.4581 16.5326 17.4093 16.7035 17.4093C16.7767 17.4093 16.8499 17.4215 16.9353 17.4459C17.0085 17.4581 17.0818 17.4947 17.155 17.5435C17.2282 17.5923 17.277 17.6533 17.3258 17.7266C17.3624 17.7876 17.3869 17.873 17.3869 17.9706C17.3869 18.0316 17.3747 18.0927 17.3624 18.1415C17.3258 18.2513 17.277 18.3856 17.1916 18.5564L16.8743 19.1593C16.7523 19.3789 16.6302 19.623 16.496 19.8817C16.3617 20.1417 16.2397 20.4187 16.1299 20.6896C16.02 20.9703 15.9224 21.2571 15.837 21.5439C15.7516 21.8367 15.7028 22.1174 15.6905 22.3859C15.6905 22.5079 15.715 22.6056 15.7638 22.7032C15.8126 22.8008 15.9102 22.8496 16.0323 22.8496C16.374 22.8496 16.7157 22.7398 17.0329 22.5079C17.3502 22.2797 17.6431 21.9954 17.9116 21.6561C18.1801 21.3144 18.4242 20.9483 18.6438 20.5578C18.8635 20.1673 19.0343 19.8134 19.1808 19.4912C19.2784 19.2752 19.376 19.0433 19.4493 18.7956C19.5225 18.5515 19.6079 18.3197 19.7055 18.1122C19.791 17.9047 19.9008 17.7266 20.0228 17.5874C20.1327 17.4483 20.2791 17.38 20.4622 17.38C20.6452 17.38 20.8039 17.4532 20.9137 17.5996C21.0235 17.7461 21.0846 17.9169 21.0846 18.1244C21.0846 18.2342 21.0479 18.3929 20.9747 18.5881C20.9015 18.7834 20.8161 19.0153 20.7062 19.2715L20.3523 20.0977C20.2181 20.3906 20.1083 20.6835 19.9984 20.9886C19.8886 21.2876 19.791 21.5866 19.7177 21.8721C19.6445 22.165 19.6079 22.4335 19.6079 22.6776C19.6079 22.9094 19.73 23.0193 19.9618 23.0193C20.1327 23.0193 20.3401 22.9705 20.5842 22.8484C20.8283 22.7386 21.0846 22.5799 21.353 22.3725C21.6215 22.165 21.89 21.9209 22.1585 21.6403C22.427 21.3596 22.671 21.0618 22.8785 20.7372L22.9639 22.0308L23.0213 22.1211Z" fill="white" stroke="white" stroke-miterlimit="10"/>
<path d="M23.2712 21.6452C23.2127 21.7916 23.1553 21.9625 23.1004 22.1553C23.043 22.3481 23.015 22.5214 23.015 22.674C23.015 22.7692 23.0308 22.8448 23.0638 22.9022C23.0955 22.9595 23.1565 22.9876 23.2468 22.9876C23.3603 22.9876 23.5007 22.9486 23.6703 22.8692C23.8387 22.7899 24.0205 22.6862 24.2158 22.5544C24.4111 22.425 24.6161 22.2761 24.826 22.1077C25.0383 21.9369 25.2495 21.7538 25.4581 21.583C25.6656 21.3999 25.8657 21.2169 26.0561 21.0338C26.2465 20.8507 26.4173 20.6799 26.5687 20.5335C26.6102 20.4846 26.6602 20.4602 26.72 20.4358C26.7786 20.4114 26.8298 20.3992 26.8725 20.3992C26.9824 20.3992 27.0678 20.4358 27.141 20.5335C27.2142 20.6189 27.2509 20.7409 27.2509 20.8874C27.2509 21.0216 27.2142 21.168 27.141 21.3267C27.0678 21.4853 26.9336 21.644 26.7505 21.8026C26.4088 22.1687 26.0671 22.5226 25.7132 22.8643C25.3715 23.1938 25.0176 23.4989 24.6759 23.7552C24.3342 24.0115 23.9925 24.2067 23.6508 24.3654C23.3091 24.5118 22.9796 24.5851 22.6623 24.5851C22.4426 24.5851 22.2596 24.5484 22.1131 24.4752C21.9667 24.402 21.8568 24.3044 21.7592 24.1823C21.6738 24.0603 21.6128 23.9139 21.5762 23.7552C21.5395 23.5844 21.5273 23.4135 21.5273 23.2305C21.5273 22.9132 21.564 22.5959 21.6494 22.2664C21.7348 21.9369 21.8202 21.6318 21.9301 21.3633C22.1253 20.863 22.3084 20.3748 22.5036 19.8867L23.0406 18.5443L25.4679 12.4315C25.5594 12.1874 25.6876 12.0141 25.8523 11.9067C26.0183 11.8091 26.1818 11.7603 26.349 11.7603C26.5199 11.7603 26.6663 11.8091 26.8054 11.9189C26.9397 12.0239 27.0129 12.1996 27.0129 12.44C27.0129 12.5535 26.9885 12.6743 26.9458 12.8012C26.8969 12.9233 26.8481 13.0624 26.7749 13.2076C26.6407 13.5029 26.482 13.8666 26.299 14.2986L25.6888 15.7142C25.4813 16.2207 25.2617 16.7515 25.042 17.3007L24.383 18.9116C24.1633 19.4339 23.9681 19.9245 23.785 20.3931L23.3091 21.6049L23.2712 21.6452Z" fill="white" stroke="white" stroke-miterlimit="10"/>
<path d="M34.6561 19.9246C34.7329 19.8722 34.8025 19.8307 34.8672 19.7989C34.9306 19.7672 34.9929 19.7501 35.0502 19.7501C35.1686 19.7501 35.2577 19.8038 35.3163 19.9088C35.3773 20.0137 35.4139 20.1406 35.4139 20.2944C35.4139 20.4592 35.3773 20.6276 35.3041 20.7984C35.2309 20.9693 35.1332 21.1133 34.9868 21.2256C34.4132 21.7344 33.9007 22.1982 33.4613 22.6168C33.0098 23.0354 32.5949 23.3954 32.1922 23.6968C31.7894 24.0019 31.3989 24.2338 31.0206 24.4046C30.6423 24.5755 30.2396 24.6609 29.8002 24.6609C29.3975 24.6609 29.0802 24.5755 28.8606 24.3924C28.6409 24.2215 28.5311 23.9775 28.5311 23.6602V23.587C28.5311 23.5748 28.5433 23.5381 28.5433 23.5137C28.5677 23.3307 28.6531 23.111 28.7995 22.8547C28.946 22.6107 29.1168 22.3544 29.3243 22.0859C29.5318 21.8174 29.7514 21.549 29.9833 21.2805C30.2152 21.012 30.4226 20.7557 30.6301 20.5116C30.8253 20.2676 30.984 20.0479 31.1182 19.8404C31.2525 19.6452 31.3135 19.4743 31.3135 19.3523C31.3135 19.2791 31.2891 19.2181 31.2378 19.1692C31.1805 19.1326 31.0914 19.1082 30.9693 19.1082C30.7497 19.1082 30.53 19.1692 30.303 19.2791C30.0712 19.3889 29.8442 19.5476 29.6196 19.7306C29.4 19.9259 29.1803 20.1333 28.9704 20.3774C28.7605 20.6215 28.5677 20.8777 28.3724 21.134C28.1894 21.4025 28.0185 21.6588 27.8599 21.9273C27.7134 22.1957 27.5792 22.4398 27.4693 22.6595L27.3351 22.9524L27.152 23.3917L26.9324 23.8798L26.7249 24.3558L26.5541 24.7585C26.5053 24.8805 26.4686 24.9538 26.4442 25.0026C26.4198 25.0636 26.3832 25.1734 26.3222 25.3321L26.1025 25.891L25.8463 26.5622L25.6022 27.2212L25.3947 27.7801C25.3337 27.9388 25.2971 28.0462 25.2849 28.1035C25.2239 28.2622 25.1629 28.4208 25.0896 28.5673C25.0164 28.7137 24.9371 28.8394 24.8431 28.9505C24.7504 29.0603 24.643 29.1518 24.5222 29.2189C24.4001 29.28 24.2659 29.3166 24.1194 29.3166C23.9242 29.3166 23.7655 29.2678 23.6435 29.1799C23.5215 29.0945 23.4482 28.9114 23.4482 28.6551C23.4482 28.5331 23.4604 28.3989 23.4971 28.2646C23.5215 28.1304 23.5703 28.0059 23.6191 27.8741C23.6557 27.7399 23.7167 27.6178 23.7655 27.4958C23.8144 27.3738 23.8632 27.2517 23.8998 27.1346C24.1805 26.5 24.4795 25.8654 24.7784 25.2235C25.0774 24.5816 25.3642 23.9543 25.6449 23.3319C25.9207 22.7095 26.1758 22.0993 26.4137 21.4892C26.6456 20.8912 26.8409 20.3103 26.9995 19.7562L27.1704 19.273C27.2436 19.0655 27.329 18.858 27.4266 18.6628C27.5243 18.4675 27.6341 18.2845 27.7561 18.138C27.8782 17.9916 28.0124 17.9147 28.1466 17.9147C28.3663 17.9147 28.5213 17.9635 28.6177 18.0611C28.7153 18.1685 28.7641 18.3052 28.7641 18.5005C28.7641 18.5371 28.7593 18.5981 28.7483 18.6835C28.7361 18.769 28.7239 18.8544 28.7044 18.9459L28.6519 19.2022C28.6397 19.2876 28.6153 19.3486 28.6031 19.3852C28.7983 19.1705 29.018 18.9581 29.2474 18.7446C29.4793 18.5334 29.7234 18.3418 29.9674 18.171C30.2115 18.0001 30.4678 17.8537 30.7241 17.75C30.9803 17.6401 31.2366 17.5852 31.4929 17.5852C31.6759 17.5852 31.8468 17.6096 32.025 17.6584C32.1958 17.7097 32.3545 17.7841 32.4887 17.883C32.6315 17.9806 32.7425 18.1026 32.828 18.2491C32.9134 18.3955 32.9561 18.57 32.9561 18.7665C32.9561 19.0265 32.8878 19.3035 32.7608 19.5964C32.6266 19.8941 32.468 20.1943 32.2654 20.4872C32.0701 20.7874 31.8541 21.0779 31.6235 21.3598C31.3916 21.6405 31.1841 21.8968 30.9767 22.1286L30.4641 22.7266C30.3299 22.8852 30.2567 22.9951 30.2542 23.0561C30.2542 23.1293 30.2786 23.1903 30.3274 23.2392C30.3762 23.288 30.4617 23.3124 30.5715 23.3124C30.6667 23.3124 30.8009 23.2575 30.9742 23.1537C31.1548 23.0439 31.4014 22.873 31.7187 22.6217C32.0359 22.3654 32.446 22.0359 32.9354 21.6087C33.4235 21.1865 34.0337 20.6569 34.75 20.0137L34.6561 19.9246Z" fill="white" stroke="white" stroke-miterlimit="10"/>
</svg>
