<svg width="40" height="40" viewBox="0 0 40 40" fill="none" xmlns="http://www.w3.org/2000/svg">
<path d="M34.267 7.84082L31.6919 36.6897L20.1162 39.8988L8.57252 36.6941L6 7.84082H34.267Z" fill="#E44D26"/>
<path d="M20.1348 37.446L29.4884 34.8528L31.6889 10.2002H20.1348V37.446Z" fill="#F16529"/>
<path d="M15.1271 17.2775H20.1332V13.7388H11.2598L11.3444 14.6881L12.2142 24.4399H20.1332V20.9012H15.4506L15.1271 17.2775ZM15.9247 26.2094H12.3723L12.8681 31.7657L20.1169 33.7779L20.1332 33.7735V30.0917L20.1177 30.0958L16.1767 29.0316L15.9247 26.2094Z" fill="#EBEBEB"/>
<path d="M8.63086 0H10.4292V1.77673H12.0743V0H13.8727V5.38039H12.0744V3.57873H10.4293V5.38039H8.63097V0H8.63086ZM16.2375 1.78427H14.6546V0H19.6201V1.78427H18.0362V5.38039H16.2378V1.78427H16.2377H16.2375ZM20.4081 0H22.2833L23.4367 1.89053L24.5891 0H26.465V5.38039H24.674V2.71357L23.4367 4.62659H23.4057L22.1677 2.71357V5.38039H20.4081V0ZM27.3599 0H29.1588V3.60199H31.6878V5.38039H27.3598V0H27.3599Z" fill="black"/>
<path d="M20.1212 24.4399H24.4788L24.0679 29.0294L20.1211 30.0947V33.7762L27.3757 31.7657L27.4289 31.1678L28.2606 21.8515L28.3469 20.9012H20.1212V24.4399ZM20.1212 17.2689V17.2775H28.6689L28.7398 16.4821L28.9011 14.6881L28.9857 13.7388H20.1212V17.269V17.2689Z" fill="white"/>
</svg>
