<svg width="300" height="135" viewBox="0 0 300 135" fill="none" xmlns="http://www.w3.org/2000/svg">
<path d="M70.1619 52.9205L70.4755 66.6857H66.4883V51.6234H72.9844L82.3925 63.6679L91.7783 51.6234H98.1624V66.6857H94.3095L94.5783 52.9205L83.8486 66.6857H80.8693L70.1619 52.9205ZM104.815 51.597L113.887 61.2855L122.668 51.597H126.924L113.35 66.6592H109.094L111.939 63.615L100.559 51.597H104.815ZM126.835 62.4767C126.835 63.7738 127.888 64.8592 129.993 65.7327C132.009 66.5533 134.406 66.9769 137.161 66.9769C139.849 66.9769 142.179 66.5533 144.173 65.7327C146.278 64.8592 147.331 63.8003 147.331 62.5561C147.331 60.862 145.562 59.5913 142.045 58.7443C142.986 58.506 143.523 58.3207 143.702 58.2678C145.606 57.4736 146.547 56.5471 146.547 55.4353C146.547 54.2176 145.606 53.2117 143.725 52.444C141.843 51.6764 139.603 51.2793 137.005 51.2793C134.563 51.2793 132.39 51.6764 130.531 52.497C128.672 53.2911 127.731 54.297 127.731 55.4618H132.144C132.144 54.7471 132.637 54.1911 133.622 53.7676C134.608 53.3441 135.862 53.1588 137.385 53.1588C138.841 53.1588 140.029 53.3705 140.925 53.7941C141.821 54.2176 142.291 54.7735 142.291 55.4618C142.291 55.9118 142.134 56.3089 141.798 56.6265C141.126 57.3148 139.939 57.7648 138.259 57.9236C137.677 57.9766 136.109 58.003 133.577 58.003V59.5913H137.161C138.841 59.5913 140.253 59.8825 141.35 60.4384C142.47 60.9943 143.008 61.7091 143.008 62.5297C143.008 63.3768 142.47 64.0121 141.395 64.4621C140.32 64.8856 138.864 65.1239 137.072 65.1239C135.392 65.1239 134.003 64.8856 132.905 64.4091C131.83 63.9327 131.293 63.2973 131.293 62.5032H126.835V62.4767ZM151.363 66.6592V51.597H155.53V57.6589H158.464C161.847 57.6589 164.512 58.003 166.483 58.6648C168.701 59.4325 169.799 60.5972 169.799 62.1591C169.799 63.7209 168.701 64.8856 166.483 65.6533C164.535 66.3151 161.869 66.6592 158.464 66.6592H151.363ZM155.53 59.5119V64.7797H158.464C160.704 64.7797 162.384 64.6209 163.459 64.2768C164.803 63.8797 165.475 63.165 165.475 62.1326C165.475 61.1002 164.826 60.3855 163.504 59.9884C162.451 59.6707 160.771 59.5119 158.464 59.5119H155.53ZM176.765 51.597V66.6592H172.599V51.597H176.765ZM186.509 51.597V66.6592H182.343V51.597H186.509ZM198.561 66.6592L186.957 59.0619L199.076 51.597H204.071L191.505 59.0619L203.802 66.6592H198.561ZM226.987 66.6592H231.512L219.169 51.597H215.003L202.66 66.6592H207.163L210.635 62.2385H223.492L226.987 66.6592ZM217.108 54.0853L222.059 60.359H212.046L217.108 54.0853Z" fill="black" fill-opacity="0.6"/>
<path d="M54.5 71.7091V45.5H243.5V71.7091H54.5Z" stroke="black" stroke-opacity="0.6" stroke-miterlimit="22.9256"/>
<path d="M116.441 87.7453H117.618V81.8569C117.618 81.7773 117.618 81.7242 117.641 81.6447C117.664 81.5651 117.687 81.5121 117.757 81.4855C117.826 81.4325 117.941 81.406 118.033 81.3794C118.149 81.3529 118.241 81.3529 118.356 81.3529H123.986V87.7453H125.163V81.3529H129.223C129.408 81.3529 129.593 81.3529 129.8 81.3794C130.008 81.406 130.239 81.4325 130.446 81.4855C130.654 81.5386 130.838 81.6181 131.023 81.7242C131.161 81.8038 131.277 81.9099 131.346 82.0425C131.415 82.1486 131.461 82.2813 131.484 82.3873C131.508 82.4934 131.531 82.6261 131.508 82.7322V87.7718H132.684V82.7587C132.684 82.573 132.661 82.3608 132.615 82.1752C132.569 81.9895 132.477 81.8038 132.338 81.6182C132.2 81.459 132.015 81.2999 131.761 81.1672C131.438 81.0081 131.069 80.902 130.631 80.8224C130.192 80.7694 129.731 80.7163 129.246 80.7163H118.103C117.987 80.7163 117.849 80.7163 117.687 80.7429C117.526 80.7694 117.364 80.7959 117.203 80.8489C117.041 80.902 116.88 80.9816 116.764 81.1142C116.649 81.2203 116.58 81.3529 116.557 81.4855C116.511 81.6182 116.511 81.7508 116.511 81.9099V87.7453H116.441ZM144.497 86.6312V80.7429H143.32V86.5517C143.32 86.6047 143.32 86.6843 143.297 86.7639C143.274 86.8434 143.205 86.923 143.09 87.0026C142.997 87.0556 142.882 87.0822 142.744 87.1087C142.605 87.1352 142.467 87.1352 142.305 87.1352H138.983C138.66 87.1352 138.337 87.1352 138.06 87.1087C137.76 87.0822 137.483 87.0291 137.252 86.9761C136.999 86.8965 136.791 86.8169 136.63 86.6843C136.537 86.6312 136.468 86.5517 136.399 86.4456C136.33 86.3395 136.26 86.2069 136.214 86.0477C136.168 85.8886 136.145 85.6764 136.145 85.4376V80.7429H134.968V85.6499C134.968 85.809 134.991 85.9681 135.014 86.1538C135.038 86.3395 135.13 86.5252 135.291 86.7373C135.43 86.923 135.66 87.1087 135.96 87.2944C136.214 87.427 136.491 87.5331 136.791 87.6126C137.091 87.6922 137.391 87.7187 137.737 87.7453C138.083 87.7718 138.475 87.7718 138.891 87.7718H142.167C142.398 87.7718 142.605 87.7718 142.836 87.7718C143.044 87.7718 143.274 87.7453 143.459 87.7188C143.667 87.6922 143.828 87.6392 143.99 87.5596C144.151 87.48 144.266 87.3739 144.359 87.2944C144.428 87.1883 144.497 87.0822 144.52 86.9761C144.474 86.8169 144.497 86.7108 144.497 86.6312ZM147.566 87.7453H155.18V87.1352H147.566C147.52 87.1352 147.473 87.1352 147.427 87.1352C147.381 87.1352 147.358 87.1087 147.358 87.0822C147.358 87.0556 147.381 87.0026 147.427 86.9761C147.473 86.9495 147.497 86.923 147.543 86.8965L154.764 81.8834C154.833 81.8303 154.88 81.7773 154.926 81.7242C154.972 81.6447 155.018 81.5916 155.041 81.512C155.064 81.4325 155.087 81.3794 155.087 81.3264C155.087 81.2468 155.041 81.1407 154.972 81.0611C154.903 80.9816 154.787 80.902 154.649 80.8489C154.51 80.7959 154.326 80.7694 154.095 80.7694H146.412V81.3794H153.564C153.634 81.3794 153.703 81.3794 153.749 81.406C153.795 81.4325 153.818 81.459 153.841 81.512C153.841 81.5651 153.818 81.5916 153.772 81.6182C153.726 81.6447 153.68 81.6712 153.634 81.6977L146.689 86.4456C146.597 86.4986 146.504 86.5517 146.435 86.6312C146.343 86.7108 146.274 86.7904 146.204 86.87C146.135 86.9495 146.112 87.0556 146.112 87.1617C146.112 87.2944 146.158 87.4005 146.274 87.48C146.366 87.5596 146.504 87.6127 146.643 87.6657C146.804 87.6922 146.966 87.7453 147.127 87.7453C147.266 87.7453 147.427 87.7453 147.566 87.7453ZM158.11 87.7453V86.6047H156.748V87.7453H158.11ZM160.394 78.4883V86.6578C160.394 86.7374 160.394 86.8434 160.417 86.9495C160.44 87.0556 160.486 87.1617 160.578 87.2678C160.648 87.3739 160.786 87.4535 160.948 87.5596C161.086 87.6126 161.271 87.6657 161.455 87.6922C161.663 87.7187 161.87 87.7453 162.101 87.7453C162.332 87.7453 162.563 87.7453 162.793 87.7453H165.377C165.7 87.7453 166.047 87.7453 166.416 87.7188C166.785 87.6922 167.154 87.6392 167.523 87.5596C167.892 87.48 168.238 87.3739 168.561 87.2148C168.884 87.0556 169.184 86.87 169.461 86.6047C169.715 86.366 169.876 86.1008 169.992 85.8355C170.107 85.5703 170.176 85.305 170.199 85.0398C170.223 84.7745 170.246 84.5358 170.246 84.3236C170.246 84.0849 170.246 83.8197 170.199 83.5279C170.176 83.2361 170.107 82.9709 169.992 82.6791C169.876 82.3874 169.692 82.1221 169.438 81.8834C169.184 81.6182 168.884 81.4325 168.538 81.2733C168.192 81.1142 167.846 81.0081 167.477 80.9285C167.108 80.8489 166.739 80.7959 166.37 80.7694C166 80.7428 165.654 80.7163 165.331 80.7429H161.571V78.4883H160.394ZM161.571 81.3529H165.239C165.516 81.3529 165.816 81.3529 166.116 81.3794C166.416 81.406 166.739 81.4325 167.039 81.512C167.339 81.5916 167.615 81.6712 167.869 81.8038C168.123 81.9364 168.331 82.1221 168.515 82.3343C168.608 82.4669 168.677 82.5995 168.746 82.7852C168.815 82.9709 168.861 83.1566 168.884 83.3422C168.931 83.5544 168.954 83.7401 168.954 83.9523C168.977 84.138 168.977 84.3501 168.977 84.5093C168.977 84.8276 168.954 85.1459 168.884 85.4376C168.815 85.7294 168.677 85.9681 168.469 86.1803C168.261 86.3925 168.008 86.5782 167.731 86.7108C167.454 86.8435 167.154 86.923 166.831 86.9761C166.508 87.0291 166.208 87.0822 165.908 87.0822C165.608 87.1087 165.354 87.1087 165.124 87.1087H162.378C162.309 87.1087 162.217 87.1087 162.147 87.1087C162.055 87.1087 161.963 87.0822 161.894 87.0822C161.801 87.0556 161.732 87.0291 161.686 87.0026C161.617 86.9495 161.571 86.87 161.571 86.8169C161.571 86.7373 161.547 86.6578 161.547 86.5782V81.3529H161.571ZM182.451 80.7163H181.182L176.452 86.87L171.999 80.7163H170.73L175.806 87.6922L173.983 89.9998H175.252L182.451 80.7163Z" fill="black" fill-opacity="0.6"/>
</svg>
