<svg width="300" height="135" viewBox="0 0 300 135" fill="none" xmlns="http://www.w3.org/2000/svg">
<path d="M101.037 60.8467H93.0186V58.3857C93.0186 57.2373 92.916 56.5059 92.7109 56.1914C92.5059 55.877 92.1641 55.7197 91.6855 55.7197C91.166 55.7197 90.7695 55.9316 90.4961 56.3555C90.2363 56.7793 90.1064 57.4219 90.1064 58.2832C90.1064 59.3906 90.2568 60.2246 90.5576 60.7852C90.8447 61.3457 91.6582 62.0225 92.998 62.8154C96.8398 65.0986 99.2598 66.9717 100.258 68.4346C101.256 69.8975 101.755 72.2559 101.755 75.5098C101.755 77.875 101.475 79.6182 100.914 80.7393C100.367 81.8604 99.3008 82.8037 97.7148 83.5693C96.1289 84.3213 94.2832 84.6973 92.1777 84.6973C89.8672 84.6973 87.8916 84.2598 86.251 83.3848C84.624 82.5098 83.5576 81.3955 83.0518 80.042C82.5459 78.6885 82.293 76.7676 82.293 74.2793V72.1055H90.3115V76.1455C90.3115 77.3896 90.4209 78.1895 90.6396 78.5449C90.8721 78.9004 91.2754 79.0781 91.8496 79.0781C92.4238 79.0781 92.8477 78.8525 93.1211 78.4014C93.4082 77.9502 93.5518 77.2803 93.5518 76.3916C93.5518 74.4365 93.2852 73.1582 92.752 72.5566C92.2051 71.9551 90.8584 70.9502 88.7119 69.542C86.5654 68.1201 85.1436 67.0879 84.4463 66.4453C83.749 65.8027 83.168 64.9141 82.7031 63.7793C82.252 62.6445 82.0264 61.1953 82.0264 59.4316C82.0264 56.8887 82.3477 55.0293 82.9902 53.8535C83.6465 52.6777 84.6992 51.7617 86.1484 51.1055C87.5977 50.4355 89.3477 50.1006 91.3984 50.1006C93.6406 50.1006 95.5479 50.4629 97.1201 51.1875C98.7061 51.9121 99.752 52.8281 100.258 53.9355C100.777 55.0293 101.037 56.8955 101.037 59.5342V60.8467ZM112.665 56.7861L112.521 59.1855C113.26 58.2148 114.073 57.4902 114.962 57.0117C115.851 56.5332 116.821 56.2939 117.874 56.2939C119.159 56.2939 120.267 56.6426 121.196 57.3398C122.14 58.0234 122.728 58.8164 122.96 59.7188C123.192 60.6211 123.309 62.1523 123.309 64.3125V75.7764C123.309 78.251 123.158 80.0146 122.857 81.0674C122.57 82.1064 121.969 82.9404 121.053 83.5693C120.15 84.1846 119.057 84.4922 117.771 84.4922C116.746 84.4922 115.796 84.2529 114.921 83.7744C114.046 83.2959 113.246 82.585 112.521 81.6416V87.876H104.236V56.7861H112.665ZM115.023 64.7021C115.023 63.0205 114.962 62.002 114.839 61.6465C114.716 61.291 114.374 61.1133 113.813 61.1133C113.267 61.1133 112.911 61.3184 112.747 61.7285C112.597 62.1387 112.521 63.1299 112.521 64.7021V75.9814C112.521 77.6221 112.604 78.6475 112.768 79.0576C112.932 79.4678 113.287 79.6729 113.834 79.6729C114.367 79.6729 114.695 79.4883 114.818 79.1191C114.955 78.7363 115.023 77.8203 115.023 76.3711V64.7021ZM144.801 66.3428V73.0078C144.801 75.4551 144.678 77.2529 144.432 78.4014C144.186 79.5361 143.659 80.6025 142.853 81.6006C142.046 82.585 141.007 83.3164 139.735 83.7949C138.478 84.2598 137.028 84.4922 135.388 84.4922C133.556 84.4922 132.004 84.2939 130.732 83.8975C129.461 83.4873 128.47 82.8789 127.759 82.0723C127.062 81.252 126.562 80.2676 126.262 79.1191C125.961 77.957 125.811 76.2207 125.811 73.9102V66.9375C125.811 64.4082 126.084 62.4326 126.631 61.0107C127.178 59.5889 128.162 58.4473 129.584 57.5859C131.006 56.7246 132.824 56.2939 135.039 56.2939C136.898 56.2939 138.491 56.5742 139.817 57.1348C141.157 57.6816 142.189 58.3994 142.914 59.2881C143.639 60.1768 144.131 61.0928 144.391 62.0361C144.664 62.9795 144.801 64.415 144.801 66.3428ZM136.516 64.292C136.516 62.8975 136.44 62.0225 136.29 61.667C136.14 61.2979 135.818 61.1133 135.326 61.1133C134.834 61.1133 134.506 61.2979 134.342 61.667C134.178 62.0225 134.096 62.8975 134.096 64.292V76.5762C134.096 77.8613 134.178 78.7021 134.342 79.0986C134.506 79.4814 134.827 79.6729 135.306 79.6729C135.798 79.6729 136.119 79.4951 136.27 79.1396C136.434 78.7842 136.516 78.0186 136.516 76.8428V64.292ZM155.834 56.7861L155.506 60.3545C156.709 57.7979 158.452 56.4443 160.735 56.2939V65.8711C159.218 65.8711 158.104 66.0762 157.393 66.4863C156.682 66.8965 156.244 67.4707 156.08 68.209C155.916 68.9336 155.834 70.6152 155.834 73.2539V84H147.549V56.7861H155.834ZM171.338 53.1562V57.4424H173.573V61.749H171.338V76.3096C171.338 78.1006 171.427 79.0986 171.604 79.3037C171.796 79.5088 172.568 79.6113 173.922 79.6113V84H170.579C168.692 84 167.346 83.9248 166.539 83.7744C165.732 83.6104 165.021 83.248 164.406 82.6875C163.791 82.1133 163.408 81.4639 163.258 80.7393C163.107 80.001 163.032 78.2783 163.032 75.5713V61.749H161.248V57.4424H163.032V53.1562H171.338ZM175.645 50.7979H190.267V57.4424H184.278V63.7383H189.61V70.0547H184.278V84H175.645V50.7979ZM200.664 50.7979V55.125H192.133V50.7979H200.664ZM200.664 56.7861V84H192.133V56.7861H200.664ZM212.395 53.1562V57.4424H214.63V61.749H212.395V76.3096C212.395 78.1006 212.483 79.0986 212.661 79.3037C212.853 79.5088 213.625 79.6113 214.979 79.6113V84H211.636C209.749 84 208.402 83.9248 207.596 83.7744C206.789 83.6104 206.078 83.248 205.463 82.6875C204.848 82.1133 204.465 81.4639 204.314 80.7393C204.164 80.001 204.089 78.2783 204.089 75.5713V61.749H202.305V57.4424H204.089V53.1562H212.395Z" fill="black" fill-opacity="0.6"/>
</svg>
