<svg width="200" height="75" viewBox="0 0 200 75" fill="none" xmlns="http://www.w3.org/2000/svg">
<path d="M78.3341 33.2982H70.08L69.1405 35.4369C68.7043 36.3535 68.503 37.1682 68.503 37.8811C68.503 38.5941 68.7714 39.2051 69.2747 39.6464C69.778 40.0878 70.4491 40.3254 71.2208 40.3254V41.5136H59.9805V40.3254C60.8529 40.2575 61.6917 39.918 62.497 39.273C63.3022 38.628 64.074 37.5077 64.8792 35.8443L74.8781 15.0342H81.1525L91.7553 38.0509C92.1244 38.8656 92.4935 39.4088 92.8961 39.7143C93.2988 40.0199 93.7685 40.2236 94.3389 40.3593V41.5475H79.0722V40.3593C80.1795 40.3593 80.7499 39.9859 80.7499 39.2391C80.7499 38.9335 80.6157 38.5262 80.3808 37.949L78.3341 33.2982ZM77.361 30.9558L74.2741 23.8267L71.1537 30.9558H77.361ZM119.806 15.7131L120.276 23.0459H118.497C118.296 22.2651 117.927 21.4843 117.323 20.7374C116.719 19.9906 115.813 19.3456 114.605 18.8363C113.397 18.3271 111.887 18.0895 110.075 18.0895H108.8V37.1682C108.8 39.307 109.438 40.3933 110.746 40.3933H112.29V41.5815H94.9764V40.3933H95.8824C97.191 40.3933 97.8285 39.3409 97.8285 37.1682V20.0924C97.8285 17.9537 97.191 16.9013 95.8824 16.9013H94.9764V15.7131H119.806ZM138.327 33.2982H130.073L129.134 35.4369C128.697 36.3535 128.496 37.1682 128.496 37.8811C128.496 38.5941 128.765 39.2051 129.268 39.6464C129.771 40.0878 130.442 40.3254 131.214 40.3254V41.5136H120.007V40.3254C120.879 40.2575 121.718 39.918 122.524 39.273C123.329 38.628 124.101 37.5077 124.906 35.8443L134.905 15.0342H141.179L151.782 38.0509C152.151 38.8656 152.52 39.4088 152.923 39.7143C153.325 40.0199 153.795 40.2236 154.366 40.3593V41.5475H139.099V40.3593C140.206 40.3593 140.777 39.9859 140.777 39.2391C140.777 38.9335 140.642 38.5262 140.407 37.949L138.327 33.2982ZM137.321 30.9558L134.234 23.8267L131.113 30.9558H137.321ZM160.372 41.5136V40.3254H161.647C162.62 40.3254 163.224 40.0538 163.492 39.5446C163.76 39.0354 163.895 38.2206 163.895 37.1003V18.0555H163.257C161.11 18.0555 159.365 18.5308 158.023 19.4814C156.681 20.4319 155.842 21.6201 155.473 23.0459H153.695L154.097 15.7131H184.597L185 23.0459H183.221C182.986 22.0954 182.55 21.2806 181.879 20.5337C181.208 19.7869 180.336 19.1758 179.229 18.7345C178.121 18.2932 176.88 18.0555 175.403 18.0555H174.766V37.1343C174.766 38.3225 174.9 39.1372 175.202 39.6464C175.504 40.1217 176.142 40.3593 177.115 40.3593H178.255V41.5475H160.372V41.5136Z" fill="black" fill-opacity="0.6"/>
<path d="M70.5832 57.1642L71.9253 57.7753C71.724 58.8616 71.3549 59.6764 70.8852 60.1856C70.4154 60.6948 69.7779 61.0003 69.0397 61.0003C68.1338 61.0003 67.3621 60.559 66.7581 59.6424C66.1542 58.7598 65.8857 57.5037 65.8857 55.9421C65.8857 54.2786 66.1877 53.0226 66.7917 52.106C67.3956 51.1894 68.1674 50.748 69.1404 50.748C69.9792 50.748 70.6838 51.0875 71.2207 51.8344C71.5227 52.2418 71.7576 52.8528 71.9253 53.6676L70.5496 54.1428C70.4825 53.6336 70.2812 53.1923 70.0463 52.9207C69.7779 52.6491 69.4759 52.4794 69.1068 52.4794C68.6035 52.4794 68.1674 52.751 67.8654 53.2602C67.5298 53.8034 67.3956 54.6521 67.3956 55.8063C67.3956 57.0624 67.5634 57.945 67.8654 58.4882C68.1674 58.9974 68.6035 59.3029 69.1068 59.3029C69.4759 59.3029 69.8115 59.1332 70.0799 58.7937C70.2812 58.4203 70.449 57.8771 70.5832 57.1642ZM73.1668 50.8838H74.4754V57.4697L77.2938 50.8838H78.7031V60.8306H77.3945V54.3465L74.576 60.8306H73.1668V50.8838ZM84.5413 57.1642L85.8834 57.7753C85.6821 58.8616 85.313 59.6764 84.8433 60.1856C84.3736 60.6948 83.736 61.0003 82.9979 61.0003C82.0919 61.0003 81.3202 60.559 80.7163 59.6424C80.1123 58.7598 79.8439 57.5037 79.8439 55.9421C79.8439 54.2786 80.1458 53.0226 80.7498 52.106C81.3538 51.1894 82.1255 50.748 83.0985 50.748C83.9374 50.748 84.642 51.0875 85.1788 51.8344C85.4808 52.2418 85.7157 52.8528 85.8834 53.6676L84.5078 54.1428C84.4407 53.6336 84.2393 53.1923 84.0045 52.9207C83.736 52.6491 83.4341 52.4794 83.065 52.4794C82.5617 52.4794 82.1255 52.751 81.8235 53.2602C81.488 53.8034 81.3538 54.6521 81.3538 55.8063C81.3538 57.0624 81.5215 57.945 81.8235 58.4882C82.1255 58.9974 82.5617 59.3029 83.065 59.3029C83.4341 59.3029 83.7696 59.1332 84.038 58.7937C84.2058 58.4203 84.4071 57.8771 84.5413 57.1642ZM88.3999 60.8306V52.5812H86.3532V50.9178H91.8559V52.5812H89.8092V60.8306H88.3999ZM92.7618 60.8306V50.9178H97.8955V52.5812H94.1711V54.7879H97.6606V56.4513H94.1711V59.1671H98.0297V60.8306H92.7618ZM99.2041 60.8306V50.9178H101.284L102.526 57.7074L103.767 50.9178H105.881V60.8306H104.606V53.0226L103.23 60.8306H101.888L100.513 53.0226V60.8306H99.2041ZM107.324 50.8838H108.733V54.8218H110.612C111.115 54.8218 111.518 54.9236 111.887 55.1273C112.256 55.2971 112.525 55.6365 112.76 56.1458C112.994 56.655 113.129 57.1982 113.129 57.8771C113.129 58.5561 112.994 59.0992 112.76 59.6085C112.525 60.1177 112.256 60.4232 111.954 60.593C111.652 60.7287 111.216 60.8306 110.646 60.8306H107.391V50.8838H107.324ZM108.733 59.1332H110.109C110.545 59.1332 110.847 59.0992 111.015 59.0313C111.183 58.9634 111.35 58.8277 111.485 58.624C111.619 58.4203 111.686 58.1487 111.686 57.8092C111.686 57.3679 111.585 57.0624 111.35 56.8247C111.115 56.621 110.746 56.4852 110.176 56.4852H108.767V59.1332H108.733ZM113.9 50.8838H115.31V60.8306H113.9V50.8838ZM118.766 50.8838H120.343L121.953 56.0439L123.329 50.8838H124.772L122.423 58.4203C122.154 59.235 121.92 59.8461 121.651 60.2874C121.383 60.7287 121.047 60.9324 120.611 60.9324C120.208 60.9324 119.873 60.8985 119.638 60.8306V59.3369C119.839 59.3708 120.007 59.3708 120.175 59.3708C120.51 59.3708 120.745 59.269 120.879 59.0992C121.014 58.9295 121.148 58.5561 121.282 58.0129L118.766 50.8838ZM125.51 50.8838H131.012V60.8306H129.603V52.5473H126.885V60.8306H125.476V50.8838H125.51ZM132.455 60.8306V50.9178H134.703C135.542 50.9178 136.113 50.9517 136.381 51.0536C136.784 51.1894 137.119 51.4949 137.388 52.0041C137.656 52.5133 137.79 53.1583 137.79 53.9392C137.79 54.5502 137.723 55.0594 137.555 55.4668C137.388 55.8742 137.22 56.2137 136.951 56.4513C136.717 56.6889 136.482 56.8587 136.213 56.9266C135.878 57.0284 135.408 57.0624 134.77 57.0624H133.865V60.8306H132.455ZM133.831 52.5812V55.3989H134.603C135.173 55.3989 135.542 55.331 135.71 55.2631C135.911 55.1613 136.045 54.9915 136.146 54.7539C136.247 54.5502 136.314 54.2786 136.314 54.007C136.314 53.6336 136.247 53.3281 136.079 53.0905C135.945 52.8868 135.743 52.717 135.509 52.6491C135.341 52.6152 135.005 52.5812 134.502 52.5812H133.831ZM144.3 60.8306H142.79L142.186 58.5561H139.401L138.83 60.8306H137.354L140.038 50.9178H141.515L144.3 60.8306ZM141.716 56.8926L140.776 53.1923L139.837 56.8926H141.716ZM145.038 50.8838H147.823C148.359 50.8838 148.796 50.9178 149.064 50.9857C149.333 51.0536 149.567 51.1894 149.802 51.3931C150.004 51.5967 150.205 51.8683 150.339 52.2078C150.473 52.5473 150.54 52.9547 150.54 53.396C150.54 53.8373 150.44 54.2786 150.272 54.686C150.104 55.0934 149.869 55.365 149.567 55.5687C150.004 55.7384 150.306 56.0439 150.54 56.4513C150.775 56.8926 150.876 57.4018 150.876 57.945C150.876 58.3863 150.809 58.8277 150.641 59.269C150.507 59.7103 150.306 60.0158 150.037 60.2874C149.769 60.559 149.467 60.6948 149.098 60.7627C148.863 60.7966 148.292 60.7966 147.42 60.8306H145.071V50.8838H145.038ZM146.447 52.5473V54.8218H147.353C147.89 54.8218 148.225 54.8218 148.359 54.7879C148.594 54.7539 148.796 54.6521 148.93 54.4484C149.064 54.2447 149.131 54.007 149.131 53.6676C149.131 53.362 149.064 53.0905 148.963 52.9207C148.829 52.751 148.661 52.6152 148.427 52.5812C148.292 52.5473 147.89 52.5473 147.219 52.5473H146.447ZM146.447 56.4852V59.1332H147.756C148.259 59.1332 148.594 59.0992 148.729 59.0653C148.93 59.0313 149.098 58.8616 149.232 58.6579C149.366 58.4542 149.433 58.1487 149.433 57.8092C149.433 57.5037 149.366 57.2661 149.299 57.0624C149.198 56.8587 149.064 56.6889 148.863 56.621C148.661 56.5192 148.259 56.4852 147.621 56.4852H146.447ZM152.285 50.8838H157.15V60.8306H155.741V52.5812H153.661V56.8247C153.661 58.0469 153.627 58.8956 153.56 59.3708C153.493 59.8461 153.359 60.2535 153.158 60.4911C152.923 60.7627 152.587 60.8985 152.117 60.8985C151.95 60.8985 151.648 60.8645 151.212 60.7966V59.269H151.513C151.815 59.269 152.017 59.235 152.117 59.1332C152.218 58.9974 152.252 58.7258 152.252 58.2845V56.5871V50.8838H152.285ZM158.593 60.8306V50.9178H163.727V52.5812H160.002V54.7879H163.492V56.4513H160.002V59.1671H163.861V60.8306H158.593ZM165.035 60.8306V50.9178H166.445V54.8218H169.196V50.9178H170.605V60.8306H169.196V56.4852H166.445V60.8306H165.035ZM172.048 50.8838H173.357V57.4697L176.175 50.8838H177.584V60.8306H176.276V54.3465L173.457 60.8306H172.048V50.8838ZM183.154 60.8306V56.6889H182.886C182.45 56.6889 182.148 56.7908 181.946 56.9605C181.778 57.1642 181.443 57.7074 181.007 58.6579L180 60.8306H178.322L179.161 58.8956C179.497 58.1148 179.765 57.5716 179.967 57.2661C180.168 56.9605 180.403 56.6889 180.705 56.4513C180.067 56.3155 179.597 56.01 179.296 55.5008C178.994 54.9915 178.859 54.3805 178.859 53.7015C178.859 53.0905 178.96 52.5812 179.195 52.106C179.396 51.6646 179.698 51.3252 180.034 51.1554C180.369 50.9857 180.906 50.9178 181.611 50.9178H184.563V60.8306H183.154ZM183.154 52.5812H182.047C181.476 52.5812 181.141 52.6152 180.94 52.6491C180.772 52.6831 180.604 52.7849 180.503 52.9886C180.369 53.1923 180.302 53.4639 180.302 53.8034C180.302 54.1428 180.369 54.4484 180.47 54.6181C180.604 54.8218 180.738 54.9576 180.94 55.0255C181.141 55.0594 181.51 55.0934 182.08 55.0934H183.121L183.154 52.5812Z" fill="black" fill-opacity="0.6"/>
<path fill-rule="evenodd" clip-rule="evenodd" d="M18.7441 60.7619L41.057 27.5269L63.2021 60.8977L18.7441 60.7619ZM24.918 57.6393L38.8761 36.6934L52.5993 57.6053L24.918 57.6393Z" fill="black" fill-opacity="0.6"/>
<path d="M50.4848 18.7676H50.2164L32.0305 19.0731L30.7891 19.141L29.6483 19.3107L28.3397 19.5484L27.1989 19.82L26.2258 20.1255L25.5883 20.3971L24.9844 20.7026L24.2462 21.0421L23.508 21.4155L23.0047 21.755L22.3337 22.2642L21.7968 22.6716L21.3942 22.9771L20.958 23.4184L20.5218 23.8258L20.052 24.369L19.4145 25.0479L19.0455 25.5911L18.475 26.4398L18.0724 27.0848L17.6698 27.8996L17.2 28.8841L16.9316 29.6988L16.6296 30.7512L16.4283 31.3962L16.2605 32.3128L16.1599 33.3652L16.0928 34.6892L16.1599 36.2847L16.3612 37.6426L16.6967 38.8987L16.9987 39.8493L17.5691 41.1732L17.9718 42.0559L18.3744 42.7348L19.1126 43.7872L19.7501 44.568L20.2198 45.1112L20.656 45.5865L21.26 46.1296L21.8304 46.6049L22.3001 46.9783L23.2732 47.6912L24.2462 48.3023L25.4206 48.8455L26.5949 49.2528L27.6686 49.6263L28.4403 49.796L28.8094 49.9318L30.0173 50.2373L31.5608 50.475L32.4332 50.5089L34.5135 50.6786L35.2852 50.7465L38.2714 50.8144L49.9815 50.7805L48.5052 48.8115H41.2577H36.5602L32.7352 48.6078L29.5476 48.0986L27.8699 47.6912L26.4607 47.182L25.4541 46.7407L24.4475 46.1296L23.3738 45.3828L22.3001 44.5001L21.5619 43.7193L20.7231 42.7348L19.8843 41.4109L19.4145 40.4603L19.1126 39.8493L18.7435 38.8987L18.4415 37.8124L18.3073 36.9976L18.2066 36.0471L18.1395 34.9607V33.7726L18.2402 32.9578L18.3744 32.0752L18.5422 31.3962L18.7435 30.7512L18.9783 30.1401L19.2803 29.3254L19.5823 28.6464L19.9178 28.0693L20.354 27.3225L20.8909 26.6096L21.4948 25.8627L22.0317 25.2177L22.6356 24.6745L23.2396 24.1653L23.8771 23.69L24.7495 23.1808L25.1857 22.8753L25.7561 22.6037L26.3936 22.2982L27.0311 22.0605L27.8028 21.8229L28.3732 21.6532L29.3127 21.3476L30.0845 21.1779L30.9904 21.0081L31.8963 20.9402L32.97 20.8724L49.0756 20.7026L50.4848 18.7676Z" fill="black" fill-opacity="0.6"/>
<path d="M52.8678 15L31.4944 15.1697L29.8839 15.3395L29.1792 15.4074L28.2733 15.5432L27.6693 15.645L26.8305 15.8148L26.1594 16.0184L25.4884 16.2221L24.8509 16.4258L24.2134 16.6634L23.643 16.9011L22.9383 17.2745L22.4015 17.5121L21.8646 17.8177L21.2271 18.1911L20.7574 18.5306L19.7172 19.2095L19.2139 19.6169L18.61 20.0922L18.1402 20.5335L17.704 21.0088L17.3014 21.4162L16.8652 21.8914L16.4961 22.3328L16.1606 22.6722L15.7915 23.1815L15.3889 23.7586L14.9191 24.4375L14.55 25.0825L14.1139 25.8633L13.7448 26.6102L13.4763 27.2552L13.1744 28.0021L12.9059 28.7489L12.5369 29.971L12.3355 30.8876L12.2013 31.7363L12.1007 32.5171L12.0336 33.2979L12 33.9769V35.0632L12.0336 35.7422L12.1342 36.7606L12.2684 37.7112L12.4026 38.5938L12.5369 39.137L12.8053 40.1215L13.1744 41.1739L13.4428 41.751L13.7112 42.4299L14.2816 43.5842L14.7849 44.4668L15.4224 45.4174L16.0264 46.2321L16.7646 47.1148L17.335 47.7598L17.8718 48.269L18.4087 48.7782L18.8449 49.1856L19.4824 49.6269L20.858 50.6453L21.7304 51.1885L22.5021 51.5959L23.4081 52.0712L24.4147 52.6143L25.7568 53.2254L26.9312 53.6667L28.1055 53.9722L29.5819 54.2099L31.2931 54.4475L33.0043 54.5154H54.6797L53.5388 52.7501L32.7359 52.5804L31.1924 52.3427L29.951 52.207L29.0786 52.0372L28.4746 51.9014L27.5351 51.7317L27.0318 51.5619L26.3943 51.3582L25.8239 51.1546L25.22 50.9169L24.7502 50.7132L24.2805 50.5096L23.4081 50.1022L22.7706 49.6948L22.2002 49.3553L21.764 49.0837L21.2607 48.7103L20.7909 48.3369L20.3547 47.9635L19.8179 47.4882L19.4153 47.1148L18.9791 46.7074L18.4422 46.0624L17.8718 45.3834L17.2679 44.6026L16.6974 43.72L16.2277 42.9392L15.8251 42.1244L15.4895 41.4115L15.1204 40.461L14.852 39.5783L14.6843 38.9673L14.5165 38.3562L14.3823 37.7791L14.2816 37.0322L14.1474 36.1835L14.0803 35.4706L14.0467 34.588L14.1474 33.0943L14.2481 32.4153L14.3823 31.4648L14.55 30.65L14.7514 29.8353L15.0533 28.9866L15.3218 28.1379L15.6573 27.391L16.0599 26.5423L16.5632 25.6936L17.0665 24.8449L17.6034 24.132L18.006 23.5888L18.6771 22.7741L19.0126 22.3667L19.7172 21.7217L20.489 21.0088L21.1936 20.4996L21.9988 19.9225L22.9048 19.3793L23.7101 18.938L24.4482 18.6324L25.5219 18.1572L26.7298 17.7498L27.8707 17.4103L28.743 17.2406L30.2194 17.0369L31.528 16.935L33.0378 16.9011L51.6599 16.8332L52.8678 15Z" fill="black" fill-opacity="0.6"/>
<path d="M31.9647 22.7061L30.1863 22.9438L29.3475 23.1475L28.5758 23.419L27.9047 23.6227L27.0323 23.9622L26.4619 24.2677L25.4218 24.8448L24.8178 25.2862L24.0126 25.9312L23.3751 26.5422L22.7711 27.2891L22.0665 28.3415L21.6638 28.9526L21.2276 29.8691L20.6908 31.1931L20.4224 32.3473L20.2211 33.4337L20.1875 34.0787V35.165L20.2546 36.0816L20.3888 36.9982L20.6237 37.8809L20.9592 38.8314L21.2948 39.6122L21.6974 40.393L22.2007 41.1738L22.9724 42.2262L23.7777 43.1428L24.4823 43.7199L25.4218 44.4328L26.2942 44.9081L27.133 45.3494L28.0389 45.7228L29.4146 46.1302L30.7568 46.4357L32.5686 46.6734L34.4476 46.7413L47.4327 46.8431L46.2919 45.1457L34.4476 45.0099L32.9377 44.976L31.4614 44.8062L29.9179 44.3649L28.3409 43.8897L27.6699 43.5841L26.6633 43.041L25.6902 42.328L24.6165 41.2757L23.9119 40.3591L23.4422 39.6122L23.0731 38.8654L22.704 38.1185L22.4356 37.168L22.2007 36.1495L22.1336 35.3348V33.909L22.2678 32.9245L22.4356 32.2116L22.6033 31.4647L22.9053 30.7857L23.3751 29.7673L23.9455 28.9526L24.6501 28.036L25.6567 27.0854L26.3613 26.5083L27.6028 25.7614L29.012 25.0825L30.8239 24.6072L32.3002 24.4375L34.1121 24.3017L46.7952 24.2338L47.9695 22.5024L31.9647 22.7061Z" fill="black" fill-opacity="0.6"/>
</svg>
