<svg width="300" height="135" viewBox="0 0 300 135" fill="none" xmlns="http://www.w3.org/2000/svg">
<path d="M156.872 54.6935C155.168 54.8436 153.834 48.9168 153.834 48.9168L152.945 49.2169C152.945 49.2169 155.019 54.7685 153.686 55.5938C152.352 56.419 148.648 52.1428 148.648 52.1428L147.981 52.7429C147.981 52.7429 152.723 57.1692 155.168 63.396H155.242C157.316 61.7456 159.835 62.0456 159.835 62.0456H159.91C158.205 55.8939 160.28 49.2169 160.28 49.2169L159.391 49.0669C159.391 48.9168 158.502 54.5435 156.872 54.6935ZM153.241 48.2416C153.834 48.0916 154.204 47.4164 153.982 46.8162C153.76 46.2161 153.167 45.841 152.574 46.066C151.982 46.2161 151.611 46.8913 151.834 47.4914C151.982 48.0166 152.574 48.3917 153.241 48.2416ZM159.687 46.2911C159.095 46.4411 158.798 47.0413 158.946 47.6415C159.095 48.2416 159.761 48.5417 160.28 48.3917C160.873 48.2416 161.169 47.6415 161.021 47.0413C160.873 46.4411 160.28 46.066 159.687 46.2911ZM148.129 50.7174C147.981 50.1172 147.314 49.8171 146.795 49.9671C146.203 50.1172 145.906 50.7174 146.054 51.3175C146.203 51.9177 146.795 52.2178 147.388 52.0678C147.981 51.8427 148.277 51.2425 148.129 50.7174Z" fill="black" fill-opacity="0.6"/>
<path d="M221.48 66.9094H220.665V66.5324H222.666V66.9094H221.851V69.0204H221.406L221.48 66.9094ZM223.11 66.5324H223.555L224.296 67.7387L225.037 66.5324H225.481V69.0204H225.111V67.2109L224.37 68.4172L223.629 67.2863V69.0204H223.185V66.5324H223.11ZM114.936 88.1706C110.12 88.1706 107.305 84.0239 107.305 77.54C107.305 77.163 107.305 76.786 107.305 76.4091H125.828C125.606 69.9251 121.16 66.08 114.862 66.08C108.565 66.08 103.452 70.6791 103.452 77.54C103.452 83.7977 107.527 89 114.936 89C119.901 88.9246 124.05 86.0596 125.606 81.4605L124.272 81.0081C123.235 85.4564 119.678 88.1706 114.936 88.1706ZM114.936 66.834C119.604 66.834 121.975 70.0759 122.049 75.5043H107.379C107.972 70.0759 110.565 66.834 114.936 66.834ZM160.281 87.5675V66.5324H152.797V67.5125H156.65V87.5675H152.797V88.5476H164.356V87.5675H160.281ZM101.081 67.7387C101.081 61.3301 95.6726 58.1636 88.9302 58.1636H71.4446V59.0683H76.7792V87.4921H71V88.4722H87.5966V87.4921H80.7801V59.0683H89.0043C93.3757 59.0683 97.0062 60.9532 97.0062 67.7387C97.0062 73.0917 94.2648 76.8614 89.7452 76.8614C86.337 76.8614 83.892 75.052 83.8179 75.052L83.077 76.4091C83.2251 76.4845 85.7443 77.6908 89.2266 77.6908C95.5985 77.7662 101.081 74.298 101.081 67.7387ZM144.869 65.7784C141.906 65.7784 138.201 67.9649 136.645 72.4886H136.497V66.5324H129.31V67.5125H133.163V87.5675H129.31V88.5476H141.535V87.5675H136.719V78.0678C136.793 70.2267 141.239 66.7586 144.647 66.6078C146.129 66.5324 147.389 67.0601 148.13 68.1911V68.2665C146.351 67.9649 145.24 69.3974 145.24 70.7545C145.24 72.3378 146.351 73.3179 147.759 73.3179C148.945 73.3179 150.426 72.3378 150.426 70.3775C150.278 67.5879 147.759 65.7784 144.869 65.7784ZM193.251 87.5675V73.8457C193.251 68.2665 190.065 66.0046 185.842 66.0046C180.656 66.0046 176.951 69.699 175.321 73.3933H175.247V66.5324H168.06V67.5125H171.913V87.5675H168.06V88.5476H179.47V87.5675H175.395C175.395 87.5675 175.395 78.8971 175.395 77.9924C175.395 73.4687 179.248 67.3617 184.435 67.1355C188.287 66.9847 189.695 69.699 189.695 73.3179V87.4921H185.694V88.4722H197.178V87.4921L193.251 87.5675ZM224.889 82.9684C224.889 82.9684 222.592 86.512 220.814 86.6627C219.332 86.7381 219.258 85.5318 219.258 82.1391L219.332 73.0917C219.332 67.5125 215.405 65.6276 211.108 65.6276C205.551 65.6276 202.068 68.2665 201.92 70.7545C201.846 72.1116 202.883 73.2425 204.291 73.3179C205.402 73.3933 207.107 72.7147 207.107 70.6791C207.107 69.6236 206.44 68.568 205.254 68.2665V68.1911C205.254 68.1911 207.181 66.5324 210.515 66.5324C214.442 66.5324 215.849 69.1712 215.849 72.6393V75.4289C203.032 74.2226 200.364 79.8772 200.364 82.6668C200.364 84.4009 200.809 88.7738 207.551 88.5476C210.589 88.4722 214.071 86.4366 215.775 81.8375H215.924C215.924 81.8375 215.849 83.4962 215.849 84.0993C215.775 86.6627 217.035 88.1706 219.258 88.1706C221.258 88.1706 223.11 87.4921 226 83.7224L224.889 82.9684ZM207.848 87.4167C205.18 87.4167 204.143 85.0795 204.069 82.8176C203.847 77.0876 208.737 75.3535 215.701 76.4091C215.553 82.7422 212.071 87.4167 207.848 87.4167Z" fill="black" fill-opacity="0.6"/>
</svg>
