<svg width="300" height="135" viewBox="0 0 300 135" fill="none" xmlns="http://www.w3.org/2000/svg">
<path d="M103.019 58.992H105.467V75H103.019V58.992Z" fill="black" fill-opacity="0.6"/>
<path d="M111.655 75H109.207V57.912L120.823 70.08V58.992H123.271V75.984L111.655 63.816V75Z" fill="black" fill-opacity="0.6"/>
<path d="M134.992 58.992V61.296H128.608V65.112H134.8V67.416H128.608V72.696H134.992V75H126.16V58.992H134.992Z" fill="black" fill-opacity="0.6"/>
<path d="M136.429 75L141.469 66.648L137.053 58.992H139.789L142.909 64.416L146.101 58.992H148.837L144.229 66.648L149.053 75H146.317L142.813 68.88L139.165 75H136.429Z" fill="black" fill-opacity="0.6"/>
<path d="M150.394 58.992H153.922C155.394 58.992 156.562 59.28 157.426 59.856C158.066 60.288 158.554 60.856 158.89 61.56C159.242 62.248 159.418 62.976 159.418 63.744C159.418 65.184 158.898 66.352 157.858 67.248C156.882 68.08 155.578 68.496 153.946 68.496H152.842V75H150.394V58.992ZM152.842 61.248V66.24H153.946C154.97 66.24 155.746 66.016 156.274 65.568C156.802 65.104 157.066 64.488 157.066 63.72C157.066 63.448 157.026 63.192 156.946 62.952C156.882 62.712 156.746 62.456 156.538 62.184C156.346 61.896 156.026 61.672 155.578 61.512C155.13 61.336 154.578 61.248 153.922 61.248H152.842Z" fill="black" fill-opacity="0.6"/>
<path d="M169.992 58.992V61.296H163.608V65.112H169.8V67.416H163.608V72.696H169.992V75H161.16V58.992H169.992Z" fill="black" fill-opacity="0.6"/>
<path d="M173.25 58.992H176.106C177.994 58.992 179.402 59.304 180.33 59.928C181.594 60.776 182.226 62.032 182.226 63.696C182.226 64.832 181.898 65.8 181.242 66.6C180.602 67.4 179.746 67.92 178.674 68.16L183.666 75H180.714L176.13 68.448H175.698V75H173.25V58.992ZM175.698 61.248V66.336H176.466C176.674 66.336 176.882 66.328 177.09 66.312C177.298 66.296 177.578 66.24 177.93 66.144C178.298 66.048 178.61 65.92 178.866 65.76C179.138 65.584 179.37 65.32 179.562 64.968C179.77 64.616 179.874 64.2 179.874 63.72C179.874 62.072 178.762 61.248 176.538 61.248H175.698Z" fill="black" fill-opacity="0.6"/>
<path d="M193.139 61.296H189.467V75H187.019V61.296H183.347V58.992H193.139V61.296Z" fill="black" fill-opacity="0.6"/>
<path d="M194.019 58.992H196.467V75H194.019V58.992Z" fill="black" fill-opacity="0.6"/>
<path d="M209.671 58.992L201.799 72.696H209.479V75H197.815L205.687 61.296H199.111V58.992H209.671Z" fill="black" fill-opacity="0.6"/>
<path d="M221.373 75L219.693 71.136H212.853L211.101 75H208.461L216.429 58.056L224.013 75H221.373ZM213.861 68.832H218.709L216.333 63.408L213.861 68.832Z" fill="black" fill-opacity="0.6"/>
<path d="M186.138 81.996H187.35C188.23 81.996 188.87 82.136 189.27 82.416C189.886 82.832 190.194 83.436 190.194 84.228C190.194 84.852 189.97 85.34 189.522 85.692C189.962 85.828 190.302 86.068 190.542 86.412C190.79 86.748 190.914 87.128 190.914 87.552C190.914 88.376 190.646 89.004 190.11 89.436C189.814 89.684 189.506 89.84 189.186 89.904C188.874 89.968 188.47 90 187.974 90H186.138V81.996ZM187.362 83.148V85.44H187.734C188.606 85.44 189.042 85.048 189.042 84.264C189.042 83.52 188.622 83.148 187.782 83.148H187.362ZM187.362 86.448V88.848H188.106C188.714 88.848 189.134 88.732 189.366 88.5C189.598 88.26 189.714 87.98 189.714 87.66C189.714 86.852 189.186 86.448 188.13 86.448H187.362ZM195.911 81.996V83.148H192.719V85.056H195.815V86.208H192.719V88.848H195.911V90H191.495V81.996H195.911ZM196.535 81.996H197.759V88.848H200.111V90H196.535V81.996ZM205.841 90L205.001 88.068H201.581L200.705 90H199.385L203.369 81.528L207.161 90H205.841ZM202.085 86.916H204.509L203.321 84.204L202.085 86.916ZM207.212 81.996H208.64C209.584 81.996 210.288 82.152 210.752 82.464C211.384 82.888 211.7 83.516 211.7 84.348C211.7 84.916 211.536 85.4 211.208 85.8C210.888 86.2 210.46 86.46 209.924 86.58L212.42 90H210.944L208.652 86.724H208.436V90H207.212V81.996ZM208.436 83.124V85.668H208.82C208.924 85.668 209.028 85.664 209.132 85.656C209.236 85.648 209.376 85.62 209.552 85.572C209.736 85.524 209.892 85.46 210.02 85.38C210.156 85.292 210.272 85.16 210.368 84.984C210.472 84.808 210.524 84.6 210.524 84.36C210.524 83.536 209.968 83.124 208.856 83.124H208.436ZM212.663 81.996H213.887V86.82C213.887 87.444 213.971 87.904 214.139 88.2C214.275 88.424 214.475 88.62 214.739 88.788C215.003 88.948 215.299 89.028 215.627 89.028C215.955 89.028 216.251 88.948 216.515 88.788C216.779 88.62 216.979 88.424 217.115 88.2C217.283 87.904 217.367 87.444 217.367 86.82V81.996H218.591V87.144C218.591 87.984 218.343 88.676 217.847 89.22C217.271 89.844 216.531 90.156 215.627 90.156C214.723 90.156 213.983 89.844 213.407 89.22C212.911 88.676 212.663 87.984 212.663 87.144V81.996ZM223.994 83.196L223.01 83.772C222.93 83.58 222.81 83.412 222.65 83.268C222.41 83.076 222.122 82.98 221.786 82.98C221.426 82.98 221.146 83.072 220.946 83.256C220.754 83.44 220.658 83.668 220.658 83.94C220.658 84.356 220.946 84.68 221.522 84.912L222.326 85.236C223.582 85.748 224.21 86.532 224.21 87.588C224.21 88.348 223.966 88.968 223.478 89.448C222.998 89.92 222.382 90.156 221.63 90.156C220.854 90.156 220.226 89.888 219.746 89.352C219.354 88.912 219.13 88.392 219.074 87.792L220.286 87.528C220.286 87.912 220.398 88.252 220.622 88.548C220.878 88.868 221.226 89.028 221.666 89.028C222.042 89.028 222.354 88.904 222.602 88.656C222.858 88.408 222.986 88.084 222.986 87.684C222.986 87.316 222.878 87.032 222.662 86.832C222.454 86.632 222.178 86.46 221.834 86.316L221.066 85.992C219.978 85.536 219.434 84.86 219.434 83.964C219.434 83.388 219.642 82.892 220.058 82.476C220.482 82.06 221.054 81.852 221.774 81.852C222.422 81.852 222.958 82.032 223.382 82.392C223.63 82.616 223.834 82.884 223.994 83.196Z" fill="black" fill-opacity="0.6"/>
<path d="M75 66.2703C75 62.0012 78.4607 58.5405 82.7297 58.5405H91V66C91 70.4183 87.4183 74 83 74H82.7297C78.4607 74 75 70.5393 75 66.2703Z" stroke="black" stroke-opacity="0.6" stroke-width="4"/>
<path d="M99 56H93V49.7297C93 46.5056 95.6863 43.8919 99 43.8919C102.314 43.8919 104 45.5326 104 48.7568C104 49.4391 102.5 51.1892 101 51.6757L106.5 52.6486C107.5 52.1622 108.5 51.1892 109 49.2432C109 42.9189 104.523 40 99 40C93.4772 40 89 44.3561 89 49.7297V60.5L99 60C104 59 107.271 57.4082 109 54.5C109 54.5 106 56 103 56C100 56 100.227 56 99 56Z" fill="black" fill-opacity="0.6"/>
</svg>
