<svg width="300" height="135" viewBox="0 0 300 135" fill="none" xmlns="http://www.w3.org/2000/svg">
<path d="M60.6626 81.0297L68.695 66.9051L76.7276 81.0297H60.6626Z" stroke="black" stroke-opacity="0.6" stroke-width="1.94"/>
<path fill-rule="evenodd" clip-rule="evenodd" d="M74.2991 72.9521L68.6807 63.4764L63.0624 72.9521H62.7805L62.781 72.9513H52L63.307 54L68.6792 63.004L70.6463 59.6861L78.5121 72.9521H74.2991Z" fill="black" fill-opacity="0.6"/>
<path d="M98.0747 72.0695C98.0747 73.3695 97.6032 74.3833 96.6602 75.1108C95.7171 75.8383 94.4372 76.2021 92.8206 76.2021C91.0692 76.2021 89.722 75.9764 88.7789 75.5251V73.868C89.3852 74.124 90.0453 74.3261 90.7593 74.4743C91.4733 74.6225 92.1806 74.6966 92.8812 74.6966C94.0263 74.6966 94.8886 74.481 95.4679 74.0499C96.0472 73.612 96.3368 73.0058 96.3368 72.2311C96.3368 71.7192 96.2324 71.3016 96.0236 70.9782C95.8215 70.6482 95.478 70.345 94.993 70.0689C94.5147 69.7927 93.7838 69.4794 92.8004 69.1292C91.4262 68.6374 90.4427 68.0548 89.8499 67.3811C89.2639 66.7075 88.9709 65.8285 88.9709 64.744C88.9709 63.6056 89.3986 62.6995 90.2541 62.0259C91.1096 61.3523 92.2413 61.0155 93.6491 61.0155C95.1176 61.0155 96.4682 61.285 97.7009 61.8239L97.1654 63.3193C95.9461 62.8073 94.7606 62.5514 93.6087 62.5514C92.6993 62.5514 91.9887 62.7467 91.4767 63.1374C90.9648 63.5281 90.7088 64.0703 90.7088 64.7642C90.7088 65.2761 90.8031 65.6971 90.9917 66.0272C91.1803 66.3505 91.4969 66.6503 91.9415 66.9265C92.3928 67.1959 93.0799 67.4957 94.0028 67.8257C95.5521 68.3781 96.6164 68.9709 97.1957 69.6041C97.7817 70.2373 98.0747 71.0591 98.0747 72.0695ZM105.643 76H103.925V62.7534H99.2468V61.2277H110.321V62.7534H105.643V76ZM114.272 69.8567V76H112.554V61.2277H116.606C118.418 61.2277 119.755 61.5746 120.617 62.2684C121.486 62.9623 121.921 64.0064 121.921 65.4007C121.921 67.3542 120.93 68.6745 118.95 69.3616L122.961 76H120.93L117.353 69.8567H114.272ZM114.272 68.3815H116.626C117.838 68.3815 118.728 68.1423 119.293 67.6641C119.859 67.1791 120.142 66.4549 120.142 65.4917C120.142 64.5149 119.853 63.811 119.273 63.3799C118.701 62.9488 117.778 62.7332 116.505 62.7332H114.272V68.3815ZM138.168 68.5936C138.168 70.958 137.569 72.8172 136.37 74.1711C135.177 75.5251 133.517 76.2021 131.388 76.2021C129.212 76.2021 127.532 75.5386 126.346 74.2116C125.167 72.8778 124.578 70.9984 124.578 68.5734C124.578 66.1686 125.171 64.3061 126.356 62.9858C127.542 61.6588 129.226 60.9953 131.408 60.9953C133.53 60.9953 135.187 61.6689 136.38 63.0161C137.572 64.3634 138.168 66.2225 138.168 68.5936ZM126.397 68.5936C126.397 70.5943 126.821 72.1133 127.67 73.1506C128.525 74.1812 129.765 74.6966 131.388 74.6966C133.025 74.6966 134.261 74.1812 135.096 73.1506C135.932 72.12 136.349 70.601 136.349 68.5936C136.349 66.6065 135.932 65.101 135.096 64.0771C134.268 63.0465 133.039 62.5311 131.408 62.5311C129.772 62.5311 128.525 63.0498 127.67 64.0872C126.821 65.1178 126.397 66.62 126.397 68.5936ZM153.011 76H151.051L142.978 63.6022H142.897C143.005 65.0572 143.058 66.3909 143.058 67.6034V76H141.472V61.2277H143.412L151.465 73.575H151.546C151.533 73.3931 151.502 72.8105 151.455 71.827C151.408 70.8368 151.391 70.1295 151.405 69.7051V61.2277H153.011V76ZM163.57 68.2602H168.592V75.4443C167.81 75.6935 167.015 75.8821 166.207 76.0101C165.399 76.1381 164.462 76.2021 163.398 76.2021C161.162 76.2021 159.421 75.5386 158.174 74.2116C156.928 72.8778 156.305 71.0119 156.305 68.6139C156.305 67.078 156.612 65.7342 157.225 64.5823C157.844 63.4237 158.733 62.5412 159.892 61.935C161.051 61.322 162.408 61.0155 163.964 61.0155C165.54 61.0155 167.009 61.3052 168.369 61.8845L167.703 63.4001C166.369 62.8343 165.086 62.5514 163.853 62.5514C162.054 62.5514 160.65 63.0869 159.639 64.1579C158.629 65.229 158.124 66.7143 158.124 68.6139C158.124 70.6077 158.609 72.12 159.579 73.1506C160.556 74.1812 161.987 74.6966 163.873 74.6966C164.897 74.6966 165.897 74.5787 166.874 74.3429V69.796H163.57V68.2602ZM178.686 76L173.674 62.905H173.593C173.688 63.9424 173.735 65.1751 173.735 66.6031V76H172.148V61.2277H174.735L179.413 73.4133H179.494L184.213 61.2277H186.779V76H185.062V66.4819C185.062 65.3906 185.109 64.2051 185.203 62.9252H185.122L180.07 76H178.686ZM190.841 76V61.2277H192.559V76H190.841ZM208.16 76H206.199L198.126 63.6022H198.045C198.153 65.0572 198.207 66.3909 198.207 67.6034V76H196.621V61.2277H198.561L206.614 73.575H206.695C206.681 73.3931 206.651 72.8105 206.604 71.827C206.556 70.8368 206.54 70.1295 206.553 69.7051V61.2277H208.16V76ZM220.456 76H212.222V61.2277H220.456V62.7534H213.939V67.5125H220.062V69.0281H213.939V74.4642H220.456V76ZM225.458 69.8567V76H223.74V61.2277H227.792C229.604 61.2277 230.941 61.5746 231.803 62.2684C232.672 62.9623 233.107 64.0064 233.107 65.4007C233.107 67.3542 232.117 68.6745 230.136 69.3616L234.148 76H232.117L228.54 69.8567H225.458ZM225.458 68.3815H227.812C229.025 68.3815 229.914 68.1423 230.48 67.6641C231.046 67.1791 231.328 66.4549 231.328 65.4917C231.328 64.5149 231.039 63.811 230.46 63.3799C229.887 62.9488 228.964 62.7332 227.691 62.7332H225.458V68.3815ZM244.868 72.0695C244.868 73.3695 244.397 74.3833 243.453 75.1108C242.51 75.8383 241.231 76.2021 239.614 76.2021C237.863 76.2021 236.515 75.9764 235.572 75.5251V73.868C236.178 74.124 236.839 74.3261 237.553 74.4743C238.267 74.6225 238.974 74.6966 239.675 74.6966C240.82 74.6966 241.682 74.481 242.261 74.0499C242.84 73.612 243.13 73.0058 243.13 72.2311C243.13 71.7192 243.026 71.3016 242.817 70.9782C242.615 70.6482 242.271 70.345 241.786 70.0689C241.308 69.7927 240.577 69.4794 239.594 69.1292C238.22 68.6374 237.236 68.0548 236.643 67.3811C236.057 66.7075 235.764 65.8285 235.764 64.744C235.764 63.6056 236.192 62.6995 237.047 62.0259C237.903 61.3523 239.035 61.0155 240.442 61.0155C241.911 61.0155 243.262 61.285 244.494 61.8239L243.959 63.3193C242.739 62.8073 241.554 62.5514 240.402 62.5514C239.493 62.5514 238.782 62.7467 238.27 63.1374C237.758 63.5281 237.502 64.0703 237.502 64.7642C237.502 65.2761 237.596 65.6971 237.785 66.0272C237.974 66.3505 238.29 66.6503 238.735 66.9265C239.186 67.1959 239.873 67.4957 240.796 67.8257C242.345 68.3781 243.41 68.9709 243.989 69.6041C244.575 70.2373 244.868 71.0591 244.868 72.0695Z" fill="black" fill-opacity="0.6"/>
</svg>
