<svg width="40" height="40" viewBox="0 0 40 40" fill="none" xmlns="http://www.w3.org/2000/svg">
<path d="M12.2434 28.3915H11.1605C11.1222 26.5636 11.0167 24.8451 10.8443 23.2349H10.8347L9.18593 28.3915H8.36146L6.72255 23.2349H6.71314C6.59156 24.7809 6.51497 26.4998 6.48316 28.3915H5.49609C5.55971 26.0911 5.71958 23.9345 5.97508 21.9214H7.31726L8.87937 26.6755H8.889L10.4607 21.9214H11.7449C12.0262 24.2793 12.1923 26.4361 12.2434 28.3915ZM16.9398 23.6178C16.4989 26.0105 15.9171 27.749 15.1952 28.8342C14.6327 29.6696 14.0164 30.0877 13.3453 30.0877C13.1664 30.0877 12.9457 30.0337 12.6841 29.9266V29.3497C12.8119 29.3681 12.962 29.3785 13.1344 29.3785C13.4479 29.3785 13.6998 29.2923 13.8919 29.1195C14.1217 28.909 14.2366 28.6723 14.2366 28.4105C14.2366 28.231 14.147 27.8639 13.9683 27.3081L12.7799 23.6176H13.8438L14.6967 26.3778C14.8884 27.0045 14.9683 27.442 14.9363 27.6913C15.4028 26.4456 15.7286 25.0873 15.9142 23.6174H16.9398V23.6178Z" fill="#5D87A1"/>
<path d="M31.3552 28.3911H28.2791V21.921H29.3138V27.5946H31.3552V28.3911ZM27.4738 28.5474L26.2844 27.9604C26.3899 27.8738 26.4907 27.78 26.5815 27.6714C27.0871 27.0775 27.3393 26.1993 27.3393 25.036C27.3393 22.8955 26.4993 21.8247 24.8188 21.8247C23.9947 21.8247 23.3519 22.0963 22.8921 22.6398C22.387 23.2341 22.1348 24.1092 22.1348 25.2662C22.1348 26.4035 22.3583 27.2378 22.8055 27.767C23.2146 28.2465 23.8313 28.4865 24.656 28.4865C24.9636 28.4865 25.2459 28.4488 25.503 28.3729L27.0515 29.2743L27.4738 28.5474ZM23.6207 27.0964C23.3588 26.6749 23.2278 25.9982 23.2278 25.0651C23.2278 23.436 23.7227 22.6205 24.7135 22.6205C25.2314 22.6205 25.611 22.8156 25.8537 23.2048C26.1153 23.6269 26.2469 24.2975 26.2469 25.2176C26.2469 26.8601 25.7516 27.6815 24.7614 27.6815C24.2433 27.6817 23.8637 27.4873 23.6207 27.0964ZM21.6839 26.5977C21.6839 27.1464 21.4825 27.5965 21.0803 27.9491C20.6777 28.3002 20.1378 28.4762 19.4613 28.4762C18.8285 28.4762 18.215 28.2741 17.6211 27.8719L17.8992 27.3163C18.4102 27.5722 18.8729 27.6995 19.2883 27.6995C19.6781 27.6995 19.9828 27.613 20.2038 27.4417C20.4245 27.2696 20.5562 27.0284 20.5562 26.7233C20.5562 26.3389 20.2881 26.0103 19.7963 25.7351C19.3429 25.4861 18.4359 24.9655 18.4359 24.9655C17.9444 24.6072 17.6983 24.2226 17.6983 23.589C17.6983 23.0646 17.8818 22.6412 18.2491 22.3192C18.6167 21.9959 19.0911 21.8348 19.6727 21.8348C20.2732 21.8348 20.8192 21.9957 21.311 22.3142L21.0615 22.87C20.6409 22.6912 20.2257 22.6019 19.8162 22.6019C19.4845 22.6019 19.2284 22.6816 19.0503 22.8417C18.8708 23.0012 18.7601 23.2052 18.7601 23.4555C18.7601 23.838 19.0338 24.1707 19.5389 24.4513C19.9985 24.7008 20.928 25.2304 20.928 25.2304C21.4321 25.588 21.6839 25.9691 21.6839 26.5977Z" fill="#F8981D"/>
<path d="M32.655 19.7543C32.0294 19.7384 31.5449 19.8014 31.1383 19.9734C31.0209 20.0203 30.8343 20.0203 30.818 20.1687C30.8814 20.2315 30.8887 20.3327 30.9437 20.4194C31.0375 20.5757 31.2009 20.786 31.3501 20.8956C31.514 21.0212 31.6784 21.1455 31.8509 21.2549C32.1549 21.4431 32.4996 21.5525 32.7959 21.74C32.9685 21.849 33.1401 21.9901 33.313 22.1075C33.3979 22.17 33.4523 22.2715 33.5626 22.3106V22.2868C33.5074 22.2165 33.4917 22.1148 33.4375 22.0365L33.2027 21.8101C32.9758 21.5054 32.694 21.2395 32.3899 21.021C32.1396 20.8486 31.5922 20.6142 31.4907 20.3258L31.4748 20.3099C31.6468 20.2938 31.8509 20.2315 32.0143 20.1835C32.2803 20.1134 32.5228 20.1293 32.7957 20.0592C32.9212 20.0278 33.0457 19.9885 33.1717 19.9498V19.8793C33.0303 19.7384 32.9294 19.5514 32.7806 19.4183C32.3826 19.0745 31.944 18.7382 31.4907 18.4567C31.248 18.3 30.9358 18.1991 30.6773 18.0658C30.5842 18.0188 30.4273 17.9955 30.3724 17.9173C30.2322 17.7452 30.1533 17.5188 30.0516 17.3152C29.8256 16.8856 29.6061 16.4089 29.4111 15.9546C29.2701 15.6499 29.1843 15.3457 29.0123 15.0638C28.2066 13.735 27.3317 12.9302 25.987 12.1403C25.698 11.9758 25.3542 11.9057 24.9869 11.8195L24.4004 11.7885C24.2752 11.7337 24.1499 11.5849 24.0407 11.5146C23.5945 11.2333 22.4459 10.6238 22.1178 11.4286C21.9064 11.9373 22.4304 12.4374 22.6104 12.6954C22.7433 12.8745 22.9155 13.0784 23.0084 13.2818C23.0634 13.4146 23.0789 13.5557 23.1339 13.6961C23.2591 14.0401 23.3761 14.4228 23.5405 14.7439C23.6263 14.9075 23.7199 15.0795 23.8295 15.2277C23.8923 15.3143 24.0015 15.3526 24.0254 15.4938C23.9164 15.6495 23.9078 15.8845 23.8452 16.08C23.564 16.9632 23.6738 18.0575 24.0725 18.7066C24.1972 18.902 24.4948 19.3323 24.8928 19.1674C25.2452 19.0267 25.1671 18.5812 25.2684 18.1906C25.2916 18.0962 25.2763 18.0342 25.3232 17.9723V17.9876C25.4322 18.2062 25.5423 18.417 25.6434 18.6363C25.8859 19.019 26.3082 19.4179 26.66 19.683C26.8473 19.8244 26.9956 20.0663 27.2302 20.1528V20.1293H27.2147C27.1672 20.0592 27.0977 20.0278 27.0354 19.9734C26.8943 19.8326 26.7382 19.6606 26.6288 19.5045C26.3011 19.0665 26.0111 18.5817 25.7537 18.0813C25.6277 17.8386 25.5191 17.5732 25.4176 17.3309C25.3703 17.2374 25.3703 17.0963 25.2918 17.0493C25.1742 17.2211 25.0028 17.3698 24.917 17.5804C24.7683 17.9171 24.7528 18.3312 24.6975 18.7618L24.6668 18.7769C24.4177 18.7143 24.3311 18.4567 24.2365 18.2381C24.0024 17.6827 23.963 16.7912 24.1662 16.1505C24.2206 15.9866 24.456 15.4706 24.3621 15.3145C24.315 15.1649 24.1585 15.0797 24.0727 14.9619C23.9718 14.8137 23.8613 14.6262 23.791 14.4618C23.6035 14.0242 23.5091 13.5394 23.3072 13.102C23.2128 12.8982 23.049 12.6873 22.9163 12.4996C22.7673 12.2886 22.6035 12.14 22.4857 11.89C22.4467 11.804 22.3921 11.6634 22.4547 11.5698C22.47 11.507 22.5018 11.4836 22.5641 11.4679C22.6654 11.3823 22.9548 11.4911 23.0563 11.5382C23.3461 11.6554 23.5885 11.7648 23.8304 11.9289C23.9398 12.0074 24.0572 12.156 24.1976 12.1951H24.3621C24.6117 12.2495 24.8932 12.2101 25.1282 12.2809C25.5423 12.414 25.9175 12.6092 26.254 12.8199C27.2779 13.4693 28.1223 14.3919 28.6923 15.4938C28.7858 15.6734 28.8256 15.8379 28.911 16.0251C29.0757 16.4085 29.2793 16.7994 29.4427 17.1746C29.607 17.5418 29.7635 17.9168 29.9981 18.2219C30.1151 18.386 30.5851 18.472 30.7958 18.558C30.9517 18.6281 31.1944 18.6905 31.335 18.7765C31.601 18.9403 31.8659 19.1284 32.116 19.3086C32.2405 19.4024 32.6318 19.5978 32.655 19.7543ZM24.681 12.961C24.5731 12.9598 24.4655 12.9731 24.361 13.0003V13.016H24.3761C24.4391 13.1409 24.5485 13.2276 24.6266 13.3366C24.6896 13.4619 24.7442 13.5862 24.8059 13.7114L24.821 13.6959C24.9313 13.6178 24.9861 13.4927 24.9861 13.305C24.9386 13.2497 24.9313 13.1958 24.8917 13.1409C24.8457 13.0627 24.7442 13.0237 24.681 12.961Z" fill="#5D87A1"/>
<path d="M33.3979 28.3906H33.5598V27.5979H33.3169L33.1187 28.1388L32.9034 27.5979H32.6694V28.3906H32.8224V27.7875H32.831L33.0566 28.3906H33.1731L33.3979 27.7875V28.3906ZM32.0931 28.3906H32.2645V27.7322H32.4888V27.5977H31.8594V27.7322H32.0927L32.0931 28.3906Z" fill="#F8981D"/>
</svg>
