<svg width="40" height="40" viewBox="0 0 40 40" fill="none" xmlns="http://www.w3.org/2000/svg">
<path d="M20 30.8219C31.0457 30.8219 40 26.1607 40 20.4109C40 14.6611 31.0457 10 20 10C8.9543 10 0 14.6611 0 20.4109C0 26.1607 8.9543 30.8219 20 30.8219Z" fill="#8993BE"/>
<path fill-rule="evenodd" clip-rule="evenodd" d="M5.61621 26.5755L7.80809 15.4796H12.8764C15.0681 15.6166 16.164 16.7124 16.164 18.6303C16.164 21.918 13.5614 23.8358 11.2325 23.6988H8.76699L8.21902 26.5755H5.61621ZM9.31481 21.6441L9.9998 17.5344H11.7806C12.7395 17.5344 13.4243 17.9453 13.4243 18.7672C13.2875 21.0961 12.1915 21.5071 10.9587 21.6441H9.31496H9.31481ZM15.6548 23.6988L17.8465 12.603H20.4493L19.9014 15.4796H22.367C24.5589 15.6166 25.3807 16.7124 25.1068 18.0824L24.1479 23.6988H21.4082L22.3671 18.6303C22.504 17.9453 22.504 17.5344 21.5453 17.5344H19.4904L18.2576 23.6988H15.6548ZM23.9725 26.5755L26.1642 15.4796H31.2326C33.4245 15.6166 34.5204 16.7124 34.5204 18.6303C34.5204 21.918 31.9176 23.8358 29.5889 23.6988H27.1231L26.5751 26.5755H23.9725ZM27.6709 21.6441L28.3559 17.5344H30.1368C31.0957 17.5344 31.7806 17.9453 31.7806 18.7672C31.6437 21.0961 30.5478 21.5071 29.315 21.6441H27.6711H27.6709Z" fill="white"/>
</svg>
