<svg width="40" height="40" viewBox="0 0 40 40" fill="none" xmlns="http://www.w3.org/2000/svg">
<g clip-path="url(#clip0)">
<path d="M34.4097 22.2646C33.0155 22.2719 31.8039 22.6076 30.7893 23.104C30.417 22.3668 30.0447 21.7098 29.979 21.2281C29.906 20.666 29.8185 20.323 29.906 19.6514C29.9936 18.9799 30.3878 18.0237 30.3805 17.9507C30.3732 17.8777 30.2929 17.5347 29.49 17.5274C28.6871 17.5201 27.9936 17.6806 27.9133 17.8923C27.8331 18.104 27.6798 18.5857 27.5776 19.0821C27.4389 19.812 25.9717 22.4179 25.1323 23.7828C24.8623 23.25 24.6287 22.7828 24.5776 22.4106C24.5046 21.8485 24.417 21.5055 24.5046 20.8339C24.5922 20.1624 24.9863 19.2062 24.979 19.1332C24.9717 19.0602 24.8914 18.7171 24.0885 18.7098C23.2856 18.7025 22.5922 18.8631 22.5119 19.0748C22.4316 19.2865 22.344 19.7828 22.1761 20.2646C22.0082 20.7463 20.0593 25.0967 19.5484 26.2208C19.2856 26.7974 19.0593 27.2573 18.8987 27.5711C18.8987 27.5711 18.8914 27.593 18.8696 27.6295C18.7309 27.8996 18.6506 28.0456 18.6506 28.0456C18.6506 28.0456 18.6506 28.0456 18.6506 28.0529C18.5411 28.25 18.4243 28.4325 18.3659 28.4325C18.3221 28.4325 18.2418 27.9069 18.3805 27.1916C18.6725 25.6806 19.3659 23.3303 19.3586 23.25C19.3586 23.2062 19.49 22.7974 18.906 22.5857C18.3367 22.3741 18.1323 22.7244 18.0812 22.7244C18.0301 22.7244 17.9936 22.8485 17.9936 22.8485C17.9936 22.8485 18.6287 20.2062 16.782 20.2062C15.6287 20.2062 14.0374 21.469 13.2491 22.6076C12.7528 22.8777 11.6944 23.4544 10.563 24.0748C10.1323 24.3157 9.68707 24.5565 9.27101 24.7828C9.24181 24.7536 9.21262 24.7171 9.18342 24.6879C6.94984 22.3011 2.81846 20.6149 2.99364 17.4106C3.05933 16.2427 3.46079 13.177 10.9279 9.45436C17.0739 6.42516 21.9644 7.26458 22.8112 9.12589C24.0228 11.7828 20.1907 16.7171 13.8404 17.4325C11.417 17.7025 10.1469 16.7682 9.82576 16.4179C9.48999 16.0529 9.43889 16.031 9.31481 16.104C9.11043 16.2135 9.24181 16.542 9.31481 16.7317C9.50459 17.2281 10.2856 18.104 11.6068 18.5347C12.7747 18.9142 15.6141 19.1259 19.052 17.7974C22.8987 16.3084 25.906 12.1697 25.0228 8.70254C24.1396 5.18429 18.3002 4.0237 12.7747 5.98721C9.48999 7.15509 5.92794 8.99451 3.3659 11.3887C0.322105 14.2354 -0.159647 16.7098 0.0374336 17.7463C0.745463 21.4252 5.81846 23.8193 7.84765 25.593C7.74546 25.6514 7.65057 25.7025 7.57028 25.7463C6.55568 26.25 2.68707 28.2719 1.72357 30.4106C0.628675 32.8339 1.89875 34.5711 2.73816 34.8047C5.344 35.5273 8.02284 34.2281 9.46079 32.0821C10.8987 29.9361 10.7236 27.1478 10.0593 25.8704C10.052 25.8558 10.0447 25.8412 10.0301 25.8266C10.2929 25.6733 10.563 25.5128 10.8258 25.3595C11.344 25.0529 11.855 24.7682 12.2929 24.5347C12.0447 25.2135 11.8623 26.0237 11.7747 27.1916C11.6652 28.5638 12.2272 30.3449 12.9644 31.0456C13.2929 31.3522 13.6798 31.3595 13.9279 31.3595C14.7893 31.3595 15.1761 30.6441 15.6068 29.7974C16.1323 28.7609 16.6068 27.5565 16.6068 27.5565C16.6068 27.5565 16.0155 30.812 17.6214 30.812C18.2053 30.812 18.7966 30.0529 19.0593 29.666C19.0593 29.6733 19.0593 29.6733 19.0593 29.6733C19.0593 29.6733 19.0739 29.6514 19.1031 29.6003C19.1615 29.5055 19.198 29.4471 19.198 29.4471C19.198 29.4471 19.198 29.4398 19.198 29.4325C19.4316 29.0237 19.9571 28.0967 20.7382 26.5565C21.7455 24.5711 22.7163 22.0894 22.7163 22.0894C22.7163 22.0894 22.8039 22.6952 23.1031 23.7025C23.2783 24.2938 23.6433 24.9434 23.9352 25.5711C23.7017 25.8996 23.5557 26.0821 23.5557 26.0821C23.5557 26.0821 23.5557 26.0821 23.563 26.0894C23.3732 26.3376 23.1688 26.6076 22.9425 26.8704C22.1469 27.8193 21.198 28.9069 21.0666 29.2208C20.9133 29.593 20.9498 29.8631 21.2418 30.0821C21.4535 30.2427 21.8331 30.2646 22.2199 30.2427C22.9352 30.1916 23.4389 30.0164 23.6871 29.9069C24.0739 29.7682 24.5265 29.5565 24.9498 29.2427C25.7309 28.666 26.2053 27.8412 26.1615 26.7536C26.1396 26.1551 25.9425 25.5565 25.7017 24.9945C25.7747 24.8923 25.8404 24.7901 25.9133 24.6879C27.1469 22.885 28.1031 20.9069 28.1031 20.9069C28.1031 20.9069 28.1907 21.5128 28.49 22.5201C28.636 23.031 28.9352 23.5857 29.198 24.1259C28.0374 25.0675 27.3221 26.1624 27.0666 26.8777C26.6068 28.2062 26.9644 28.8047 27.6433 28.9434C27.9498 29.0091 28.3878 28.8631 28.709 28.7244C29.1177 28.593 29.5995 28.3668 30.0593 28.031C30.8404 27.4544 31.5922 26.6514 31.5484 25.5638C31.5265 25.0675 31.3951 24.5784 31.2126 24.104C32.198 23.6952 33.4681 23.469 35.0885 23.6587C38.563 24.0675 39.2491 26.2354 39.1177 27.1478C38.9863 28.0602 38.2564 28.5565 38.0155 28.7098C37.7747 28.8631 37.6944 28.9142 37.7163 29.0237C37.7455 29.1843 37.8623 29.177 38.0666 29.1478C38.3513 29.0967 39.8915 28.4106 39.9571 26.7317C40.0666 24.5857 38.0228 22.2427 34.4097 22.2646ZM7.60678 31.3011C6.45349 32.5565 4.84765 33.031 4.15422 32.6295C3.4097 32.1989 3.70167 30.3449 5.11773 29.0164C5.97904 28.2062 7.08853 27.4544 7.82576 26.9945C7.99364 26.8923 8.24181 26.7463 8.54108 26.5638C8.59218 26.5347 8.62138 26.5201 8.62138 26.5201C8.67977 26.4836 8.73816 26.4471 8.79656 26.4106C9.31481 28.3084 8.81846 29.9799 7.60678 31.3011ZM16.0009 25.593C15.5995 26.5711 14.7601 29.0748 14.2491 28.9361C13.8112 28.8193 13.5411 26.9215 14.1615 25.0456C14.4754 24.104 15.1396 22.9799 15.5265 22.542C16.1542 21.8412 16.8477 21.6076 17.0155 21.8923C17.2272 22.2646 16.2491 24.9799 16.0009 25.593ZM22.9279 28.9069C22.7601 28.9945 22.5995 29.0529 22.5265 29.0091C22.4754 28.9799 22.5995 28.8631 22.5995 28.8631C22.5995 28.8631 23.4681 27.9288 23.8112 27.5055C24.0082 27.2573 24.2418 26.9653 24.49 26.6368C24.49 26.666 24.49 26.7025 24.49 26.7317C24.49 27.8485 23.4097 28.6003 22.9279 28.9069ZM28.271 27.6879C28.1469 27.6003 28.1688 27.3084 28.5849 26.396C28.7455 26.0383 29.125 25.4398 29.7747 24.8631C29.8477 25.0967 29.8987 25.323 29.8914 25.5347C29.8841 26.9434 28.8769 27.469 28.271 27.6879Z" fill="#CD6799"/>
</g>
<defs>
<clipPath id="clip0">
<rect width="40" height="40" fill="white"/>
</clipPath>
</defs>
</svg>
