<svg width="40" height="40" viewBox="0 0 40 40" fill="none" xmlns="http://www.w3.org/2000/svg">
<g clip-path="url(#clip0)">
<path d="M2.84473 19.9994C2.84473 26.7909 6.79142 32.6595 12.5144 35.4411L4.33017 13.0169C3.34906 15.2139 2.84288 17.5933 2.84473 19.9994ZM31.5845 19.1336C31.5845 17.0132 30.8228 15.5447 30.1696 14.4017C29.2998 12.9885 28.485 11.7916 28.485 10.3783C28.485 8.80117 29.6808 7.33303 31.3657 7.33303C31.4418 7.33303 31.514 7.3425 31.5884 7.34674C28.5356 4.55021 24.4688 2.84277 20.002 2.84277C14.008 2.84277 8.73456 5.91811 5.66673 10.5762C6.06927 10.5883 6.44895 10.5964 6.77085 10.5964C8.56545 10.5964 11.3434 10.3787 11.3434 10.3787C12.2683 10.3241 12.3773 11.6826 11.4537 11.7919C11.4537 11.7919 10.5239 11.9013 9.48969 11.9555L15.7377 30.5398L19.4927 19.2789L16.8193 11.9552C15.8953 11.901 15.0201 11.7916 15.0201 11.7916C14.0955 11.7374 14.2039 10.3238 15.1285 10.3783C15.1285 10.3783 17.9619 10.5961 19.6478 10.5961C21.4421 10.5961 24.2203 10.3783 24.2203 10.3783C25.1459 10.3238 25.2546 11.6823 24.3303 11.7916C24.3303 11.7916 23.3989 11.901 22.3666 11.9552L28.5669 30.3987L30.2779 24.68C31.02 22.3069 31.5845 20.6024 31.5845 19.1336Z" fill="#00749A"/>
<path d="M20.3021 21.5004L15.1543 36.4586C16.7281 36.9224 18.3603 37.1579 20.0011 37.1579C21.9991 37.1579 23.9151 36.8122 25.6986 36.1854C25.6508 36.1105 25.6099 36.0314 25.5765 35.949L20.3021 21.5004ZM35.0559 11.7681C35.1297 12.3146 35.1715 12.9016 35.1715 13.5323C35.1715 15.2734 34.8463 17.2306 33.8669 19.6778L28.6261 34.8302C33.7269 31.8557 37.1577 26.3296 37.1577 19.9997C37.1623 17.1225 36.4393 14.2909 35.0559 11.7681Z" fill="#00749A"/>
<path d="M20.0011 0C8.97333 0 0.000976562 8.9717 0.000976562 19.9995C0.000976562 31.0286 8.97301 40.0003 20.0011 40.0003C31.0286 40.0003 40.0023 31.029 40.0023 19.9995C40.002 8.9717 31.0286 0 20.0011 0ZM20.0011 39.0833C9.47904 39.0833 0.918029 30.5223 0.918029 19.9995C0.918029 9.47773 9.47871 0.917379 20.0011 0.917379C30.5229 0.917379 39.0833 9.47773 39.0833 19.9995C39.0833 30.5223 30.5226 39.0833 20.0011 39.0833Z" fill="#00749A"/>
</g>
<defs>
<clipPath id="clip0">
<rect width="40" height="40" fill="white"/>
</clipPath>
</defs>
</svg>
