<svg width="67" height="30" viewBox="0 0 67 30" fill="none" xmlns="http://www.w3.org/2000/svg">
<path d="M67 0H0V30H67V0Z" fill="#00B7EE"/>
<path d="M6.9239 10.2214H33.7576V13.5796H6.9239V10.2214Z" fill="white"/>
<path d="M33.7583 6.86841H60.592V10.2266H33.7583V6.86841Z" fill="white"/>
<path d="M9.41032 20.3246V20.2975C9.41032 19.7212 9.06962 19.4974 8.49049 19.4974H7.82954V21.1517H8.49049C9.09006 21.1517 9.41032 20.867 9.41032 20.3246ZM8.49049 18.7991C9.58067 18.7991 10.2961 19.2872 10.2961 20.2975V20.3246C10.2961 21.3483 9.55345 21.8026 8.51093 21.8026H7.82954V23.6467H6.92328V18.7991H8.49049Z" fill="white"/>
<path d="M12.3671 20.6243C11.8697 20.6243 11.5358 20.9565 11.454 21.5057H13.2325C13.1847 20.8887 12.8849 20.6243 12.3671 20.6243ZM10.5955 21.9124V21.8582C10.5955 20.7598 11.3519 20.0276 12.3671 20.0276C13.2529 20.0276 14.0501 20.5497 14.0501 21.8175V22.0548H11.4404C11.4677 22.7328 11.8015 23.1057 12.4216 23.1057C12.919 23.1057 13.178 22.9091 13.2393 22.5633H14.0365C13.9206 23.3158 13.321 23.7158 12.4012 23.7158C11.345 23.7158 10.5955 23.0243 10.5955 21.9124Z" fill="white"/>
<path d="M14.7176 20.1008H15.542V22.6094L17.0819 20.1008H17.8996V23.6467H17.0819V21.1382L15.542 23.6467H14.7176V20.1008Z" fill="white"/>
<path d="M20.3535 20.711V23.6467H19.5291V20.711H18.4388V20.1008H21.4437V20.711H20.3535Z" fill="white"/>
<path d="M22.0129 20.1008H22.8374V22.6094L24.3773 20.1008H25.1949V23.6467H24.3773V21.1382L22.8374 23.6467H22.0129V20.1008Z" fill="white"/>
<path d="M26.8982 22.1416V23.6467H26.0737V20.1008H26.8982V21.5314H28.3768V20.1008H29.2012V23.6467H28.3768V22.1416H26.8982Z" fill="white"/>
<path d="M30.9384 23.6467H30.114V20.1008H32.492V20.711H30.9384V23.6467Z" fill="white"/>
<path d="M37.3364 22.1822V22.1552C37.3364 21.6602 37.0366 21.389 36.4029 21.389H35.6261V22.9552H36.437C37.0366 22.9552 37.3364 22.6907 37.3364 22.1822ZM36.4642 23.6467H34.7267V18.7991H37.7861V19.511H35.6261V20.7382H36.4847C37.5544 20.7382 38.2086 21.1924 38.2086 22.1619V22.189C38.2086 23.1314 37.5885 23.6467 36.4642 23.6467Z" fill="white"/>
<path d="M40.9052 22.4073V22.0548H40.4827C39.8559 22.0548 39.4539 22.1972 39.4539 22.6311C39.4539 22.9294 39.6174 23.126 40.0262 23.126C40.5373 23.126 40.9052 22.8683 40.9052 22.4073ZM38.6362 22.665C38.6362 21.8378 39.447 21.5395 40.4623 21.5395H40.9052V21.3564C40.9052 20.8751 40.7485 20.6446 40.2579 20.6446C39.8218 20.6446 39.6242 20.848 39.5765 21.2005H38.7793C38.8542 20.3733 39.5084 20.0276 40.3055 20.0276C41.1028 20.0276 41.7296 20.3463 41.7296 21.3226V23.6481H40.9188V23.2142C40.6803 23.5193 40.3737 23.7158 39.8286 23.7158C39.1745 23.7158 38.6362 23.404 38.6362 22.665Z" fill="white"/>
<path d="M42.6069 20.1008H43.4314V22.6094L44.9713 20.1008H45.7889V23.6467H44.9713V21.1382L43.4314 23.6467H42.6069V20.1008Z" fill="white"/>
<path d="M47.4922 22.1416V23.6467H46.6677V20.1008H47.4922V21.5314H48.9708V20.1008H49.7952V23.6467H48.9708V22.1416H47.4922Z" fill="white"/>
<path d="M52.2383 20.6243C51.7409 20.6243 51.407 20.9565 51.3253 21.5057H53.1037C53.0559 20.8887 52.7561 20.6243 52.2383 20.6243ZM50.4667 21.9124V21.8582C50.4667 20.7598 51.2231 20.0276 52.2383 20.0276C53.1241 20.0276 53.9213 20.5497 53.9213 21.8175V22.0548H51.3116C51.3389 22.7328 51.6727 23.1057 52.2928 23.1057C52.7902 23.1057 53.0492 22.9091 53.1105 22.5633H53.9077C53.7919 23.3158 53.1922 23.7158 52.2724 23.7158C51.2162 23.7158 50.4667 23.0243 50.4667 21.9124Z" fill="white"/>
<path d="M56.1314 20.711V23.6467H55.3069V20.711H54.2167V20.1008H57.2215V20.711H56.1314Z" fill="white"/>
<path d="M59.7694 22.4073V22.0548H59.3469C58.7201 22.0548 58.3181 22.1972 58.3181 22.6311C58.3181 22.9294 58.4816 23.126 58.8904 23.126C59.4015 23.126 59.7694 22.8683 59.7694 22.4073ZM57.5004 22.665C57.5004 21.8378 58.3112 21.5395 59.3265 21.5395H59.7694V21.3564C59.7694 20.8751 59.6127 20.6446 59.1221 20.6446C58.686 20.6446 58.4884 20.848 58.4407 21.2005H57.6435C57.7184 20.3733 58.3726 20.0276 59.1698 20.0276C59.967 20.0276 60.5938 20.3463 60.5938 21.3226V23.6481H59.783V23.2142C59.5445 23.5193 59.2379 23.7158 58.6928 23.7158C58.0387 23.7158 57.5004 23.404 57.5004 22.665Z" fill="white"/>
<path d="M15.3076 18.7991H17.2693V19.3686H15.3076V18.7991Z" fill="white"/>
<path d="M43.1847 18.7991H45.1465V19.3686H43.1847V18.7991Z" fill="white"/>
</svg>
