<svg width="22" height="30" viewBox="0 0 22 30" fill="none" xmlns="http://www.w3.org/2000/svg">
<g clip-path="url(#clip0)">
<path d="M6.98048 1.39307H5.55792V19.1792H6.98048V1.39307Z" fill="#FD281E"/>
<path d="M10.5865 1.39307H9.16394V13.9957H10.5865V1.39307Z" fill="#FD281E"/>
<path d="M14.391 8.45557H12.9684V13.9955H14.391V8.45557Z" fill="#FD281E"/>
<path d="M18.1955 9.49243H16.7729V15.0324H18.1955V9.49243Z" fill="#FD281E"/>
<path d="M20.6105 21.9653H19.188V25.9826H20.6105V21.9653Z" fill="#FD281E"/>
<path d="M19.1879 25.9502H17.7654V28.6068H19.1879V25.9502Z" fill="#FD281E"/>
<path d="M8.50227 25.9502H7.07971V28.6068H8.50227V25.9502Z" fill="#FD281E"/>
<path d="M7.07972 23.229H5.65717V25.8856H7.07972V23.229Z" fill="#FD281E"/>
<path d="M5.65712 20.5723H4.23456V23.2289H5.65712V20.5723Z" fill="#FD281E"/>
<path d="M4.26765 17.8508H2.84509V20.5074H4.26765V17.8508Z" fill="#FD281E"/>
<path d="M2.8451 16.4578H1.42255V17.8508H2.8451V16.4578Z" fill="#FD281E"/>
<path d="M5.52484 13.8337H4.43311V15.2268H5.52484V13.8337Z" fill="#FD281E"/>
<path d="M1.42256 12.4729H0V16.4578H1.42256V12.4729Z" fill="#FD281E"/>
<path d="M22 12.4729H20.5775V21.9653H22V12.4729Z" fill="#FD281E"/>
<path d="M16.7729 8.45557H14.391V9.84865H16.7729V8.45557Z" fill="#FD281E"/>
<path d="M19.188 28.6069H7.07971V30H19.188V28.6069Z" fill="#FD281E"/>
<path d="M19.3865 9.49243H18.1955V10.8855H19.3865V9.49243Z" fill="#FD281E"/>
<path d="M20.5775 10.8855H19.3865V12.473H20.5775V10.8855Z" fill="#FD281E"/>
<path d="M12.9684 7.0625H10.5865V8.45559H12.9684V7.0625Z" fill="#FD281E"/>
<path d="M4.46616 12.4729H1.42255V13.866H4.46616V12.4729Z" fill="#FD281E"/>
<path d="M9.19701 0H6.98047V1.39309H9.19701V0Z" fill="#FD281E"/>
</g>
<defs>
<clipPath id="clip0">
<rect width="22" height="30" fill="white"/>
</clipPath>
</defs>
</svg>
