<svg width="130" height="50" viewBox="0 0 130 50" fill="none" xmlns="http://www.w3.org/2000/svg">
<path d="M0 50C0 31.3077 0 21.9615 4.01924 15C6.65229 10.4394 10.4394 6.65229 15 4.01924C21.9615 0 31.3077 0 50 0H130C130 18.6923 130 28.0385 125.981 35C123.348 39.5606 119.561 43.3477 115 45.9808C108.038 50 98.6923 50 80 50H0Z" fill="#FD0037"/>
<path d="M29.1514 34V16.3853H25.4648V34H29.1514Z" fill="white"/>
<path d="M39.979 34V19.4248H45.0815V16.3853H31.2021V19.4248H36.2925V34H39.979Z" fill="white"/>
<path d="M52.7964 20.7065C50.9043 20.7065 49.4517 21.6587 48.7437 23.1968H48.6704V20.9141H45.1548V38.2725H48.7192V31.8027H48.7925C49.4883 33.2798 50.9531 34.2075 52.8574 34.2075C56.1289 34.2075 58.1553 31.6685 58.1553 27.457C58.1553 23.2334 56.1167 20.7065 52.7964 20.7065ZM51.6001 31.3389C49.8545 31.3389 48.707 29.8252 48.707 27.457C48.707 25.1133 49.8545 23.563 51.6001 23.563C53.3823 23.563 54.5054 25.0889 54.5054 27.457C54.5054 29.8374 53.3823 31.3389 51.6001 31.3389Z" fill="white"/>
<path d="M59.9985 34H63.563V26.688C63.563 24.8447 64.5884 23.7705 66.3462 23.7705C66.8589 23.7705 67.3472 23.856 67.6401 23.978V20.8408C67.396 20.7676 67.042 20.7065 66.627 20.7065C65.0889 20.7065 63.978 21.6099 63.5142 23.27H63.4409V20.9141H59.9985V34Z" fill="white"/>
<path d="M74.6714 34.2808C78.6265 34.2808 81.1533 31.7539 81.1533 27.4448C81.1533 23.1968 78.5898 20.6333 74.6714 20.6333C70.7529 20.6333 68.1895 23.209 68.1895 27.4448C68.1895 31.7417 70.7163 34.2808 74.6714 34.2808ZM74.6714 31.5586C72.9136 31.5586 71.8027 30.0815 71.8027 27.457C71.8027 24.8569 72.938 23.3555 74.6714 23.3555C76.4048 23.3555 77.5278 24.8569 77.5278 27.457C77.5278 30.0815 76.417 31.5586 74.6714 31.5586Z" fill="white"/>
<path d="M83.9487 34H87.5132V23.5996H90.0278V20.9751H87.4277V20.1084C87.4277 19.1807 87.9404 18.668 89.1123 18.668C89.4663 18.668 89.8203 18.6924 90.0767 18.7412V16.3853C89.6616 16.2998 88.917 16.2266 88.2578 16.2266C85.1572 16.2266 83.9487 17.4229 83.9487 19.9863V20.9751H82.1665V23.5996H83.9487V34Z" fill="white"/>
<path d="M93.7388 19.144C94.7764 19.144 95.5942 18.314 95.5942 17.313C95.5942 16.2998 94.7764 15.4819 93.7388 15.4819C92.7012 15.4819 91.8833 16.2998 91.8833 17.313C91.8833 18.314 92.7012 19.144 93.7388 19.144ZM91.9688 34H95.5332V20.9141H91.9688V34Z" fill="white"/>
<path d="M98.8657 17.8989V20.9141H97.0225V23.5996H98.8657V30.4722C98.8657 33.0234 100.062 34.0488 103.138 34.0488C103.858 34.0488 104.469 33.9878 104.835 33.9023V31.2778C104.615 31.3145 104.286 31.3389 103.968 31.3389C102.918 31.3389 102.43 30.8628 102.43 29.8618V23.5996H104.847V20.9141H102.43V17.8989H98.8657Z" fill="white"/>
</svg>
