<svg width="30" height="30" viewBox="0 0 30 30" fill="none" xmlns="http://www.w3.org/2000/svg">
<path d="M0.5 15C0.5 6.99187 6.99187 0.5 15 0.5C23.0081 0.5 29.5 6.99187 29.5 15C29.5 23.0081 23.0081 29.5 15 29.5C6.99187 29.5 0.5 23.0081 0.5 15Z" stroke="white"/>
<path fill-rule="evenodd" clip-rule="evenodd" d="M14.2831 8.44145C14.4225 8.44124 14.5724 8.4413 14.7341 8.44137L15.0008 8.44145C17.1368 8.44145 17.39 8.44912 18.2335 8.48745C19.0135 8.52312 19.4368 8.65346 19.7188 8.76296C20.0922 8.90796 20.3583 9.08129 20.6382 9.3613C20.9182 9.6413 21.0915 9.90797 21.2368 10.2813C21.3464 10.563 21.4769 10.9863 21.5124 11.7663C21.5507 12.6097 21.559 12.863 21.559 14.998C21.559 17.133 21.5507 17.3864 21.5124 18.2297C21.4767 19.0097 21.3464 19.4331 21.2368 19.7147C21.0918 20.0881 20.9182 20.3539 20.6382 20.6337C20.3582 20.9137 20.0923 21.0871 19.7188 21.2321C19.4372 21.3421 19.0135 21.4721 18.2335 21.5078C17.3901 21.5461 17.1368 21.5544 15.0008 21.5544C12.8646 21.5544 12.6114 21.5461 11.7681 21.5078C10.9881 21.4718 10.5647 21.3414 10.2826 21.2319C9.90923 21.0869 9.64256 20.9136 9.36256 20.6336C9.08256 20.3536 8.90922 20.0876 8.76389 19.7141C8.65439 19.4324 8.52388 19.0091 8.48838 18.2291C8.45005 17.3857 8.44238 17.1324 8.44238 14.996C8.44238 12.8597 8.45005 12.6077 8.48838 11.7643C8.52405 10.9843 8.65439 10.561 8.76389 10.279C8.90889 9.90564 9.08256 9.63897 9.36256 9.35896C9.64256 9.07896 9.90923 8.90562 10.2826 8.76029C10.5646 8.65029 10.9881 8.52029 11.7681 8.48445C12.5061 8.45112 12.7921 8.44112 14.2831 8.43945V8.44145ZM19.2712 9.7698C18.7412 9.7698 18.3111 10.1993 18.3111 10.7295C18.3111 11.2595 18.7412 11.6895 19.2712 11.6895C19.8012 11.6895 20.2312 11.2595 20.2312 10.7295C20.2312 10.1995 19.8012 9.76947 19.2712 9.76947V9.7698ZM10.8924 14.9999C10.8924 12.7311 12.7318 10.8916 15.0006 10.8915C17.2695 10.8915 19.1085 12.731 19.1085 14.9999C19.1085 17.2687 17.2696 19.1074 15.0008 19.1074C12.7319 19.1074 10.8924 17.2687 10.8924 14.9999Z" fill="white"/>
<path fill-rule="evenodd" clip-rule="evenodd" d="M15.0007 12.333C16.4734 12.333 17.6674 13.5269 17.6674 14.9997C17.6674 16.4724 16.4734 17.6664 15.0007 17.6664C13.5278 17.6664 12.334 16.4724 12.334 14.9997C12.334 13.5269 13.5278 12.333 15.0007 12.333V12.333Z" fill="white"/>
</svg>
