<svg width="30" height="30" viewBox="0 0 30 30" fill="none" xmlns="http://www.w3.org/2000/svg">
<path d="M29.5 15C29.5 23.0081 23.0081 29.5 15 29.5C6.99187 29.5 0.5 23.0081 0.5 15C0.5 6.99187 6.99187 0.5 15 0.5C23.0081 0.5 29.5 6.99187 29.5 15Z" stroke="white"/>
<path fill-rule="evenodd" clip-rule="evenodd" d="M12.25 21.8749C12.625 21.8749 12.7907 21.7034 13 21.4999L15 19.5552L12.5053 18.0508" fill="white"/>
<path fill-rule="evenodd" clip-rule="evenodd" d="M12.5049 18.0512L18.5499 22.5173C19.2397 22.8979 19.7376 22.7009 19.9094 21.8769L22.37 10.2815C22.622 9.27147 21.985 8.81337 21.3251 9.11297L6.87635 14.6843C5.89009 15.0799 5.89584 15.6302 6.69658 15.8753L10.4045 17.0326L18.9886 11.617C19.3938 11.3713 19.7657 11.5034 19.4605 11.7743" fill="white"/>
</svg>
