<svg width="30" height="30" viewBox="0 0 30 30" fill="none" xmlns="http://www.w3.org/2000/svg">
<path fill-rule="evenodd" clip-rule="evenodd" d="M29 15C29 22.732 22.732 29 15 29C7.26801 29 1 22.732 1 15C1 7.26801 7.26801 1 15 1C22.732 1 29 7.26801 29 15ZM15 30C23.2843 30 30 23.2843 30 15C30 6.71573 23.2843 0 15 0C6.71573 0 0 6.71573 0 15C0 23.2843 6.71573 30 15 30Z" fill="white"/>
<path fill-rule="evenodd" clip-rule="evenodd" d="M11.7182 20.8059L11.4475 20.6452L8.64163 21.3813L9.39056 18.6456L9.21429 18.3651C8.47218 17.1848 8.08024 15.8205 8.08081 14.4197C8.08243 10.3323 11.4082 7.00684 15.4974 7.00684C17.4776 7.00752 19.3389 7.77962 20.7386 9.18093C22.1383 10.5822 22.9087 12.4448 22.9079 14.4257C22.9063 18.5135 19.5806 21.8393 15.4945 21.8393H15.4915C14.1612 21.8388 12.8564 21.4814 11.7182 20.8059ZM19.6828 16.3466C19.8383 16.4218 19.9432 16.4725 19.9881 16.5473C20.0438 16.6402 20.0438 17.0865 19.8581 17.6071C19.6723 18.1277 18.782 18.6028 18.3538 18.6668C17.9698 18.7242 17.4839 18.7482 16.95 18.5785C16.6263 18.4758 16.2112 18.3387 15.6795 18.109C13.5902 17.2069 12.1782 15.1818 11.9114 14.7991C11.8927 14.7723 11.8796 14.7536 11.8723 14.7438L11.8705 14.7414C11.7526 14.584 10.9623 13.5296 10.9623 12.4383C10.9623 11.4118 11.4665 10.8737 11.6987 10.626C11.7146 10.609 11.7292 10.5934 11.7423 10.5791C11.9466 10.356 12.188 10.3002 12.3366 10.3002C12.4852 10.3002 12.6339 10.3016 12.7637 10.3081C12.7798 10.3089 12.7964 10.3088 12.8137 10.3087C12.9435 10.3079 13.1055 10.307 13.2652 10.6907C13.3266 10.8383 13.4166 11.0572 13.5114 11.2881C13.7032 11.755 13.915 12.2708 13.9523 12.3455C14.0081 12.457 14.0452 12.5871 13.9709 12.736C13.9598 12.7583 13.9494 12.7793 13.9396 12.7994C13.8838 12.9133 13.8427 12.9971 13.748 13.1077C13.7108 13.1512 13.6723 13.1981 13.6338 13.2449C13.5572 13.3383 13.4805 13.4317 13.4137 13.4982C13.3022 13.6093 13.186 13.7299 13.316 13.953C13.446 14.1761 13.8933 14.9059 14.5559 15.4969C15.2681 16.1322 15.8871 16.4007 16.2008 16.5368C16.2621 16.5633 16.3117 16.5849 16.3481 16.6031C16.5709 16.7147 16.7009 16.696 16.8309 16.5473C16.9609 16.3986 17.3881 15.8965 17.5366 15.6734C17.6852 15.4504 17.8338 15.4875 18.038 15.5619C18.2424 15.6363 19.3381 16.1754 19.5609 16.287C19.6045 16.3088 19.6451 16.3284 19.6828 16.3466Z" fill="white"/>
</svg>
