<svg width="90" height="30" viewBox="0 0 90 30" fill="none" xmlns="http://www.w3.org/2000/svg">
<rect width="90" height="30" fill="#FD281E"/>
<path d="M12.3728 14.2377C12.828 14.2377 13.1605 14.136 13.3703 13.9327C13.5834 13.7294 13.6899 13.4514 13.6899 13.0987C13.6899 12.9372 13.6625 12.7907 13.6076 12.6592C13.556 12.5247 13.4753 12.4111 13.3655 12.3184C13.259 12.2227 13.1234 12.1495 12.9587 12.0987C12.7941 12.0478 12.5988 12.0224 12.3728 12.0224H11.4527V14.2377H12.3728ZM12.3728 11C12.8538 11 13.2686 11.0523 13.6173 11.157C13.9692 11.2616 14.2581 11.4081 14.4841 11.5964C14.7101 11.7818 14.8763 12.003 14.9829 12.2601C15.0926 12.5172 15.1475 12.7967 15.1475 13.0987C15.1475 13.4185 15.091 13.7115 14.978 13.9776C14.865 14.2436 14.6939 14.4723 14.4647 14.6637C14.2355 14.855 13.9466 15.0045 13.5979 15.1121C13.2493 15.2167 12.8409 15.2691 12.3728 15.2691H11.4527V17.5067H10V11H12.3728Z" fill="white"/>
<path d="M18.8374 14.6502C18.8374 14.5217 18.818 14.3991 18.7793 14.2825C18.7437 14.1659 18.6856 14.0628 18.6049 13.9731C18.5242 13.8834 18.4225 13.8132 18.2999 13.7623C18.1772 13.7085 18.0303 13.6816 17.8592 13.6816C17.5396 13.6816 17.2894 13.7653 17.1086 13.9327C16.9278 14.1001 16.81 14.3393 16.7551 14.6502H18.8374ZM16.7357 15.3857C16.7777 15.8191 16.9101 16.136 17.1328 16.3363C17.3588 16.5366 17.6526 16.6368 18.0141 16.6368C18.1982 16.6368 18.3563 16.6173 18.4887 16.5785C18.6243 16.5366 18.7421 16.4918 18.8422 16.4439C18.9455 16.3931 19.0375 16.3483 19.1182 16.3094C19.2022 16.2676 19.2845 16.2466 19.3652 16.2466C19.4685 16.2466 19.5492 16.2825 19.6073 16.3543L19.9947 16.8027C19.8527 16.9552 19.6961 17.0822 19.525 17.1839C19.3539 17.2825 19.1763 17.3617 18.9923 17.4215C18.8083 17.4783 18.6227 17.5172 18.4354 17.5381C18.2482 17.562 18.0674 17.574 17.8931 17.574C17.5444 17.574 17.2184 17.5217 16.9149 17.417C16.6147 17.3094 16.3516 17.1525 16.1256 16.9462C15.9028 16.7369 15.7269 16.4783 15.5978 16.1704C15.4686 15.8625 15.4041 15.5052 15.4041 15.0987C15.4041 14.7848 15.459 14.4888 15.5687 14.2108C15.6817 13.9327 15.8431 13.6906 16.053 13.4843C16.2628 13.278 16.5178 13.1151 16.8181 12.9955C17.1183 12.8729 17.4573 12.8117 17.835 12.8117C18.1546 12.8117 18.4484 12.8595 18.7163 12.9552C18.9875 13.0478 19.2199 13.1839 19.4136 13.3632C19.6105 13.5426 19.7623 13.7638 19.8688 14.0269C19.9786 14.287 20.0334 14.5845 20.0334 14.9193C20.0334 15.012 20.0286 15.0882 20.0189 15.148C20.0092 15.2078 19.9931 15.2556 19.9705 15.2915C19.9479 15.3274 19.9172 15.3528 19.8785 15.3677C19.8397 15.3797 19.7897 15.3857 19.7284 15.3857H16.7357Z" fill="white"/>
<path d="M25.434 12.8834V17.5067H24.0975V14.9641C24.0975 14.8954 24.1008 14.8176 24.1072 14.7309C24.1169 14.6413 24.1298 14.5531 24.146 14.4664C24.0717 14.6158 23.9958 14.7429 23.9184 14.8475C23.9119 14.8535 23.8828 14.8924 23.8312 14.9641C23.7795 15.0359 23.7117 15.1286 23.6278 15.2422C23.5439 15.3528 23.4486 15.4783 23.3421 15.6188C23.2388 15.7593 23.1323 15.9028 23.0225 16.0493C22.7675 16.3901 22.4785 16.7773 22.1557 17.2108C22.1299 17.2466 22.0992 17.2825 22.0637 17.3184C22.0314 17.3513 21.9943 17.3827 21.9523 17.4126C21.9136 17.4425 21.8716 17.4664 21.8264 17.4843C21.7812 17.5022 21.7328 17.5112 21.6812 17.5112H20.8628V12.8879H22.1993V15.4305C22.1993 15.5022 22.1945 15.583 22.1848 15.6726C22.1751 15.7623 22.1622 15.8505 22.146 15.9372C22.1848 15.8595 22.2235 15.7877 22.2622 15.722C22.301 15.6562 22.3397 15.5979 22.3785 15.5471C22.3817 15.5411 22.4091 15.5022 22.4608 15.4305C22.5157 15.3587 22.5851 15.2676 22.669 15.157C22.7529 15.0433 22.8466 14.9163 22.9499 14.7758C23.0564 14.6353 23.1646 14.4918 23.2743 14.3453C23.5294 14.0045 23.8199 13.6173 24.146 13.1839C24.1944 13.1121 24.2589 13.0448 24.3397 12.9821C24.4236 12.9163 24.5172 12.8834 24.6205 12.8834H25.434ZM23.221 11.6951C23.3373 11.6951 23.4325 11.6846 23.5068 11.6637C23.5842 11.6398 23.644 11.6009 23.6859 11.5471C23.7311 11.4933 23.7618 11.423 23.7779 11.3363C23.7973 11.2466 23.807 11.1345 23.807 11H24.5963C24.6899 11 24.7577 11.0359 24.7997 11.1076C24.8449 11.1794 24.8675 11.2556 24.8675 11.3363C24.8675 11.4918 24.8271 11.6323 24.7464 11.7578C24.6689 11.8804 24.5576 11.9851 24.4123 12.0717C24.267 12.1584 24.0927 12.2257 23.8893 12.2735C23.6892 12.3184 23.4664 12.3408 23.221 12.3408C22.9757 12.3408 22.7513 12.3184 22.548 12.2735C22.3478 12.2257 22.1751 12.1584 22.0298 12.0717C21.8845 11.9851 21.7715 11.8804 21.6908 11.7578C21.6134 11.6323 21.5746 11.4918 21.5746 11.3363C21.5746 11.2556 21.5956 11.1794 21.6376 11.1076C21.6828 11.0359 21.7522 11 21.8458 11H22.6351C22.6351 11.1345 22.6432 11.2466 22.6593 11.3363C22.6787 11.423 22.7094 11.4933 22.7513 11.5471C22.7965 11.6009 22.8563 11.6398 22.9305 11.6637C23.008 11.6846 23.1048 11.6951 23.221 11.6951Z" fill="white"/>
<path d="M30.8858 13.7848H29.1619V17.5067H27.8254V13.7848H26.1015V12.8834H30.8858V13.7848Z" fill="white"/>
<path d="M36.112 12.8834V17.5067H34.7755V14.9641C34.7755 14.8954 34.7787 14.8176 34.7852 14.7309C34.7948 14.6413 34.8078 14.5531 34.8239 14.4664C34.7496 14.6158 34.6738 14.7429 34.5963 14.8475C34.5898 14.8535 34.5608 14.8924 34.5091 14.9641C34.4575 15.0359 34.3897 15.1286 34.3058 15.2422C34.2218 15.3528 34.1266 15.4783 34.0201 15.6188C33.9167 15.7593 33.8102 15.9028 33.7004 16.0493C33.4454 16.3901 33.1565 16.7773 32.8337 17.2108C32.8078 17.2466 32.7772 17.2825 32.7416 17.3184C32.7094 17.3513 32.6722 17.3827 32.6303 17.4126C32.5915 17.4425 32.5496 17.4664 32.5044 17.4843C32.4592 17.5022 32.4107 17.5112 32.3591 17.5112H31.5407V12.8879H32.8772V15.4305C32.8772 15.5022 32.8724 15.583 32.8627 15.6726C32.853 15.7623 32.8401 15.8505 32.824 15.9372C32.8627 15.8595 32.9014 15.7877 32.9402 15.722C32.9789 15.6562 33.0177 15.5979 33.0564 15.5471C33.0596 15.5411 33.0871 15.5022 33.1387 15.4305C33.1936 15.3587 33.263 15.2676 33.347 15.157C33.4309 15.0433 33.5245 14.9163 33.6278 14.7758C33.7343 14.6353 33.8425 14.4918 33.9523 14.3453C34.2073 14.0045 34.4978 13.6173 34.8239 13.1839C34.8723 13.1121 34.9369 13.0448 35.0176 12.9821C35.1015 12.9163 35.1951 12.8834 35.2985 12.8834H36.112Z" fill="white"/>
<path d="M41.6557 12.8834V17.5067H40.3241V15.5022H38.5614V17.5067H37.2249V12.8834H38.5614V14.6009H40.3241V12.8834H41.6557Z" fill="white"/>
<path d="M46.2102 13.7848H44.1037V17.5067H42.7672V12.8834H46.2102V13.7848Z" fill="white"/>
<path d="M51.727 14.2377C52.1822 14.2377 52.5147 14.136 52.7246 13.9327C52.9376 13.7294 53.0442 13.4514 53.0442 13.0987C53.0442 12.9372 53.0167 12.7907 52.9618 12.6592C52.9102 12.5247 52.8295 12.4111 52.7197 12.3184C52.6132 12.2227 52.4776 12.1495 52.3129 12.0987C52.1483 12.0478 51.953 12.0224 51.727 12.0224H50.8069V14.2377H51.727ZM51.727 11C52.208 11 52.6229 11.0523 52.9715 11.157C53.3234 11.2616 53.6123 11.4081 53.8383 11.5964C54.0643 11.7818 54.2305 12.003 54.3371 12.2601C54.4468 12.5172 54.5017 12.7967 54.5017 13.0987C54.5017 13.4185 54.4452 13.7115 54.3322 13.9776C54.2192 14.2436 54.0481 14.4723 53.8189 14.6637C53.5897 14.855 53.3008 15.0045 52.9521 15.1121C52.6035 15.2167 52.1951 15.2691 51.727 15.2691H50.8069V17.5067H49.3542V11H51.727Z" fill="white"/>
<path d="M59.8715 12.8834L57.1791 18.7489C57.1372 18.8326 57.0855 18.8954 57.0242 18.9372C56.9661 18.9791 56.8724 19 56.7433 19H55.7506L56.6949 17.1345L54.6901 12.8834H55.862C55.9685 12.8834 56.0508 12.9058 56.109 12.9507C56.1671 12.9955 56.209 13.0478 56.2349 13.1076L57.184 15.3184C57.2195 15.4051 57.2502 15.4933 57.276 15.583C57.305 15.6697 57.3325 15.7564 57.3583 15.843C57.4164 15.6667 57.4826 15.4903 57.5568 15.3139L58.4382 13.1076C58.464 13.0419 58.5108 12.988 58.5786 12.9462C58.6464 12.9043 58.7206 12.8834 58.8013 12.8834H59.8715Z" fill="white"/>
<path d="M64.8275 12.8834V17.5067H63.4959V15.5022H61.7332V17.5067H60.3967V12.8834H61.7332V14.6009H63.4959V12.8834H64.8275Z" fill="white"/>
<path d="M69.106 14.6502C69.106 14.5217 69.0866 14.3991 69.0479 14.2825C69.0123 14.1659 68.9542 14.0628 68.8735 13.9731C68.7928 13.8834 68.6911 13.8132 68.5685 13.7623C68.4458 13.7085 68.2989 13.6816 68.1278 13.6816C67.8082 13.6816 67.558 13.7653 67.3772 13.9327C67.1964 14.1001 67.0786 14.3393 67.0237 14.6502H69.106ZM67.0044 15.3857C67.0463 15.8191 67.1787 16.136 67.4014 16.3363C67.6274 16.5366 67.9212 16.6368 68.2828 16.6368C68.4668 16.6368 68.625 16.6173 68.7573 16.5785C68.8929 16.5366 69.0107 16.4918 69.1108 16.4439C69.2141 16.3931 69.3061 16.3483 69.3868 16.3094C69.4708 16.2676 69.5531 16.2466 69.6338 16.2466C69.7371 16.2466 69.8178 16.2825 69.8759 16.3543L70.2633 16.8027C70.1213 16.9552 69.9647 17.0822 69.7936 17.1839C69.6225 17.2825 69.4449 17.3617 69.2609 17.4215C69.0769 17.4783 68.8913 17.5172 68.704 17.5381C68.5168 17.562 68.336 17.574 68.1617 17.574C67.813 17.574 67.487 17.5217 67.1835 17.417C66.8833 17.3094 66.6202 17.1525 66.3942 16.9462C66.1715 16.7369 65.9955 16.4783 65.8664 16.1704C65.7372 15.8625 65.6727 15.5052 65.6727 15.0987C65.6727 14.7848 65.7276 14.4888 65.8373 14.2108C65.9503 13.9327 66.1117 13.6906 66.3216 13.4843C66.5314 13.278 66.7864 13.1151 67.0867 12.9955C67.3869 12.8729 67.7259 12.8117 68.1036 12.8117C68.4232 12.8117 68.717 12.8595 68.9849 12.9552C69.2561 13.0478 69.4885 13.1839 69.6822 13.3632C69.8791 13.5426 70.0309 13.7638 70.1374 14.0269C70.2472 14.287 70.302 14.5845 70.302 14.9193C70.302 15.012 70.2972 15.0882 70.2875 15.148C70.2778 15.2078 70.2617 15.2556 70.2391 15.2915C70.2165 15.3274 70.1858 15.3528 70.1471 15.3677C70.1084 15.3797 70.0583 15.3857 69.997 15.3857H67.0044Z" fill="white"/>
<path d="M75.4513 13.7848H73.7274V17.5067H72.3909V13.7848H70.667V12.8834H75.4513V13.7848Z" fill="white"/>
<path d="M78.6974 15.574C78.3713 15.5889 78.1002 15.6158 77.8839 15.6547C77.6676 15.6906 77.4949 15.7384 77.3657 15.7982C77.2398 15.858 77.1494 15.9268 77.0945 16.0045C77.0429 16.0792 77.0171 16.1614 77.0171 16.2511C77.0171 16.4305 77.0703 16.5575 77.1769 16.6323C77.2866 16.707 77.4384 16.7444 77.632 16.7444C77.8548 16.7444 78.0469 16.7085 78.2083 16.6368C78.3729 16.562 78.536 16.4469 78.6974 16.2915V15.574ZM75.9759 13.5247C76.2697 13.2795 76.5942 13.0972 76.9493 12.9776C77.3044 12.855 77.6885 12.7937 78.1018 12.7937C78.3988 12.7937 78.6635 12.8386 78.8959 12.9283C79.1316 13.0179 79.3301 13.1435 79.4915 13.3049C79.6562 13.4634 79.7821 13.6532 79.8693 13.8744C79.9564 14.0957 80 14.3378 80 14.6009V17.5067H79.3899C79.264 17.5067 79.1671 17.4903 79.0993 17.4574C79.0347 17.4245 78.9815 17.3558 78.9395 17.2511L78.833 16.9552C78.7071 17.0568 78.5844 17.1465 78.465 17.2242C78.3487 17.3019 78.2277 17.3677 78.1018 17.4215C77.9759 17.4723 77.8403 17.5112 77.695 17.5381C77.553 17.565 77.3932 17.5785 77.2156 17.5785C76.9961 17.5785 76.7959 17.5516 76.6151 17.4978C76.4343 17.4439 76.2778 17.3647 76.1454 17.2601C76.0163 17.1525 75.9162 17.0194 75.8452 16.861C75.7742 16.7025 75.7387 16.5202 75.7387 16.3139C75.7387 16.1435 75.7855 15.9731 75.8791 15.8027C75.9727 15.6323 76.1325 15.4783 76.3585 15.3408C76.5877 15.2003 76.8912 15.0852 77.2689 14.9955C77.6498 14.9028 78.126 14.8505 78.6974 14.8386V14.6009C78.6974 14.3109 78.6312 14.0987 78.4988 13.9641C78.3665 13.8266 78.176 13.7578 77.9274 13.7578C77.7434 13.7578 77.5901 13.7788 77.4674 13.8206C77.3447 13.8595 77.2366 13.9028 77.143 13.9507C77.0526 13.9955 76.967 14.0389 76.8863 14.0807C76.8056 14.1196 76.712 14.139 76.6055 14.139C76.5118 14.139 76.4327 14.1181 76.3682 14.0762C76.3068 14.0314 76.2552 13.9791 76.2132 13.9193L75.9759 13.5247Z" fill="white"/>
</svg>
