<svg width="420" height="260" viewBox="0 0 420 260" fill="none" xmlns="http://www.w3.org/2000/svg">
<path d="M2.5 5C2.5 3.61929 3.61929 2.5 5 2.5H95C96.3807 2.5 97.5 3.61929 97.5 5V69.7591C97.5 70.674 97.0003 71.5158 96.1971 71.9538L51.1971 96.4993C50.4509 96.9063 49.5491 96.9063 48.8029 96.4993L3.80287 71.9538C2.99972 71.5158 2.5 70.674 2.5 69.7591V5Z" fill="white" stroke="#F59429" stroke-width="5" stroke-linejoin="round"/>
<rect width="40" height="40" transform="translate(29 14)" fill="white"/>
<path d="M49 19C42.8037 19 37.75 24.0537 37.75 30.25C37.75 32.6475 38.8047 35.1328 40.25 37.3594C41.3242 39.0146 42.6084 40.5381 44 41.6953V45.25C44 46.6172 45.1328 47.75 46.5 47.75L47.75 49H50.25L51.5 47.75C52.8672 47.75 54 46.6172 54 45.25V41.6953C55.3916 40.5381 56.6758 39.0146 57.75 37.3594C59.1953 35.1328 60.25 32.6475 60.25 30.25C60.25 24.0537 55.1963 19 49 19ZM49 21.5C53.8486 21.5 57.75 25.4014 57.75 30.25C57.75 31.8857 56.9443 34.0439 55.6797 35.9922C54.5518 37.7305 53.0674 39.2783 51.6953 40.25H46.3047C44.9326 39.2783 43.4482 37.7305 42.3203 35.9922C41.0557 34.0439 40.25 31.8857 40.25 30.25C40.25 25.4014 44.1514 21.5 49 21.5ZM46.8125 42.75H51.1875C51.2852 42.8184 51.3877 42.8672 51.5 42.9062V45.25H46.5V42.9062C46.6123 42.8672 46.7148 42.8184 46.8125 42.75Z" fill="#F4922C"/>
<path d="M41.23 61.05V68H39.67V61.05H41.23ZM44.9404 67.15C45.2737 67.15 45.5537 67.0133 45.7804 66.74C46.0137 66.46 46.1304 66.0333 46.1304 65.46C46.1304 64.8933 46.0171 64.4733 45.7904 64.2C45.5637 63.92 45.2804 63.78 44.9404 63.78C44.5937 63.78 44.3104 63.92 44.0904 64.2C43.8704 64.4733 43.7604 64.8933 43.7604 65.46C43.7604 66.0267 43.8704 66.45 44.0904 66.73C44.3104 67.01 44.5937 67.15 44.9404 67.15ZM46.1904 67.09C46.0371 67.39 45.8237 67.6333 45.5504 67.82C45.2771 68.0067 44.9304 68.1 44.5104 68.1C44.2104 68.1 43.9237 68.0467 43.6504 67.94C43.3771 67.8333 43.1371 67.67 42.9304 67.45C42.7304 67.23 42.5704 66.9567 42.4504 66.63C42.3304 66.2967 42.2704 65.9067 42.2704 65.46C42.2704 65.0133 42.3304 64.6267 42.4504 64.3C42.5704 63.9667 42.7304 63.6933 42.9304 63.48C43.1371 63.26 43.3771 63.0967 43.6504 62.99C43.9237 62.8833 44.2137 62.83 44.5204 62.83C44.8804 62.83 45.1937 62.9033 45.4604 63.05C45.7271 63.19 45.9471 63.39 46.1204 63.65V60.75H47.5804V68H46.3004L46.1904 67.09ZM51.0592 63.69C50.7859 63.69 50.5592 63.7967 50.3792 64.01C50.2059 64.2167 50.0926 64.5233 50.0392 64.93H51.9192C51.9326 64.5033 51.8592 64.19 51.6992 63.99C51.5459 63.79 51.3326 63.69 51.0592 63.69ZM53.1892 67.59C53.0359 67.7033 52.8026 67.8167 52.4892 67.93C52.1759 68.0433 51.7926 68.1 51.3392 68.1C50.8792 68.1 50.4759 68.04 50.1292 67.92C49.7826 67.7933 49.4926 67.6167 49.2592 67.39C49.0326 67.1567 48.8592 66.8767 48.7392 66.55C48.6259 66.2233 48.5692 65.86 48.5692 65.46C48.5692 65.0533 48.6292 64.69 48.7492 64.37C48.8692 64.0433 49.0392 63.7667 49.2592 63.54C49.4792 63.3133 49.7392 63.14 50.0392 63.02C50.3459 62.8933 50.6859 62.83 51.0592 62.83C51.4326 62.83 51.7692 62.89 52.0692 63.01C52.3692 63.13 52.6159 63.31 52.8092 63.55C53.0092 63.79 53.1459 64.09 53.2192 64.45C53.2992 64.81 53.2992 65.2267 53.2192 65.7H50.0192C50.0659 66.18 50.2126 66.5367 50.4592 66.77C50.7126 66.9967 51.0592 67.11 51.4992 67.11C51.7792 67.11 52.0359 67.07 52.2692 66.99C52.5092 66.91 52.7226 66.8133 52.9092 66.7L53.1892 67.59ZM56.0984 67.21C56.3384 67.21 56.5284 67.1533 56.6684 67.04C56.8151 66.92 56.9284 66.7733 57.0084 66.6V65.68H56.6084C56.1551 65.68 55.8384 65.75 55.6584 65.89C55.4851 66.03 55.3984 66.2333 55.3984 66.5C55.3984 66.74 55.4618 66.92 55.5884 67.04C55.7151 67.1533 55.8851 67.21 56.0984 67.21ZM57.2084 68C57.1751 67.9133 57.1451 67.8133 57.1184 67.7C57.0984 67.58 57.0818 67.4533 57.0684 67.32C57.0084 67.4133 56.9351 67.5067 56.8484 67.6C56.7618 67.6933 56.6618 67.7767 56.5484 67.85C56.4351 67.9233 56.3018 67.9833 56.1484 68.03C55.9951 68.0767 55.8218 68.1 55.6284 68.1C55.3884 68.1 55.1651 68.07 54.9584 68.01C54.7518 67.95 54.5751 67.86 54.4284 67.74C54.2818 67.6133 54.1651 67.4567 54.0784 67.27C53.9984 67.0833 53.9584 66.8667 53.9584 66.62C53.9584 66.1267 54.1718 65.73 54.5984 65.43C55.0251 65.1233 55.6851 64.97 56.5784 64.97H57.0084V64.69C57.0084 64.39 56.9351 64.1667 56.7884 64.02C56.6418 63.8667 56.3684 63.79 55.9684 63.79C55.6751 63.79 55.4218 63.84 55.2084 63.94C54.9951 64.0333 54.7851 64.1533 54.5784 64.3L54.1584 63.29C54.3718 63.1633 54.6384 63.0567 54.9584 62.97C55.2851 62.8767 55.6918 62.83 56.1784 62.83C56.9118 62.83 57.4751 62.9733 57.8684 63.26C58.2684 63.54 58.4684 64 58.4684 64.64V67.19C58.4684 67.3033 58.4718 67.4467 58.4784 67.62C58.4918 67.7867 58.5084 67.9133 58.5284 68H57.2084Z" fill="black"/>
<path d="M162.5 5C162.5 3.61929 163.619 2.5 165 2.5H255C256.381 2.5 257.5 3.61929 257.5 5V69.7591C257.5 70.674 257 71.5158 256.197 71.9538L211.197 96.4993C210.451 96.9063 209.549 96.9063 208.803 96.4993L163.803 71.9538C163 71.5158 162.5 70.674 162.5 69.7591V5Z" fill="white" stroke="#F55A2E" stroke-width="5" stroke-linejoin="round"/>
<path d="M209 19C200.729 19 194 25.7285 194 34C194 42.2715 200.729 49 209 49C217.271 49 224 42.2715 224 34C224 25.7285 217.271 19 209 19ZM209 21.5C209.42 21.5 209.84 21.5391 210.25 21.5781V25.3672C209.84 25.3086 209.425 25.25 209 25.25C208.575 25.25 208.16 25.3086 207.75 25.3672V21.5781C208.16 21.5391 208.58 21.5 209 21.5ZM205.25 22.0469V26.1094C203.434 26.9785 201.974 28.4336 201.109 30.25H197.086C198.302 26.3438 201.354 23.2676 205.25 22.0469ZM212.75 22.0469C216.642 23.2676 219.732 26.3584 220.953 30.25H216.891C216.026 28.4336 214.566 26.9736 212.75 26.1094V22.0469ZM209 27.75C212.467 27.75 215.25 30.5332 215.25 34C215.25 37.4668 212.467 40.25 209 40.25C205.533 40.25 202.75 37.4668 202.75 34C202.75 30.5332 205.533 27.75 209 27.75ZM196.578 32.75H200.328C200.27 33.1553 200.25 33.5801 200.25 34C200.25 34.4248 200.309 34.8398 200.367 35.25H196.578C196.539 34.8398 196.5 34.4199 196.5 34C196.5 33.5801 196.539 33.1602 196.578 32.75ZM217.633 32.75H221.422C221.461 33.1602 221.5 33.5801 221.5 34C221.5 34.4199 221.461 34.8398 221.422 35.25H217.633C217.691 34.8398 217.75 34.4248 217.75 34C217.75 33.5752 217.691 33.1602 217.633 32.75ZM197.047 37.75H201.109C201.974 39.5664 203.434 41.0264 205.25 41.8906V45.9531C201.358 44.7324 198.268 41.6416 197.047 37.75ZM216.891 37.75H220.953C219.732 41.6416 216.642 44.7324 212.75 45.9531V41.8906C214.566 41.0264 216.026 39.5664 216.891 37.75ZM207.75 42.6328C208.16 42.6914 208.575 42.75 209 42.75C209.425 42.75 209.84 42.6914 210.25 42.6328V46.4219C209.84 46.4609 209.42 46.5 209 46.5C208.58 46.5 208.16 46.4609 207.75 46.4219V42.6328Z" fill="#F55A2E"/>
<path d="M187.24 62V63.97H187.82C188.173 63.97 188.453 63.89 188.66 63.73C188.873 63.5633 188.98 63.2933 188.98 62.92C188.98 62.5667 188.883 62.3267 188.69 62.2C188.497 62.0667 188.21 62 187.83 62H187.24ZM187.24 64.87V67.05H187.93C188.363 67.05 188.7 66.9667 188.94 66.8C189.18 66.6333 189.3 66.3433 189.3 65.93C189.3 65.5433 189.19 65.27 188.97 65.11C188.75 64.95 188.4 64.87 187.92 64.87H187.24ZM185.68 61.05H187.81C188.697 61.05 189.37 61.18 189.83 61.44C190.297 61.7 190.53 62.1433 190.53 62.77C190.53 63.25 190.397 63.6167 190.13 63.87C189.87 64.1167 189.52 64.2867 189.08 64.38C189.667 64.4467 190.113 64.61 190.42 64.87C190.727 65.1233 190.88 65.5 190.88 66C190.88 66.3667 190.803 66.6767 190.65 66.93C190.497 67.1833 190.283 67.39 190.01 67.55C189.743 67.71 189.423 67.8267 189.05 67.9C188.683 67.9667 188.283 68 187.85 68H185.68V61.05ZM194.378 68.1C194.005 68.1 193.655 68.0433 193.328 67.93C193.001 67.81 192.718 67.64 192.478 67.42C192.238 67.1933 192.048 66.9167 191.908 66.59C191.768 66.2633 191.698 65.8867 191.698 65.46C191.698 65.0333 191.768 64.6567 191.908 64.33C192.048 64.0033 192.238 63.73 192.478 63.51C192.718 63.2833 193.001 63.1133 193.328 63C193.655 62.8867 194.005 62.83 194.378 62.83C194.751 62.83 195.101 62.8867 195.428 63C195.761 63.1133 196.048 63.2833 196.288 63.51C196.535 63.73 196.728 64.0033 196.868 64.33C197.008 64.6567 197.078 65.0333 197.078 65.46C197.078 65.8867 197.008 66.2633 196.868 66.59C196.728 66.9167 196.535 67.1933 196.288 67.42C196.048 67.64 195.765 67.81 195.438 67.93C195.111 68.0433 194.758 68.1 194.378 68.1ZM194.378 67.15C194.725 67.15 195.011 67.0233 195.238 66.77C195.471 66.51 195.588 66.0733 195.588 65.46C195.588 64.8533 195.471 64.4233 195.238 64.17C195.011 63.91 194.725 63.78 194.378 63.78C194.205 63.78 194.045 63.81 193.898 63.87C193.758 63.93 193.635 64.0267 193.528 64.16C193.421 64.2933 193.338 64.4667 193.278 64.68C193.218 64.8933 193.188 65.1533 193.188 65.46C193.188 65.7667 193.218 66.0267 193.278 66.24C193.338 66.4533 193.421 66.63 193.528 66.77C193.635 66.9033 193.758 67 193.898 67.06C194.045 67.12 194.205 67.15 194.378 67.15ZM200.501 68.1C200.128 68.1 199.778 68.0433 199.451 67.93C199.125 67.81 198.841 67.64 198.601 67.42C198.361 67.1933 198.171 66.9167 198.031 66.59C197.891 66.2633 197.821 65.8867 197.821 65.46C197.821 65.0333 197.891 64.6567 198.031 64.33C198.171 64.0033 198.361 63.73 198.601 63.51C198.841 63.2833 199.125 63.1133 199.451 63C199.778 62.8867 200.128 62.83 200.501 62.83C200.875 62.83 201.225 62.8867 201.551 63C201.885 63.1133 202.171 63.2833 202.411 63.51C202.658 63.73 202.851 64.0033 202.991 64.33C203.131 64.6567 203.201 65.0333 203.201 65.46C203.201 65.8867 203.131 66.2633 202.991 66.59C202.851 66.9167 202.658 67.1933 202.411 67.42C202.171 67.64 201.888 67.81 201.561 67.93C201.235 68.0433 200.881 68.1 200.501 68.1ZM200.501 67.15C200.848 67.15 201.135 67.0233 201.361 66.77C201.595 66.51 201.711 66.0733 201.711 65.46C201.711 64.8533 201.595 64.4233 201.361 64.17C201.135 63.91 200.848 63.78 200.501 63.78C200.328 63.78 200.168 63.81 200.021 63.87C199.881 63.93 199.758 64.0267 199.651 64.16C199.545 64.2933 199.461 64.4667 199.401 64.68C199.341 64.8933 199.311 65.1533 199.311 65.46C199.311 65.7667 199.341 66.0267 199.401 66.24C199.461 66.4533 199.545 66.63 199.651 66.77C199.758 66.9033 199.881 67 200.021 67.06C200.168 67.12 200.328 67.15 200.501 67.15ZM207.424 67.85C207.311 67.9167 207.161 67.9733 206.974 68.02C206.794 68.0733 206.558 68.1 206.264 68.1C205.624 68.1 205.154 67.9567 204.854 67.67C204.561 67.3767 204.414 66.94 204.414 66.36V63.87H203.814V62.93H204.414V61.87H205.884V62.93H207.304V63.87H205.884V66.33C205.884 66.6033 205.941 66.7967 206.054 66.91C206.174 67.0167 206.341 67.07 206.554 67.07C206.701 67.07 206.831 67.05 206.944 67.01C207.058 66.9633 207.151 66.92 207.224 66.88L207.424 67.85ZM210.706 68.1C210.326 68.1 209.973 68.0433 209.646 67.93C209.319 67.8167 209.036 67.65 208.796 67.43C208.563 67.21 208.376 66.94 208.236 66.62C208.103 66.3 208.036 65.93 208.036 65.51C208.036 65.0967 208.106 64.7233 208.246 64.39C208.386 64.0567 208.579 63.7767 208.826 63.55C209.073 63.3167 209.366 63.14 209.706 63.02C210.053 62.8933 210.426 62.83 210.826 62.83C211.173 62.83 211.456 62.8567 211.676 62.91C211.896 62.9567 212.073 63.0133 212.206 63.08L211.886 64.16C211.726 64.0467 211.569 63.9567 211.416 63.89C211.269 63.8233 211.069 63.79 210.816 63.79C210.643 63.79 210.479 63.8267 210.326 63.9C210.173 63.9667 210.036 64.07 209.916 64.21C209.803 64.3433 209.709 64.5133 209.636 64.72C209.569 64.9267 209.536 65.17 209.536 65.45C209.536 66.0167 209.659 66.44 209.906 66.72C210.159 67 210.506 67.14 210.946 67.14C211.139 67.14 211.326 67.1067 211.506 67.04C211.693 66.9667 211.853 66.8767 211.986 66.77L212.286 67.61C212.159 67.7233 211.963 67.8333 211.696 67.94C211.436 68.0467 211.106 68.1 210.706 68.1ZM215.087 67.21C215.327 67.21 215.517 67.1533 215.657 67.04C215.803 66.92 215.917 66.7733 215.997 66.6V65.68H215.597C215.143 65.68 214.827 65.75 214.647 65.89C214.473 66.03 214.387 66.2333 214.387 66.5C214.387 66.74 214.45 66.92 214.577 67.04C214.703 67.1533 214.873 67.21 215.087 67.21ZM216.197 68C216.163 67.9133 216.133 67.8133 216.107 67.7C216.087 67.58 216.07 67.4533 216.057 67.32C215.997 67.4133 215.923 67.5067 215.837 67.6C215.75 67.6933 215.65 67.7767 215.537 67.85C215.423 67.9233 215.29 67.9833 215.137 68.03C214.983 68.0767 214.81 68.1 214.617 68.1C214.377 68.1 214.153 68.07 213.947 68.01C213.74 67.95 213.563 67.86 213.417 67.74C213.27 67.6133 213.153 67.4567 213.067 67.27C212.987 67.0833 212.947 66.8667 212.947 66.62C212.947 66.1267 213.16 65.73 213.587 65.43C214.013 65.1233 214.673 64.97 215.567 64.97H215.997V64.69C215.997 64.39 215.923 64.1667 215.777 64.02C215.63 63.8667 215.357 63.79 214.957 63.79C214.663 63.79 214.41 63.84 214.197 63.94C213.983 64.0333 213.773 64.1533 213.567 64.3L213.147 63.29C213.36 63.1633 213.627 63.0567 213.947 62.97C214.273 62.8767 214.68 62.83 215.167 62.83C215.9 62.83 216.463 62.9733 216.857 63.26C217.257 63.54 217.457 64 217.457 64.64V67.19C217.457 67.3033 217.46 67.4467 217.467 67.62C217.48 67.7867 217.497 67.9133 217.517 68H216.197ZM220.088 68H218.628V62.93H219.938L220.048 63.66H220.068C220.208 63.4267 220.408 63.23 220.668 63.07C220.934 62.91 221.268 62.83 221.668 62.83C222.048 62.83 222.364 62.91 222.618 63.07C222.878 63.23 223.064 63.4733 223.178 63.8C223.351 63.4733 223.581 63.23 223.868 63.07C224.161 62.91 224.498 62.83 224.878 62.83C225.364 62.83 225.758 62.9667 226.058 63.24C226.358 63.5133 226.508 63.93 226.508 64.49V68H225.038V64.65C225.038 64.3767 224.974 64.18 224.848 64.06C224.721 63.9333 224.551 63.87 224.338 63.87C224.084 63.87 223.874 63.9367 223.708 64.07C223.548 64.2033 223.411 64.3733 223.298 64.58V68H221.838V64.6C221.838 64.32 221.771 64.13 221.638 64.03C221.511 63.9233 221.341 63.87 221.128 63.87C220.868 63.87 220.658 63.9367 220.498 64.07C220.338 64.1967 220.201 64.3667 220.088 64.58V68ZM230.311 67.15C230.651 67.15 230.927 67.0167 231.141 66.75C231.361 66.4767 231.471 66.0467 231.471 65.46C231.471 64.8867 231.361 64.4633 231.141 64.19C230.921 63.9167 230.644 63.78 230.311 63.78C229.971 63.78 229.684 63.9167 229.451 64.19C229.224 64.4567 229.111 64.88 229.111 65.46C229.111 65.7533 229.141 66.0067 229.201 66.22C229.261 66.4333 229.344 66.61 229.451 66.75C229.564 66.8833 229.691 66.9833 229.831 67.05C229.977 67.1167 230.137 67.15 230.311 67.15ZM230.731 68.1C230.357 68.1 230.037 68.0233 229.771 67.87C229.511 67.71 229.294 67.4933 229.121 67.22V69.81H227.661V62.93H228.971L229.081 63.77C229.247 63.4767 229.467 63.2467 229.741 63.08C230.021 62.9133 230.357 62.83 230.751 62.83C231.044 62.83 231.324 62.8833 231.591 62.99C231.857 63.0967 232.091 63.26 232.291 63.48C232.497 63.6933 232.661 63.9667 232.781 64.3C232.901 64.6267 232.961 65.0133 232.961 65.46C232.961 65.9067 232.901 66.2967 232.781 66.63C232.661 66.9567 232.497 67.23 232.291 67.45C232.084 67.67 231.847 67.8333 231.581 67.94C231.314 68.0467 231.031 68.1 230.731 68.1Z" fill="black"/>
<path d="M322.5 5C322.5 3.61929 323.619 2.5 325 2.5H415C416.381 2.5 417.5 3.61929 417.5 5V69.7591C417.5 70.674 417 71.5158 416.197 71.9538L371.197 96.4993C370.451 96.9063 369.549 96.9063 368.803 96.4993L323.803 71.9538C323 71.5158 322.5 70.674 322.5 69.7591V5Z" fill="white" stroke="#079549" stroke-width="5" stroke-linejoin="round"/>
<path d="M363.375 21.5C360.973 21.5 359 23.4727 359 25.875C359 28.2773 360.973 30.25 363.375 30.25C365.777 30.25 367.75 28.2773 367.75 25.875C367.75 23.4727 365.777 21.5 363.375 21.5ZM374.625 21.5C372.223 21.5 370.25 23.4727 370.25 25.875C370.25 28.2773 372.223 30.25 374.625 30.25C377.027 30.25 379 28.2773 379 25.875C379 23.4727 377.027 21.5 374.625 21.5ZM363.375 24C364.425 24 365.25 24.8252 365.25 25.875C365.25 26.9248 364.425 27.75 363.375 27.75C362.325 27.75 361.5 26.9248 361.5 25.875C361.5 24.8252 362.325 24 363.375 24ZM374.625 24C375.675 24 376.5 24.8252 376.5 25.875C376.5 26.9248 375.675 27.75 374.625 27.75C373.575 27.75 372.75 26.9248 372.75 25.875C372.75 24.8252 373.575 24 374.625 24ZM357.75 29C355.001 29 352.75 31.251 352.75 34C352.75 35.3916 353.346 36.6465 354.273 37.5547C352.608 38.6826 351.5 40.6016 351.5 42.75H354C354 40.665 355.665 39 357.75 39C359.835 39 361.5 40.665 361.5 42.75H364C364 40.6016 362.892 38.6826 361.227 37.5547C362.154 36.6465 362.75 35.3916 362.75 34C362.75 31.251 360.499 29 357.75 29ZM364 42.75C363.219 43.7949 362.75 45.1084 362.75 46.5H365.25C365.25 44.415 366.915 42.75 369 42.75C371.085 42.75 372.75 44.415 372.75 46.5H375.25C375.25 45.1084 374.781 43.7949 374 42.75C373.575 42.1836 373.062 41.7002 372.477 41.3047C373.404 40.3965 374 39.1416 374 37.75C374 35.001 371.749 32.75 369 32.75C366.251 32.75 364 35.001 364 37.75C364 39.1416 364.596 40.3965 365.523 41.3047C364.938 41.7002 364.425 42.1836 364 42.75ZM374 42.75H376.5C376.5 40.665 378.165 39 380.25 39C382.335 39 384 40.665 384 42.75H386.5C386.5 40.6016 385.392 38.6826 383.727 37.5547C384.654 36.6465 385.25 35.3916 385.25 34C385.25 31.251 382.999 29 380.25 29C377.501 29 375.25 31.251 375.25 34C375.25 35.3916 375.846 36.6465 376.773 37.5547C375.108 38.6826 374 40.6016 374 42.75ZM357.75 31.5C359.146 31.5 360.25 32.6035 360.25 34C360.25 35.3965 359.146 36.5 357.75 36.5C356.354 36.5 355.25 35.3965 355.25 34C355.25 32.6035 356.354 31.5 357.75 31.5ZM380.25 31.5C381.646 31.5 382.75 32.6035 382.75 34C382.75 35.3965 381.646 36.5 380.25 36.5C378.854 36.5 377.75 35.3965 377.75 34C377.75 32.6035 378.854 31.5 380.25 31.5ZM369 35.25C370.396 35.25 371.5 36.3535 371.5 37.75C371.5 39.1465 370.396 40.25 369 40.25C367.604 40.25 366.5 39.1465 366.5 37.75C366.5 36.3535 367.604 35.25 369 35.25Z" fill="#079549"/>
<path d="M340.97 68.1C340.443 68.1 339.96 68.02 339.52 67.86C339.087 67.6933 338.713 67.46 338.4 67.16C338.087 66.8533 337.843 66.48 337.67 66.04C337.497 65.5933 337.41 65.09 337.41 64.53C337.41 63.97 337.493 63.47 337.66 63.03C337.833 62.5833 338.073 62.21 338.38 61.91C338.687 61.6033 339.057 61.37 339.49 61.21C339.923 61.0433 340.407 60.96 340.94 60.96C341.38 60.96 341.763 61 342.09 61.08C342.417 61.16 342.667 61.26 342.84 61.38L342.67 62.56C342.47 62.42 342.233 62.2967 341.96 62.19C341.693 62.0833 341.393 62.03 341.06 62.03C340.393 62.03 339.887 62.2433 339.54 62.67C339.193 63.0967 339.02 63.7167 339.02 64.53C339.02 66.1967 339.717 67.03 341.11 67.03C341.417 67.03 341.69 66.9933 341.93 66.92C342.17 66.84 342.393 66.7267 342.6 66.58L342.93 67.6C342.75 67.7267 342.497 67.8433 342.17 67.95C341.843 68.05 341.443 68.1 340.97 68.1ZM347.198 67.27C347.065 67.5033 346.865 67.7 346.598 67.86C346.331 68.02 345.988 68.1 345.568 68.1C345.075 68.1 344.671 67.9567 344.358 67.67C344.045 67.3833 343.888 66.95 343.888 66.37V62.93H345.358V66.33C345.358 66.6167 345.428 66.81 345.568 66.91C345.715 67.0033 345.888 67.05 346.088 67.05C346.355 67.05 346.578 66.9867 346.758 66.86C346.938 66.7333 347.085 66.5633 347.198 66.35V62.93H348.658V68H347.348L347.228 67.27H347.198ZM351.596 68.1C351.116 68.1 350.716 68.0533 350.396 67.96C350.076 67.86 349.826 67.74 349.646 67.6L349.876 66.65C350.049 66.79 350.282 66.91 350.576 67.01C350.869 67.11 351.206 67.16 351.586 67.16C352.219 67.16 352.536 66.9667 352.536 66.58C352.536 66.4533 352.502 66.3567 352.436 66.29C352.376 66.2167 352.289 66.16 352.176 66.12C352.069 66.0733 351.942 66.04 351.796 66.02C351.656 66 351.506 65.9767 351.346 65.95C351.146 65.9167 350.949 65.8733 350.756 65.82C350.562 65.76 350.389 65.6767 350.236 65.57C350.082 65.4633 349.956 65.3233 349.856 65.15C349.762 64.97 349.716 64.74 349.716 64.46C349.716 63.92 349.899 63.5133 350.266 63.24C350.639 62.9667 351.182 62.83 351.896 62.83C352.322 62.83 352.669 62.8733 352.936 62.96C353.209 63.04 353.409 63.1167 353.536 63.19L353.266 64.11C353.152 64.03 352.976 63.95 352.736 63.87C352.496 63.7833 352.226 63.74 351.926 63.74C351.646 63.74 351.416 63.78 351.236 63.86C351.056 63.94 350.966 64.0767 350.966 64.27C350.966 64.3833 350.992 64.4733 351.046 64.54C351.106 64.6 351.182 64.65 351.276 64.69C351.376 64.7233 351.486 64.75 351.606 64.77C351.732 64.7833 351.866 64.8 352.006 64.82C352.212 64.8533 352.426 64.8967 352.646 64.95C352.866 65.0033 353.066 65.0867 353.246 65.2C353.432 65.3133 353.582 65.4667 353.696 65.66C353.816 65.8533 353.876 66.1067 353.876 66.42C353.876 66.7467 353.812 67.0167 353.686 67.23C353.559 67.4433 353.389 67.6167 353.176 67.75C352.969 67.8767 352.726 67.9667 352.446 68.02C352.172 68.0733 351.889 68.1 351.596 68.1ZM357.989 67.85C357.875 67.9167 357.725 67.9733 357.539 68.02C357.359 68.0733 357.122 68.1 356.829 68.1C356.189 68.1 355.719 67.9567 355.419 67.67C355.125 67.3767 354.979 66.94 354.979 66.36V63.87H354.379V62.93H354.979V61.87H356.449V62.93H357.869V63.87H356.449V66.33C356.449 66.6033 356.505 66.7967 356.619 66.91C356.739 67.0167 356.905 67.07 357.119 67.07C357.265 67.07 357.395 67.05 357.509 67.01C357.622 66.9633 357.715 66.92 357.789 66.88L357.989 67.85ZM361.28 68.1C360.907 68.1 360.557 68.0433 360.23 67.93C359.904 67.81 359.62 67.64 359.38 67.42C359.14 67.1933 358.95 66.9167 358.81 66.59C358.67 66.2633 358.6 65.8867 358.6 65.46C358.6 65.0333 358.67 64.6567 358.81 64.33C358.95 64.0033 359.14 63.73 359.38 63.51C359.62 63.2833 359.904 63.1133 360.23 63C360.557 62.8867 360.907 62.83 361.28 62.83C361.654 62.83 362.004 62.8867 362.33 63C362.664 63.1133 362.95 63.2833 363.19 63.51C363.437 63.73 363.63 64.0033 363.77 64.33C363.91 64.6567 363.98 65.0333 363.98 65.46C363.98 65.8867 363.91 66.2633 363.77 66.59C363.63 66.9167 363.437 67.1933 363.19 67.42C362.95 67.64 362.667 67.81 362.34 67.93C362.014 68.0433 361.66 68.1 361.28 68.1ZM361.28 67.15C361.627 67.15 361.914 67.0233 362.14 66.77C362.374 66.51 362.49 66.0733 362.49 65.46C362.49 64.8533 362.374 64.4233 362.14 64.17C361.914 63.91 361.627 63.78 361.28 63.78C361.107 63.78 360.947 63.81 360.8 63.87C360.66 63.93 360.537 64.0267 360.43 64.16C360.324 64.2933 360.24 64.4667 360.18 64.68C360.12 64.8933 360.09 65.1533 360.09 65.46C360.09 65.7667 360.12 66.0267 360.18 66.24C360.24 66.4533 360.324 66.63 360.43 66.77C360.537 66.9033 360.66 67 360.8 67.06C360.947 67.12 361.107 67.15 361.28 67.15ZM366.424 68H364.964V62.93H366.274L366.384 63.66H366.404C366.544 63.4267 366.744 63.23 367.004 63.07C367.27 62.91 367.604 62.83 368.004 62.83C368.384 62.83 368.7 62.91 368.954 63.07C369.214 63.23 369.4 63.4733 369.514 63.8C369.687 63.4733 369.917 63.23 370.204 63.07C370.497 62.91 370.834 62.83 371.214 62.83C371.7 62.83 372.094 62.9667 372.394 63.24C372.694 63.5133 372.844 63.93 372.844 64.49V68H371.374V64.65C371.374 64.3767 371.31 64.18 371.184 64.06C371.057 63.9333 370.887 63.87 370.674 63.87C370.42 63.87 370.21 63.9367 370.044 64.07C369.884 64.2033 369.747 64.3733 369.634 64.58V68H368.174V64.6C368.174 64.32 368.107 64.13 367.974 64.03C367.847 63.9233 367.677 63.87 367.464 63.87C367.204 63.87 366.994 63.9367 366.834 64.07C366.674 64.1967 366.537 64.3667 366.424 64.58V68ZM376.247 63.69C375.973 63.69 375.747 63.7967 375.567 64.01C375.393 64.2167 375.28 64.5233 375.227 64.93H377.107C377.12 64.5033 377.047 64.19 376.887 63.99C376.733 63.79 376.52 63.69 376.247 63.69ZM378.377 67.59C378.223 67.7033 377.99 67.8167 377.677 67.93C377.363 68.0433 376.98 68.1 376.527 68.1C376.067 68.1 375.663 68.04 375.317 67.92C374.97 67.7933 374.68 67.6167 374.447 67.39C374.22 67.1567 374.047 66.8767 373.927 66.55C373.813 66.2233 373.757 65.86 373.757 65.46C373.757 65.0533 373.817 64.69 373.937 64.37C374.057 64.0433 374.227 63.7667 374.447 63.54C374.667 63.3133 374.927 63.14 375.227 63.02C375.533 62.8933 375.873 62.83 376.247 62.83C376.62 62.83 376.957 62.89 377.257 63.01C377.557 63.13 377.803 63.31 377.997 63.55C378.197 63.79 378.333 64.09 378.407 64.45C378.487 64.81 378.487 65.2267 378.407 65.7H375.207C375.253 66.18 375.4 66.5367 375.647 66.77C375.9 66.9967 376.247 67.11 376.687 67.11C376.967 67.11 377.223 67.07 377.457 66.99C377.697 66.91 377.91 66.8133 378.097 66.7L378.377 67.59ZM382.616 64.25C382.469 64.23 382.313 64.2267 382.146 64.24C381.986 64.2533 381.826 64.2867 381.666 64.34C381.513 64.3867 381.369 64.4533 381.236 64.54C381.103 64.6267 380.993 64.7333 380.906 64.86V68H379.446V62.93H380.756L380.866 63.97H380.896C381.083 63.61 381.319 63.3367 381.606 63.15C381.899 62.9633 382.236 62.8567 382.616 62.83V64.25ZM388.145 67.15C388.479 67.15 388.759 67.0133 388.985 66.74C389.219 66.46 389.335 66.0333 389.335 65.46C389.335 64.8933 389.222 64.4733 388.995 64.2C388.769 63.92 388.485 63.78 388.145 63.78C387.799 63.78 387.515 63.92 387.295 64.2C387.075 64.4733 386.965 64.8933 386.965 65.46C386.965 66.0267 387.075 66.45 387.295 66.73C387.515 67.01 387.799 67.15 388.145 67.15ZM389.395 67.09C389.242 67.39 389.029 67.6333 388.755 67.82C388.482 68.0067 388.135 68.1 387.715 68.1C387.415 68.1 387.129 68.0467 386.855 67.94C386.582 67.8333 386.342 67.67 386.135 67.45C385.935 67.23 385.775 66.9567 385.655 66.63C385.535 66.2967 385.475 65.9067 385.475 65.46C385.475 65.0133 385.535 64.6267 385.655 64.3C385.775 63.9667 385.935 63.6933 386.135 63.48C386.342 63.26 386.582 63.0967 386.855 62.99C387.129 62.8833 387.419 62.83 387.725 62.83C388.085 62.83 388.399 62.9033 388.665 63.05C388.932 63.19 389.152 63.39 389.325 63.65V60.75H390.785V68H389.505L389.395 67.09ZM394.264 63.69C393.991 63.69 393.764 63.7967 393.584 64.01C393.411 64.2167 393.298 64.5233 393.244 64.93H395.124C395.138 64.5033 395.064 64.19 394.904 63.99C394.751 63.79 394.538 63.69 394.264 63.69ZM396.394 67.59C396.241 67.7033 396.008 67.8167 395.694 67.93C395.381 68.0433 394.998 68.1 394.544 68.1C394.084 68.1 393.681 68.04 393.334 67.92C392.988 67.7933 392.698 67.6167 392.464 67.39C392.238 67.1567 392.064 66.8767 391.944 66.55C391.831 66.2233 391.774 65.86 391.774 65.46C391.774 65.0533 391.834 64.69 391.954 64.37C392.074 64.0433 392.244 63.7667 392.464 63.54C392.684 63.3133 392.944 63.14 393.244 63.02C393.551 62.8933 393.891 62.83 394.264 62.83C394.638 62.83 394.974 62.89 395.274 63.01C395.574 63.13 395.821 63.31 396.014 63.55C396.214 63.79 396.351 64.09 396.424 64.45C396.504 64.81 396.504 65.2267 396.424 65.7H393.224C393.271 66.18 393.418 66.5367 393.664 66.77C393.918 66.9967 394.264 67.11 394.704 67.11C394.984 67.11 395.241 67.07 395.474 66.99C395.714 66.91 395.928 66.8133 396.114 66.7L396.394 67.59ZM396.896 62.93H398.366L399.566 66.83L400.776 62.93H401.996L400.296 68H398.586L396.896 62.93Z" fill="black"/>
<path d="M2.5 165C2.5 163.619 3.61929 162.5 5 162.5H95C96.3807 162.5 97.5 163.619 97.5 165V229.759C97.5 230.674 97.0003 231.516 96.1971 231.954L51.1971 256.499C50.4509 256.906 49.5491 256.906 48.8029 256.499L3.80287 231.954C2.99972 231.516 2.5 230.674 2.5 229.759V165Z" fill="white" stroke="#0675BA" stroke-width="5" stroke-linejoin="round"/>
<path d="M47.75 177.75V180.328C41.168 180.924 35.9238 186.168 35.3281 192.75H32.75V195.25H35.3281C35.9238 201.832 41.168 207.076 47.75 207.672V210.25H50.25V207.672C56.832 207.076 62.0762 201.832 62.6719 195.25H65.25V192.75H62.6719C62.0762 186.168 56.832 180.924 50.25 180.328V177.75H47.75ZM47.75 182.789V185.25H50.25V182.789C55.4893 183.355 59.6445 187.511 60.2109 192.75H57.75V195.25H60.2109C59.6445 200.489 55.4893 204.645 50.25 205.211V202.75H47.75V205.211C42.5107 204.645 38.3555 200.489 37.7891 195.25H40.25V192.75H37.7891C38.3555 187.511 42.5107 183.355 47.75 182.789Z" fill="#0675BA"/>
<path d="M40.99 222.66L40.71 228H39.54L39.91 221.05H41.85L43.21 225.29L44.64 221.05H46.58L46.95 228H45.39L45.11 222.69L43.6 227.1H42.44L40.99 222.66ZM47.6163 221.05H49.2063L50.8963 226.57L52.6663 221.05H53.8763L51.6463 228H49.8363L47.6163 221.05ZM56.2398 222.04V224.62H56.9198C57.3398 224.62 57.6698 224.513 57.9098 224.3C58.1498 224.087 58.2698 223.743 58.2698 223.27C58.2698 222.823 58.1564 222.507 57.9298 222.32C57.7098 222.133 57.3864 222.04 56.9598 222.04H56.2398ZM56.2398 225.61V228H54.6798V221.05H56.9198C57.8398 221.05 58.5531 221.227 59.0598 221.58C59.5664 221.933 59.8198 222.487 59.8198 223.24C59.8198 223.653 59.7498 224.01 59.6098 224.31C59.4764 224.603 59.2831 224.847 59.0298 225.04C58.7764 225.233 58.4698 225.377 58.1098 225.47C57.7498 225.563 57.3498 225.61 56.9098 225.61H56.2398Z" fill="black"/>
<path d="M162.5 165C162.5 163.619 163.619 162.5 165 162.5H255C256.381 162.5 257.5 163.619 257.5 165V229.759C257.5 230.674 257 231.516 256.197 231.954L211.197 256.499C210.451 256.906 209.549 256.906 208.803 256.499L163.803 231.954C163 231.516 162.5 230.674 162.5 229.759V165Z" fill="white" stroke="#8467AA" stroke-width="5" stroke-linejoin="round"/>
<path d="M205.875 179C202.784 179 200.25 181.534 200.25 184.625C200.25 185.626 200.533 186.554 200.992 187.359C198.741 188.678 196.979 190.548 196.031 192.75H195.875C195.519 192.75 195.25 192.481 195.25 192.125C195.25 191.905 195.362 191.729 195.523 191.617L194.078 189.586C193.272 190.152 192.75 191.075 192.75 192.125C192.75 193.663 193.897 194.923 195.367 195.172C195.304 195.611 195.25 196.046 195.25 196.5C195.25 199.615 196.905 202.315 199.312 204.312C199.01 205.562 199.161 206.896 200.133 207.867C201.612 209.347 204.044 209.347 205.523 207.867L205.992 207.398C206.969 207.579 207.95 207.75 209 207.75C210.05 207.75 211.031 207.579 212.008 207.398L212.477 207.867C213.956 209.347 216.388 209.347 217.867 207.867C218.819 206.915 218.961 205.621 218.688 204.391C219.708 203.556 220.558 202.589 221.227 201.5H224V191.5H221.148C220.699 190.772 220.162 190.084 219.547 189.469L220.25 185.602V184H219C219 184 215.997 184.049 213.453 185.953C212.789 185.763 212.12 185.606 211.422 185.484C211.471 185.206 211.5 184.918 211.5 184.625C211.5 181.534 208.966 179 205.875 179ZM205.875 181.5C207.613 181.5 209 182.887 209 184.625C209 184.84 208.961 185.045 208.922 185.25C206.905 185.26 205.001 185.65 203.258 186.305C202.936 185.816 202.75 185.245 202.75 184.625C202.75 182.887 204.137 181.5 205.875 181.5ZM217.438 186.734C217.457 186.729 217.457 186.739 217.477 186.734L217.008 189.586L216.891 190.25L217.438 190.719C218.312 191.49 218.99 192.354 219.469 193.297L219.82 194H221.5V199H219.82L219.469 199.703C218.858 200.909 217.896 201.969 216.656 202.867L215.758 203.531L216.305 204.547C216.603 205.05 216.549 205.67 216.109 206.109C215.587 206.632 214.796 206.632 214.273 206.109L213.375 205.211L212.867 204.742L212.203 204.898C211.188 205.133 210.108 205.25 209 205.25C207.892 205.25 206.817 205.133 205.797 204.898L205.133 204.742L204.625 205.211L203.727 206.109C203.204 206.632 202.413 206.632 201.891 206.109C201.451 205.67 201.397 205.05 201.695 204.547L202.242 203.531L201.344 202.867C199.083 201.227 197.75 198.985 197.75 196.5C197.75 191.822 202.638 187.75 209 187.75C210.538 187.75 212.003 187.979 213.336 188.414L214 188.648L214.547 188.18C215.44 187.384 216.544 186.954 217.438 186.734ZM216.5 194C215.812 194 215.25 194.562 215.25 195.25C215.25 195.938 215.812 196.5 216.5 196.5C217.188 196.5 217.75 195.938 217.75 195.25C217.75 194.562 217.188 194 216.5 194Z" fill="#8467AA"/>
<path d="M182.23 222.04V224.39H182.99C183.397 224.39 183.717 224.297 183.95 224.11C184.183 223.923 184.3 223.613 184.3 223.18C184.3 222.76 184.19 222.467 183.97 222.3C183.757 222.127 183.443 222.04 183.03 222.04H182.23ZM182.97 225.38H182.23V228H180.67V221.05H182.98C183.94 221.05 184.663 221.223 185.15 221.57C185.637 221.917 185.88 222.457 185.88 223.19C185.88 223.737 185.757 224.17 185.51 224.49C185.263 224.803 184.92 225.033 184.48 225.18L186.2 228H184.56L182.97 225.38ZM188.827 227.21C189.067 227.21 189.257 227.153 189.397 227.04C189.544 226.92 189.657 226.773 189.737 226.6V225.68H189.337C188.884 225.68 188.567 225.75 188.387 225.89C188.214 226.03 188.127 226.233 188.127 226.5C188.127 226.74 188.19 226.92 188.317 227.04C188.444 227.153 188.614 227.21 188.827 227.21ZM189.937 228C189.904 227.913 189.874 227.813 189.847 227.7C189.827 227.58 189.81 227.453 189.797 227.32C189.737 227.413 189.664 227.507 189.577 227.6C189.49 227.693 189.39 227.777 189.277 227.85C189.164 227.923 189.03 227.983 188.877 228.03C188.724 228.077 188.55 228.1 188.357 228.1C188.117 228.1 187.894 228.07 187.687 228.01C187.48 227.95 187.304 227.86 187.157 227.74C187.01 227.613 186.894 227.457 186.807 227.27C186.727 227.083 186.687 226.867 186.687 226.62C186.687 226.127 186.9 225.73 187.327 225.43C187.754 225.123 188.414 224.97 189.307 224.97H189.737V224.69C189.737 224.39 189.664 224.167 189.517 224.02C189.37 223.867 189.097 223.79 188.697 223.79C188.404 223.79 188.15 223.84 187.937 223.94C187.724 224.033 187.514 224.153 187.307 224.3L186.887 223.29C187.1 223.163 187.367 223.057 187.687 222.97C188.014 222.877 188.42 222.83 188.907 222.83C189.64 222.83 190.204 222.973 190.597 223.26C190.997 223.54 191.197 224 191.197 224.64V227.19C191.197 227.303 191.2 227.447 191.207 227.62C191.22 227.787 191.237 227.913 191.257 228H189.937ZM193.098 222.35C192.858 222.35 192.654 222.28 192.488 222.14C192.328 222 192.248 221.813 192.248 221.58C192.248 221.347 192.328 221.16 192.488 221.02C192.654 220.873 192.858 220.8 193.098 220.8C193.331 220.8 193.531 220.873 193.698 221.02C193.864 221.16 193.948 221.347 193.948 221.58C193.948 221.813 193.864 222 193.698 222.14C193.531 222.28 193.331 222.35 193.098 222.35ZM193.828 222.93V228H192.368V222.93H193.828ZM196.764 228.1C196.284 228.1 195.884 228.053 195.564 227.96C195.244 227.86 194.994 227.74 194.814 227.6L195.044 226.65C195.217 226.79 195.45 226.91 195.744 227.01C196.037 227.11 196.374 227.16 196.754 227.16C197.387 227.16 197.704 226.967 197.704 226.58C197.704 226.453 197.67 226.357 197.604 226.29C197.544 226.217 197.457 226.16 197.344 226.12C197.237 226.073 197.11 226.04 196.964 226.02C196.824 226 196.674 225.977 196.514 225.95C196.314 225.917 196.117 225.873 195.924 225.82C195.73 225.76 195.557 225.677 195.404 225.57C195.25 225.463 195.124 225.323 195.024 225.15C194.93 224.97 194.884 224.74 194.884 224.46C194.884 223.92 195.067 223.513 195.434 223.24C195.807 222.967 196.35 222.83 197.064 222.83C197.49 222.83 197.837 222.873 198.104 222.96C198.377 223.04 198.577 223.117 198.704 223.19L198.434 224.11C198.32 224.03 198.144 223.95 197.904 223.87C197.664 223.783 197.394 223.74 197.094 223.74C196.814 223.74 196.584 223.78 196.404 223.86C196.224 223.94 196.134 224.077 196.134 224.27C196.134 224.383 196.16 224.473 196.214 224.54C196.274 224.6 196.35 224.65 196.444 224.69C196.544 224.723 196.654 224.75 196.774 224.77C196.9 224.783 197.034 224.8 197.174 224.82C197.38 224.853 197.594 224.897 197.814 224.95C198.034 225.003 198.234 225.087 198.414 225.2C198.6 225.313 198.75 225.467 198.864 225.66C198.984 225.853 199.044 226.107 199.044 226.42C199.044 226.747 198.98 227.017 198.854 227.23C198.727 227.443 198.557 227.617 198.344 227.75C198.137 227.877 197.894 227.967 197.614 228.02C197.34 228.073 197.057 228.1 196.764 228.1ZM202.215 223.69C201.942 223.69 201.715 223.797 201.535 224.01C201.362 224.217 201.249 224.523 201.195 224.93H203.075C203.089 224.503 203.015 224.19 202.855 223.99C202.702 223.79 202.489 223.69 202.215 223.69ZM204.345 227.59C204.192 227.703 203.959 227.817 203.645 227.93C203.332 228.043 202.949 228.1 202.495 228.1C202.035 228.1 201.632 228.04 201.285 227.92C200.939 227.793 200.649 227.617 200.415 227.39C200.189 227.157 200.015 226.877 199.895 226.55C199.782 226.223 199.725 225.86 199.725 225.46C199.725 225.053 199.785 224.69 199.905 224.37C200.025 224.043 200.195 223.767 200.415 223.54C200.635 223.313 200.895 223.14 201.195 223.02C201.502 222.893 201.842 222.83 202.215 222.83C202.589 222.83 202.925 222.89 203.225 223.01C203.525 223.13 203.772 223.31 203.965 223.55C204.165 223.79 204.302 224.09 204.375 224.45C204.455 224.81 204.455 225.227 204.375 225.7H201.175C201.222 226.18 201.369 226.537 201.615 226.77C201.869 226.997 202.215 227.11 202.655 227.11C202.935 227.11 203.192 227.07 203.425 226.99C203.665 226.91 203.879 226.813 204.065 226.7L204.345 227.59ZM210.933 228.1C210.406 228.1 209.923 228.02 209.483 227.86C209.05 227.693 208.676 227.46 208.363 227.16C208.05 226.853 207.806 226.48 207.633 226.04C207.46 225.593 207.373 225.09 207.373 224.53C207.373 223.97 207.456 223.47 207.623 223.03C207.796 222.583 208.036 222.21 208.343 221.91C208.65 221.603 209.02 221.37 209.453 221.21C209.886 221.043 210.37 220.96 210.903 220.96C211.343 220.96 211.726 221 212.053 221.08C212.38 221.16 212.63 221.26 212.803 221.38L212.633 222.56C212.433 222.42 212.196 222.297 211.923 222.19C211.656 222.083 211.356 222.03 211.023 222.03C210.356 222.03 209.85 222.243 209.503 222.67C209.156 223.097 208.983 223.717 208.983 224.53C208.983 226.197 209.68 227.03 211.073 227.03C211.38 227.03 211.653 226.993 211.893 226.92C212.133 226.84 212.356 226.727 212.563 226.58L212.893 227.6C212.713 227.727 212.46 227.843 212.133 227.95C211.806 228.05 211.406 228.1 210.933 228.1ZM215.741 227.21C215.981 227.21 216.171 227.153 216.311 227.04C216.458 226.92 216.571 226.773 216.651 226.6V225.68H216.251C215.798 225.68 215.481 225.75 215.301 225.89C215.128 226.03 215.041 226.233 215.041 226.5C215.041 226.74 215.104 226.92 215.231 227.04C215.358 227.153 215.528 227.21 215.741 227.21ZM216.851 228C216.818 227.913 216.788 227.813 216.761 227.7C216.741 227.58 216.724 227.453 216.711 227.32C216.651 227.413 216.578 227.507 216.491 227.6C216.404 227.693 216.304 227.777 216.191 227.85C216.078 227.923 215.944 227.983 215.791 228.03C215.638 228.077 215.464 228.1 215.271 228.1C215.031 228.1 214.808 228.07 214.601 228.01C214.394 227.95 214.218 227.86 214.071 227.74C213.924 227.613 213.808 227.457 213.721 227.27C213.641 227.083 213.601 226.867 213.601 226.62C213.601 226.127 213.814 225.73 214.241 225.43C214.668 225.123 215.328 224.97 216.221 224.97H216.651V224.69C216.651 224.39 216.578 224.167 216.431 224.02C216.284 223.867 216.011 223.79 215.611 223.79C215.318 223.79 215.064 223.84 214.851 223.94C214.638 224.033 214.428 224.153 214.221 224.3L213.801 223.29C214.014 223.163 214.281 223.057 214.601 222.97C214.928 222.877 215.334 222.83 215.821 222.83C216.554 222.83 217.118 222.973 217.511 223.26C217.911 223.54 218.111 224 218.111 224.64V227.19C218.111 227.303 218.114 227.447 218.121 227.62C218.134 227.787 218.151 227.913 218.171 228H216.851ZM221.932 227.15C222.272 227.15 222.549 227.017 222.762 226.75C222.982 226.477 223.092 226.047 223.092 225.46C223.092 224.887 222.982 224.463 222.762 224.19C222.542 223.917 222.265 223.78 221.932 223.78C221.592 223.78 221.305 223.917 221.072 224.19C220.845 224.457 220.732 224.88 220.732 225.46C220.732 225.753 220.762 226.007 220.822 226.22C220.882 226.433 220.965 226.61 221.072 226.75C221.185 226.883 221.312 226.983 221.452 227.05C221.599 227.117 221.759 227.15 221.932 227.15ZM222.352 228.1C221.979 228.1 221.659 228.023 221.392 227.87C221.132 227.71 220.915 227.493 220.742 227.22V229.81H219.282V222.93H220.592L220.702 223.77C220.869 223.477 221.089 223.247 221.362 223.08C221.642 222.913 221.979 222.83 222.372 222.83C222.665 222.83 222.945 222.883 223.212 222.99C223.479 223.097 223.712 223.26 223.912 223.48C224.119 223.693 224.282 223.967 224.402 224.3C224.522 224.627 224.582 225.013 224.582 225.46C224.582 225.907 224.522 226.297 224.402 226.63C224.282 226.957 224.119 227.23 223.912 227.45C223.705 227.67 223.469 227.833 223.202 227.94C222.935 228.047 222.652 228.1 222.352 228.1ZM226.291 222.35C226.051 222.35 225.848 222.28 225.681 222.14C225.521 222 225.441 221.813 225.441 221.58C225.441 221.347 225.521 221.16 225.681 221.02C225.848 220.873 226.051 220.8 226.291 220.8C226.525 220.8 226.725 220.873 226.891 221.02C227.058 221.16 227.141 221.347 227.141 221.58C227.141 221.813 227.058 222 226.891 222.14C226.725 222.28 226.525 222.35 226.291 222.35ZM227.021 222.93V228H225.561V222.93H227.021ZM231.477 227.85C231.364 227.917 231.214 227.973 231.027 228.02C230.847 228.073 230.61 228.1 230.317 228.1C229.677 228.1 229.207 227.957 228.907 227.67C228.614 227.377 228.467 226.94 228.467 226.36V223.87H227.867V222.93H228.467V221.87H229.937V222.93H231.357V223.87H229.937V226.33C229.937 226.603 229.994 226.797 230.107 226.91C230.227 227.017 230.394 227.07 230.607 227.07C230.754 227.07 230.884 227.05 230.997 227.01C231.11 226.963 231.204 226.92 231.277 226.88L231.477 227.85ZM234.218 227.21C234.458 227.21 234.648 227.153 234.788 227.04C234.934 226.92 235.048 226.773 235.128 226.6V225.68H234.728C234.274 225.68 233.958 225.75 233.778 225.89C233.604 226.03 233.518 226.233 233.518 226.5C233.518 226.74 233.581 226.92 233.708 227.04C233.834 227.153 234.004 227.21 234.218 227.21ZM235.328 228C235.294 227.913 235.264 227.813 235.238 227.7C235.218 227.58 235.201 227.453 235.188 227.32C235.128 227.413 235.054 227.507 234.968 227.6C234.881 227.693 234.781 227.777 234.668 227.85C234.554 227.923 234.421 227.983 234.268 228.03C234.114 228.077 233.941 228.1 233.748 228.1C233.508 228.1 233.284 228.07 233.078 228.01C232.871 227.95 232.694 227.86 232.548 227.74C232.401 227.613 232.284 227.457 232.198 227.27C232.118 227.083 232.078 226.867 232.078 226.62C232.078 226.127 232.291 225.73 232.718 225.43C233.144 225.123 233.804 224.97 234.698 224.97H235.128V224.69C235.128 224.39 235.054 224.167 234.908 224.02C234.761 223.867 234.488 223.79 234.088 223.79C233.794 223.79 233.541 223.84 233.328 223.94C233.114 224.033 232.904 224.153 232.698 224.3L232.278 223.29C232.491 223.163 232.758 223.057 233.078 222.97C233.404 222.877 233.811 222.83 234.298 222.83C235.031 222.83 235.594 222.973 235.988 223.26C236.388 223.54 236.588 224 236.588 224.64V227.19C236.588 227.303 236.591 227.447 236.598 227.62C236.611 227.787 236.628 227.913 236.648 228H235.328ZM239.218 220.75V228H237.758V220.75H239.218Z" fill="black"/>
<path d="M322.5 165C322.5 163.619 323.619 162.5 325 162.5H415C416.381 162.5 417.5 163.619 417.5 165V229.759C417.5 230.674 417 231.516 416.197 231.954L371.197 256.499C370.451 256.906 369.549 256.906 368.803 256.499L323.803 231.954C323 231.516 322.5 230.674 322.5 229.759V165Z" fill="white" stroke="#38B455" stroke-width="5" stroke-linejoin="round"/>
<path d="M367.75 179V194H370.25V179H367.75ZM364 179.859C358.185 181.925 354 187.481 354 194C354 202.271 360.729 209 369 209C377.271 209 384 202.271 384 194C384 187.481 379.815 181.925 374 179.859V182.555C378.409 184.488 381.5 188.888 381.5 194C381.5 200.895 375.895 206.5 369 206.5C362.105 206.5 356.5 200.895 356.5 194C356.5 188.888 359.591 184.488 364 182.555V179.859Z" fill="#38B455"/>
<path d="M347.23 222.04V224.62H347.91C348.33 224.62 348.66 224.513 348.9 224.3C349.14 224.087 349.26 223.743 349.26 223.27C349.26 222.823 349.147 222.507 348.92 222.32C348.7 222.133 348.377 222.04 347.95 222.04H347.23ZM347.23 225.61V228H345.67V221.05H347.91C348.83 221.05 349.543 221.227 350.05 221.58C350.557 221.933 350.81 222.487 350.81 223.24C350.81 223.653 350.74 224.01 350.6 224.31C350.467 224.603 350.273 224.847 350.02 225.04C349.767 225.233 349.46 225.377 349.1 225.47C348.74 225.563 348.34 225.61 347.9 225.61H347.23ZM354.932 224.25C354.786 224.23 354.629 224.227 354.462 224.24C354.302 224.253 354.142 224.287 353.982 224.34C353.829 224.387 353.686 224.453 353.552 224.54C353.419 224.627 353.309 224.733 353.222 224.86V228H351.762V222.93H353.072L353.182 223.97H353.212C353.399 223.61 353.636 223.337 353.922 223.15C354.216 222.963 354.552 222.857 354.932 222.83V224.25ZM358.216 228.1C357.843 228.1 357.493 228.043 357.166 227.93C356.839 227.81 356.556 227.64 356.316 227.42C356.076 227.193 355.886 226.917 355.746 226.59C355.606 226.263 355.536 225.887 355.536 225.46C355.536 225.033 355.606 224.657 355.746 224.33C355.886 224.003 356.076 223.73 356.316 223.51C356.556 223.283 356.839 223.113 357.166 223C357.493 222.887 357.843 222.83 358.216 222.83C358.589 222.83 358.939 222.887 359.266 223C359.599 223.113 359.886 223.283 360.126 223.51C360.373 223.73 360.566 224.003 360.706 224.33C360.846 224.657 360.916 225.033 360.916 225.46C360.916 225.887 360.846 226.263 360.706 226.59C360.566 226.917 360.373 227.193 360.126 227.42C359.886 227.64 359.603 227.81 359.276 227.93C358.949 228.043 358.596 228.1 358.216 228.1ZM358.216 227.15C358.563 227.15 358.849 227.023 359.076 226.77C359.309 226.51 359.426 226.073 359.426 225.46C359.426 224.853 359.309 224.423 359.076 224.17C358.849 223.91 358.563 223.78 358.216 223.78C358.043 223.78 357.883 223.81 357.736 223.87C357.596 223.93 357.473 224.027 357.366 224.16C357.259 224.293 357.176 224.467 357.116 224.68C357.056 224.893 357.026 225.153 357.026 225.46C357.026 225.767 357.056 226.027 357.116 226.24C357.176 226.453 357.259 226.63 357.366 226.77C357.473 226.903 357.596 227 357.736 227.06C357.883 227.12 358.043 227.15 358.216 227.15ZM363.543 223.87V228H362.083V223.87H361.453V222.93H362.083V222.61C362.083 221.99 362.269 221.51 362.643 221.17C363.023 220.83 363.529 220.66 364.163 220.66C364.409 220.66 364.619 220.68 364.793 220.72C364.973 220.753 365.099 220.787 365.173 220.82L364.963 221.81C364.869 221.75 364.769 221.703 364.663 221.67C364.556 221.63 364.433 221.61 364.293 221.61C364.059 221.61 363.876 221.693 363.743 221.86C363.609 222.02 363.543 222.27 363.543 222.61V222.93H364.943V223.87H363.543ZM366.545 222.35C366.305 222.35 366.102 222.28 365.935 222.14C365.775 222 365.695 221.813 365.695 221.58C365.695 221.347 365.775 221.16 365.935 221.02C366.102 220.873 366.305 220.8 366.545 220.8C366.778 220.8 366.978 220.873 367.145 221.02C367.312 221.16 367.395 221.347 367.395 221.58C367.395 221.813 367.312 222 367.145 222.14C366.978 222.28 366.778 222.35 366.545 222.35ZM367.275 222.93V228H365.815V222.93H367.275ZM371.731 227.85C371.618 227.917 371.468 227.973 371.281 228.02C371.101 228.073 370.864 228.1 370.571 228.1C369.931 228.1 369.461 227.957 369.161 227.67C368.868 227.377 368.721 226.94 368.721 226.36V223.87H368.121V222.93H368.721V221.87H370.191V222.93H371.611V223.87H370.191V226.33C370.191 226.603 370.248 226.797 370.361 226.91C370.481 227.017 370.648 227.07 370.861 227.07C371.008 227.07 371.138 227.05 371.251 227.01C371.364 226.963 371.458 226.92 371.531 226.88L371.731 227.85ZM372.021 229.16L375.151 220.67H376.251L373.121 229.16H372.021ZM376.92 221.05H381.39V222.04H378.48V223.91H380.88V224.9H378.48V227.01H381.44V228H376.92V221.05ZM384.494 226.21L383.324 228H382.054L383.814 225.38L382.194 222.93H383.814L384.844 224.59L385.904 222.93H387.184L385.524 225.43L387.244 228H385.624L384.494 226.21ZM388.733 222.35C388.493 222.35 388.289 222.28 388.123 222.14C387.963 222 387.883 221.813 387.883 221.58C387.883 221.347 387.963 221.16 388.123 221.02C388.289 220.873 388.493 220.8 388.733 220.8C388.966 220.8 389.166 220.873 389.333 221.02C389.499 221.16 389.583 221.347 389.583 221.58C389.583 221.813 389.499 222 389.333 222.14C389.166 222.28 388.966 222.35 388.733 222.35ZM389.463 222.93V228H388.003V222.93H389.463ZM393.918 227.85C393.805 227.917 393.655 227.973 393.468 228.02C393.288 228.073 393.052 228.1 392.758 228.1C392.118 228.1 391.648 227.957 391.348 227.67C391.055 227.377 390.908 226.94 390.908 226.36V223.87H390.308V222.93H390.908V221.87H392.378V222.93H393.798V223.87H392.378V226.33C392.378 226.603 392.435 226.797 392.548 226.91C392.668 227.017 392.835 227.07 393.048 227.07C393.195 227.07 393.325 227.05 393.438 227.01C393.552 226.963 393.645 226.92 393.718 226.88L393.918 227.85Z" fill="black"/>
<path opacity="0.3" d="M139.707 45.7071C140.098 45.3166 140.098 44.6834 139.707 44.2929L133.343 37.9289C132.953 37.5384 132.319 37.5384 131.929 37.9289C131.538 38.3195 131.538 38.9526 131.929 39.3431L137.586 45L131.929 50.6569C131.538 51.0474 131.538 51.6805 131.929 52.0711C132.319 52.4616 132.953 52.4616 133.343 52.0711L139.707 45.7071ZM119 46L139 46L139 44L119 44L119 46Z" fill="black"/>
<path opacity="0.3" d="M300.707 45.7071C301.098 45.3166 301.098 44.6834 300.707 44.2929L294.343 37.9289C293.953 37.5384 293.319 37.5384 292.929 37.9289C292.538 38.3195 292.538 38.9526 292.929 39.3431L298.586 45L292.929 50.6569C292.538 51.0474 292.538 51.6805 292.929 52.0711C293.319 52.4616 293.953 52.4616 294.343 52.0711L300.707 45.7071ZM280 46L300 46L300 44L280 44L280 46Z" fill="black"/>
<path opacity="0.3" d="M139.707 204.707C140.098 204.317 140.098 203.683 139.707 203.293L133.343 196.929C132.953 196.538 132.319 196.538 131.929 196.929C131.538 197.319 131.538 197.953 131.929 198.343L137.586 204L131.929 209.657C131.538 210.047 131.538 210.681 131.929 211.071C132.319 211.462 132.953 211.462 133.343 211.071L139.707 204.707ZM119 205L139 205L139 203L119 203L119 205Z" fill="black"/>
<path opacity="0.3" d="M300.707 204.707C301.098 204.317 301.098 203.683 300.707 203.293L294.343 196.929C293.953 196.538 293.319 196.538 292.929 196.929C292.538 197.319 292.538 197.953 292.929 198.343L298.586 204L292.929 209.657C292.538 210.047 292.538 210.681 292.929 211.071C293.319 211.462 293.953 211.462 294.343 211.071L300.707 204.707ZM280 205L300 205L300 203L280 203L280 205Z" fill="black"/>
<path opacity="0.3" d="M48.2929 140.707C48.6834 141.098 49.3166 141.098 49.7071 140.707L56.0711 134.343C56.4616 133.953 56.4616 133.319 56.0711 132.929C55.6805 132.538 55.0474 132.538 54.6569 132.929L49 138.586L43.3431 132.929C42.9526 132.538 42.3195 132.538 41.9289 132.929C41.5384 133.319 41.5384 133.953 41.9289 134.343L48.2929 140.707ZM48 120L48 140L50 140L50 120L48 120Z" fill="black"/>
<rect opacity="0.3" y="153" width="100" height="2" fill="black"/>
<rect opacity="0.3" x="50" y="120" width="321" height="2" fill="black"/>
<rect opacity="0.3" x="369" y="120" width="15" height="2" transform="rotate(-90 369 120)" fill="black"/>
</svg>
