<svg width="30" height="31" viewBox="0 0 30 31" fill="none" 
  xmlns="http://www.w3.org/2000/svg">
  <path class="svg-stroke" d="M29.5 15.0015C29.5 23.0096 23.0081 29.5015 15 29.5015C6.99187 29.5015 0.5 23.0096 0.5 15.0015C0.5 6.99334 6.99187 0.501465 15 0.501465C23.0081 0.501465 29.5 6.99334 29.5 15.0015Z" stroke="white"/>
  <path class="svg-fill" fill-rule="evenodd" clip-rule="evenodd" d="M12.25 21.8764C12.625 21.8764 12.7907 21.7049 13 21.5014L15 19.5566L12.5053 18.0522" fill="white"/>
  <path class="svg-fill" fill-rule="evenodd" clip-rule="evenodd" d="M12.5054 18.0526L18.5504 22.5188C19.2402 22.8994 19.7381 22.7023 19.9099 21.8783L22.3705 10.283C22.6224 9.27293 21.9855 8.81483 21.3256 9.11443L6.87684 14.6858C5.89058 15.0814 5.89633 15.6316 6.69706 15.8768L10.4049 17.0341L18.9891 11.6185C19.3943 11.3727 19.7662 11.5048 19.461 11.7758" fill="white"/>
</svg>
