<svg width="20" height="20" viewBox="0 0 20 20" fill="none" 
  xmlns="http://www.w3.org/2000/svg">
  <path fill-rule="evenodd" clip-rule="evenodd" d="M10 20C15.5228 20 20 15.5228 20 10C20 4.47715 15.5228 0 10 0C4.47715 0 0 4.47715 0 10C0 15.5228 4.47715 20 10 20Z" fill="url(#paint0_linear)"/>
  <path fill-rule="evenodd" clip-rule="evenodd" d="M8.16732 14.5833C7.84335 14.5833 7.8984 14.461 7.78667 14.1525L6.83398 11.0171L14.1673 6.66663" fill="#C8DAEA"/>
  <path fill-rule="evenodd" clip-rule="evenodd" d="M8.16602 14.5834C8.41602 14.5834 8.52647 14.469 8.66602 14.3334L9.99935 13.0369L8.33618 12.0339" fill="#A9C9DD"/>
  <path fill-rule="evenodd" clip-rule="evenodd" d="M8.33627 12.0342L12.3663 15.0116C12.8261 15.2653 13.1581 15.1339 13.2726 14.5846L14.913 6.85437C15.081 6.18102 14.6563 5.87562 14.2164 6.07535L4.58391 9.7896C3.9264 10.0533 3.93023 10.4202 4.46406 10.5836L6.93597 11.3551L12.6587 7.74471C12.9289 7.58089 13.1768 7.66896 12.9733 7.84958" fill="url(#paint1_linear)"/>
  <defs>
    <linearGradient id="paint0_linear" x1="7.501" y1="0.834" x2="2.501" y2="12.5" gradientUnits="userSpaceOnUse">
      <stop stop-color="#37AEE2"/>
      <stop offset="1" stop-color="#1E96C8"/>
    </linearGradient>
    <linearGradient id="paint1_linear" x1="8.74778" y1="10.6143" x2="9.81626" y2="14.0705" gradientUnits="userSpaceOnUse">
      <stop stop-color="#EFF7FC"/>
      <stop offset="1" stop-color="white"/>
    </linearGradient>
  </defs>
</svg>
