<svg width="20" height="20" viewBox="0 0 20 20" fill="none" xmlns="http://www.w3.org/2000/svg">
<path fill-rule="evenodd" clip-rule="evenodd" d="M10 0C15.5228 0 20 4.47715 20 10C20 15.5228 15.5228 20 10 20C4.47715 20 0 15.5228 0 10C0 4.47715 4.47715 0 10 0Z" fill="#7F4DA0"/>
<path fill-rule="evenodd" clip-rule="evenodd" d="M12.6634 8.7327C12.6147 8.33757 12.4933 8.02732 12.2776 7.7525C11.9976 7.39864 11.6397 7.18674 11.1098 7.06104C10.7645 6.97726 10.625 6.98687 10.5001 7.10096C10.3838 7.20784 10.361 7.4221 10.4499 7.56086C10.5125 7.66156 10.5846 7.69764 10.7852 7.73702C11.0523 7.78617 11.2369 7.84995 11.4049 7.94597C11.7613 8.15178 11.9273 8.47384 11.945 8.99523C11.9533 9.24004 11.9745 9.3153 12.06 9.40213C12.2185 9.56085 12.5005 9.52998 12.6202 9.34005C12.6641 9.26846 12.6708 9.2373 12.6754 9.07106C12.6785 8.96815 12.674 8.81496 12.6634 8.7327Z" fill="white"/>
<path fill-rule="evenodd" clip-rule="evenodd" d="M14.0602 9.17817C13.9898 7.96761 13.5163 6.99364 12.6689 6.30838C12.1915 5.92334 11.6143 5.65857 10.9817 5.52981C10.75 5.48375 10.3233 5.44643 10.2501 5.46778C10.1811 5.48755 10.0834 5.56234 10.0398 5.62997C9.99379 5.70331 9.98341 5.86706 10.0227 5.96178C10.0861 6.12013 10.204 6.17607 10.5343 6.20497C11.0436 6.24952 11.5688 6.42842 11.9656 6.69327C12.4187 6.99483 12.7788 7.40728 13.0118 7.89196C13.2131 8.30839 13.3369 8.90852 13.3335 9.44593C13.3323 9.6403 13.3623 9.75006 13.4405 9.83031C13.5585 9.95371 13.7305 9.98069 13.8823 9.89873C14.0505 9.81027 14.0898 9.65498 14.0602 9.17817Z" fill="white"/>
<path fill-rule="evenodd" clip-rule="evenodd" d="M15.6042 13.8401C15.5806 13.7709 15.5253 13.6642 15.4858 13.6029C15.2371 13.2274 13.901 12.1817 13.2339 11.8398C12.853 11.6441 12.5708 11.5789 12.3616 11.6401C12.1366 11.7034 12.0182 11.8081 11.6412 12.2766C11.4893 12.4644 11.3333 12.6403 11.2919 12.668C11.1893 12.7391 10.9879 12.7965 10.8458 12.7965C10.5163 12.7945 9.91824 12.581 9.45839 12.3003C9.10116 12.0829 8.64331 11.6935 8.29199 11.3081C7.87751 10.8554 7.59531 10.4562 7.37227 10.0055C7.08414 9.42636 7.01111 9.07253 7.13149 8.81358C7.1611 8.74836 7.20058 8.6792 7.21832 8.65743C7.23609 8.63769 7.42162 8.48547 7.62685 8.31943C8.02949 7.99924 8.09462 7.92611 8.16961 7.7067C8.26434 7.42798 8.2387 7.14335 8.09265 6.85676C7.98014 6.63932 7.68608 6.16494 7.47293 5.85857C7.1907 5.45536 6.48809 4.59356 6.34795 4.4769C6.09533 4.27136 5.77168 4.23576 5.41442 4.37415C5.0375 4.52042 4.33092 5.08968 4.02895 5.48698C3.75659 5.84671 3.65202 6.10169 3.63621 6.43771C3.62241 6.71443 3.64608 6.82907 3.79214 7.1829C4.93486 9.95805 6.64004 12.1738 8.98275 13.933C10.2064 14.8521 11.4754 15.5519 12.7918 16.0302C13.5596 16.3089 13.8931 16.3227 14.2859 16.0935C14.4516 15.9946 14.8622 15.5736 15.0911 15.2672C15.47 14.7573 15.6102 14.522 15.6496 14.3343C15.6773 14.2058 15.6556 13.9824 15.6042 13.8401Z" fill="white"/>
<path fill-rule="evenodd" clip-rule="evenodd" d="M15.4811 9.45625C15.4558 8.77148 15.3406 8.2098 15.1001 7.58358C14.8628 6.96759 14.6226 6.56562 14.1689 6.02195C13.74 5.51219 13.4069 5.22113 12.8785 4.89713C12.1414 4.44572 11.2443 4.14699 10.239 4.02136C9.89615 3.97745 9.81859 3.98059 9.71341 4.05077C9.50958 4.18372 9.5123 4.51534 9.71677 4.6463C9.78446 4.68795 9.84452 4.70313 10.1188 4.73903C10.5397 4.7957 10.8105 4.84912 11.1317 4.93676C12.3913 5.28108 13.3599 5.9849 14.0075 7.02967C14.5494 7.9005 14.7743 8.7714 14.7424 9.88367C14.7313 10.2597 14.7394 10.3259 14.7968 10.4162C14.9069 10.5846 15.1972 10.6179 15.3461 10.4782C15.4388 10.393 15.4563 10.3291 15.4745 10.0073C15.4833 9.83937 15.4851 9.59153 15.4811 9.45625Z" fill="white"/>
</svg>
