<svg width="30" height="31" viewBox="0 0 30 31" fill="none" 
  xmlns="http://www.w3.org/2000/svg">
  <path class="svg-stroke" d="M29.5 15.0015C29.5 6.99334 23.0081 0.501465 15 0.501465C6.99187 0.501465 0.5 6.99334 0.5 15.0015C0.5 23.0096 6.99187 29.5015 15 29.5015C23.0081 29.5015 29.5 23.0096 29.5 15.0015Z" stroke="white"/>
  <path class="svg-fill" fill-rule="evenodd" clip-rule="evenodd" d="M18.9961 13.1003C18.9231 12.5076 18.7409 12.0422 18.4174 11.63C17.9973 11.0992 17.4605 10.7813 16.6657 10.5928C16.1477 10.4671 15.9384 10.4815 15.7511 10.6527C15.5766 10.813 15.5425 11.1344 15.6759 11.3425C15.7697 11.4936 15.8779 11.5477 16.1788 11.6067C16.5794 11.6805 16.8564 11.7761 17.1083 11.9202C17.6429 12.2289 17.8919 12.712 17.9185 13.4941C17.931 13.8613 17.9627 13.9742 18.091 14.1044C18.3287 14.3425 18.7518 14.2962 18.9312 14.0113C18.9971 13.9039 19.0071 13.8572 19.0141 13.6078C19.0187 13.4534 19.012 13.2237 18.9961 13.1003Z" fill="white"/>
  <path class="svg-fill" fill-rule="evenodd" clip-rule="evenodd" d="M21.0903 13.7685C20.9847 11.9527 20.2745 10.4917 19.0034 9.46386C18.2872 8.88629 17.4215 8.48913 16.4726 8.29599C16.125 8.22691 15.485 8.17092 15.3752 8.20295C15.2716 8.23261 15.1251 8.34479 15.0598 8.44623C14.9907 8.55625 14.9751 8.80188 15.034 8.94396C15.1291 9.18148 15.3061 9.26539 15.8015 9.30874C16.5653 9.37556 17.3531 9.64391 17.9484 10.0412C18.628 10.4935 19.1682 11.1122 19.5177 11.8392C19.8196 12.4639 20.0054 13.3641 20.0002 14.1702C19.9985 14.4617 20.0435 14.6264 20.1608 14.7468C20.3377 14.9318 20.5957 14.9723 20.8234 14.8494C21.0757 14.7167 21.1347 14.4838 21.0903 13.7685Z" fill="white"/>
  <path class="svg-fill" fill-rule="evenodd" clip-rule="evenodd" d="M23.4073 20.7619C23.3718 20.6581 23.2889 20.498 23.2297 20.4061C22.8567 19.8428 20.8525 18.2743 19.8519 17.7614C19.2805 17.4679 18.8572 17.37 18.5434 17.4619C18.2059 17.5568 18.0282 17.7139 17.4628 18.4166C17.2349 18.6983 17.001 18.9622 16.9388 19.0037C16.7849 19.1104 16.4829 19.1964 16.2697 19.1964C15.7754 19.1934 14.8783 18.8732 14.1886 18.4522C13.6527 18.1261 12.9659 17.542 12.439 16.9638C11.8172 16.2849 11.3939 15.686 11.0594 15.01C10.6272 14.1412 10.5176 13.6105 10.6982 13.2221C10.7426 13.1243 10.8018 13.0205 10.8285 12.9878C10.8551 12.9582 11.1334 12.7299 11.4413 12.4809C12.0452 12.0006 12.1429 11.8909 12.2554 11.5618C12.3975 11.1437 12.359 10.7167 12.1399 10.2868C11.9712 9.96069 11.5301 9.24912 11.2104 8.78957C10.787 8.18475 9.73312 6.89204 9.5229 6.71706C9.14397 6.40874 8.6585 6.35534 8.12261 6.56293C7.55722 6.78234 6.49736 7.63622 6.0444 8.23218C5.63586 8.77178 5.47901 9.15424 5.4553 9.65828C5.43459 10.0733 5.4701 10.2453 5.68918 10.7761C7.40327 14.9388 9.96104 18.2624 13.4751 20.9012C15.3106 22.2799 17.2141 23.3295 19.1887 24.047C20.3403 24.4651 20.8406 24.4858 21.4298 24.1419C21.6784 23.9936 22.2942 23.3621 22.6376 22.9026C23.206 22.1376 23.4162 21.7848 23.4754 21.5031C23.5169 21.3104 23.4843 20.9754 23.4073 20.7619Z" fill="white"/>
  <path class="svg-fill" fill-rule="evenodd" clip-rule="evenodd" d="M23.2217 14.1858C23.1838 13.1586 23.0108 12.3161 22.6502 11.3768C22.2942 10.4528 21.9339 9.84984 21.2534 9.03433C20.61 8.26969 20.1103 7.83309 19.3178 7.3471C18.2121 6.66998 16.8665 6.22189 15.3585 6.03344C14.8442 5.96758 14.7279 5.97228 14.5701 6.07756C14.2644 6.27699 14.2685 6.77441 14.5752 6.97085C14.6767 7.03333 14.7668 7.0561 15.1781 7.10994C15.8096 7.19496 16.2157 7.27508 16.6975 7.40655C18.5869 7.92303 20.0398 8.97875 21.0112 10.5459C21.8241 11.8522 22.1615 13.1585 22.1136 14.8269C22.0969 15.391 22.109 15.4902 22.1953 15.6257C22.3604 15.8783 22.7958 15.9283 23.0192 15.7187C23.1582 15.591 23.1844 15.495 23.2118 15.0123C23.2249 14.7605 23.2277 14.3887 23.2217 14.1858Z" fill="white"/>
</svg>
