<svg width="67" height="30" viewBox="0 0 67 30" fill="none" xmlns="http://www.w3.org/2000/svg">
<path d="M67 0H0V30H67V0Z" fill="#FFDA07"/>
<path d="M27.452 13.9846H26.2551L25.5838 11.3769C25.5589 11.2841 25.516 11.0928 25.455 10.803C25.3962 10.511 25.3623 10.3152 25.3533 10.2156C25.3397 10.3378 25.3058 10.5348 25.2515 10.8064C25.1973 11.0758 25.1555 11.2682 25.1261 11.3837L24.4581 13.9846H23.2647L22 9.02037H23.0341L23.6681 11.73C23.7789 12.2303 23.8592 12.6638 23.9089 13.0305C23.9224 12.9015 23.953 12.7023 24.0004 12.4329C24.0502 12.1612 24.0965 11.9507 24.1394 11.8013L24.8616 9.02037H25.8551L26.5772 11.8013C26.6089 11.9258 26.6484 12.116 26.6959 12.3718C26.7434 12.6275 26.7795 12.8471 26.8044 13.0305C26.827 12.8539 26.8632 12.6343 26.9129 12.3718C26.9626 12.1069 27.0078 11.893 27.0485 11.73L27.6792 9.02037H28.7133L27.452 13.9846Z" fill="black"/>
<path d="M32.3717 13.9846L32.0123 12.803H30.2051L29.8457 13.9846H28.7133L30.4628 9H31.7478L33.5041 13.9846H32.3717ZM31.7614 11.9201C31.4291 10.8494 31.2415 10.2439 31.1986 10.1035C31.1579 9.9632 31.1285 9.85228 31.1104 9.77078C31.0358 10.0605 30.8222 10.777 30.4696 11.9201H31.7614Z" fill="black"/>
<path d="M38.2441 11.455C38.2441 12.2722 38.0113 12.8981 37.5457 13.3327C37.0823 13.7673 36.4121 13.9846 35.5351 13.9846H34.1314V9.02037H35.6876C36.4969 9.02037 37.1252 9.23429 37.5728 9.66213C38.0203 10.09 38.2441 10.6876 38.2441 11.455ZM37.1524 11.4821C37.1524 10.4159 36.6822 9.88284 35.7419 9.88284H35.1825V13.1154H35.6334C36.646 13.1154 37.1524 12.571 37.1524 11.4821Z" fill="black"/>
<path d="M39.2715 13.9846V9.02037H40.3225V13.1154H42.3331V13.9846H39.2715Z" fill="black"/>
<path d="M43.1977 13.9846V9.02037H44.2488V13.9846H43.1977Z" fill="black"/>
<path d="M49.894 13.9846H48.5582L46.4018 10.2292H46.3713C46.4142 10.8924 46.4357 11.3655 46.4357 11.6485V13.9846H45.4965V9.02037H46.8222L48.9752 12.7385H48.9989C48.965 12.0933 48.9481 11.6372 48.9481 11.3701V9.02037H49.894V13.9846Z" fill="black"/>
<path d="M54 13.9846H51.1452V9.02037H54V9.88284H52.1962V10.9728H53.8745V11.8353H52.1962V13.1154H54V13.9846Z" fill="black"/>
<path d="M23.2579 19.8676V21.9321H22.6815V16.9678H24.0411C24.6491 16.9678 25.0978 17.0844 25.3872 17.3176C25.6787 17.5507 25.8245 17.9016 25.8245 18.3702C25.8245 19.0267 25.4923 19.4703 24.8277 19.7012L26.1738 21.9321H25.4923L24.292 19.8676H23.2579ZM23.2579 19.3719H24.0479C24.4548 19.3719 24.7531 19.2915 24.943 19.1308C25.1329 18.9678 25.2278 18.7245 25.2278 18.4007C25.2278 18.0725 25.1306 17.836 24.9362 17.6911C24.7441 17.5462 24.4344 17.4738 24.0072 17.4738H23.2579V19.3719Z" fill="black"/>
<path d="M30.0898 21.9321L29.4728 20.3532H27.4859L26.8756 21.9321H26.2924L28.2522 16.9475H28.737L30.6866 21.9321H30.0898ZM29.2931 19.8337L28.7167 18.2955C28.6421 18.1008 28.5652 17.862 28.4861 17.579C28.4364 17.7963 28.3652 18.0352 28.2725 18.2955L27.6893 19.8337H29.2931Z" fill="black"/>
<path d="M32.8938 21.9321H32.3174V17.4806H30.7476V16.9678H34.4637V17.4806H32.8938V21.9321Z" fill="black"/>
<path d="M35.213 21.9321V16.9678H35.7894V21.9321H35.213Z" fill="black"/>
<path d="M41.0244 21.9321H40.3666L37.6576 17.7658H37.6304C37.6666 18.2547 37.6847 18.7029 37.6847 19.1104V21.9321H37.1524V16.9678H37.8033L40.5056 21.1172H40.5327C40.5282 21.056 40.518 20.8602 40.5022 20.5297C40.4864 20.197 40.4808 19.9593 40.4853 19.8167V16.9678H41.0244V21.9321Z" fill="black"/>
<path d="M44.5675 19.3311H46.2526V21.7453C45.9904 21.8291 45.7237 21.8925 45.4524 21.9355C45.1812 21.9785 44.867 22 44.5099 22C43.7594 22 43.1751 21.777 42.7569 21.3311C42.3388 20.8829 42.1297 20.2558 42.1297 19.45C42.1297 18.9338 42.2325 18.4822 42.4382 18.0951C42.6462 17.7058 42.9445 17.4093 43.3333 17.2055C43.7221 16.9995 44.1776 16.8965 44.6997 16.8965C45.2286 16.8965 45.7214 16.9939 46.178 17.1885L45.9542 17.6979C45.5067 17.5077 45.0761 17.4126 44.6624 17.4126C44.0589 17.4126 43.5876 17.5926 43.2486 17.9525C42.9095 18.3125 42.74 18.8116 42.74 19.45C42.74 20.12 42.9027 20.6282 43.2282 20.9746C43.556 21.3209 44.0363 21.4941 44.6692 21.4941C45.0128 21.4941 45.3484 21.4545 45.6762 21.3752V19.8472H44.5675V19.3311Z" fill="black"/>
<rect width="2" height="13" transform="matrix(1 0 -0.261515 0.965199 17 9)" fill="black"/>
</svg>
