<svg width="30" height="31" viewBox="0 0 30 31" fill="none" 
  xmlns="http://www.w3.org/2000/svg">
  <path class="svg-stroke" fill-rule="evenodd" clip-rule="evenodd" d="M29 15.0015C29 22.7335 22.732 29.0015 15 29.0015C7.26801 29.0015 1 22.7335 1 15.0015C1 7.26948 7.26801 1.00146 15 1.00146C22.732 1.00146 29 7.26948 29 15.0015ZM15 30.0015C23.2843 30.0015 30 23.2857 30 15.0015C30 6.71719 23.2843 0.00146484 15 0.00146484C6.71573 0.00146484 0 6.71719 0 15.0015C0 23.2857 6.71573 30.0015 15 30.0015Z" fill="white"/>
  <path class="svg-fill" fill-rule="evenodd" clip-rule="evenodd" d="M11.7184 20.8069L11.4477 20.6462L8.64187 21.3823L9.3908 18.6466L9.21453 18.3661C8.47243 17.1857 8.08048 15.8215 8.08106 14.4207C8.08268 10.3332 11.4084 7.00781 15.4977 7.00781C17.4778 7.0085 19.3392 7.7806 20.7389 9.18191C22.1385 10.5832 22.9089 12.4458 22.9082 14.4267C22.9065 18.5145 19.5808 21.8403 15.4947 21.8403H15.4917C14.1614 21.8397 12.8567 21.4823 11.7184 20.8069ZM19.6831 16.3476C19.8385 16.4227 19.9435 16.4735 19.9883 16.5483C20.044 16.6412 20.044 17.0874 19.8584 17.6081C19.6726 18.1287 18.7822 18.6038 18.354 18.6678C17.9701 18.7252 17.4842 18.7491 16.9503 18.5795C16.6266 18.4768 16.2115 18.3396 15.6798 18.11C13.5904 17.2078 12.1785 15.1828 11.9116 14.8001C11.8929 14.7733 11.8798 14.7545 11.8725 14.7448L11.8707 14.7424C11.7528 14.585 10.9625 13.5306 10.9625 12.4393C10.9625 11.4127 11.4668 10.8746 11.6989 10.627C11.7148 10.61 11.7294 10.5944 11.7425 10.5801C11.9468 10.357 12.1883 10.3012 12.3368 10.3012C12.4854 10.3012 12.6341 10.3025 12.764 10.3091C12.78 10.3099 12.7967 10.3098 12.8139 10.3097C12.9438 10.3089 13.1057 10.308 13.2654 10.6916C13.3269 10.8393 13.4168 11.0582 13.5116 11.2891C13.7034 11.756 13.9153 12.2718 13.9526 12.3465C14.0083 12.458 14.0454 12.5881 13.9711 12.7369C13.96 12.7592 13.9497 12.7803 13.9398 12.8004C13.884 12.9143 13.843 12.9981 13.7483 13.1087C13.7111 13.1522 13.6726 13.199 13.6341 13.2459C13.5574 13.3393 13.4807 13.4326 13.414 13.4992C13.3024 13.6103 13.1863 13.7309 13.3163 13.954C13.4463 14.1771 13.8936 14.9069 14.5561 15.4979C15.2683 16.1331 15.8873 16.4016 16.2011 16.5377C16.2623 16.5643 16.312 16.5858 16.3484 16.6041C16.5711 16.7157 16.7012 16.697 16.8312 16.5483C16.9612 16.3995 17.3883 15.8975 17.5368 15.6744C17.6854 15.4514 17.834 15.4885 18.0383 15.5629C18.2426 15.6373 19.3383 16.1764 19.5612 16.288C19.6047 16.3097 19.6454 16.3294 19.6831 16.3476Z" fill="white"/>
</svg>
