<svg width="20" height="20" viewBox="0 0 20 20" fill="none" xmlns="http://www.w3.org/2000/svg">
<path fill-rule="evenodd" clip-rule="evenodd" d="M10 20C15.5228 20 20 15.5228 20 10C20 4.47715 15.5228 0 10 0C4.47715 0 0 4.47715 0 10C0 15.5228 4.47715 20 10 20Z" fill="#25D366"/>
<path fill-rule="evenodd" clip-rule="evenodd" d="M10.3303 15.5635H10.3278C9.33261 15.5632 8.35473 15.3135 7.48621 14.8397L4.33398 15.6666L5.17757 12.5853C4.65721 11.6835 4.38339 10.6606 4.38384 9.61256C4.38514 6.334 7.05266 3.66663 10.3302 3.66663C11.9209 3.66731 13.4139 4.28657 14.5366 5.41055C15.6592 6.53447 16.2772 8.02843 16.2765 9.61725C16.2752 12.8951 13.6088 15.5622 10.3303 15.5635ZM7.63182 13.7633L7.8123 13.8704C8.57112 14.3207 9.44096 14.559 10.3278 14.5593H10.3298C13.0539 14.5593 15.271 12.3421 15.2721 9.61696C15.2726 8.29634 14.759 7.05462 13.8259 6.12042C12.8928 5.18621 11.6519 4.67148 10.3318 4.67102C7.6056 4.67102 5.38845 6.88797 5.38737 9.61295C5.38699 10.5468 5.64828 11.4563 6.14302 12.2432L6.26053 12.4302L5.76125 14.254L7.63182 13.7633ZM13.3251 11.0313C13.288 10.9693 13.189 10.9322 13.0404 10.8578C12.8918 10.7834 12.1613 10.424 12.0251 10.3744C11.889 10.3248 11.7899 10.3 11.6908 10.4487C11.5918 10.5975 11.3071 10.9322 11.2204 11.0313C11.1337 11.1304 11.047 11.1429 10.8985 11.0685C10.7499 10.9941 10.2712 10.8373 9.70366 10.331C9.26197 9.93706 8.96378 9.45054 8.87711 9.30178C8.79044 9.15304 8.86787 9.07265 8.94225 8.99856C9.0091 8.93197 9.09084 8.82498 9.16513 8.73825C9.23941 8.65152 9.26417 8.5895 9.3137 8.49041C9.36322 8.39121 9.33846 8.30447 9.30131 8.2301C9.26417 8.15572 8.96703 7.42439 8.84322 7.12689C8.72261 6.83717 8.60012 6.87642 8.50893 6.87184C8.42236 6.86749 8.3232 6.86658 8.22416 6.86658C8.12512 6.86658 7.96414 6.90376 7.82796 7.05251C7.69177 7.20126 7.30794 7.56072 7.30794 8.292C7.30794 9.02334 7.84033 9.72984 7.91462 9.82899C7.98891 9.92819 8.96231 11.4289 10.4528 12.0725C10.8073 12.2256 11.084 12.317 11.2998 12.3854C11.6557 12.4986 11.9796 12.4826 12.2356 12.4443C12.5211 12.4017 13.1147 12.0849 13.2385 11.7379C13.3623 11.3907 13.3623 11.0933 13.3251 11.0313Z" fill="#FDFDFD"/>
</svg>
