<svg width="30" height="16" viewBox="0 0 30 16" fill="none" xmlns="http://www.w3.org/2000/svg">
<path d="M15 0.5C7.18506 0.5 1.17188 7.38477 1.17188 7.38477L0.615234 8L1.17188 8.61523C1.17188 8.61523 6.65405 14.8665 13.9453 15.4414C14.2932 15.4854 14.6411 15.5 15 15.5C15.3589 15.5 15.7068 15.4854 16.0547 15.4414C23.3459 14.8665 28.8281 8.61523 28.8281 8.61523L29.3848 8L28.8281 7.38477C28.8281 7.38477 22.8149 0.5 15 0.5ZM15 2.375C17.0654 2.375 18.9697 2.93897 20.625 3.69336C21.2219 4.68213 21.5625 5.82104 21.5625 7.0625C21.5625 10.45 19.021 13.2332 15.7324 13.5957C15.7141 13.5994 15.6921 13.592 15.6738 13.5957C15.4504 13.6067 15.2271 13.625 15 13.625C14.751 13.625 14.5093 13.6104 14.2676 13.5957C10.979 13.2332 8.4375 10.45 8.4375 7.0625C8.4375 5.83936 8.76709 4.70044 9.3457 3.72266H9.31641C10.9863 2.95361 12.9126 2.375 15 2.375ZM15 4.25C13.4473 4.25 12.1875 5.50977 12.1875 7.0625C12.1875 8.61523 13.4473 9.875 15 9.875C16.5527 9.875 17.8125 8.61523 17.8125 7.0625C17.8125 5.50977 16.5527 4.25 15 4.25ZM6.79688 5.12891C6.65039 5.75879 6.5625 6.39233 6.5625 7.0625C6.5625 8.70679 7.03125 10.2449 7.85156 11.5449C5.4895 10.179 3.84888 8.54932 3.31055 8C3.76099 7.53857 5.01709 6.31543 6.79688 5.12891ZM23.2031 5.12891C24.9829 6.31543 26.239 7.53857 26.6895 8C26.1511 8.54932 24.5105 10.179 22.1484 11.5449C22.9688 10.2449 23.4375 8.70679 23.4375 7.0625C23.4375 6.39233 23.3496 5.75147 23.2031 5.12891Z" fill="#FD0037"/>
</svg>
